<svg width="120" height="25" viewBox="0 0 120 25" fill="none" xmlns="http://www.w3.org/2000/svg">
<path d="M0 24.428L80.43 24.4245C83.4058 24.4245 91.2358 24.02 99.5123 20.2842C108.19 16.3712 114.744 10.0846 119.05 1.5481H116.209C112.157 9.00709 106.207 14.537 98.4583 18.0268C90.6384 21.5565 83.2396 21.9286 80.43 21.9286L1.19107 21.9463" fill="#A90E13"/>
<path d="M22.1887 16.3151H18.1881L18.8451 12.3334L15.3912 16.3151H11.6519L13.6839 7.38403H17.2292L16.1941 11.7815L19.6506 7.38403H22.5642L22.1355 11.7815L25.5754 7.38403H29.5621L22.1887 16.3151Z" fill="#A90E13"/>
<path d="M31.6399 16.3151L33.2623 13.1799H31.3203L29.6929 16.3151H25.7734L30.5656 7.38403H34.3734L32.713 10.6154H34.6233L36.2875 7.38403H40.5519L35.9374 16.3151H31.6399Z" fill="#A90E13"/>
<path d="M45.3621 13.2059H43.4519L45.7718 10.499L45.3621 13.2059ZM49.0064 16.3148L49.9564 7.38379H44.8776L36.8992 16.3148H41.0875L42.0731 15.1549H45.0996L44.9448 16.3148H49.0064Z" fill="#A90E13"/>
<path d="M49.8713 16.3151L54.491 7.38403H58.8988L55.6605 13.6269H60.1837L58.796 16.3151H49.8713Z" fill="#A90E13"/>
<path d="M59.8823 16.3151L64.9979 7.38403H74.2182L72.8203 10.0897H67.3889L66.9488 10.8988H70.2581L69.2903 12.7616H65.8592L65.3797 13.5932H70.6894L69.3258 16.3151H59.8823Z" fill="#A90E13"/>
<path d="M80.888 10.7003C80.7725 11.04 80.392 11.1373 80.1459 11.1373H77.8387L78.3752 10.0897H80.5277C80.7725 10.0897 80.9996 10.3481 80.888 10.7003ZM82.9149 16.3151L81.8139 13.4509C81.8139 13.4509 84.8937 12.5794 85.3681 10.4793C85.8323 8.38165 84.2201 7.38403 81.8989 7.38403H75.9563L71.1743 16.3151H75.1965L76.5778 13.6207H77.6585L78.464 16.3151H82.9149Z" fill="#A90E13"/>
<path d="M100.171 24.56C99.5478 24.56 99.1089 24.1079 99.1089 23.4899C99.1089 22.8519 99.6036 22.4312 100.171 22.4312C100.736 22.4312 101.236 22.8519 101.236 23.4899C101.236 24.1379 100.736 24.56 100.171 24.56ZM100.171 22.6197C99.7076 22.6197 99.3385 22.9768 99.3385 23.4899C99.3385 23.9756 99.6581 24.3752 100.171 24.3752C100.635 24.3752 101 24.018 101 23.4899C101 22.9768 100.635 22.6197 100.171 22.6197ZM99.9638 24.1079H99.7671V22.9269H100.219C100.507 22.9269 100.65 23.0256 100.65 23.2613C100.65 23.4747 100.523 23.571 100.342 23.5873L100.688 24.1079H100.457L100.152 23.5985H99.9639L99.9638 24.1079ZM100.177 23.435C100.333 23.435 100.457 23.4209 100.457 23.2513C100.457 23.1041 100.314 23.0853 100.194 23.0853H99.9638V23.435H100.177Z" fill="#A90E13"/>
<path d="M23.4795 2.14628C24.0084 2.14628 24.2964 2.54955 24.1353 3.12015C23.9463 3.82185 23.3146 4.36745 22.6931 4.36745C22.1362 4.36745 21.8787 3.9754 22.0436 3.36237C22.2288 2.68063 22.8415 2.14628 23.4795 2.14628ZM22.3721 5.33511C23.0723 5.33511 23.7256 5.06684 24.2786 4.56225C24.7365 4.14773 25.0612 3.62209 25.2248 3.02278C25.5102 1.9415 24.9585 1.18359 23.7953 1.18359C23.1053 1.18359 22.4394 1.44693 21.8914 1.95149C21.436 2.371 21.1265 2.89169 20.9692 3.48102C20.8031 4.03162 20.8842 4.54351 21.1633 4.86689C21.4271 5.18295 21.8292 5.33511 22.3721 5.33511Z" fill="#A90E13"/>
<path d="M36.5362 2.14628C37.0676 2.14628 37.3492 2.54955 37.1958 3.12015C37.0055 3.82185 36.3789 4.36745 35.7586 4.36745C35.198 4.36745 34.9506 3.9754 35.113 3.36237C35.2931 2.68063 35.9108 2.14628 36.5362 2.14628ZM35.444 5.33511C36.1353 5.33511 36.7911 5.06684 37.3378 4.56225C37.8021 4.14773 38.1204 3.62209 38.2815 3.02278C38.5783 1.9415 38.0253 1.18359 36.8659 1.18359C36.1835 1.18359 35.5049 1.44693 34.9557 1.95149C34.5054 2.371 34.1845 2.89169 34.0246 3.48102C33.8826 4.03162 33.96 4.54351 34.2327 4.86689C34.4889 5.18295 34.8923 5.33511 35.444 5.33511Z" fill="#A90E13"/>
<path d="M31.6706 2.18724H30.2296L30.7002 1.2583H34.4814L34.0007 2.18724H32.736L31.1645 5.23625H30.0964L31.6706 2.18724Z" fill="#A90E13"/>
<path d="M40.168 1.25806H41.3832L41.5925 3.77517L42.7823 1.25806H43.9074L41.85 5.236H40.7972L40.508 2.56654L39.1939 5.236H38.103L40.168 1.25806Z" fill="#A90E13"/>
<path d="M18.1379 2.803L18.5108 2.02263H18.8698C19.2909 2.02263 19.4774 2.14119 19.3937 2.37722C19.2909 2.73933 18.9269 2.803 18.3713 2.803H18.1379ZM17.3071 4.45738L17.7624 3.5272H18.1785C18.6935 3.5272 18.9117 3.64326 18.8203 3.94796C18.6783 4.4099 18.2686 4.45738 17.6026 4.45738H17.3071ZM19.334 3.16758C20.0025 3.09645 20.5149 2.72936 20.6672 2.20371C20.7775 1.82412 20.6114 1.50952 20.2346 1.37343C19.9353 1.26372 19.4977 1.25732 18.8698 1.25732H18.6935H17.7092L15.7317 5.23527H17.061H17.4136C18.1455 5.23527 18.6897 5.22468 19.1159 5.03426C19.5623 4.83571 19.9124 4.47613 20.0393 4.06412C20.1851 3.57967 19.9353 3.25999 19.334 3.16758Z" fill="#A90E13"/>
<path d="M27.6967 3.98502C27.764 3.73267 27.5268 3.63283 27.1843 3.46684L27.1018 3.43147C26.5348 3.1731 26.2507 2.94329 26.3649 2.49006C26.5463 1.73467 27.3834 1.20776 28.3994 1.20776C28.9157 1.20776 29.4827 1.40882 29.8493 1.68722C29.801 1.73465 29.6692 1.90701 29.555 2.08178C29.555 2.08178 29.3431 2.35395 29.3279 2.37519C29.0349 2.15929 28.4869 1.9769 28.2307 1.9769C27.944 1.9769 27.6891 2.12909 27.6358 2.33274C27.594 2.53235 27.7994 2.64101 28.076 2.75349L28.3296 2.87344C28.9156 3.16543 29.0793 3.42159 28.9702 3.87231C28.7596 4.70262 27.8717 5.21579 26.6363 5.21579C26.0071 5.21579 25.5112 5.00733 25.1624 4.60899C25.1879 4.57714 25.5023 4.22815 25.5023 4.22815C25.5023 4.22815 25.7826 3.91489 25.7966 3.88835C26.1454 4.24419 26.6667 4.38158 27.0143 4.38158C27.3745 4.38158 27.6359 4.22088 27.6967 3.98502Z" fill="#A90E13"/>
<path d="M82.9785 4.06342C83.6558 4.06342 83.5949 3.59023 83.8664 3.59023H111.36C111.639 3.59023 111.67 3.36406 111.378 3.35309C111.378 3.35309 110.237 3.29186 108.781 2.79247C107.595 2.38545 106.72 1.82108 106.72 1.82108C106.497 1.68623 106.412 1.78499 106.602 1.98461L107.16 2.56516C107.34 2.77858 107.239 2.89221 106.956 2.89221H106.863C106.588 2.89221 105.115 2.52512 103.983 1.94702C102.843 1.3577 101.902 0.576105 101.902 0.576105C101.71 0.423917 101.607 0.513798 101.782 0.723323L103.494 2.55128C103.677 2.77213 103.574 2.8921 103.318 2.8921H83.8679C83.5965 2.8921 83.6574 2.41891 82.98 2.41891H46.7688V4.06325L82.9785 4.06342Z" fill="#A90E13"/>
</svg>
