<svg width="81" height="27" viewBox="0 0 81 27" fill="none" xmlns="http://www.w3.org/2000/svg">
<path d="M38.822 6.11014C40.3299 5.83422 41.3044 6.43828 42.1102 7.38538C46.2311 5.26185 49.314 5.57693 51.9059 8.44808C53.1107 7.27352 54.5131 6.41963 56.2359 6.1493C60.4699 5.48558 63.622 7.46555 64.0056 11.5802C64.3529 15.3016 64.0785 19.0769 64.0785 22.8821H60.727C60.727 20.7884 60.7385 18.719 60.7232 16.6476C60.7116 15.1561 60.8076 13.6478 60.6004 12.1806C60.3107 10.1279 58.7452 8.99435 56.798 9.17146C54.7126 9.36163 53.2335 10.8643 53.22 12.8667C53.2009 15.8534 53.2143 18.8383 53.2143 21.825V22.8803H49.7591C49.7591 20.7511 49.7821 18.6481 49.7514 16.547C49.7303 15.089 49.9068 13.6236 49.6267 12.1731C49.2488 10.2081 47.7946 9.04655 45.8723 9.164C43.8637 9.28705 42.3385 10.6518 42.279 12.6206C42.1869 15.667 42.2426 18.7152 42.2311 21.7635C42.2311 22.1271 42.1985 22.4906 42.1793 22.8859H38.8181V6.11014H38.822Z" fill="#5C77DE"/>
<path d="M15.2192 9.00183C12.3664 5.56391 8.49304 5.17985 3.28633 7.81795C2.26954 6.26492 1.28153 5.76899 0 6.23695V27.0043H3.37266V21.3646C8.2494 23.9635 12.259 23.5403 15.1597 20.1714C17.7477 17.1678 17.7746 12.0799 15.2192 9.00183ZM8.42206 19.9756C5.3813 19.9886 3.3554 17.8744 3.3247 14.6584C3.294 11.3938 5.31799 9.16776 8.33573 9.14912C11.3803 9.13048 13.5597 11.3379 13.5923 14.4757C13.6269 17.6731 11.4763 19.9625 8.42206 19.9756Z" fill="#5C77DE"/>
<path d="M27.6815 6.00391C22.6858 5.99832 18.7741 9.72522 18.7741 14.4869C18.7676 15.6153 18.9913 16.7338 19.432 17.7779C19.8728 18.8219 20.522 19.7707 21.3421 20.5696C22.1622 21.3685 23.137 22.0017 24.2103 22.4325C25.2835 22.8633 26.434 23.0833 27.5952 23.0798C32.6119 23.0966 36.5486 19.338 36.5506 14.5316C36.5506 9.75692 32.6522 6.00764 27.6815 6.00391ZM27.6374 19.7892C24.658 19.7892 22.5131 17.6004 22.5151 14.5596C22.5151 11.4927 24.706 9.25913 27.7026 9.26845C30.634 9.27963 32.7846 11.5225 32.7827 14.567C32.7808 17.5817 30.6072 19.7873 27.6374 19.7892Z" fill="#5C77DE"/>
<path d="M70.8143 22.8802H67.4167V21.3067C67.4167 16.9906 67.432 12.6727 67.4071 8.35669C67.3994 7.14484 67.8502 6.27045 69.1586 6.28722C70.396 6.30214 70.8776 7.15789 70.8757 8.3194C70.8642 12.9151 70.8718 17.5127 70.868 22.1084C70.868 22.3489 70.8354 22.5894 70.8124 22.8784L70.8143 22.8802Z" fill="#5C77DE"/>
<path d="M71.4744 2.21535C71.4663 2.8117 71.2185 3.38131 70.7839 3.8024C70.3493 4.22348 69.7624 4.46263 69.1487 4.46872C68.535 4.47481 67.9433 4.24735 67.4999 3.83497C67.0565 3.4226 66.7968 2.85803 66.7761 2.26196C66.7819 1.66413 67.0288 1.09236 67.4636 0.669448C67.8984 0.246537 68.4866 0.00622185 69.1018 0.000119122C69.7169 -0.00598361 70.31 0.222612 70.7537 0.636809C71.1973 1.051 71.4561 1.61776 71.4744 2.21535Z" fill="#8BDD3B"/>
<path d="M80.3587 23.1523H79.9319L79.9274 20.8846L78.8025 22.7743H78.5979L77.473 20.898V23.1523H77.0461V20.0398H77.4107L78.7091 22.2274L79.9897 20.0398H80.3543L80.3587 23.1523Z" fill="#A6A8AB"/>
<path d="M75.1916 23.1879C74.7159 23.1879 74.249 23.0278 74 22.7966L74.1645 22.4498C74.3957 22.6588 74.7915 22.81 75.1916 22.81C75.7296 22.81 75.9609 22.601 75.9609 22.3297C75.9609 21.5694 74.0756 22.0496 74.0756 20.8936C74.0756 20.4133 74.4491 20.0043 75.2672 20.0043C75.6318 20.0043 76.0098 20.1021 76.2677 20.2799L76.1209 20.6357C75.8497 20.4623 75.5429 20.3822 75.2672 20.3822C74.7381 20.3822 74.5113 20.6045 74.5113 20.8758C74.5113 21.6361 76.3966 21.1603 76.3966 22.3031C76.3966 22.7788 76.0142 23.1879 75.1916 23.1879Z" fill="#A6A8AB"/>
</svg>
