<svg width="124" height="25" viewBox="0 0 124 25" fill="none" xmlns="http://www.w3.org/2000/svg">
<g clip-path="url(#clip0_1751_28569)">
<path d="M12.7987 13.8936C13.5131 13.6567 14.1216 13.3068 14.1315 12.5273C14.1413 11.6935 13.5649 11.2398 12.7546 10.9832C13.0143 8.3784 14.0972 5.92448 15.8457 3.97835C16.9469 2.70426 18.3152 1.68912 19.8531 1.00529C21.3911 0.321472 23.0607 -0.0141868 24.7431 0.0222502C52.4813 0.0247208 80.221 0.0173089 107.962 1.45254e-05C110.56 -0.023611 113.098 0.785895 115.204 2.31012C117.31 3.83434 118.873 5.9933 119.666 8.47119C121.472 13.9615 119.282 20.1968 114.402 23.2082C112.634 24.3054 110.591 24.8784 108.511 24.8607C80.4369 24.8548 52.3623 24.8526 24.2872 24.8542C17.8212 24.8542 13.1778 19.2481 12.7984 13.8908L12.7987 13.8936ZM56.4822 21.8231C57.1423 21.8231 57.6694 21.786 58.1919 21.833C58.8275 21.8898 59.0169 21.6258 59.0095 21.0189C58.9848 19.11 58.9996 17.1984 58.9996 15.2895C59.103 15.2895 59.2066 15.2846 59.3099 15.2821C59.5835 17.2651 59.8444 19.253 60.1522 21.2311C60.1868 21.4506 60.5143 21.8058 60.6596 21.7836C60.7991 21.7535 60.9296 21.6913 61.0408 21.6018C61.1519 21.5123 61.2407 21.3981 61.2999 21.2681C61.419 20.7513 61.4981 20.2261 61.5365 19.6971C61.7384 18.279 61.9413 16.8607 62.145 15.4424C62.2483 15.4473 62.3545 15.4547 62.4578 15.4597C62.4578 17.3318 62.443 19.2036 62.4775 21.0733C62.4824 21.3225 62.7215 21.7564 62.8964 21.7786C63.551 21.8322 64.2084 21.8437 64.8645 21.8132C64.8866 21.6597 64.8989 21.505 64.9015 21.35C64.4434 16.2864 63.9807 11.2216 63.5135 6.15559C63.4987 5.98543 63.3757 5.68957 63.2819 5.68216C62.7359 5.59236 62.1786 5.59653 61.634 5.69451C61.4489 5.74392 61.3604 6.35787 61.3255 6.72291C61.1235 8.77014 60.9536 10.8195 60.7703 12.8686H60.684C60.4681 10.4786 60.2503 8.09349 60.0264 5.65683C59.6871 5.63707 59.4129 5.61236 59.1397 5.60989C57.9843 5.60248 57.9719 5.60248 57.8637 6.75256C57.5583 9.97858 57.2595 13.2055 56.9671 16.4334C56.807 18.1795 56.6543 19.9284 56.4869 21.82L56.4822 21.8231ZM82.2671 21.7048C82.5284 19.5097 81.8902 15.9297 80.8459 14.128C80.5504 13.6175 80.5374 13.3019 80.9075 12.8207C82.0753 11.2988 82.0777 8.96809 80.984 7.30567C80.0628 5.90235 78.2597 5.29056 76.2323 5.73713V18.703C76.2323 19.5415 76.2077 20.3827 76.2496 21.2187C76.2624 21.3385 76.3041 21.4534 76.371 21.5535C76.438 21.6536 76.5282 21.7359 76.6339 21.7934C78.2226 22.161 78.5823 21.8602 78.5798 20.2471V15.1021C78.8629 15.2653 79.0714 15.5325 79.1612 15.8469C79.4388 17.1814 79.7944 18.5131 79.9051 19.8617C80.0825 21.9976 80.0085 22.005 82.1394 21.7854C82.1641 21.7854 82.1838 21.7545 82.2649 21.7014L82.2671 21.7048ZM36.4632 18.8043V20.2422C36.4632 21.7196 36.845 22.1044 38.3329 22.0229C38.7483 21.9924 39.1539 21.8819 39.5274 21.6974C41.0523 20.9562 41.4807 19.5665 41.5696 18.0223C41.6951 15.8791 41.0104 13.9084 40.296 11.9254C39.7381 10.4694 39.3148 8.96518 39.0315 7.43167C38.7483 5.69544 39.4846 5.07376 41.2522 5.32052C41.2522 4.5608 41.2867 3.81096 41.2275 3.06854C41.1904 2.94579 41.1268 2.83269 41.0413 2.73723C40.9557 2.64177 40.8503 2.56626 40.7325 2.51604C39.1857 1.85021 37.4835 2.56051 36.7025 4.218C36.0916 5.49272 35.9351 6.93844 36.259 8.31461C36.6976 10.1818 37.3823 11.9872 37.8823 13.8427C38.2612 15.1193 38.5282 16.4266 38.6805 17.7496C38.7887 18.9288 38.0636 19.3478 36.9489 18.9655C36.8481 18.9309 36.7444 18.8988 36.4588 18.8052L36.4632 18.8043ZM44.0197 5.75689C43.4852 11.045 42.9482 16.3676 42.4014 21.7592H44.7341C44.7908 21.0612 44.8081 20.4173 44.9114 19.7885C44.9558 19.522 45.1504 19.098 45.3303 19.0708C45.9092 18.9782 45.7639 19.505 45.7981 19.8281C45.8524 20.3262 45.8426 20.8342 45.9187 21.3302C45.9459 21.5053 46.1347 21.7792 46.266 21.7888C46.9162 21.8358 47.5741 21.8111 48.2514 21.8111C48.2514 21.5022 48.2662 21.3376 48.2514 21.1724C47.8196 16.7524 47.3878 12.3334 46.956 7.9153C46.7145 5.41193 46.7219 5.41193 44.2242 5.63645C44.1995 5.63645 44.1773 5.66363 44.0197 5.75473V5.75689ZM95.8615 7.98046C95.8615 7.41561 95.8307 6.915 95.8689 6.41933C95.9158 5.83256 95.6645 5.56604 95.1102 5.43108C94.7355 5.34058 94.3462 5.32919 93.9669 5.39763C93.5876 5.46608 93.2267 5.61285 92.9072 5.82862C92.5876 6.04438 92.3165 6.32441 92.1109 6.65086C91.9054 6.97731 91.7701 7.34304 91.7134 7.72475C91.5002 8.62107 91.4676 9.55096 91.6175 10.46C92.0142 12.2235 92.6742 13.9254 93.1523 15.6715C93.4208 16.6069 93.5876 17.5687 93.6498 18.5399C93.6917 19.4006 93.1325 19.7215 92.3121 19.4896C92.1644 19.4476 92.0117 19.4179 91.7776 19.3614C91.8054 19.8544 91.8021 20.3487 91.7677 20.8413C91.657 21.6752 92.1274 21.9266 92.8146 22.0325C94.4428 22.2842 95.8813 21.0041 96.0636 19.1789C96.2681 17.1406 95.7039 15.2648 94.9921 13.3877C94.5182 12.1653 94.1669 10.8988 93.9434 9.60675C93.7192 8.25501 94.4532 7.65588 95.8671 7.97892L95.8615 7.98046ZM65.9872 5.66424V12.4801C65.9872 15.3287 66.002 18.1802 65.9724 21.0288C65.965 21.6529 66.1472 21.8747 66.778 21.8354C67.5565 21.786 68.3396 21.8429 69.1221 21.8107C69.3315 21.8009 69.701 21.6455 69.7109 21.5371C69.796 20.9044 69.7768 20.2619 69.6541 19.6354C69.6072 19.4602 68.8682 19.4701 68.4472 19.3883C68.4003 19.3784 68.3608 19.329 68.3436 19.3166V15.1811C69.8783 15.0267 70.08 14.641 69.6196 12.8553C69.2007 12.8183 68.7674 12.7787 68.3436 12.7395V8.05056C68.6758 8.05964 69.0081 8.03814 69.3364 7.98633C69.499 7.94433 69.7257 7.7371 69.7355 7.59164C69.7799 6.96256 69.7553 6.32884 69.7553 5.66795H65.9924L65.9872 5.66424ZM71.7117 8.08392V9.12467C71.7117 13.0119 71.7425 16.8988 71.6894 20.786C71.6771 21.669 71.9556 21.9596 72.7807 21.8243C72.8639 21.8107 72.9488 21.8107 73.032 21.8243C73.8303 21.9574 74.0764 21.6443 74.0665 20.8231C74.0246 16.909 74.0468 12.9921 74.0468 9.07804V8.02802C74.4094 8.03279 74.7718 8.00884 75.1306 7.95637C75.2981 7.91684 75.5421 7.72197 75.5519 7.58392C75.5964 6.95484 75.5717 6.32359 75.5717 5.66919H70.2959C69.9462 7.66206 70.0347 7.82481 71.7123 8.08639L71.7117 8.08392ZM91.0589 7.94618C91.0589 7.49004 91.0614 7.05058 91.0589 6.60926C91.0515 5.48204 90.608 5.08735 89.5242 5.41317C88.9677 5.57954 88.4686 5.89817 88.0832 6.33317C87.607 6.91569 87.2406 7.58009 87.0018 8.29392C86.0457 11.2019 86.1151 14.179 86.5315 17.1681C86.6727 18.5371 87.163 19.8467 87.9552 20.9713C88.6152 21.8518 89.6278 22.2613 90.5152 21.9704C90.6342 21.9286 90.7421 21.8602 90.8308 21.7705C90.9196 21.6808 90.9868 21.572 91.0275 21.4525C91.0916 20.8064 91.0522 20.1502 91.0522 19.4695C89.882 19.7407 89.5791 19.593 89.2195 18.5792C89.0786 18.1568 88.9805 17.7213 88.9265 17.2793C88.5397 14.4896 88.4487 11.7052 89.2195 8.96254C89.5223 7.87978 89.9215 7.67997 91.0571 7.9434L91.0589 7.94618ZM51.4276 19.3787V11.4245C51.4276 9.83127 51.3882 8.23802 51.4449 6.64447C51.4721 5.86251 51.2799 5.49254 50.4376 5.61113C50.0023 5.64407 49.5653 5.64737 49.1295 5.62101V21.8182C50.2059 21.8182 51.2306 21.8354 52.2555 21.7984C52.3493 21.7693 52.4341 21.7166 52.5018 21.6453C52.5695 21.5741 52.6179 21.4866 52.6422 21.3914C52.6867 20.7647 52.6595 20.131 52.6595 19.4846C52.2015 19.4451 51.8761 19.4155 51.4304 19.3787H51.4276ZM83.0508 5.66301V21.828C83.4578 21.8026 83.866 21.8059 84.2725 21.8379C85.1519 21.971 85.3317 21.5936 85.3243 20.7675C85.2848 16.0196 85.307 11.2716 85.3045 6.52619C85.3045 6.25472 85.2799 5.9811 85.2626 5.66146H83.0505L83.0508 5.66301ZM53.4349 5.65313V21.8305C53.842 21.8105 54.2498 21.813 54.6566 21.8379C55.4474 21.9306 55.6936 21.643 55.6862 20.8243C55.6467 16.0492 55.6689 11.2744 55.6664 6.49932C55.6664 6.23033 55.6356 5.95918 55.6195 5.65096H53.4346L53.4349 5.65313ZM19.7622 20.6082C19.7583 20.2421 19.6167 19.8909 19.3657 19.6246C19.1147 19.3584 18.7727 19.1967 18.4079 19.1718C17.7552 19.157 17.0236 19.8945 17.0039 20.585C16.9842 21.2755 17.6936 21.9466 18.4326 21.9438C18.7846 21.9396 19.121 21.7973 19.3696 21.5477C19.6181 21.298 19.7591 20.9607 19.7622 20.6082ZM24.0522 5.69173C24.2261 5.69875 24.3997 5.67086 24.5626 5.6097C24.7256 5.54854 24.8747 5.45534 25.0012 5.33559C25.1277 5.21584 25.2289 5.07197 25.299 4.91244C25.3691 4.75291 25.4066 4.58095 25.4093 4.40669C25.4218 4.21825 25.3943 4.02928 25.3286 3.85226C25.2629 3.67523 25.1605 3.51417 25.028 3.37969C24.8956 3.24522 24.7362 3.14038 24.5603 3.07211C24.3844 3.00384 24.1961 2.97367 24.0078 2.98361C23.644 3.00742 23.3025 3.16762 23.0514 3.43227C22.8002 3.69693 22.6579 4.04662 22.6528 4.41163C22.6909 4.75818 22.8534 5.07906 23.1102 5.31455C23.3669 5.55004 23.7004 5.68408 24.0485 5.69173H24.0522ZM25.4266 12.5067C25.4301 12.1417 25.2935 11.7892 25.0451 11.5221C24.7966 11.255 24.4552 11.0936 24.0914 11.0712C23.7266 11.0838 23.3793 11.2303 23.1154 11.4826C22.8515 11.735 22.6895 12.0757 22.6602 12.4399C22.669 12.7897 22.8099 13.1232 23.0544 13.3731C23.299 13.623 23.6291 13.7708 23.9782 13.7868C24.1588 13.8054 24.3413 13.7865 24.5142 13.731C24.6872 13.6756 24.8468 13.5848 24.983 13.4646C25.1191 13.3443 25.229 13.1971 25.3055 13.0323C25.3821 12.8674 25.4237 12.6884 25.4278 12.5067H25.4266ZM25.4266 20.5819C25.4201 20.216 25.2738 19.8664 25.0176 19.6053C24.7615 19.3442 24.415 19.1915 24.0497 19.1786C23.69 19.2205 23.3557 19.385 23.103 19.6446C22.8502 19.9042 22.6944 20.2431 22.6618 20.6041C22.6927 20.9679 22.8588 21.3068 23.1272 21.5539C23.3956 21.8009 23.7468 21.9382 24.1114 21.9386C24.463 21.9269 24.7964 21.7794 25.0417 21.5269C25.2869 21.2744 25.425 20.9366 25.4269 20.5844L25.4266 20.5819ZM18.4224 5.70007C18.7737 5.69573 19.1097 5.55539 19.36 5.30846C19.6103 5.06154 19.7554 4.72719 19.765 4.3755C19.7713 4.19492 19.7411 4.01491 19.6763 3.84627C19.6115 3.67763 19.5134 3.52383 19.3878 3.39407C19.2622 3.26431 19.1117 3.16126 18.9454 3.0911C18.7791 3.02095 18.6004 2.98512 18.4199 2.98577C18.0547 2.98106 17.7022 3.12004 17.4383 3.37282C17.1744 3.6256 17.0201 3.97199 17.0085 4.33752C17.0251 4.70239 17.1811 5.04694 17.4442 5.29987C17.7074 5.5528 18.0576 5.69476 18.4224 5.69636V5.70007ZM18.3632 11.0867C17.6587 11.1089 16.9616 11.839 17.0061 12.5073C17.0341 12.8727 17.2051 13.2122 17.4819 13.4519C17.7587 13.6917 18.1189 13.8122 18.4841 13.7874C18.6583 13.7869 18.8305 13.751 18.9904 13.6816C19.1502 13.6122 19.2942 13.511 19.4137 13.384C19.5331 13.257 19.6254 13.107 19.685 12.9431C19.7445 12.7792 19.7701 12.6048 19.76 12.4307C19.7588 12.2501 19.7215 12.0716 19.6504 11.9057C19.5792 11.7398 19.4757 11.5898 19.3458 11.4645C19.2159 11.3392 19.0623 11.2413 18.894 11.1763C18.7257 11.1114 18.5462 11.0808 18.3659 11.0864L18.3632 11.0867Z" fill="#0E4D9C"/>
<path d="M124 22.2446C124.001 22.976 123.712 23.6777 123.196 24.1956C122.68 24.7134 121.98 25.0049 121.25 25.0059C120.519 25.0068 119.818 24.7173 119.301 24.2008C118.784 23.6844 118.493 22.9834 118.492 22.252C118.491 21.518 118.781 20.8135 119.298 20.2933C119.816 19.7731 120.518 19.4796 121.251 19.4772C121.614 19.4753 121.973 19.5457 122.309 19.6843C122.644 19.8229 122.948 20.0269 123.204 20.2844C123.46 20.542 123.662 20.8479 123.799 21.1845C123.935 21.521 124.004 21.8814 124 22.2446ZM121.214 24.5482C121.521 24.5612 121.828 24.5109 122.115 24.4005C122.403 24.29 122.664 24.1218 122.884 23.9061C123.103 23.6904 123.277 23.4319 123.393 23.1466C123.509 22.8612 123.565 22.5551 123.558 22.2471C123.56 21.7911 123.428 21.3445 123.177 20.9637C122.927 20.5829 122.569 20.2848 122.15 20.107C121.73 19.9291 121.268 19.8796 120.82 19.9644C120.373 20.0493 119.96 20.2649 119.635 20.584C119.31 20.903 119.086 21.3114 118.992 21.7576C118.898 22.2038 118.938 22.6679 119.106 23.0915C119.275 23.515 119.565 23.8791 119.94 24.1379C120.315 24.3967 120.758 24.5386 121.214 24.5457V24.5482Z" fill="#0E4D9C"/>
<path d="M14.0917 20.6073C14.0882 20.9597 13.947 21.2967 13.6984 21.5462C13.4497 21.7956 13.1133 21.9376 12.7614 21.9417C12.0211 21.9442 11.3118 21.2709 11.3327 20.5829C11.3537 19.8948 12.0841 19.1548 12.7367 19.1697C13.1018 19.1945 13.4441 19.3563 13.6953 19.6228C13.9464 19.8893 14.088 20.2409 14.0917 20.6073Z" fill="#E0BE16"/>
<path d="M14.0963 12.4816C14.0928 12.8341 13.9517 13.1711 13.703 13.4206C13.4543 13.67 13.118 13.812 12.766 13.8161C12.0258 13.8186 11.3164 13.1453 11.3374 12.4572C11.3583 11.7692 12.0887 11.0292 12.7413 11.044C13.1064 11.0689 13.4488 11.2307 13.6999 11.4972C13.9511 11.7637 14.0926 12.1152 14.0963 12.4816Z" fill="#E0BE16"/>
<path d="M8.42637 20.6073C8.42292 20.9597 8.28174 21.2967 8.03308 21.5462C7.78442 21.7956 7.44806 21.9376 7.0961 21.9417C6.35586 21.9442 5.64647 21.2709 5.66745 20.5829C5.68842 19.8948 6.41878 19.1548 7.07143 19.1697C7.43653 19.1945 7.77883 19.3563 8.03 19.6228C8.28116 19.8893 8.42271 20.2409 8.42637 20.6073Z" fill="#E0BE16"/>
<path d="M19.8778 20.6075C19.8507 20.9813 19.6791 21.3298 19.3995 21.579C19.1199 21.8282 18.7543 21.9584 18.3803 21.9419C17.5476 21.9444 16.75 21.2712 16.7722 20.5831C16.7944 19.895 17.6179 19.1551 18.3529 19.1699C19.1681 19.1844 19.8889 19.8675 19.8778 20.6075Z" fill="#E0BE16"/>
<path d="M25.4305 20.6075C25.4034 20.9813 25.2318 21.3298 24.9522 21.579C24.6726 21.8282 24.307 21.9584 23.9331 21.9419C23.1003 21.9444 22.3027 21.2712 22.3249 20.5831C22.3471 19.895 23.1706 19.1551 23.9056 19.1699C24.7208 19.1844 25.4416 19.8675 25.4305 20.6075Z" fill="#E0BE16"/>
<path d="M2.76084 20.6073C2.7574 20.9597 2.61621 21.2967 2.36755 21.5462C2.11889 21.7956 1.78254 21.9376 1.43057 21.9417C0.690337 21.9442 -0.0190547 21.2709 0.00191864 20.5829C0.022892 19.8948 0.753256 19.1548 1.4059 19.1697C1.771 19.1945 2.11331 19.3563 2.36447 19.6228C2.61564 19.8893 2.75718 20.2409 2.76084 20.6073Z" fill="#E0BE16"/>
<path d="M12.7505 5.69758C12.386 5.69507 12.0363 5.55282 11.7733 5.30008C11.5104 5.04733 11.3541 4.7033 11.3367 4.33873C11.3478 3.97264 11.5023 3.62564 11.7669 3.37271C12.0315 3.11978 12.3848 2.98122 12.7505 2.98699C12.931 2.98634 13.1097 3.02216 13.276 3.09232C13.4423 3.16248 13.5928 3.26552 13.7184 3.39528C13.844 3.52504 13.9421 3.67885 14.0069 3.84749C14.0717 4.01613 14.1019 4.19613 14.0956 4.37672C14.0853 4.72849 13.9396 5.06266 13.6889 5.30931C13.4382 5.55596 13.102 5.69597 12.7505 5.70005V5.69758Z" fill="#E0BE16"/>
<path d="M7.08524 5.69758C6.72073 5.69507 6.37103 5.55282 6.10806 5.30008C5.84508 5.04733 5.68881 4.7033 5.67139 4.33873C5.68252 3.97264 5.83706 3.62564 6.10162 3.37271C6.36617 3.11978 6.7195 2.98122 7.08524 2.98699C7.2657 2.98634 7.44444 3.02216 7.61074 3.09232C7.77705 3.16248 7.92751 3.26552 8.0531 3.39528C8.17869 3.52504 8.27683 3.67885 8.34165 3.84749C8.40646 4.01613 8.43662 4.19613 8.43031 4.37672C8.42006 4.72849 8.27434 5.06266 8.02364 5.30931C7.77294 5.55596 7.43668 5.69597 7.08524 5.70005V5.69758Z" fill="#E0BE16"/>
<path d="M18.3691 5.69755C17.5318 5.70496 16.7496 5.03665 16.7773 4.3387C16.8051 3.57651 17.5012 2.98449 18.3664 2.98696C18.5577 2.97515 18.7495 3.00208 18.9302 3.06614C19.1109 3.13019 19.2769 3.23006 19.4183 3.35977C19.5596 3.48949 19.6733 3.64639 19.7528 3.82111C19.8322 3.99583 19.8756 4.18479 19.8805 4.37669C19.8462 4.74939 19.6703 5.09468 19.389 5.34119C19.1077 5.58771 18.7426 5.71661 18.3691 5.70125V5.69755Z" fill="#E0BE16"/>
<path d="M23.9216 5.69755C23.0842 5.70496 22.3021 5.03665 22.3298 4.3387C22.3576 3.57651 23.0537 2.98449 23.9189 2.98696C24.1102 2.97515 24.302 3.00208 24.4827 3.06614C24.6634 3.13019 24.8294 3.23006 24.9707 3.35977C25.1121 3.48949 25.2258 3.64639 25.3052 3.82111C25.3847 3.99583 25.4281 4.18479 25.433 4.37669C25.3987 4.74939 25.2228 5.09468 24.9415 5.34119C24.6602 5.58771 24.2951 5.71661 23.9216 5.70125V5.69755Z" fill="#E0BE16"/>
<path d="M1.41971 5.69758C1.0552 5.69507 0.705505 5.55282 0.442528 5.30008C0.179551 5.04733 0.0232839 4.7033 0.00585938 4.33873C0.0169942 3.97264 0.171535 3.62564 0.43609 3.37271C0.700645 3.11978 1.05397 2.98122 1.41971 2.98699C1.60017 2.98634 1.77891 3.02216 1.94522 3.09232C2.11152 3.16248 2.26198 3.26552 2.38757 3.39528C2.51316 3.52504 2.6113 3.67885 2.67612 3.84749C2.74093 4.01613 2.77109 4.19613 2.76478 4.37672C2.75453 4.72849 2.60881 5.06266 2.35811 5.30931C2.10741 5.55596 1.77116 5.69597 1.41971 5.70005V5.69758Z" fill="#E0BE16"/>
<path d="M7.02728 11.0845C7.20754 11.0789 7.38708 11.1095 7.55536 11.1745C7.72363 11.2394 7.87723 11.3374 8.00713 11.4627C8.13703 11.5879 8.24059 11.7379 8.31174 11.9038C8.38288 12.0698 8.42016 12.2483 8.42139 12.4288C8.43142 12.603 8.40587 12.7773 8.34631 12.9412C8.28676 13.1051 8.19445 13.2552 8.07502 13.3822C7.9556 13.5091 7.81156 13.6104 7.65173 13.6798C7.49189 13.7491 7.31961 13.7851 7.14541 13.7855C6.78031 13.8102 6.42025 13.6895 6.14357 13.4497C5.86689 13.2099 5.69598 12.8704 5.66802 12.5051C5.62361 11.8368 6.32313 11.1067 7.02512 11.0845H7.02728Z" fill="#E0BE16"/>
<path d="M18.3037 11.0845C18.4951 11.0685 18.6877 11.0908 18.8705 11.1499C19.0533 11.2089 19.2226 11.3037 19.3686 11.4288C19.5145 11.5538 19.6343 11.7065 19.7209 11.8782C19.8075 12.0498 19.8593 12.237 19.8733 12.4288C19.8816 13.2009 19.2965 13.7534 18.4366 13.7855C17.5576 13.8164 16.8309 13.2605 16.7711 12.5054C16.7211 11.8371 17.5088 11.107 18.299 11.0848L18.3037 11.0845Z" fill="#E0BE16"/>
<path d="M23.8559 11.0845C24.0473 11.0685 24.24 11.0908 24.4228 11.1499C24.6056 11.2089 24.7748 11.3037 24.9208 11.4288C25.0668 11.5538 25.1865 11.7065 25.2732 11.8782C25.3598 12.0498 25.4116 12.237 25.4255 12.4288C25.4338 13.2009 24.8487 13.7534 23.9888 13.7855C23.1098 13.8164 22.3831 13.2605 22.3233 12.5054C22.2733 11.8371 23.0611 11.107 23.8513 11.0848L23.8559 11.0845Z" fill="#E0BE16"/>
<path d="M1.36175 11.0845C1.54201 11.0789 1.72156 11.1095 1.88983 11.1745C2.0581 11.2394 2.21171 11.3374 2.3416 11.4627C2.4715 11.5879 2.57506 11.7379 2.64621 11.9038C2.71735 12.0698 2.75464 12.2483 2.75587 12.4288C2.76589 12.603 2.74034 12.7773 2.68079 12.9412C2.62123 13.1051 2.52892 13.2552 2.4095 13.3822C2.29007 13.5091 2.14604 13.6104 1.9862 13.6798C1.82636 13.7491 1.65408 13.7851 1.47988 13.7855C1.11479 13.8102 0.754725 13.6895 0.478045 13.4497C0.201364 13.2099 0.0304523 12.8704 0.00249715 12.5051C-0.041917 11.8368 0.657606 11.1067 1.3596 11.0845H1.36175Z" fill="#E0BE16"/>
<path d="M78.6316 12.3078V8.41809C79.782 9.04223 79.8163 11.4051 78.6316 12.3078Z" fill="#0E4D9C"/>
<path d="M45.3894 10.1448C45.4952 12.0904 45.6136 14.0394 45.6947 15.9878C45.7046 16.2247 45.5097 16.4686 45.4091 16.708C45.291 16.4563 45.0668 16.2024 45.0742 15.9532C45.126 14.0023 45.2244 12.0536 45.3058 10.1052C45.3332 10.1176 45.3628 10.1299 45.3894 10.1448Z" fill="#0E4D9C"/>
<path d="M120.142 20.7946C120.142 20.7922 121.909 20.4648 122.397 21.3156C122.559 21.8116 122.173 22.1628 121.863 22.5327C122.082 22.9077 122.662 23.7248 122.662 23.7248H121.986L121.697 23.3332L121.151 22.5747H120.873L120.866 22.5679V23.7248H120.142V20.7909V20.7946ZM120.867 21.1581V22.1022C121.121 22.0979 121.373 22.044 121.607 21.9435C121.675 21.9053 121.733 21.8503 121.774 21.7835C121.816 21.7168 121.839 21.6405 121.843 21.5621C121.818 21.2841 121.584 21.2533 121.473 21.2091C121.272 21.1745 121.068 21.1582 120.864 21.1603L120.867 21.1581Z" fill="#0E4D9C"/>
</g>
<defs>
<clipPath id="clip0_1751_28569">
<rect width="124" height="25" fill="white"/>
</clipPath>
</defs>
</svg>
