<svg width="99" height="27" viewBox="0 0 99 27" fill="none" xmlns="http://www.w3.org/2000/svg">
<g clip-path="url(#clip0_1751_28614)">
<path d="M17.124 2.70553C15.0763 2.70553 13.0295 2.68666 10.981 2.70553C9.81189 2.70042 8.67538 3.10473 7.75556 3.85295C6.84819 4.58779 6.25067 5.65855 6.08845 6.84044C5.70745 9.15152 5.3637 11.4626 5.00132 13.7737C4.62031 16.2537 4.22238 18.7149 3.84137 21.1919C3.82971 21.2474 3.82361 21.3041 3.82317 21.3609H0C0 21.3609 0.0182036 21.2292 0.0368304 21.1542C0.325971 19.2008 0.635007 17.2668 0.941928 15.3315C1.2861 13.1894 1.6125 11.0478 1.95794 8.9057C2.21194 7.3088 2.42912 5.71146 2.71995 4.13344C2.85873 3.20817 3.2574 2.34583 3.86613 1.65414C4.47487 0.962457 5.26668 0.472101 6.14264 0.24434C6.68402 0.0790342 7.24581 -0.0033348 7.81017 -0.000155508H24.0824L23.6473 2.4426C23.6291 2.51898 23.6104 2.6871 23.6104 2.6871H17.7946C17.5588 2.70553 17.3416 2.70553 17.124 2.70553Z" fill="#00964C"/>
<path d="M23.1584 5.20458H18.2299C16.6352 5.20458 15.0574 5.18571 13.4644 5.20458C12.789 5.20287 12.1202 5.34186 11.4976 5.61332C10.875 5.88477 10.3114 6.28315 9.84018 6.7848C9.16306 7.53053 8.7262 8.47603 8.59006 9.49049C8.20906 11.8577 7.8471 14.2254 7.46652 16.5927C7.21252 18.1729 6.95852 19.7672 6.72356 21.3461C6.70536 21.4225 6.68673 21.5528 6.68673 21.5528H4.76562L4.80246 21.2895C5.14663 19.1856 5.47302 17.0619 5.79857 14.9576C6.16095 12.6277 6.52333 10.2982 6.8857 7.94934C6.96066 7.27179 7.18002 6.62001 7.52788 6.04121C7.87574 5.4624 8.3434 4.97107 8.89698 4.60278C9.73533 4.04661 10.7106 3.75292 11.7058 3.75692C13.5723 3.73805 15.4206 3.75692 17.2871 3.75692H23.3756" fill="#00964C"/>
<path d="M22.8869 6.8577H18.8999C17.668 6.8577 16.4352 6.83883 15.2033 6.8577C13.871 6.84739 12.5838 7.35711 11.5973 8.2856C10.7991 9.10108 10.2939 10.1751 10.1655 11.3293C10.0026 12.4192 9.82138 13.4898 9.65754 14.5608C9.44037 15.9137 9.24056 17.2477 9.02254 18.5992C8.87775 19.521 8.73255 20.4406 8.58777 21.3422L8.55178 21.5322H7.62891L7.66574 21.3255L8.2093 17.8306C8.4451 16.2899 8.68048 14.7491 8.93406 13.2084C9.11525 12.0812 9.26003 10.9724 9.47763 9.86407C9.87641 7.85368 11.1083 6.66983 12.9913 6.16284C13.4252 6.05075 13.8706 5.99386 14.3177 5.99341H23.0134" fill="#00964C"/>
<path d="M22.6329 8.13548C20.6039 8.13548 18.5016 8.1166 16.4725 8.13548C15.7848 8.12555 15.1026 8.26412 14.4693 8.54237C13.8361 8.82061 13.2656 9.23245 12.7941 9.75169C12.1342 10.5049 11.7106 11.4484 11.5796 12.4569C11.3802 13.697 11.1808 14.9181 10.9996 16.1582C10.7824 17.511 10.5826 18.8827 10.3646 20.2356C10.3104 20.5924 10.2558 20.9686 10.2016 21.3255C10.1834 21.4383 10.1648 21.5322 10.1648 21.5322H9.51367C9.51367 21.5322 9.5505 21.3071 9.58733 21.0252C9.84134 19.409 10.0763 17.7739 10.3493 16.159C10.6033 14.5621 10.8023 12.9459 11.1283 11.3679C11.275 10.5982 11.613 9.88151 12.1087 9.28873C12.6045 8.69595 13.2408 8.24759 13.9549 7.98799C14.6297 7.71488 15.351 7.58704 16.075 7.61225C17.091 7.63112 18.1041 7.61225 19.1192 7.61225H22.707" fill="#00964C"/>
<path d="M22.4157 9.35576C20.8756 9.35576 19.2627 9.31757 17.7226 9.37464C17.0029 9.37206 16.2913 9.53207 15.6372 9.84355C14.9832 10.155 14.4025 10.6105 13.9354 11.1783C13.3655 11.8851 13.001 12.7451 12.8843 13.6583C12.7031 14.7294 12.5401 15.8004 12.3762 16.8715C12.1591 18.2994 11.9233 19.7461 11.7057 21.1732C11.6846 21.253 11.6722 21.335 11.6689 21.4177L11.6506 21.5494H11.0173C11.0173 21.5494 11.0542 21.3049 11.091 21.0424C11.345 19.4621 11.58 17.8679 11.834 16.289C12.0151 15.0863 12.1599 13.8651 12.4139 12.6812C12.5751 11.7856 12.9906 10.9602 13.6072 10.3111C14.2238 9.66194 15.0134 9.21861 15.8747 9.03796C16.3359 8.91134 16.8112 8.84861 17.2882 8.85141C18.0854 8.87028 18.8648 8.85141 19.6619 8.85141C20.5678 8.85141 21.6008 8.83253 22.5067 8.85141" fill="#00964C"/>
<path d="M21.5818 13.9415C21.346 15.0507 21.1288 16.1775 20.893 17.2859C20.766 17.8872 20.639 18.471 20.5306 19.0711C20.4475 19.5612 20.2363 20.0183 19.92 20.3926C19.6038 20.767 19.1946 21.0442 18.737 21.1943C18.0808 21.4386 17.3862 21.5532 16.6893 21.5323H15.8557L15.8925 21.4383L16.2185 20.6482C16.9947 20.6815 17.7698 20.5604 18.502 20.2914C18.9603 20.1201 19.3655 19.8236 19.6746 19.4333C19.9838 19.0429 20.1855 18.5732 20.2584 18.0738C20.5124 16.6836 20.8202 15.3119 21.1102 13.9402" fill="#00964C"/>
<path d="M36.8219 16.2921H34.1041C34.3035 15.3338 34.4851 14.3945 34.6841 13.4547H41.3707C41.3707 13.4929 41.3889 13.5109 41.3889 13.5311C41.0807 14.9796 40.7729 16.4435 40.4296 17.871C40.2246 18.7694 39.842 19.6138 39.3061 20.351C38.6607 21.2109 37.7187 21.7775 36.6784 21.9313C35.8528 22.0901 35.0169 22.1843 34.1777 22.2131C33 22.2319 31.8401 22.1942 30.664 22.1191C29.9077 22.086 29.1666 21.8875 28.4894 21.5366C28.0788 21.3228 27.7282 21.0031 27.4711 20.6082C27.2141 20.2133 27.0593 19.7565 27.0216 19.2818C26.9299 18.3177 27.0035 17.3445 27.2388 16.4071C27.547 14.9225 27.837 13.4384 28.163 11.9539C28.3781 10.8756 28.824 9.86114 29.4677 8.9853C30.2423 7.98014 31.3325 7.28858 32.5483 7.03109C33.5874 6.77742 34.6537 6.66382 35.7208 6.6931C36.8985 6.6931 38.0585 6.74929 39.2345 6.82479C39.8086 6.86052 40.3669 7.03408 40.8652 7.33178C41.2036 7.54741 41.484 7.84815 41.6804 8.20612C41.8769 8.56409 41.9829 8.96768 41.9888 9.37948C42.0246 10.0724 41.9697 10.7671 41.8258 11.4447C41.8076 11.5009 41.7352 11.5764 41.6988 11.5764H37.8731C37.8549 11.5764 37.8549 11.5575 37.8362 11.5575V11.1818C37.8421 10.9655 37.7798 10.7532 37.6588 10.5769C37.5378 10.4007 37.3647 10.2702 37.1657 10.2051C36.9907 10.1406 36.8076 10.1026 36.6221 10.0923C35.7574 10.0075 34.8856 10.0454 34.0309 10.2051C33.6647 10.2642 33.3223 10.4297 33.0433 10.6825C32.7642 10.9352 32.56 11.2648 32.4543 11.633C32.2432 12.2925 32.0676 12.9637 31.9286 13.6434C31.7114 14.6017 31.5298 15.541 31.3668 16.4997C31.3093 16.8977 31.2969 17.3014 31.3299 17.7024C31.3391 17.9459 31.4259 18.1794 31.5767 18.3663C31.7276 18.5532 31.9339 18.683 32.1635 18.7353C33.2119 19.0015 34.3075 18.995 35.3529 18.7164C35.5562 18.6592 35.7462 18.5597 35.9111 18.4238C36.076 18.288 36.2125 18.1187 36.3122 17.9263C36.5414 17.4034 36.7124 16.8551 36.8219 16.2921Z" fill="#231F20"/>
<path d="M68.786 11.4053C68.6412 11.9689 68.5142 12.5145 68.369 13.0588C68.3872 13.0777 68.4059 13.0777 68.4059 13.097C68.4566 13.07 68.505 13.0385 68.5506 13.003C69.203 11.7068 70.3265 11.2744 71.6495 11.2911C72.1846 11.2851 72.7189 11.3354 73.2442 11.4413C74.4761 11.7231 75.0743 12.5505 75.0925 13.8463C75.0773 14.5386 74.9799 15.2263 74.8025 15.894C74.5849 16.8706 74.3855 17.8482 74.1501 18.8064C73.9529 19.6174 73.5672 20.3659 73.0266 20.9867C72.6687 21.3698 72.2408 21.6751 71.7678 21.8848C71.2949 22.0945 70.7863 22.2043 70.2719 22.2078C69.6784 22.2422 69.0831 22.2107 68.496 22.1139C68.1506 22.0669 67.8287 21.9067 67.5774 21.6566C67.3261 21.4065 67.1584 21.0796 67.099 20.7237C67.099 20.7049 67.099 20.6675 67.0808 20.6675C67.044 20.6114 67.0071 20.5736 66.972 20.5174C66.9352 20.5736 66.8814 20.6114 66.8814 20.6675C66.7908 21.1183 66.7002 21.5696 66.6096 22.0015C66.3014 23.5234 65.9937 25.0268 65.6855 26.5486C65.6673 26.6803 65.6313 26.7738 65.4679 26.7738C64.4349 26.7549 63.402 26.7738 62.3873 26.7738C62.3442 26.7745 62.3014 26.7681 62.2603 26.7549C62.3144 26.5297 62.3508 26.3041 62.3873 26.0785C63.366 21.2685 64.3621 16.4585 65.3409 11.6296C65.3777 11.4606 65.4315 11.3851 65.6127 11.3851C66.5914 11.4039 67.5875 11.3851 68.5663 11.3851C68.6412 11.3864 68.6975 11.4053 68.786 11.4053ZM68.949 19.5596C69.9819 19.5408 70.473 19.2216 70.8155 18.2823C71.1837 17.2689 71.4096 16.2058 71.4861 15.1258C71.5139 14.9916 71.5124 14.8526 71.4816 14.7191C71.4508 14.5855 71.3915 14.4609 71.308 14.3543C71.2246 14.2477 71.1192 14.1618 70.9995 14.1031C70.8798 14.0443 70.7489 14.0142 70.6165 14.0148C70.3102 13.974 70.0009 13.9612 69.6924 13.9766C69.3228 13.952 68.9569 14.0654 68.661 14.2963C68.3652 14.5273 68.1588 14.8605 68.0795 15.2355C67.8924 15.8518 67.7411 16.4792 67.6265 17.1142C67.5335 17.5842 67.4851 18.0624 67.4817 18.5421C67.4718 18.6558 67.4838 18.7703 67.5168 18.8792C67.5498 18.988 67.6033 19.089 67.6741 19.1763C67.7449 19.2636 67.8317 19.3356 67.9295 19.3879C68.0273 19.4403 68.1341 19.4721 68.2437 19.4815C68.4791 19.521 68.7149 19.5394 68.9503 19.5588L68.949 19.5596Z" fill="#231F20"/>
<path d="M92.7243 6.802C92.1443 9.69556 91.5643 12.5325 90.9848 15.4081C91.1317 15.4611 91.2914 15.4622 91.4389 15.4112C91.5865 15.3602 91.7136 15.26 91.8005 15.1263C92.6159 13.9235 93.4854 12.759 94.3372 11.5751C94.3619 11.5363 94.3938 11.5031 94.4311 11.4773C94.4684 11.4515 94.5103 11.4337 94.5543 11.425C95.7503 11.4061 96.928 11.425 98.1785 11.425C98.1049 11.5378 98.0516 11.594 97.9974 11.6695C96.7832 13.2497 95.5509 14.826 94.3368 16.3856C94.2879 16.4331 94.2573 16.4973 94.2505 16.5663C94.2437 16.6354 94.2613 16.7047 94.2999 16.7613C95.0619 18.4732 95.804 20.1808 96.5648 21.9098C96.6016 21.9862 96.619 22.0415 96.6554 22.135C96.5648 22.135 96.5106 22.1538 96.456 22.1538H92.9042C92.7412 22.1538 92.687 22.0977 92.6324 21.9471C92.1612 20.6302 91.6731 19.3353 91.2007 18.0203C91.1638 17.9439 91.1101 17.8135 91.0559 17.7951C90.893 17.7732 90.7278 17.7796 90.5669 17.8139C90.5301 17.8139 90.5127 17.9456 90.4933 18.0018C90.2215 19.298 89.9497 20.5947 89.6961 21.9085C89.6593 22.0963 89.6055 22.153 89.4243 22.153C88.4456 22.1341 87.4854 22.153 86.5067 22.153H86.2527C86.3433 21.7206 86.4157 21.3264 86.5067 20.9318C87.4486 16.3461 88.3922 11.7428 89.3147 7.15843C89.3884 6.83887 89.3884 6.83887 89.6957 6.83887H92.5244C92.5431 6.802 92.6155 6.802 92.7243 6.802Z" fill="#231F20"/>
<path d="M76.47 14.5802C76.545 13.8025 76.8668 13.0727 77.385 12.5051C77.9031 11.9375 78.5883 11.5642 79.3331 11.4439C80.3876 11.2717 81.4573 11.2214 82.5225 11.2938C83.178 11.3255 83.8314 11.3945 84.4796 11.5005C84.7177 11.5536 84.9489 11.6357 85.1684 11.745C85.4067 11.8603 85.6149 12.033 85.7757 12.2487C85.9364 12.4644 86.0451 12.7169 86.0925 12.9851C86.2196 13.6763 86.2011 14.3878 86.0383 15.071C85.5667 17.4 85.0765 19.7488 84.6062 22.0792C84.6062 22.0981 84.588 22.0981 84.588 22.1354H81.2174C81.3621 21.6087 81.5073 21.1026 81.6521 20.5758C81.6382 20.5739 81.6252 20.5673 81.6153 20.557C81.5778 20.5713 81.5459 20.5982 81.5247 20.6333C81.346 21.0338 81.0732 21.3813 80.7312 21.6439C80.3892 21.9065 79.9891 22.0758 79.5676 22.1363C78.5325 22.3716 77.4586 22.3524 76.4319 22.0801C76.0246 22.0132 75.6559 21.7914 75.3976 21.4579C75.1394 21.1245 75.0101 20.7033 75.0349 20.2765C74.991 19.2281 75.2441 18.1894 75.7631 17.2885C76.0022 16.8773 76.3259 16.526 76.7113 16.2596C77.0966 15.9933 77.5339 15.8185 77.9919 15.7478C78.9352 15.5569 79.902 15.5251 80.855 15.6539C81.0828 15.6989 81.3069 15.7617 81.5255 15.8417C81.6885 15.9078 81.8333 16.0144 81.947 16.1522C82.0608 16.29 82.1401 16.4547 82.1779 16.6319C82.1961 16.688 82.2516 16.7258 82.2685 16.7635C82.3053 16.7074 82.3591 16.6696 82.3773 16.6134C82.5221 15.937 82.6491 15.2795 82.7943 14.603C82.8098 14.4595 82.8159 14.315 82.8125 14.1707C82.8128 14.0377 82.7727 13.908 82.6979 13.8C82.623 13.6921 82.5172 13.6113 82.3955 13.5693C81.8074 13.3594 81.1675 13.3661 80.5836 13.5882C80.4203 13.6586 80.2757 13.7687 80.1622 13.9093C80.0486 14.0499 79.9694 14.2168 79.9313 14.3958C79.8944 14.546 79.8225 14.6026 79.6595 14.6026H76.7058C76.6283 14.5858 76.5492 14.5783 76.47 14.5802ZM80.5646 17.6616C80.2386 17.6805 80.0028 17.6805 79.7856 17.6998C79.4665 17.7045 79.1611 17.8356 78.9321 18.0661C78.7031 18.2966 78.5677 18.6092 78.5537 18.9399C78.5219 19.0511 78.5156 19.1685 78.5352 19.2827C78.5548 19.3969 78.5998 19.5048 78.6667 19.5978C78.7336 19.6908 78.8204 19.7664 78.9204 19.8185C79.0203 19.8706 79.1306 19.8979 79.2425 19.8981C79.7008 19.9357 80.1613 19.9357 80.6196 19.8981C80.7939 19.9027 80.9672 19.8711 81.1296 19.8052C81.2919 19.7393 81.4399 19.6404 81.5648 19.5144C81.6897 19.3883 81.7891 19.2377 81.8571 19.0712C81.9251 18.9048 81.9603 18.726 81.9607 18.5452C81.9844 18.461 81.9901 18.3725 81.9775 18.2858C81.9649 18.1991 81.9343 18.1163 81.8878 18.043C81.8413 17.9698 81.78 17.9079 81.7082 17.8616C81.6364 17.8153 81.5557 17.7857 81.4718 17.7749C81.1458 17.7183 80.8016 17.6994 80.5658 17.6621L80.5646 17.6616Z" fill="#231F20"/>
<path d="M51.463 17.3605H44.9758C44.7764 17.3605 44.704 17.4369 44.6858 17.605C44.649 18 44.577 18.4127 44.5588 18.8077C44.5426 18.92 44.5496 19.0345 44.5792 19.1438C44.6088 19.2531 44.6603 19.3546 44.7305 19.4417C44.8007 19.5288 44.888 19.5995 44.9864 19.6491C45.0849 19.6987 45.1924 19.7261 45.3018 19.7295C45.7963 19.7796 46.2946 19.7733 46.7877 19.7106C47.0393 19.6878 47.2767 19.5798 47.4634 19.4033C47.65 19.2269 47.7756 18.9917 47.8206 18.734C47.8388 18.6778 47.8575 18.6212 47.8748 18.5461H51.1913C51.1731 18.6225 51.1544 18.7151 51.1371 18.7906C50.9979 19.6333 50.5999 20.4069 50.0023 20.9961C49.4046 21.5852 48.6394 21.9583 47.8206 22.0599C46.3043 22.3448 44.7504 22.3384 43.2363 22.041C42.8547 21.9885 42.4903 21.8439 42.1724 21.6188C41.8546 21.3937 41.5921 21.0943 41.4062 20.7448C41.2 20.2804 41.1066 19.7707 41.1344 19.2603C41.1889 17.413 41.5889 15.5942 42.3122 13.9051C42.5869 13.2484 43.0224 12.6775 43.5754 12.249C44.1285 11.8205 44.7799 11.5494 45.4652 11.4623C46.8561 11.2116 48.2777 11.2052 49.6706 11.4434C49.988 11.4635 50.2981 11.5497 50.5826 11.6969C50.8671 11.844 51.1201 12.0491 51.3264 12.2999C51.5328 12.5507 51.6883 12.842 51.7836 13.1565C51.8789 13.471 51.9122 13.8022 51.8813 14.1303C51.8725 14.9644 51.7814 15.7954 51.6095 16.6103C51.5714 16.8553 51.5172 17.0984 51.463 17.3605ZM45.1388 15.4252H47.8024C48.5454 15.4252 48.5644 15.4063 48.5454 14.6175V14.5793C48.555 14.481 48.5449 14.3817 48.5158 14.2877C48.4867 14.1936 48.4392 14.1068 48.3763 14.0326C48.3133 13.9585 48.2363 13.8986 48.15 13.8567C48.0638 13.8148 47.9701 13.7918 47.8748 13.7892C47.3863 13.7516 46.8957 13.7516 46.4071 13.7892C46.2548 13.7985 46.1063 13.842 45.9718 13.9166C45.8373 13.9913 45.7201 14.0953 45.6282 14.2216C45.3711 14.5745 45.203 14.9883 45.1392 15.4256L45.1388 15.4252Z" fill="#231F20"/>
<path d="M56.8628 13.3954C56.8996 13.3765 56.9364 13.3392 56.9716 13.319C56.9898 13.3001 56.9898 13.2808 57.0084 13.2628C57.7873 11.6659 59.1111 11.1769 60.741 11.2713C61.2474 11.2783 61.747 11.3934 62.2087 11.6093C62.4412 11.7184 62.6459 11.8824 62.8063 12.0882C62.9668 12.294 63.0786 12.5359 63.1328 12.7945C63.2597 13.3504 63.2597 13.9294 63.1328 14.4853C62.6248 16.9654 62.1168 19.4454 61.6088 21.944C61.5906 22.0568 61.5546 22.1129 61.4276 22.1129H58.2746C58.2435 22.1127 58.2128 22.1063 58.184 22.0941C58.2577 21.7561 58.3288 21.3988 58.4012 21.0612C58.7822 19.1636 59.1801 17.2656 59.5611 15.368C59.5914 15.144 59.6038 14.9178 59.598 14.6916C59.5924 14.5372 59.5379 14.3889 59.4428 14.2699C59.3477 14.1509 59.2175 14.0677 59.0722 14.0332C58.8259 13.94 58.5644 13.8981 58.3025 13.91C58.0406 13.9219 57.7836 13.9874 57.5462 14.1026C57.3088 14.2179 57.0957 14.3806 56.9191 14.5815C56.7425 14.7824 56.606 15.0175 56.5173 15.2732C56.3034 15.956 56.1337 16.6529 56.0093 17.3591C55.6833 18.8621 55.3934 20.3844 55.0852 21.8873C55.067 21.9435 55.0484 22.019 55.031 22.0941H51.6443C52.3872 18.5241 53.112 14.9541 53.855 11.3837H57.2417C57.1147 12.0421 56.9699 12.7005 56.8429 13.3379C56.8454 13.3778 56.8454 13.3954 56.8628 13.3954Z" fill="#231F20"/>
</g>
<defs>
<clipPath id="clip0_1751_28614">
<rect width="98.1785" height="26.776" fill="white"/>
</clipPath>
</defs>
</svg>
