<svg width="157" height="36" viewBox="0 0 157 36" fill="none" xmlns="http://www.w3.org/2000/svg">
<g clip-path="url(#clip0_1751_28796)">
<mask id="mask0_1751_28796" style="mask-type:luminance" maskUnits="userSpaceOnUse" x="7" y="0" width="142" height="36">
<path d="M148.4 0H7.60474V35.0989H148.4V0Z" fill="white"/>
</mask>
<g mask="url(#mask0_1751_28796)">
<path d="M48.5559 11.9817C48.5559 8.18397 48.5539 4.38647 48.55 0.589158C48.55 0.224715 48.6249 0.162707 48.9999 0.232904C49.7481 0.3733 50.5127 0.421268 51.2696 0.512525C52.3138 0.638296 53.3574 0.774012 54.4022 0.895688C55.1995 0.988115 55.9986 1.05948 56.7959 1.15191C57.5529 1.23907 58.3075 1.34729 59.0639 1.43797C59.8607 1.53273 60.6586 1.6199 61.4565 1.70647C61.7706 1.7404 62.0883 1.75386 62.4018 1.79597C62.6358 1.82698 62.7657 1.90829 62.7651 2.22009C62.7507 8.76603 62.7487 15.3122 62.7592 21.8585C62.7592 22.055 62.7622 22.1697 62.5089 22.1925C61.9239 22.2452 61.3389 22.3423 60.7539 22.416C59.935 22.5195 59.1107 22.6225 58.2888 22.7172C57.4915 22.8091 56.6918 22.884 55.8945 22.9764C55.1118 23.0682 54.3308 23.177 53.5481 23.2689C52.7777 23.3607 52.0055 23.4444 51.2345 23.5298C50.4126 23.624 49.5896 23.7129 48.7694 23.8223C48.5939 23.8463 48.5565 23.7989 48.5588 23.6503C48.5588 23.5573 48.5588 23.4643 48.5588 23.3713V11.9817M54.8544 11.7032C54.8544 14.0133 54.8614 16.3246 54.8462 18.6335C54.8462 18.9909 54.9603 19.1114 55.3042 19.0792C55.5412 19.057 55.7822 19.0752 56.0214 19.0752C56.5795 19.0752 56.6064 19.0494 56.6064 18.4902V6.22253C56.6064 5.74401 56.593 5.26608 56.6093 4.78874C56.6216 4.44184 56.4771 4.30671 56.1361 4.32719C55.8576 4.3481 55.578 4.3481 55.2996 4.32719C54.9486 4.2956 54.8427 4.42079 54.8444 4.77411C54.8585 7.08421 54.8526 9.39547 54.8526 11.7044" fill="#334AFF"/>
<path d="M48.5559 11.9817C48.5559 8.18397 48.5539 4.38647 48.55 0.589158C48.55 0.224715 48.6249 0.162707 48.9999 0.232904C49.7481 0.3733 50.5127 0.421268 51.2696 0.512525C52.3138 0.638296 53.3574 0.774012 54.4022 0.895688C55.1995 0.988115 55.9986 1.05948 56.7959 1.15191C57.5529 1.23907 58.3075 1.34729 59.0639 1.43797C59.8607 1.53273 60.6586 1.6199 61.4565 1.70647C61.7706 1.7404 62.0883 1.75386 62.4018 1.79597C62.6358 1.82698 62.7657 1.90829 62.7651 2.22009C62.7507 8.76603 62.7487 15.3122 62.7592 21.8585C62.7592 22.055 62.7622 22.1697 62.5089 22.1925C61.9239 22.2452 61.3389 22.3423 60.7539 22.416C59.935 22.5195 59.1107 22.6225 58.2888 22.7172C57.4915 22.8091 56.6918 22.884 55.8945 22.9764C55.1118 23.0682 54.3308 23.177 53.5481 23.2689C52.7777 23.3607 52.0055 23.4444 51.2345 23.5298C50.4126 23.624 49.5896 23.7129 48.7694 23.8223C48.5939 23.8463 48.5565 23.7989 48.5588 23.6503C48.5588 23.5573 48.5588 23.4643 48.5588 23.3713L48.5559 11.9817ZM54.8515 11.7032C54.8515 14.0133 54.8585 16.3246 54.8433 18.6335C54.8433 18.9909 54.9573 19.1114 55.3013 19.0792C55.5382 19.057 55.7792 19.0752 56.0185 19.0752C56.5766 19.0752 56.6035 19.0494 56.6035 18.4902V6.22253C56.6035 5.74401 56.59 5.26608 56.6064 4.78874C56.6187 4.44184 56.4742 4.30671 56.1332 4.32719C55.8547 4.3481 55.5751 4.3481 55.2966 4.32719C54.9456 4.2956 54.8398 4.42079 54.8415 4.77411C54.8579 7.08128 54.8515 9.39371 54.8515 11.7032Z" fill="#334AFF"/>
<path d="M128.382 12.0202C128.382 15.8031 128.382 19.5859 128.382 23.3688C128.382 23.6695 128.429 23.8625 127.948 23.7923C126.453 23.5747 124.94 23.4747 123.441 23.2817C122.111 23.1108 120.78 22.9587 119.448 22.8078C117.999 22.6434 116.556 22.4352 115.107 22.2667C114.784 22.2293 114.359 22.3293 114.171 22.1047C113.984 21.88 114.113 21.4682 114.113 21.1389C114.109 14.8601 114.105 8.58127 114.1 2.30247C114.1 1.87602 114.284 1.81459 114.626 1.7795C115.92 1.64671 117.21 1.47589 118.502 1.32906C119.533 1.21206 120.565 1.08161 121.6 0.978072C122.606 0.879795 123.607 0.72419 124.611 0.604268C125.395 0.510671 126.18 0.435209 126.964 0.345707C127.303 0.307098 127.641 0.261469 127.976 0.201216C128.268 0.148568 128.392 0.197706 128.391 0.547525C128.378 4.37038 128.383 8.19265 128.383 12.0132M117.299 11.964C117.357 13.1802 117.195 14.6783 117.38 16.17C117.428 16.6502 117.581 17.1142 117.827 17.5293C118.073 17.9445 118.406 18.301 118.805 18.5737C119.355 18.9301 119.977 19.1602 120.627 19.2475C121.276 19.3348 121.937 19.2771 122.562 19.0786C123.343 18.8982 124.035 18.4464 124.514 17.8036C124.993 17.1608 125.228 16.3688 125.178 15.5687C125.205 12.814 125.305 10.0558 125.115 7.30289C125.081 6.80173 124.933 6.31506 124.681 5.88016C124.43 5.44526 124.082 5.07368 123.665 4.7939C122.948 4.3841 122.139 4.16209 121.314 4.14849C120.488 4.13489 119.673 4.33014 118.943 4.7161C118.421 5.05488 117.996 5.52282 117.709 6.07441C117.422 6.626 117.283 7.24247 117.305 7.86389C117.268 9.13622 117.296 10.4109 117.296 11.9629" fill="#334AFF"/>
<path d="M128.382 12.0202C128.382 15.8031 128.382 19.5859 128.382 23.3688C128.382 23.6695 128.429 23.8625 127.948 23.7923C126.453 23.5747 124.94 23.4747 123.441 23.2817C122.111 23.1108 120.78 22.9587 119.448 22.8078C117.999 22.6434 116.556 22.4352 115.107 22.2667C114.784 22.2293 114.359 22.3293 114.171 22.1047C113.984 21.88 114.113 21.4682 114.113 21.1389C114.109 14.8601 114.105 8.58127 114.1 2.30247C114.1 1.87602 114.284 1.81459 114.626 1.7795C115.92 1.64671 117.21 1.47589 118.502 1.32906C119.533 1.21206 120.565 1.08161 121.6 0.978072C122.606 0.879795 123.607 0.72419 124.611 0.604268C125.395 0.510671 126.18 0.435209 126.964 0.345707C127.303 0.307098 127.641 0.261469 127.976 0.201216C128.268 0.148568 128.392 0.197706 128.391 0.547525C128.377 4.37506 128.382 8.19733 128.382 12.0202ZM117.298 11.971C117.357 13.1872 117.195 14.6854 117.379 16.1771C117.428 16.6573 117.58 17.1212 117.826 17.5364C118.072 17.9515 118.406 18.308 118.804 18.5807C119.354 18.9371 119.976 19.1672 120.626 19.2545C121.276 19.3418 121.937 19.2841 122.561 19.0856C123.342 18.9052 124.034 18.4534 124.513 17.8106C124.992 17.1678 125.228 16.3758 125.177 15.5757C125.204 12.821 125.305 10.0628 125.115 7.30991C125.081 6.80875 124.932 6.32208 124.681 5.88718C124.429 5.45228 124.082 5.0807 123.665 4.80092C122.948 4.39112 122.139 4.16911 121.313 4.15551C120.488 4.14191 119.672 4.33716 118.942 4.72312C118.421 5.0619 117.996 5.52984 117.709 6.08143C117.422 6.63302 117.282 7.24949 117.304 7.87091C117.269 9.14441 117.298 10.4191 117.298 11.971Z" fill="#334AFF"/>
<path d="M100.394 11.6985C100.394 9.44224 100.401 7.1848 100.386 4.92853C100.386 4.5945 100.445 4.47634 100.813 4.48453C102.088 4.51202 103.364 4.48043 104.639 4.50266C105.3 4.51134 105.944 4.70685 106.498 5.06658C106.833 5.29915 107.117 5.59801 107.332 5.94465C107.547 6.2913 107.688 6.67835 107.747 7.08184C107.967 7.98116 107.906 8.92633 107.572 9.78972C107.367 10.3513 106.967 10.8202 106.444 11.1106C106.202 11.2428 106.143 11.3569 106.428 11.5055C106.974 11.7897 107.426 12.2267 107.727 12.7633C108.029 13.2998 108.169 13.9126 108.128 14.5269C108.176 15.2899 108.073 16.0549 107.825 16.7779C107.633 17.3065 107.305 17.7748 106.873 18.1352C106.442 18.4956 105.922 18.7351 105.368 18.8294C105.084 18.8894 104.795 18.918 104.505 18.9148C103.256 18.9078 102.007 18.9026 100.757 18.9189C100.465 18.9224 100.38 18.8517 100.382 18.5481C100.396 16.2666 100.389 13.9817 100.389 11.6985M102.777 14.6574C102.777 15.3201 102.788 15.9829 102.772 16.6463C102.766 16.9288 102.873 17.0242 103.146 17.0084C103.438 16.992 103.731 17.0084 104.023 17.0025C104.395 17.014 104.76 16.8966 105.056 16.6701C105.352 16.4436 105.56 16.1219 105.646 15.7595C105.801 15.0905 105.802 14.3951 105.65 13.7255C105.581 13.41 105.421 13.1216 105.19 12.8955C104.96 12.6693 104.668 12.5152 104.351 12.452C103.987 12.3952 103.619 12.3688 103.25 12.373C102.894 12.3408 102.75 12.445 102.771 12.8305C102.803 13.4382 102.779 14.049 102.779 14.6585M103.532 6.40268C103.373 6.40268 103.213 6.4097 103.054 6.40268C102.844 6.39098 102.777 6.48984 102.778 6.68932C102.782 7.85928 102.781 9.02398 102.778 10.191C102.778 10.3209 102.8 10.4548 102.947 10.4619C103.549 10.5687 104.17 10.4668 104.706 10.1729C105.467 9.64055 105.696 8.56009 105.331 7.4381C105.106 6.74548 104.512 6.40443 103.531 6.40502" fill="#334AFF"/>
<path d="M100.394 11.6985C100.394 9.44224 100.401 7.1848 100.386 4.92853C100.386 4.5945 100.445 4.47634 100.813 4.48453C102.088 4.51202 103.364 4.48043 104.639 4.50266C105.3 4.51134 105.944 4.70685 106.498 5.06658C106.833 5.29915 107.117 5.59801 107.332 5.94465C107.547 6.2913 107.688 6.67835 107.747 7.08184C107.967 7.98116 107.906 8.92633 107.572 9.78972C107.367 10.3513 106.967 10.8202 106.444 11.1106C106.202 11.2428 106.143 11.3569 106.428 11.5055C106.974 11.7897 107.426 12.2267 107.727 12.7633C108.029 13.2998 108.169 13.9126 108.128 14.5269C108.176 15.2899 108.073 16.0549 107.825 16.7779C107.633 17.3065 107.305 17.7748 106.873 18.1352C106.442 18.4956 105.922 18.7351 105.368 18.8294C105.084 18.8894 104.795 18.918 104.505 18.9148C103.256 18.9078 102.007 18.9026 100.757 18.9189C100.465 18.9224 100.38 18.8517 100.382 18.5481C100.4 16.2649 100.394 13.9817 100.394 11.6985ZM102.782 14.6574C102.782 15.3201 102.792 15.9829 102.777 16.6463C102.771 16.9288 102.878 17.0242 103.15 17.0084C103.443 16.992 103.735 17.0084 104.028 17.0025C104.4 17.014 104.765 16.8966 105.061 16.6701C105.356 16.4436 105.565 16.1219 105.651 15.7595C105.806 15.0905 105.807 14.3951 105.655 13.7255C105.585 13.41 105.425 13.1216 105.195 12.8955C104.964 12.6693 104.673 12.5152 104.356 12.452C103.992 12.3952 103.623 12.3688 103.254 12.373C102.899 12.3408 102.755 12.445 102.775 12.8305C102.803 13.4365 102.781 14.0478 102.781 14.6574H102.782ZM103.535 6.40151C103.375 6.40151 103.215 6.40853 103.057 6.40151C102.847 6.38981 102.779 6.48867 102.78 6.68815C102.785 7.85811 102.783 9.02281 102.78 10.1898C102.78 10.3197 102.802 10.4537 102.95 10.4607C103.552 10.5675 104.172 10.4656 104.709 10.1717C105.469 9.63938 105.699 8.55892 105.333 7.43693C105.109 6.74197 104.515 6.40151 103.534 6.40151H103.535Z" fill="#334AFF"/>
<path d="M133.648 18.9108C134.086 17.7408 134.506 16.6036 134.935 15.4705C135.397 14.2483 135.865 13.028 136.339 11.8097C136.399 11.6589 136.429 11.4976 136.426 11.3352C136.423 11.1727 136.388 11.0125 136.323 10.8638C135.526 8.83331 134.75 6.79407 133.952 4.76418C133.859 4.5261 133.917 4.49041 134.133 4.49217C134.731 4.49743 135.33 4.50211 135.927 4.49217C136.139 4.48749 136.22 4.56997 136.284 4.7636C136.704 6.06616 137.133 7.3654 137.571 8.66133C137.61 8.77833 137.777 9.14628 137.777 9.14628C137.777 9.14628 137.939 8.77891 137.975 8.66016C138.375 7.34863 138.767 6.03476 139.164 4.72265C139.223 4.53019 139.354 4.47169 139.592 4.49626C140.121 4.54129 140.653 4.54129 141.182 4.49626C141.546 4.47228 141.571 4.53897 141.474 4.8104C140.707 6.89469 139.958 8.98599 139.193 11.0697C139.116 11.2587 139.116 11.4704 139.193 11.6594C140.066 13.9911 140.929 16.3263 141.806 18.6563C141.822 18.6851 141.83 18.7178 141.828 18.7508C141.827 18.7837 141.816 18.8154 141.797 18.8424C141.778 18.8694 141.752 18.8905 141.721 18.9033C141.691 18.9161 141.658 18.9201 141.625 18.9149C141.054 18.9067 140.481 18.8944 139.911 18.9196C139.628 18.9324 139.529 18.8236 139.449 18.5686C138.965 17.0365 138.462 15.5103 137.971 13.9806C137.936 13.8718 137.785 13.4962 137.785 13.4962C137.785 13.4962 137.63 13.8922 137.599 13.987C137.098 15.5138 136.603 17.0424 136.113 18.5727C136.043 18.7891 135.955 18.9295 135.674 18.9184C135.013 18.8932 134.35 18.9102 133.652 18.9102" fill="#334AFF"/>
<path d="M133.648 18.9108C134.086 17.7408 134.506 16.6036 134.935 15.4705C135.397 14.2483 135.865 13.028 136.339 11.8097C136.399 11.6589 136.429 11.4976 136.426 11.3352C136.423 11.1727 136.388 11.0125 136.323 10.8638C135.526 8.83331 134.75 6.79407 133.952 4.76418C133.859 4.5261 133.917 4.49041 134.133 4.49217C134.731 4.49743 135.33 4.50211 135.927 4.49217C136.139 4.48749 136.22 4.56997 136.284 4.7636C136.704 6.06616 137.133 7.3654 137.571 8.66133C137.61 8.77833 137.777 9.14628 137.777 9.14628C137.777 9.14628 137.939 8.77891 137.975 8.66016C138.375 7.34863 138.767 6.03476 139.164 4.72265C139.223 4.53019 139.354 4.47169 139.592 4.49626C140.121 4.54129 140.653 4.54129 141.182 4.49626C141.546 4.47228 141.571 4.53897 141.474 4.8104C140.707 6.89469 139.958 8.98599 139.193 11.0697C139.116 11.2587 139.116 11.4704 139.193 11.6594C140.066 13.9911 140.929 16.3263 141.806 18.6563C141.822 18.6851 141.83 18.7178 141.828 18.7508C141.827 18.7837 141.816 18.8154 141.797 18.8424C141.778 18.8694 141.752 18.8905 141.721 18.9033C141.691 18.9161 141.658 18.9201 141.625 18.9149C141.054 18.9067 140.481 18.8944 139.911 18.9196C139.628 18.9324 139.529 18.8236 139.449 18.5686C138.965 17.0365 138.462 15.5103 137.971 13.9806C137.936 13.8718 137.785 13.4962 137.785 13.4962C137.785 13.4962 137.63 13.8922 137.599 13.987C137.098 15.5138 136.603 17.0424 136.113 18.5727C136.043 18.7891 135.955 18.9295 135.674 18.9184C135.009 18.8938 134.346 18.9108 133.648 18.9108Z" fill="#334AFF"/>
<path d="M76.3839 11.7423C76.3839 13.9857 76.3734 16.2291 76.3938 18.4696C76.3973 18.8493 76.2768 18.9476 75.9294 18.9136C75.6514 18.8869 75.3714 18.8869 75.0934 18.9136C74.8237 18.9388 74.7231 18.8042 74.6436 18.5814C73.3956 15.0715 72.1437 11.5639 70.888 8.05871C70.7213 7.59073 70.5686 7.11923 70.4019 6.65183C70.3597 6.53484 70.3328 6.34121 70.186 6.35934C70.0029 6.38099 70.0866 6.57579 70.086 6.6922C70.0817 10.5289 70.0807 14.3652 70.0831 18.2011C70.0831 18.9089 70.0831 18.9089 69.3811 18.9089C68.6528 18.9089 68.6528 18.9089 68.6528 18.1882C68.6528 13.7677 68.6504 9.34743 68.6458 4.92731C68.6458 4.59738 68.6949 4.45406 69.0704 4.48272C69.5875 4.51871 70.1065 4.51871 70.6236 4.48272C70.9348 4.46225 71.0506 4.58159 71.1448 4.85536C71.6198 6.23884 72.1176 7.61413 72.6014 8.99468C73.2367 10.8081 73.8609 12.6216 74.5067 14.4303C74.5868 14.6532 74.5576 15.0802 74.8419 15.0381C75.0759 15.0024 74.9454 14.5965 74.946 14.359C74.9538 11.186 74.9538 8.01348 74.946 4.84132C74.946 4.56638 75.0045 4.45523 75.2929 4.49033C75.6439 4.53128 76.1148 4.3394 76.3195 4.57164C76.495 4.76936 76.3821 5.22682 76.3827 5.56611C76.3858 7.62368 76.3858 9.68126 76.3827 11.7388" fill="#334AFF"/>
<path d="M76.3839 11.7423C76.3839 13.9857 76.3734 16.2291 76.3938 18.4696C76.3973 18.8493 76.2768 18.9476 75.9294 18.9136C75.6514 18.8869 75.3714 18.8869 75.0934 18.9136C74.8237 18.9388 74.7231 18.8042 74.6436 18.5814C73.3956 15.0715 72.1437 11.5639 70.888 8.05871C70.7213 7.59073 70.5686 7.11923 70.4019 6.65183C70.3597 6.53484 70.3328 6.34121 70.186 6.35934C70.0029 6.38099 70.0866 6.57579 70.086 6.6922C70.0817 10.5289 70.0807 14.3652 70.0831 18.2011C70.0831 18.9089 70.0831 18.9089 69.3811 18.9089C68.6528 18.9089 68.6528 18.9089 68.6528 18.1882C68.6528 13.7677 68.6504 9.34743 68.6458 4.92731C68.6458 4.59738 68.6949 4.45406 69.0704 4.48272C69.5875 4.51871 70.1065 4.51871 70.6236 4.48272C70.9348 4.46225 71.0506 4.58159 71.1448 4.85536C71.6198 6.23884 72.1176 7.61413 72.6014 8.99468C73.2367 10.8081 73.8609 12.6216 74.5067 14.4303C74.5868 14.6532 74.5576 15.0802 74.8419 15.0381C75.0759 15.0024 74.9454 14.5965 74.946 14.359C74.9538 11.186 74.9538 8.01348 74.946 4.84132C74.946 4.56638 75.0045 4.45523 75.2929 4.49033C75.6439 4.53128 76.1148 4.3394 76.3195 4.57164C76.495 4.76936 76.3821 5.22682 76.3827 5.56611C76.3854 7.62524 76.3858 9.68399 76.3839 11.7423Z" fill="#334AFF"/>
<path d="M35.6389 11.6921C35.6389 9.44807 35.6488 7.20408 35.6301 4.96068C35.6266 4.56699 35.7471 4.4769 36.1221 4.48567C37.2113 4.51083 38.3017 4.48567 39.3915 4.49679C39.9122 4.4846 40.4297 4.58133 40.9108 4.78079C41.3919 4.98025 41.8261 5.27803 42.1854 5.65505C42.67 6.16413 42.9672 6.82274 43.0284 7.5229C43.1232 8.07001 43.1063 8.63066 42.9786 9.17105C42.8509 9.71144 42.6151 10.2204 42.2854 10.6672C41.949 11.0738 41.5154 11.3889 41.0248 11.5833C40.7709 11.6915 40.7107 11.8114 40.8136 12.0992C41.3893 13.7091 41.935 15.3301 42.4902 16.9481C42.6809 17.5038 42.8505 18.0684 43.0641 18.6153C43.1576 18.8569 43.1225 18.9218 42.8722 18.9125C42.4744 18.8984 42.007 19.0266 41.6975 18.8581C41.3881 18.6896 41.3963 18.1731 41.2693 17.8051C40.6395 15.9901 40.0155 14.173 39.3974 12.3537C39.3208 12.1261 39.2272 12.0372 38.9879 12.0471C38.5106 12.0659 38.0303 12.067 37.5529 12.0507C37.202 12.0384 37.085 12.194 37.085 12.5245C37.0902 14.5427 37.0803 16.5609 37.0967 18.5785C37.0967 18.8499 37.0382 18.9382 36.7773 18.9084C36.4128 18.8669 35.9419 19.0698 35.7073 18.8218C35.495 18.5966 35.6488 18.1374 35.6453 17.7817C35.6401 15.7507 35.6453 13.719 35.6453 11.6874M37.0937 8.23599V9.31119C37.0937 9.66919 37.1084 10.0278 37.0891 10.3846C37.0686 10.7508 37.2242 10.8819 37.5816 10.8713C38.2428 10.8897 38.9045 10.8615 39.5618 10.7871C40.0026 10.7532 40.4235 10.5898 40.7718 10.3174C41.12 10.045 41.38 9.67585 41.5191 9.2562C41.65 8.79729 41.6833 8.31603 41.6168 7.84347C41.4817 6.67351 40.9903 6.03412 39.6735 5.76269C38.951 5.68305 38.2238 5.6549 37.4974 5.67845C37.1791 5.65798 37.0879 5.79018 37.0879 6.08794C37.1019 6.80337 37.0926 7.5188 37.0926 8.23482" fill="#334AFF"/>
<path d="M35.6389 11.6921C35.6389 9.44807 35.6488 7.20408 35.6301 4.96068C35.6266 4.56699 35.7471 4.4769 36.1221 4.48567C37.2113 4.51083 38.3017 4.48567 39.3915 4.49679C39.9122 4.4846 40.4297 4.58133 40.9108 4.78079C41.3919 4.98025 41.8261 5.27803 42.1854 5.65505C42.67 6.16413 42.9672 6.82274 43.0284 7.5229C43.1232 8.07001 43.1063 8.63066 42.9786 9.17105C42.8509 9.71144 42.6151 10.2204 42.2854 10.6672C41.949 11.0738 41.5154 11.3889 41.0248 11.5833C40.7709 11.6915 40.7107 11.8114 40.8136 12.0992C41.3893 13.7091 41.935 15.3301 42.4902 16.9481C42.6809 17.5038 42.8505 18.0684 43.0641 18.6153C43.1576 18.8569 43.1225 18.9218 42.8722 18.9125C42.4744 18.8984 42.007 19.0266 41.6975 18.8581C41.3881 18.6896 41.3963 18.1731 41.2693 17.8051C40.6395 15.9901 40.0155 14.173 39.3974 12.3537C39.3208 12.1261 39.2272 12.0372 38.9879 12.0471C38.5106 12.0659 38.0303 12.067 37.5529 12.0507C37.202 12.0384 37.085 12.194 37.085 12.5245C37.0902 14.5427 37.0803 16.5609 37.0967 18.5785C37.0967 18.8499 37.0382 18.9382 36.7773 18.9084C36.4128 18.8669 35.9419 19.0698 35.7073 18.8218C35.495 18.5966 35.6488 18.1374 35.6453 17.7817C35.6365 15.7548 35.6389 13.7231 35.6389 11.6921ZM37.0873 8.24067V9.31119C37.0873 9.66919 37.1019 10.0278 37.0826 10.3846C37.0621 10.7508 37.2177 10.8819 37.5752 10.8713C38.2364 10.8897 38.8981 10.8615 39.5553 10.7871C39.9961 10.7532 40.4171 10.5898 40.7653 10.3174C41.1136 10.045 41.3736 9.67585 41.5127 9.2562C41.6436 8.79729 41.6769 8.31603 41.6104 7.84347C41.4752 6.67351 40.9839 6.03412 39.6671 5.76269C38.9446 5.68305 38.2174 5.6549 37.4909 5.67845C37.1727 5.65798 37.0814 5.79018 37.0814 6.08794C37.0967 6.8063 37.0873 7.52231 37.0873 8.23775V8.24067Z" fill="#334AFF"/>
<path d="M91.7777 15.5921C91.7777 16.5865 91.7748 17.581 91.7777 18.5755C91.7777 18.7796 91.7777 18.9774 91.4975 18.9025C91.2635 18.8393 90.8698 19.1318 90.8207 18.6158C90.7991 18.3877 90.8289 18.0695 90.6125 17.987C90.4194 17.9127 90.2995 18.221 90.1445 18.3514C89.787 18.6517 89.3705 18.8735 88.9219 19.0026C88.4732 19.1317 88.0025 19.1651 87.5401 19.1008C87.1071 19.0693 86.6847 18.9516 86.2978 18.7545C85.911 18.5574 85.5674 18.2849 85.2874 17.9531C84.8036 17.3455 84.4637 16.6363 84.2929 15.8787C84.0701 14.907 83.9282 13.9185 83.8688 12.9234C83.7954 11.9468 83.8049 10.9658 83.8975 9.99087C83.9432 8.67864 84.2461 7.38816 84.789 6.19259C85.0171 5.73921 85.3397 5.33994 85.7351 5.02163C86.1304 4.70333 86.5894 4.47338 87.081 4.34724C87.5726 4.22111 88.0856 4.20171 88.5853 4.29036C89.0851 4.379 89.5601 4.57364 89.9783 4.86117C90.7905 5.48452 91.3441 6.3856 91.5332 7.3918C91.6303 7.758 91.6841 8.13531 91.7672 8.50327C91.8163 8.73082 91.7432 8.81682 91.5045 8.79868C91.2533 8.77307 91 8.77307 90.7487 8.79868C90.3632 8.84841 90.2808 8.66765 90.2632 8.3266C90.2445 7.63028 90.0351 6.95244 89.6578 6.36691C89.4669 6.07792 89.2061 5.84188 88.8996 5.68075C88.593 5.51963 88.2507 5.43866 87.9045 5.44537C87.5582 5.45209 87.2193 5.54627 86.9192 5.71915C86.6192 5.89204 86.3677 6.13801 86.1882 6.43419C85.729 7.25931 85.4624 8.17765 85.4085 9.12042C85.2769 10.4927 85.2526 11.8732 85.3359 13.2492C85.3162 14.4861 85.5808 15.7109 86.1093 16.8293C86.954 18.4175 89.2992 18.1853 90.024 16.9036C90.2278 16.5212 90.3373 16.0956 90.3434 15.6623C90.3709 15.0533 90.3434 14.4414 90.3545 13.8313C90.3603 13.523 90.2269 13.4001 89.9269 13.4066C89.4887 13.4154 89.0494 13.4025 88.6112 13.4118C88.4299 13.4154 88.3626 13.3668 88.3515 13.1697C88.2959 12.2191 88.2895 12.2197 89.2377 12.2197C89.9684 12.2197 90.7002 12.2319 91.4297 12.2138C91.7034 12.2068 91.7941 12.2758 91.7888 12.5648C91.7713 13.5733 91.7818 14.5818 91.7818 15.5903" fill="#334AFF"/>
<path d="M91.7777 15.5921C91.7777 16.5865 91.7748 17.581 91.7777 18.5755C91.7777 18.7796 91.7777 18.9774 91.4975 18.9025C91.2635 18.8393 90.8698 19.1318 90.8207 18.6158C90.7991 18.3877 90.8289 18.0695 90.6125 17.987C90.4194 17.9127 90.2995 18.221 90.1445 18.3514C89.787 18.6517 89.3705 18.8735 88.9219 19.0026C88.4732 19.1317 88.0025 19.1651 87.5401 19.1008C87.1071 19.0693 86.6847 18.9516 86.2978 18.7545C85.911 18.5574 85.5674 18.2849 85.2874 17.9531C84.8036 17.3455 84.4637 16.6363 84.2929 15.8787C84.0701 14.907 83.9282 13.9185 83.8688 12.9234C83.7954 11.9468 83.8049 10.9658 83.8975 9.99087C83.9432 8.67864 84.2461 7.38816 84.789 6.19259C85.0171 5.73921 85.3397 5.33994 85.7351 5.02163C86.1304 4.70333 86.5894 4.47338 87.081 4.34724C87.5726 4.22111 88.0856 4.20171 88.5853 4.29036C89.0851 4.379 89.5601 4.57364 89.9783 4.86117C90.7905 5.48452 91.3441 6.3856 91.5332 7.3918C91.6303 7.758 91.6841 8.13531 91.7672 8.50327C91.8163 8.73082 91.7432 8.81682 91.5045 8.79868C91.2533 8.77307 91 8.77307 90.7487 8.79868C90.3632 8.84841 90.2808 8.66765 90.2632 8.3266C90.2445 7.63028 90.0351 6.95244 89.6578 6.36691C89.4669 6.07792 89.2061 5.84188 88.8996 5.68075C88.593 5.51963 88.2507 5.43866 87.9045 5.44537C87.5582 5.45209 87.2193 5.54627 86.9192 5.71915C86.6192 5.89204 86.3677 6.13801 86.1882 6.43419C85.729 7.25931 85.4624 8.17765 85.4085 9.12042C85.2769 10.4927 85.2526 11.8732 85.3359 13.2492C85.3162 14.4861 85.5808 15.7109 86.1093 16.8293C86.954 18.4175 89.2992 18.1853 90.024 16.9036C90.2278 16.5212 90.3373 16.0956 90.3434 15.6623C90.3709 15.0533 90.3434 14.4414 90.3545 13.8313C90.3603 13.523 90.2269 13.4001 89.9269 13.4066C89.4887 13.4154 89.0494 13.4025 88.6112 13.4118C88.4299 13.4154 88.3626 13.3668 88.3515 13.1697C88.2959 12.2191 88.2895 12.2197 89.2377 12.2197C89.9684 12.2197 90.7002 12.2319 91.4297 12.2138C91.7034 12.2068 91.7941 12.2758 91.7888 12.5648C91.7666 13.5751 91.7777 14.5836 91.7777 15.5921Z" fill="#334AFF"/>
<path d="M22.0766 11.6844C22.0766 9.40302 22.0819 7.12159 22.069 4.84017C22.069 4.55587 22.145 4.48567 22.42 4.48918C23.5753 4.50439 24.7336 4.44764 25.8854 4.5079C26.6884 4.53282 27.4571 4.83955 28.0567 5.37433C28.6563 5.9091 29.0486 6.63783 29.1648 7.4328C29.3745 8.40494 29.2666 9.41869 28.8571 10.325C28.599 10.8901 28.1902 11.3734 27.6756 11.7216C27.161 12.0699 26.5605 12.2697 25.9398 12.2993C25.2523 12.3535 24.5623 12.3695 23.8731 12.3472C23.573 12.3472 23.4975 12.4397 23.4993 12.7316C23.5121 14.6556 23.4993 16.579 23.5139 18.503C23.5139 18.8323 23.4332 18.9558 23.0991 18.9125C22.7651 18.8692 22.3486 19.0476 22.1392 18.8458C21.9298 18.644 22.0807 18.2181 22.0772 17.8917C22.0702 15.8214 22.0737 13.7524 22.0737 11.6821M23.5057 8.40621C23.5057 9.2012 23.5139 9.99678 23.501 10.7918C23.4975 11.0375 23.5812 11.1147 23.8222 11.1088C24.4072 11.0948 24.9921 11.1188 25.573 11.0995C25.9759 11.1068 26.3722 10.9968 26.7136 10.7828C27.055 10.5688 27.3268 10.2602 27.4959 9.8944C27.8652 9.11688 27.9313 8.22957 27.6813 7.40589C27.5946 6.98537 27.3817 6.60132 27.0709 6.30507C26.7601 6.00882 26.3663 5.81449 25.9421 5.74806C25.2066 5.66784 24.4658 5.64613 23.7268 5.68312C23.4928 5.67435 23.5057 5.85862 23.5057 6.02183V8.40738" fill="#334AFF"/>
<path d="M22.0766 11.6844C22.0766 9.40302 22.0819 7.12159 22.069 4.84017C22.069 4.55587 22.145 4.48567 22.42 4.48918C23.5753 4.50439 24.7336 4.44764 25.8854 4.5079C26.6884 4.53282 27.4571 4.83955 28.0567 5.37433C28.6563 5.9091 29.0486 6.63783 29.1648 7.4328C29.3745 8.40494 29.2666 9.41869 28.8571 10.325C28.599 10.8901 28.1902 11.3734 27.6756 11.7216C27.161 12.0699 26.5605 12.2697 25.9398 12.2993C25.2523 12.3535 24.5623 12.3695 23.8731 12.3472C23.573 12.3472 23.4975 12.4397 23.4993 12.7316C23.5121 14.6556 23.4993 16.579 23.5139 18.503C23.5139 18.8323 23.4332 18.9558 23.0991 18.9125C22.7651 18.8692 22.3486 19.0476 22.1392 18.8458C21.9298 18.644 22.0807 18.2181 22.0772 17.8917C22.0731 15.8249 22.0766 13.7553 22.0766 11.6844ZM23.5086 8.40855C23.5086 9.20354 23.5168 9.99912 23.5039 10.7941C23.5004 11.0398 23.5841 11.117 23.8251 11.1112C24.4101 11.0971 24.9951 11.1211 25.5759 11.1018C25.9788 11.1091 26.3751 10.9991 26.7165 10.7851C27.0579 10.5712 27.3297 10.2625 27.4988 9.89674C27.8681 9.11922 27.9342 8.23191 27.6842 7.40823C27.5976 6.98771 27.3846 6.60366 27.0738 6.30741C26.7631 6.01116 26.3693 5.81683 25.9451 5.7504C25.2095 5.67018 24.4687 5.64847 23.7297 5.68546C23.4958 5.67669 23.5086 5.86096 23.5086 6.02417V8.40855Z" fill="#334AFF"/>
<path d="M14.3122 8.07568C13.691 8.07568 13.6857 8.07568 13.5482 7.45092C13.4952 6.96452 13.2849 6.5087 12.9493 6.15269C12.6137 5.79668 12.171 5.55992 11.6886 5.47836C11.3662 5.41358 11.0328 5.4283 10.7173 5.52124C10.4019 5.61418 10.1138 5.78254 9.87799 6.01178C9.64218 6.24102 9.46575 6.52424 9.36394 6.83695C9.26214 7.14966 9.23802 7.48246 9.29367 7.80659C9.39581 8.27514 9.59245 8.71793 9.87157 9.10789C10.1507 9.49785 10.5064 9.82678 10.917 10.0746C11.8407 10.7695 12.8375 11.3615 13.698 12.1472C14.4027 12.8067 14.8812 13.6719 15.0653 14.6193C15.2494 15.5668 15.1298 16.5482 14.7235 17.4237C14.5607 17.7644 14.33 18.0682 14.0453 18.3163C13.7607 18.5644 13.4283 18.7515 13.0685 18.8662C12.1624 19.1986 11.1725 19.2257 10.2495 18.9435C9.7144 18.7787 9.23071 18.4789 8.84506 18.073C8.45941 17.667 8.18479 17.1686 8.04765 16.6258C7.94581 16.2603 7.86553 15.8892 7.80723 15.5143C7.76452 15.2873 7.80723 15.1364 8.10732 15.1633C8.4238 15.1926 8.79877 15.0738 9.04739 15.2066C9.29601 15.3394 9.16906 15.7506 9.23985 16.0344C9.31907 16.4159 9.48984 16.7725 9.73747 17.0734C9.9851 17.3743 10.3022 17.6105 10.6613 17.7616C11.0205 17.9128 11.411 17.9744 11.7993 17.9411C12.1876 17.9078 12.5619 17.7806 12.8901 17.5705C13.2608 17.2765 13.544 16.8867 13.7089 16.4433C13.8739 15.9999 13.9144 15.5199 13.8261 15.0551C13.643 13.9495 12.8825 13.2563 12.0577 12.6315C11.2101 11.991 10.2963 11.4364 9.4949 10.7344C9.02628 10.3595 8.64642 9.88545 8.38256 9.34639C8.11869 8.80734 7.97736 8.21658 7.96868 7.61647C7.92481 7.31667 7.92658 7.01195 7.97395 6.71267C8.09151 6.2523 8.31178 5.82452 8.61825 5.46142C8.92472 5.09831 9.30943 4.80932 9.74352 4.6161C10.3536 4.31115 11.0362 4.18146 11.7156 4.24147C12.395 4.30147 13.0444 4.54882 13.5915 4.95598C13.9591 5.25478 14.2637 5.6237 14.4874 6.04127C14.7112 6.45885 14.8497 6.91674 14.8949 7.38833C14.8949 7.4012 14.8949 7.41524 14.8949 7.42811C14.9645 8.07627 14.9645 8.07627 14.3099 8.07627" fill="#334AFF"/>
<path d="M14.3122 8.07568C13.691 8.07568 13.6857 8.07568 13.5482 7.45092C13.4952 6.96452 13.2849 6.5087 12.9493 6.15269C12.6137 5.79668 12.171 5.55992 11.6886 5.47836C11.3662 5.41358 11.0328 5.4283 10.7173 5.52124C10.4019 5.61418 10.1138 5.78254 9.87799 6.01178C9.64218 6.24102 9.46575 6.52424 9.36394 6.83695C9.26214 7.14966 9.23802 7.48246 9.29367 7.80659C9.39581 8.27514 9.59245 8.71793 9.87157 9.10789C10.1507 9.49785 10.5064 9.82678 10.917 10.0746C11.8407 10.7695 12.8375 11.3615 13.698 12.1472C14.4027 12.8067 14.8812 13.6719 15.0653 14.6193C15.2494 15.5668 15.1298 16.5482 14.7235 17.4237C14.5607 17.7644 14.33 18.0682 14.0453 18.3163C13.7607 18.5644 13.4283 18.7515 13.0685 18.8662C12.1624 19.1986 11.1725 19.2257 10.2495 18.9435C9.7144 18.7787 9.23071 18.4789 8.84506 18.073C8.45941 17.667 8.18479 17.1686 8.04765 16.6258C7.94581 16.2603 7.86553 15.8892 7.80723 15.5143C7.76452 15.2873 7.80723 15.1364 8.10732 15.1633C8.4238 15.1926 8.79877 15.0738 9.04739 15.2066C9.29601 15.3394 9.16906 15.7506 9.23985 16.0344C9.31907 16.4159 9.48984 16.7725 9.73747 17.0734C9.9851 17.3743 10.3022 17.6105 10.6613 17.7616C11.0205 17.9128 11.411 17.9744 11.7993 17.9411C12.1876 17.9078 12.5619 17.7806 12.8901 17.5705C13.2608 17.2765 13.544 16.8867 13.7089 16.4433C13.8739 15.9999 13.9144 15.5199 13.8261 15.0551C13.643 13.9495 12.8825 13.2563 12.0577 12.6315C11.2101 11.991 10.2963 11.4364 9.4949 10.7344C9.02628 10.3595 8.64642 9.88545 8.38256 9.34639C8.11869 8.80734 7.97736 8.21658 7.96868 7.61647C7.92481 7.31667 7.92658 7.01195 7.97395 6.71267C8.09151 6.2523 8.31178 5.82452 8.61825 5.46142C8.92472 5.09831 9.30943 4.80932 9.74352 4.6161C10.3536 4.31115 11.0362 4.18146 11.7156 4.24147C12.395 4.30147 13.0444 4.54882 13.5915 4.95598C13.9591 5.25478 14.2637 5.6237 14.4874 6.04127C14.7112 6.45885 14.8497 6.91674 14.8949 7.38833C14.8949 7.4012 14.8949 7.41524 14.8949 7.42811C14.9662 8.07568 14.9662 8.07568 14.3122 8.07568Z" fill="#334AFF"/>
<path d="M99.3709 33.6487C98.7999 33.6487 98.2284 33.6341 97.658 33.6546C97.3533 33.6657 97.2737 33.5534 97.2772 33.2638C97.2912 32.1625 97.2912 31.0612 97.2772 29.9598C97.2772 29.7036 97.3515 29.6053 97.6142 29.6089C98.7964 29.6194 99.9787 29.6235 101.16 29.6135C101.461 29.6135 101.505 29.7528 101.504 30.0055C101.504 30.2675 101.435 30.3904 101.143 30.3851C100.32 30.3699 99.4955 30.3962 98.6724 30.3717C98.312 30.3617 98.2278 30.4887 98.2225 30.8309C98.2167 31.1947 98.3495 31.2825 98.6905 31.2714C99.3802 31.2491 100.072 31.2784 100.762 31.2579C101.042 31.2497 101.117 31.3299 101.119 31.6089C101.119 31.9014 101.051 31.9962 100.746 31.9856C100.056 31.9611 99.3644 31.9944 98.6747 31.9722C98.2418 31.9581 98.229 32.1986 98.2307 32.5238C98.2307 32.8631 98.3998 32.9029 98.6858 32.8976C99.5218 32.8836 100.359 32.9152 101.194 32.8906C101.519 32.8807 101.497 33.0521 101.501 33.2609C101.506 33.4697 101.512 33.6587 101.206 33.6522C100.595 33.6394 99.9839 33.6487 99.3732 33.6487" fill="#334AFF"/>
<path d="M99.3709 33.6487C98.7999 33.6487 98.2284 33.6341 97.658 33.6546C97.3533 33.6657 97.2737 33.5534 97.2772 33.2638C97.2912 32.1625 97.2912 31.0612 97.2772 29.9598C97.2772 29.7036 97.3515 29.6053 97.6142 29.6089C98.7964 29.6194 99.9787 29.6235 101.16 29.6135C101.461 29.6135 101.505 29.7528 101.504 30.0055C101.504 30.2675 101.435 30.3904 101.143 30.3851C100.32 30.3699 99.4955 30.3962 98.6724 30.3717C98.312 30.3617 98.2278 30.4887 98.2225 30.8309C98.2167 31.1947 98.3495 31.2825 98.6905 31.2714C99.3802 31.2491 100.072 31.2784 100.762 31.2579C101.042 31.2497 101.117 31.3299 101.119 31.6089C101.119 31.9014 101.051 31.9962 100.746 31.9856C100.056 31.9611 99.3644 31.9944 98.6747 31.9722C98.2418 31.9581 98.229 32.1986 98.2307 32.5238C98.2307 32.8631 98.3998 32.9029 98.6858 32.8976C99.5218 32.8836 100.359 32.9152 101.194 32.8906C101.519 32.8807 101.497 33.0521 101.501 33.2609C101.506 33.4697 101.512 33.6587 101.206 33.6522C100.595 33.64 99.9839 33.6487 99.3709 33.6487Z" fill="#334AFF"/>
<path d="M80.5578 33.5791C79.5253 33.9564 79.182 33.2047 78.7924 32.5993C78.6866 32.404 78.523 32.2462 78.324 32.1475C78.125 32.0489 77.9004 32.0142 77.6809 32.0482C77.6251 32.0444 77.5693 32.053 77.5172 32.0733C77.4652 32.0937 77.4184 32.1254 77.3801 32.1661C77.3418 32.2068 77.313 32.2555 77.2959 32.3086C77.2787 32.3618 77.2735 32.4181 77.2808 32.4735C77.2653 32.7646 77.2706 33.0565 77.2966 33.3469C77.3258 33.585 77.2539 33.6698 77.0269 33.6487C77.0136 33.648 77.0004 33.648 76.9871 33.6487C76.3881 33.6651 76.3887 33.6651 76.3887 33.0784C76.3887 32.0307 76.3887 30.983 76.3857 29.9353C76.3857 29.737 76.4062 29.6001 76.6578 29.6094C77.5978 29.6463 78.5402 29.5509 79.4791 29.6679C79.7415 29.6943 79.9875 29.8075 80.1783 29.9895C80.369 30.1716 80.4935 30.4121 80.5321 30.6729C80.5835 30.9343 80.5413 31.2055 80.413 31.4389C80.2847 31.6724 80.0783 31.8532 79.8301 31.9499C79.4323 32.0921 79.5856 32.2793 79.7289 32.4764C79.9957 32.8456 80.2764 33.2041 80.5602 33.5791M78.346 30.3804C78.0945 30.3804 77.8429 30.3869 77.5914 30.3804C77.403 30.3746 77.3293 30.453 77.3416 30.639C77.3521 30.7969 77.3416 30.9566 77.3445 31.1152C77.3445 31.2556 77.4095 31.3457 77.5557 31.3457C78.0986 31.3457 78.6432 31.3726 79.1825 31.3305C79.2464 31.3291 79.3091 31.3132 79.3659 31.2842C79.4227 31.2551 79.4723 31.2136 79.5108 31.1626C79.5493 31.1117 79.5757 31.0527 79.5882 30.9901C79.6006 30.9275 79.5987 30.8628 79.5827 30.801C79.579 30.7418 79.5635 30.684 79.5371 30.6309C79.5108 30.5777 79.4741 30.5304 79.4292 30.4916C79.3843 30.4529 79.3321 30.4235 79.2757 30.4052C79.2192 30.3869 79.1597 30.3801 79.1006 30.3851H78.346" fill="#334AFF"/>
<path d="M80.5578 33.5791C79.5253 33.9564 79.182 33.2047 78.7924 32.5993C78.6866 32.404 78.523 32.2462 78.324 32.1475C78.125 32.0489 77.9004 32.0142 77.6809 32.0482C77.6251 32.0444 77.5693 32.053 77.5172 32.0733C77.4652 32.0937 77.4184 32.1254 77.3801 32.1661C77.3418 32.2068 77.313 32.2555 77.2959 32.3086C77.2787 32.3618 77.2735 32.4181 77.2808 32.4735C77.2653 32.7646 77.2706 33.0565 77.2966 33.3469C77.3258 33.585 77.2539 33.6698 77.0269 33.6487C77.0136 33.648 77.0004 33.648 76.9871 33.6487C76.3881 33.6651 76.3887 33.6651 76.3887 33.0784C76.3887 32.0307 76.3887 30.983 76.3857 29.9353C76.3857 29.737 76.4062 29.6001 76.6578 29.6094C77.5978 29.6463 78.5402 29.5509 79.4791 29.6679C79.7415 29.6943 79.9875 29.8075 80.1783 29.9895C80.369 30.1716 80.4935 30.4121 80.5321 30.6729C80.5835 30.9343 80.5413 31.2055 80.413 31.4389C80.2847 31.6724 80.0783 31.8532 79.8301 31.9499C79.4323 32.0921 79.5856 32.2793 79.7289 32.4764C79.9933 32.8456 80.2741 33.2036 80.5578 33.5791ZM78.3437 30.3804C78.0921 30.3804 77.8406 30.3869 77.589 30.3804C77.4007 30.3746 77.327 30.453 77.3393 30.639C77.3498 30.7969 77.3393 30.9566 77.3422 31.1152C77.3422 31.2556 77.4071 31.3457 77.5534 31.3457C78.0962 31.3457 78.6408 31.3726 79.1802 31.3305C79.244 31.3291 79.3067 31.3132 79.3636 31.2842C79.4204 31.2551 79.4699 31.2136 79.5084 31.1626C79.5469 31.1117 79.5734 31.0527 79.5858 30.9901C79.5983 30.9275 79.5964 30.8628 79.5803 30.801C79.5766 30.7418 79.5612 30.684 79.5348 30.6309C79.5084 30.5777 79.4717 30.5304 79.4268 30.4916C79.3819 30.4529 79.3297 30.4235 79.2733 30.4052C79.2169 30.3869 79.1574 30.3801 79.0983 30.3851L78.3437 30.3804Z" fill="#334AFF"/>
<path d="M85.7964 31.6376C85.7637 33.1585 84.7663 33.7224 83.5864 33.7915C83.2905 33.8042 82.9952 33.7558 82.719 33.6493C82.4427 33.5428 82.1913 33.3804 81.9806 33.1724C81.7698 32.9644 81.6043 32.7151 81.4942 32.4402C81.3841 32.1654 81.3319 31.8707 81.3408 31.5747C81.3497 31.2788 81.4196 30.9878 81.546 30.72C81.6724 30.4523 81.8527 30.2134 82.0755 30.0185C82.2984 29.8235 82.5591 29.6766 82.8413 29.5869C83.1235 29.4972 83.4211 29.4666 83.7157 29.4971C83.9942 29.4962 84.2701 29.5514 84.5269 29.6594C84.7837 29.7674 85.0161 29.926 85.2103 30.1257C85.4045 30.3255 85.5565 30.5623 85.6572 30.822C85.7579 31.0818 85.8052 31.3591 85.7964 31.6376ZM84.8441 31.6575C84.8678 31.4845 84.8537 31.3085 84.8026 31.1416C84.7514 30.9746 84.6646 30.8208 84.5482 30.6908C84.4317 30.5608 84.2883 30.4577 84.128 30.3887C83.9676 30.3196 83.7942 30.2863 83.6197 30.2909C83.4437 30.2857 83.2684 30.3164 83.1046 30.3811C82.9408 30.4458 82.7919 30.5431 82.6669 30.6671C82.5419 30.7912 82.4435 30.9394 82.3776 31.1027C82.3117 31.266 82.2797 31.441 82.2836 31.6171C82.2733 31.7942 82.2998 31.9715 82.3615 32.1377C82.4233 32.304 82.5189 32.4557 82.6423 32.5831C82.7657 32.7105 82.9142 32.8109 83.0784 32.8779C83.2427 32.945 83.419 32.9772 83.5963 32.9725C83.7677 32.9784 83.9383 32.9479 84.097 32.883C84.2557 32.8181 84.3988 32.7202 84.5168 32.5958C84.6348 32.4714 84.725 32.3234 84.7816 32.1616C84.8381 31.9997 84.8596 31.8277 84.8447 31.6569" fill="#334AFF"/>
<path d="M85.7964 31.6376C85.7637 33.1585 84.7663 33.7224 83.5864 33.7915C83.2905 33.8042 82.9952 33.7558 82.719 33.6493C82.4427 33.5428 82.1913 33.3804 81.9806 33.1724C81.7698 32.9644 81.6043 32.7151 81.4942 32.4402C81.3841 32.1654 81.3319 31.8707 81.3408 31.5747C81.3497 31.2788 81.4196 30.9878 81.546 30.72C81.6724 30.4523 81.8527 30.2134 82.0755 30.0185C82.2984 29.8235 82.5591 29.6766 82.8413 29.5869C83.1235 29.4972 83.4211 29.4666 83.7157 29.4971C83.9942 29.4962 84.2701 29.5514 84.5269 29.6594C84.7837 29.7674 85.0161 29.926 85.2103 30.1257C85.4045 30.3255 85.5565 30.5623 85.6572 30.822C85.7579 31.0818 85.8052 31.3591 85.7964 31.6376ZM84.8441 31.6575C84.8678 31.4845 84.8537 31.3085 84.8026 31.1416C84.7514 30.9746 84.6646 30.8208 84.5482 30.6908C84.4317 30.5608 84.2883 30.4577 84.128 30.3887C83.9676 30.3196 83.7942 30.2863 83.6197 30.2909C83.4437 30.2857 83.2684 30.3164 83.1046 30.3811C82.9408 30.4458 82.7919 30.5431 82.6669 30.6671C82.5419 30.7912 82.4435 30.9394 82.3776 31.1027C82.3117 31.266 82.2797 31.441 82.2836 31.6171C82.2733 31.7942 82.2998 31.9715 82.3615 32.1377C82.4233 32.304 82.5189 32.4557 82.6423 32.5831C82.7657 32.7105 82.9142 32.8109 83.0784 32.8779C83.2427 32.945 83.419 32.9772 83.5963 32.9725C83.7676 32.9784 83.9382 32.9479 84.0968 32.883C84.2555 32.8181 84.3985 32.7203 84.5165 32.596C84.6345 32.4717 84.7248 32.3237 84.7814 32.162C84.8379 32.0002 84.8589 31.8282 84.8441 31.6575Z" fill="#334AFF"/>
<path d="M96.105 31.6668C96.105 32.2372 96.0903 32.8081 96.112 33.3773C96.1208 33.5996 96.0535 33.6698 95.8493 33.6482C95.8359 33.6482 95.823 33.6482 95.8095 33.6482C95.0643 33.6382 95.2205 33.7207 95.2135 33.0761C95.2029 32.0547 95.2105 32.0547 94.1874 32.0547C93.8686 32.0547 93.5492 32.0658 93.231 32.0512C92.9654 32.0389 92.88 32.1524 92.8893 32.4057C92.9034 32.7099 92.877 33.0164 92.8975 33.3206C92.9156 33.5908 92.8068 33.6809 92.5524 33.6505C92.4465 33.6415 92.34 33.6415 92.2341 33.6505C92.0388 33.6616 91.9417 33.592 91.9417 33.3785C91.9463 32.2109 91.9463 31.0434 91.9417 29.8762C91.9417 29.6802 92.0364 29.6171 92.2049 29.613C92.3506 29.61 92.4974 29.6165 92.643 29.613C92.8291 29.6089 92.9022 29.6949 92.8969 29.8797C92.8887 30.2114 92.9004 30.5437 92.8934 30.8742C92.887 31.1456 93.0209 31.2591 93.2795 31.2585C93.7843 31.2585 94.2886 31.2585 94.7934 31.2585C95.0859 31.2585 95.2304 31.1275 95.2164 30.8192C95.1949 30.5015 95.1949 30.1828 95.2164 29.8651C95.2562 29.4152 95.6171 29.6609 95.8359 29.6217C96.0359 29.5855 96.1249 29.6668 96.1108 29.9142C96.0781 30.4963 96.1003 31.0813 96.1003 31.6651L96.105 31.6668Z" fill="#334AFF"/>
<path d="M96.105 31.6668C96.105 32.2372 96.0903 32.8081 96.112 33.3773C96.1208 33.5996 96.0535 33.6698 95.8493 33.6482C95.8359 33.6482 95.823 33.6482 95.8095 33.6482C95.0643 33.6382 95.2205 33.7207 95.2135 33.0761C95.2029 32.0547 95.2105 32.0547 94.1874 32.0547C93.8686 32.0547 93.5492 32.0658 93.231 32.0512C92.9654 32.0389 92.88 32.1524 92.8893 32.4057C92.9034 32.7099 92.877 33.0164 92.8975 33.3206C92.9156 33.5908 92.8068 33.6809 92.5524 33.6505C92.4465 33.6415 92.34 33.6415 92.2341 33.6505C92.0388 33.6616 91.9417 33.592 91.9417 33.3785C91.9463 32.2109 91.9463 31.0434 91.9417 29.8762C91.9417 29.6802 92.0364 29.6171 92.2049 29.613C92.3506 29.61 92.4974 29.6165 92.643 29.613C92.8291 29.6089 92.9022 29.6949 92.8969 29.8797C92.8887 30.2114 92.9004 30.5437 92.8934 30.8742C92.887 31.1456 93.0209 31.2591 93.2795 31.2585C93.7843 31.2585 94.2886 31.2585 94.7934 31.2585C95.0859 31.2585 95.2304 31.1275 95.2164 30.8192C95.1949 30.5015 95.1949 30.1828 95.2164 29.8651C95.2562 29.4152 95.6171 29.6609 95.8359 29.6217C96.0359 29.5855 96.1249 29.6668 96.1108 29.9142C96.0781 30.4963 96.1003 31.0813 96.1003 31.6651L96.105 31.6668Z" fill="#334AFF"/>
<path d="M86.7621 31.6042C86.7621 31.0602 86.7743 30.5156 86.7562 29.9727C86.748 29.7188 86.8246 29.6012 87.0838 29.61C88.0244 29.6422 88.9674 29.5515 89.9069 29.6685C90.2106 29.7029 90.4896 29.852 90.687 30.0853C90.8843 30.3186 90.9851 30.6186 90.9685 30.9237C90.952 31.2289 90.8195 31.5162 90.5981 31.7269C90.3767 31.9375 90.0832 32.0556 89.7776 32.057C89.2465 32.0611 88.7153 32.0658 88.1841 32.057C87.8554 32.05 87.6822 32.1687 87.7074 32.5209C87.7214 32.7186 87.7074 32.9187 87.7074 33.1176C87.7074 33.6166 87.3997 33.8195 86.9106 33.6441C86.7433 33.5856 86.7585 33.4498 86.7585 33.317C86.7585 32.7465 86.7585 32.1759 86.7585 31.6054M88.7428 31.3462H89.4576C89.7811 31.3462 90.0069 31.1912 90.0122 30.8666C90.0175 30.5419 89.7893 30.384 89.4676 30.3816C89.0043 30.3781 88.5398 30.3957 88.0777 30.3728C87.7267 30.3553 87.684 30.5431 87.705 30.8174C87.7243 31.0672 87.6196 31.3854 88.0677 31.3498C88.2912 31.3322 88.5176 31.3468 88.7428 31.3462Z" fill="#334AFF"/>
<path d="M86.7621 31.6042C86.7621 31.0602 86.7743 30.5156 86.7562 29.9727C86.748 29.7188 86.8246 29.6012 87.0838 29.61C88.0244 29.6422 88.9674 29.5515 89.9069 29.6685C90.2106 29.7029 90.4896 29.852 90.687 30.0853C90.8843 30.3186 90.9851 30.6186 90.9685 30.9237C90.952 31.2289 90.8195 31.5162 90.5981 31.7269C90.3767 31.9375 90.0832 32.0556 89.7776 32.057C89.2465 32.0611 88.7153 32.0658 88.1841 32.057C87.8554 32.05 87.6822 32.1687 87.7074 32.5209C87.7214 32.7186 87.7074 32.9187 87.7074 33.1176C87.7074 33.6166 87.3997 33.8195 86.9106 33.6441C86.7433 33.5856 86.7585 33.4498 86.7585 33.317C86.7613 32.7457 86.7624 32.1748 86.7621 31.6042ZM88.7463 31.3451H89.4612C89.7847 31.3451 90.0105 31.1901 90.0157 30.8654C90.021 30.5407 89.7928 30.3828 89.4711 30.3804C89.0078 30.3769 88.5433 30.3945 88.0812 30.3717C87.7302 30.3541 87.6875 30.5419 87.7086 30.8163C87.7279 31.066 87.6231 31.3843 88.0712 31.3486C88.2947 31.3316 88.5217 31.3451 88.7463 31.3451Z" fill="#334AFF"/>
<path d="M72.8782 29.6124C73.3696 29.5999 73.8614 29.6177 74.3506 29.6656C74.6475 29.7118 74.9164 29.8674 75.1043 30.1019C75.2922 30.3363 75.3855 30.6326 75.366 30.9325C75.3464 31.2323 75.2153 31.5139 74.9984 31.7219C74.7816 31.93 74.4948 32.0493 74.1944 32.0564C73.6504 32.0564 73.1058 32.0605 72.5611 32.0564C72.2839 32.0564 72.1435 32.1606 72.1569 32.4566C72.1704 32.7526 72.1534 33.0673 72.1622 33.3721C72.168 33.5791 72.0768 33.6423 71.8767 33.6534C71.2092 33.6903 71.2098 33.6973 71.2098 33.0404C71.2098 32.019 71.2186 30.997 71.204 29.9762C71.1999 29.696 71.2917 29.5978 71.5673 29.6089C71.965 29.6247 72.364 29.6124 72.8782 29.6124ZM73.2292 30.3799V30.3764C72.9911 30.3764 72.7518 30.3904 72.5149 30.3729C72.2295 30.3512 72.1306 30.477 72.1575 30.7455C72.1692 30.8625 72.1575 30.9836 72.1575 31.1023C72.1529 31.1354 72.1562 31.1692 72.1669 31.2008C72.1777 31.2324 72.1957 31.2611 72.2195 31.2846C72.2433 31.3081 72.2722 31.3256 72.304 31.3359C72.3358 31.3462 72.3696 31.349 72.4026 31.3439C72.9186 31.3439 73.4357 31.3626 73.9499 31.3352C74.0134 31.3373 74.0767 31.3262 74.1357 31.3025C74.1947 31.2789 74.2481 31.2433 74.2926 31.1979C74.3371 31.1525 74.3717 31.0984 74.3942 31.0389C74.4166 30.9795 74.4265 30.916 74.4231 30.8525C74.4234 30.7861 74.4097 30.7203 74.3829 30.6594C74.356 30.5986 74.3167 30.5441 74.2674 30.4995C74.2182 30.4548 74.1601 30.4211 74.0969 30.4004C74.0337 30.3797 73.9669 30.3725 73.9008 30.3793C73.6761 30.3828 73.4509 30.3793 73.2263 30.3793" fill="#334AFF"/>
<path d="M72.8782 29.6124C73.3696 29.5999 73.8614 29.6177 74.3506 29.6656C74.6475 29.7118 74.9164 29.8674 75.1043 30.1019C75.2922 30.3363 75.3855 30.6326 75.366 30.9325C75.3464 31.2323 75.2153 31.5139 74.9984 31.7219C74.7816 31.93 74.4948 32.0493 74.1944 32.0564C73.6504 32.0564 73.1058 32.0605 72.5611 32.0564C72.2839 32.0564 72.1435 32.1606 72.1569 32.4566C72.1704 32.7526 72.1534 33.0673 72.1622 33.3721C72.168 33.5791 72.0768 33.6423 71.8767 33.6534C71.2092 33.6903 71.2098 33.6973 71.2098 33.0404C71.2098 32.019 71.2186 30.997 71.204 29.9762C71.1999 29.696 71.2917 29.5978 71.5673 29.6089C71.9627 29.6241 72.3617 29.6124 72.8782 29.6124ZM73.2292 30.3799V30.3764C72.9911 30.3764 72.7518 30.3904 72.5149 30.3729C72.2295 30.3512 72.1306 30.477 72.1575 30.7455C72.1692 30.8625 72.1575 30.9836 72.1575 31.1023C72.1529 31.1354 72.1562 31.1692 72.1669 31.2008C72.1777 31.2324 72.1957 31.2611 72.2195 31.2846C72.2433 31.3081 72.2722 31.3256 72.304 31.3359C72.3358 31.3462 72.3696 31.349 72.4026 31.3439C72.9186 31.3439 73.4357 31.3626 73.9499 31.3352C74.0134 31.3373 74.0767 31.3262 74.1357 31.3025C74.1947 31.2789 74.2481 31.2433 74.2926 31.1979C74.3371 31.1525 74.3717 31.0984 74.3942 31.0389C74.4166 30.9795 74.4265 30.916 74.4231 30.8525C74.4234 30.7861 74.4097 30.7203 74.3829 30.6594C74.356 30.5986 74.3167 30.5441 74.2674 30.4995C74.2182 30.4548 74.1601 30.4211 74.0969 30.4004C74.0337 30.3797 73.9669 30.3725 73.9008 30.3793C73.6779 30.3828 73.4527 30.3799 73.2292 30.3799Z" fill="#334AFF"/>
<path d="M118.26 31.5598C118.26 31.0158 118.26 30.4717 118.26 29.9277C118.26 29.761 118.252 29.6013 118.488 29.5925C118.685 29.5855 118.803 29.634 118.744 29.8639C118.734 29.9031 118.739 29.9449 118.759 29.9802C118.779 30.0156 118.812 30.0417 118.851 30.0529C118.961 30.0915 119.012 29.9879 119.079 29.9289C119.296 29.7053 119.584 29.5643 119.893 29.5301C120.203 29.496 120.515 29.5708 120.775 29.7417C120.847 29.7951 120.907 29.8628 120.951 29.9406C121.243 30.522 121.419 30.0336 121.77 29.8013C122.037 29.5929 122.372 29.4917 122.71 29.5175C123.048 29.5434 123.364 29.6945 123.596 29.9412C123.81 30.1775 123.924 30.4876 123.914 30.8063C123.927 31.6019 123.917 32.3987 123.92 33.1942C123.92 33.3598 123.939 33.5037 123.686 33.5049C123.448 33.5049 123.439 33.3879 123.44 33.2071C123.446 32.4907 123.446 31.7743 123.44 31.0579C123.437 30.3618 123.113 29.9856 122.523 29.9839C122.371 29.9742 122.22 29.9962 122.078 30.0484C121.935 30.1006 121.806 30.1819 121.697 30.2871C121.587 30.3923 121.502 30.5191 121.444 30.6594C121.387 30.7996 121.36 30.9503 121.364 31.1018C121.36 31.8037 121.359 32.5057 121.364 33.2112C121.364 33.3943 121.349 33.5107 121.113 33.5037C120.9 33.4978 120.808 33.4557 120.813 33.2112C120.828 32.4689 120.823 31.7253 120.813 30.9824C120.806 30.3735 120.571 30.0394 120.133 29.9839C119.991 29.9514 119.844 29.9474 119.701 29.9722C119.557 29.9969 119.42 30.0499 119.297 30.128C119.174 30.2062 119.068 30.3079 118.985 30.4274C118.902 30.5468 118.843 30.6816 118.813 30.8239C118.714 31.6126 118.692 32.4089 118.746 33.2018C118.746 33.3914 118.752 33.4984 118.52 33.5025C118.311 33.506 118.246 33.4376 118.25 33.2293C118.263 32.6724 118.255 32.1149 118.255 31.5575" fill="#334AFF"/>
<path d="M118.26 31.5598C118.26 31.0158 118.26 30.4717 118.26 29.9277C118.26 29.761 118.252 29.6013 118.488 29.5925C118.685 29.5855 118.803 29.634 118.744 29.8639C118.734 29.9031 118.739 29.9449 118.759 29.9802C118.779 30.0156 118.812 30.0417 118.851 30.0529C118.961 30.0915 119.012 29.9879 119.079 29.9289C119.296 29.7053 119.584 29.5643 119.893 29.5301C120.203 29.496 120.515 29.5708 120.775 29.7417C120.847 29.7951 120.907 29.8628 120.951 29.9406C121.243 30.522 121.419 30.0336 121.77 29.8013C122.037 29.5929 122.372 29.4917 122.71 29.5175C123.048 29.5434 123.364 29.6945 123.596 29.9412C123.81 30.1775 123.924 30.4876 123.914 30.8063C123.927 31.6019 123.917 32.3987 123.92 33.1942C123.92 33.3598 123.939 33.5037 123.686 33.5049C123.448 33.5049 123.439 33.3879 123.44 33.2071C123.446 32.4907 123.446 31.7743 123.44 31.0579C123.437 30.3618 123.113 29.9856 122.523 29.9839C122.371 29.9742 122.22 29.9962 122.078 30.0484C121.935 30.1006 121.806 30.1819 121.697 30.2871C121.587 30.3923 121.502 30.5191 121.444 30.6594C121.387 30.7996 121.36 30.9503 121.364 31.1018C121.36 31.8037 121.359 32.5057 121.364 33.2112C121.364 33.3943 121.349 33.5107 121.113 33.5037C120.9 33.4978 120.808 33.4557 120.813 33.2112C120.828 32.4689 120.823 31.7253 120.813 30.9824C120.806 30.3735 120.571 30.0394 120.133 29.9839C119.991 29.9514 119.844 29.9474 119.701 29.9722C119.557 29.9969 119.42 30.0499 119.297 30.128C119.174 30.2062 119.068 30.3079 118.985 30.4274C118.902 30.5468 118.843 30.6816 118.813 30.8239C118.714 31.6126 118.692 32.4089 118.746 33.2018C118.746 33.3914 118.752 33.4984 118.52 33.5025C118.311 33.506 118.246 33.4376 118.25 33.2293C118.268 32.6748 118.26 32.1173 118.26 31.5598Z" fill="#334AFF"/>
<path d="M104.648 29.6106C105.193 29.6106 105.737 29.6147 106.281 29.6106C106.56 29.6077 106.791 29.5814 106.784 30.0067C106.777 30.4068 106.565 30.3887 106.298 30.3811C106.059 30.374 105.817 30.4021 105.582 30.374C105.206 30.3302 105.07 30.4501 105.085 30.8461C105.115 31.6546 105.071 32.4659 105.103 33.2738C105.121 33.7166 104.852 33.6377 104.591 33.6529C104.303 33.6693 104.123 33.647 104.134 33.265C104.165 32.4461 104.128 31.6195 104.151 30.7976C104.16 30.4548 104.034 30.3501 103.713 30.374C103.42 30.3957 103.128 30.3606 102.835 30.3834C102.521 30.408 102.464 30.2664 102.457 29.9845C102.45 29.6768 102.565 29.5978 102.853 29.606C103.45 29.6235 104.048 29.6112 104.646 29.6112" fill="#334AFF"/>
<path d="M104.648 29.6106C105.193 29.6106 105.737 29.6147 106.281 29.6106C106.56 29.6077 106.791 29.5814 106.784 30.0067C106.777 30.4068 106.565 30.3887 106.298 30.3811C106.059 30.374 105.817 30.4021 105.582 30.374C105.206 30.3302 105.07 30.4501 105.085 30.8461C105.115 31.6546 105.071 32.4659 105.103 33.2738C105.121 33.7166 104.852 33.6377 104.591 33.6529C104.303 33.6693 104.123 33.647 104.134 33.265C104.165 32.4461 104.128 31.6195 104.151 30.7976C104.16 30.4548 104.034 30.3501 103.713 30.374C103.42 30.3957 103.128 30.3606 102.835 30.3834C102.521 30.408 102.464 30.2664 102.457 29.9845C102.45 29.6768 102.565 29.5978 102.853 29.606C103.452 29.6229 104.05 29.6106 104.648 29.6106Z" fill="#334AFF"/>
<path d="M125.268 32.2664C125.268 31.4703 125.272 30.6747 125.264 29.8786C125.264 29.7189 125.244 29.5896 125.469 29.5902C125.671 29.5902 125.762 29.665 125.756 29.8727C125.756 29.964 125.691 30.0997 125.842 30.14C125.965 30.1728 126.029 30.0675 126.105 29.9961C126.337 29.7591 126.638 29.6011 126.964 29.5445C127.291 29.4879 127.627 29.5356 127.926 29.6808C128.227 29.802 128.485 30.011 128.666 30.2807C128.847 30.5503 128.943 30.8682 128.942 31.193C128.997 31.5997 128.968 32.0135 128.857 32.4086C128.77 32.6819 128.616 32.9288 128.409 33.1264C128.201 33.3239 127.947 33.4656 127.669 33.5383C127.392 33.611 127.101 33.6122 126.823 33.5419C126.545 33.4716 126.29 33.3321 126.081 33.1363C126 33.0667 125.928 32.9684 125.809 33.0322C125.707 33.0866 125.755 33.1983 125.754 33.2837C125.749 33.7482 125.747 34.2127 125.754 34.6766C125.758 34.8784 125.717 35.0129 125.474 35.003C125.214 34.993 125.253 34.8486 125.257 34.652C125.277 33.8564 125.266 33.0603 125.266 32.2641L125.268 32.2664ZM127.169 33.1773C127.402 33.2054 127.638 33.1541 127.839 33.0318C128.04 32.9095 128.194 32.7232 128.277 32.5028C128.41 32.2097 128.477 31.8907 128.473 31.5687C128.468 31.2467 128.393 30.9296 128.251 30.6402C128.155 30.4631 128.019 30.3105 127.854 30.1939C127.689 30.0774 127.5 29.9999 127.301 29.9676C127.102 29.9352 126.898 29.9487 126.705 30.0071C126.512 30.0654 126.334 30.1671 126.186 30.3044C126.01 30.5077 125.879 30.7467 125.804 31.005C125.728 31.2634 125.709 31.535 125.748 31.8014C125.739 31.9882 125.77 32.1747 125.839 32.3486C125.908 32.5225 126.013 32.6797 126.147 32.8098C126.282 32.9399 126.442 33.04 126.618 33.1034C126.794 33.1667 126.982 33.1919 127.168 33.1773" fill="#334AFF"/>
<path d="M125.268 32.2664C125.268 31.4703 125.272 30.6747 125.264 29.8786C125.264 29.7189 125.244 29.5896 125.469 29.5902C125.671 29.5902 125.762 29.665 125.756 29.8727C125.756 29.964 125.691 30.0997 125.842 30.14C125.965 30.1728 126.029 30.0675 126.105 29.9961C126.337 29.7591 126.638 29.6011 126.964 29.5445C127.291 29.4879 127.627 29.5356 127.926 29.6808C128.227 29.802 128.485 30.011 128.666 30.2807C128.847 30.5503 128.943 30.8682 128.942 31.193C128.997 31.5997 128.968 32.0135 128.857 32.4086C128.77 32.6819 128.616 32.9288 128.409 33.1264C128.201 33.3239 127.947 33.4656 127.669 33.5383C127.392 33.611 127.101 33.6122 126.823 33.5419C126.545 33.4716 126.29 33.3321 126.081 33.1363C126 33.0667 125.928 32.9684 125.809 33.0322C125.707 33.0866 125.755 33.1983 125.754 33.2837C125.749 33.7482 125.747 34.2127 125.754 34.6766C125.758 34.8784 125.717 35.0129 125.474 35.003C125.214 34.993 125.253 34.8486 125.257 34.652C125.277 33.8564 125.266 33.0603 125.266 32.2641L125.268 32.2664ZM127.169 33.1773C127.402 33.2054 127.638 33.1541 127.839 33.0318C128.04 32.9095 128.194 32.7232 128.277 32.5028C128.41 32.2097 128.477 31.8907 128.473 31.5687C128.468 31.2467 128.393 30.9296 128.251 30.6402C128.155 30.4631 128.019 30.3105 127.854 30.1939C127.689 30.0774 127.5 29.9999 127.301 29.9676C127.102 29.9352 126.898 29.9487 126.705 30.0071C126.512 30.0654 126.334 30.1671 126.186 30.3044C126.01 30.5077 125.879 30.7467 125.804 31.005C125.728 31.2634 125.709 31.535 125.748 31.8014C125.739 31.9883 125.77 32.175 125.839 32.3489C125.908 32.5229 126.013 32.6802 126.147 32.8104C126.282 32.9406 126.442 33.0407 126.618 33.1041C126.794 33.1674 126.982 33.192 127.169 33.1773Z" fill="#334AFF"/>
<path d="M132.905 32.1132C132.905 32.4846 132.9 32.8567 132.905 33.2281C132.908 33.3732 132.912 33.513 132.718 33.4949C132.588 33.4826 132.391 33.5984 132.367 33.3159C132.34 33.0023 132.167 33.1638 132.052 33.2574C131.832 33.4268 131.572 33.5375 131.297 33.5792C131.022 33.6208 130.741 33.592 130.481 33.4955C130.278 33.4568 130.094 33.3501 129.96 33.1929C129.825 33.0357 129.749 32.8375 129.742 32.6309C129.707 32.4202 129.741 32.2036 129.839 32.0142C129.938 31.8248 130.097 31.673 130.29 31.582C130.814 31.3272 131.396 31.2192 131.976 31.2696C132.302 31.2883 132.395 31.162 132.379 30.8537C132.388 30.6689 132.339 30.486 132.238 30.3309C132.137 30.1757 131.99 30.0561 131.818 29.9891C131.594 29.9104 131.352 29.9034 131.124 29.9691C130.896 30.0349 130.694 30.1701 130.547 30.3559C130.506 30.4226 130.488 30.5027 130.449 30.5706C130.405 30.6393 130.337 30.6886 130.258 30.7081C130.18 30.7276 130.096 30.7159 130.026 30.6753C129.838 30.6027 129.971 30.4413 130.009 30.3424C130.171 30.0493 130.42 29.8137 130.722 29.6681C131.024 29.5225 131.363 29.474 131.694 29.5293C132.598 29.7264 132.864 30.0429 132.899 30.9982C132.912 31.3691 132.899 31.7411 132.899 32.1126L132.905 32.1132ZM132.378 32.0903C132.378 31.8692 132.437 31.6083 132.1 31.5843C131.641 31.5326 131.176 31.6005 130.751 31.7815C130.619 31.8265 130.504 31.9105 130.422 32.0224C130.339 32.1344 130.292 32.2689 130.288 32.408C130.282 32.7122 130.33 32.9836 130.616 33.1059C130.815 33.1924 131.031 33.2303 131.247 33.2166C131.463 33.2029 131.673 33.1378 131.859 33.0269C132.026 32.9367 132.163 32.8006 132.255 32.6348C132.347 32.4689 132.39 32.2802 132.378 32.0909" fill="#334AFF"/>
<path d="M132.905 32.1132C132.905 32.4846 132.9 32.8567 132.905 33.2281C132.908 33.3732 132.912 33.513 132.718 33.4949C132.588 33.4826 132.391 33.5984 132.367 33.3159C132.34 33.0023 132.167 33.1638 132.052 33.2574C131.832 33.4268 131.572 33.5375 131.297 33.5792C131.022 33.6208 130.741 33.592 130.481 33.4955C130.278 33.4568 130.094 33.3501 129.96 33.1929C129.825 33.0357 129.749 32.8375 129.742 32.6309C129.707 32.4202 129.741 32.2036 129.839 32.0142C129.938 31.8248 130.097 31.673 130.29 31.582C130.814 31.3272 131.396 31.2192 131.976 31.2696C132.302 31.2883 132.395 31.162 132.379 30.8537C132.388 30.6689 132.339 30.486 132.238 30.3309C132.137 30.1757 131.99 30.0561 131.818 29.9891C131.594 29.9104 131.352 29.9034 131.124 29.9691C130.896 30.0349 130.694 30.1701 130.547 30.3559C130.506 30.4226 130.488 30.5027 130.449 30.5706C130.405 30.6393 130.337 30.6886 130.258 30.7081C130.18 30.7276 130.096 30.7159 130.026 30.6753C129.838 30.6027 129.971 30.4413 130.009 30.3424C130.171 30.0493 130.42 29.8137 130.722 29.6681C131.024 29.5225 131.363 29.474 131.694 29.5293C132.598 29.7264 132.864 30.0429 132.899 30.9982C132.912 31.3691 132.899 31.7411 132.899 32.1126L132.905 32.1132ZM132.378 32.0903C132.378 31.8692 132.437 31.6083 132.1 31.5843C131.641 31.5326 131.176 31.6005 130.751 31.7815C130.619 31.8265 130.504 31.9105 130.422 32.0224C130.339 32.1344 130.292 32.2689 130.288 32.408C130.282 32.7122 130.33 32.9836 130.616 33.1059C130.815 33.1924 131.031 33.2303 131.247 33.2166C131.463 33.2029 131.673 33.1378 131.859 33.0269C132.026 32.9366 132.164 32.8003 132.256 32.6343C132.348 32.4682 132.39 32.2798 132.378 32.0903Z" fill="#334AFF"/>
<path d="M67.0531 32.0418C67.0531 32.4396 67.0531 32.838 67.0531 33.2358C67.0531 33.3721 67.0653 33.5224 66.8618 33.4949C66.7296 33.4774 66.5476 33.5897 66.5108 33.3147C66.4663 33.0088 66.306 33.1901 66.185 33.282C65.9428 33.4553 65.6599 33.5632 65.3639 33.595C65.0678 33.6269 64.7684 33.5817 64.4949 33.4639C64.3151 33.3939 64.1627 33.2679 64.06 33.1045C63.9574 32.9411 63.9101 32.749 63.9252 32.5566C63.9004 32.3593 63.9378 32.1592 64.0322 31.9842C64.1266 31.8092 64.2732 31.668 64.4517 31.5803C64.9158 31.3614 65.4238 31.2517 65.9369 31.2597C66.1206 31.255 66.395 31.3767 66.4745 31.1585C66.5235 31.0277 66.5431 30.8878 66.532 30.7486C66.5209 30.6094 66.4793 30.4743 66.4102 30.353C66.3123 30.223 66.1857 30.1174 66.0401 30.0446C65.8946 29.9718 65.7342 29.9336 65.5714 29.9333C65.4087 29.9329 65.2481 29.9702 65.1022 30.0423C64.9564 30.1144 64.8292 30.2194 64.7307 30.3489C64.6827 30.4267 64.6377 30.5068 64.5885 30.5829C64.547 30.6448 64.4838 30.6889 64.4113 30.7065C64.3388 30.724 64.2624 30.7137 64.1972 30.6777C64.0357 30.6069 64.1235 30.4694 64.1785 30.3442C64.3394 30.0515 64.5872 29.816 64.8878 29.6701C65.1883 29.5243 65.5267 29.4753 65.8562 29.5299C66.7594 29.7288 67.0554 30.1014 67.0566 31.0456C67.0566 31.3771 67.0566 31.7086 67.0566 32.0401M66.5067 32.122C66.4903 31.9178 66.6073 31.6265 66.2727 31.5908C65.7626 31.5186 65.2426 31.6065 64.7845 31.8424C64.6786 31.902 64.5891 31.987 64.5241 32.0898C64.459 32.1925 64.4206 32.3098 64.412 32.4311C64.4035 32.5524 64.4252 32.6739 64.4752 32.7847C64.5252 32.8956 64.6019 32.9922 64.6985 33.0661C64.8881 33.1709 65.1013 33.2254 65.3179 33.2244C65.5345 33.2234 65.7472 33.1669 65.9358 33.0603C66.1226 32.9917 66.2807 32.8618 66.3844 32.6918C66.4881 32.5219 66.5312 32.3219 66.5067 32.1243" fill="#334AFF"/>
<path d="M67.0531 32.0418C67.0531 32.4396 67.0531 32.838 67.0531 33.2358C67.0531 33.3721 67.0653 33.5224 66.8618 33.4949C66.7296 33.4774 66.5476 33.5897 66.5108 33.3147C66.4663 33.0088 66.306 33.1901 66.185 33.282C65.9428 33.4553 65.6599 33.5632 65.3639 33.595C65.0678 33.6269 64.7684 33.5817 64.4949 33.4639C64.3151 33.3939 64.1627 33.2679 64.06 33.1045C63.9574 32.9411 63.9101 32.749 63.9252 32.5566C63.9004 32.3593 63.9378 32.1592 64.0322 31.9842C64.1266 31.8092 64.2732 31.668 64.4517 31.5803C64.9158 31.3614 65.4238 31.2517 65.9369 31.2597C66.1206 31.255 66.395 31.3767 66.4745 31.1585C66.5235 31.0277 66.5431 30.8878 66.532 30.7486C66.5209 30.6094 66.4793 30.4743 66.4102 30.353C66.3123 30.223 66.1857 30.1174 66.0401 30.0446C65.8946 29.9718 65.7342 29.9336 65.5714 29.9333C65.4087 29.9329 65.2481 29.9702 65.1022 30.0423C64.9564 30.1144 64.8292 30.2194 64.7307 30.3489C64.6827 30.4267 64.6377 30.5068 64.5885 30.5829C64.547 30.6448 64.4838 30.6889 64.4113 30.7065C64.3388 30.724 64.2624 30.7137 64.1972 30.6777C64.0357 30.6069 64.1235 30.4694 64.1785 30.3442C64.3394 30.0515 64.5872 29.816 64.8878 29.6701C65.1883 29.5243 65.5267 29.4753 65.8562 29.5299C66.7594 29.7288 67.0554 30.1014 67.0566 31.0456C67.055 31.3783 67.0538 31.7103 67.0531 32.0418ZM66.5032 32.1237C66.4868 31.9196 66.6038 31.6282 66.2692 31.5926C65.759 31.5203 65.2391 31.6082 64.781 31.8441C64.6751 31.9038 64.5856 31.9888 64.5205 32.0915C64.4555 32.1943 64.417 32.3116 64.4085 32.4328C64.4 32.5541 64.4217 32.6756 64.4717 32.7865C64.5217 32.8973 64.5984 32.994 64.695 33.0679C64.8846 33.1727 65.0978 33.2272 65.3144 33.2262C65.531 33.2251 65.7437 33.1686 65.9322 33.062C66.1195 32.9933 66.278 32.8631 66.3817 32.6927C66.4854 32.5222 66.5282 32.3217 66.5032 32.1237Z" fill="#334AFF"/>
<path d="M115.407 33.571C115.142 33.5855 114.878 33.5422 114.631 33.4441C114.385 33.3459 114.163 33.1954 113.981 33.0028C113.799 32.8102 113.661 32.5803 113.576 32.3289C113.492 32.0776 113.464 31.811 113.493 31.5475C113.522 30.2646 114.223 29.5358 115.437 29.5381C116.607 29.5381 117.341 30.2401 117.368 31.5604C117.395 31.8267 117.364 32.0959 117.276 32.3489C117.189 32.6019 117.046 32.8325 116.859 33.0243C116.672 33.2161 116.446 33.3645 116.195 33.459C115.944 33.5535 115.676 33.5917 115.409 33.571M114.032 31.5604C114.026 31.6531 114.026 31.7461 114.032 31.8388C114.049 32.0956 114.133 32.3434 114.275 32.5579C114.417 32.7724 114.613 32.9462 114.842 33.062C115.049 33.1685 115.28 33.2177 115.512 33.2045C115.744 33.1913 115.968 33.1163 116.161 32.9871C116.482 32.7217 116.706 32.3573 116.796 31.951C116.887 31.5448 116.84 31.1199 116.663 30.7432C116.577 30.5516 116.448 30.3826 116.286 30.2492C116.123 30.1159 115.932 30.0219 115.728 29.9745C115.523 29.9271 115.31 29.9276 115.106 29.976C114.901 30.0244 114.711 30.1194 114.549 30.2535C114.368 30.4165 114.226 30.6193 114.136 30.846C114.046 31.0728 114.01 31.3173 114.03 31.5604" fill="#334AFF"/>
<path d="M115.407 33.571C115.142 33.5855 114.878 33.5422 114.631 33.4441C114.385 33.3459 114.163 33.1954 113.981 33.0028C113.799 32.8102 113.661 32.5803 113.576 32.3289C113.492 32.0776 113.464 31.811 113.493 31.5475C113.522 30.2646 114.223 29.5358 115.437 29.5381C116.607 29.5381 117.341 30.2401 117.368 31.5604C117.395 31.8269 117.364 32.0964 117.276 32.3495C117.188 32.6027 117.046 32.8334 116.859 33.0253C116.671 33.2171 116.444 33.3655 116.193 33.4598C115.943 33.5541 115.674 33.592 115.407 33.571ZM114.029 31.5604C114.023 31.6531 114.023 31.7461 114.029 31.8388C114.046 32.0956 114.13 32.3434 114.272 32.5579C114.415 32.7724 114.61 32.9462 114.84 33.062C115.047 33.1685 115.278 33.2177 115.51 33.2045C115.742 33.1913 115.966 33.1163 116.159 32.9871C116.48 32.7217 116.703 32.3573 116.794 31.951C116.885 31.5448 116.838 31.1199 116.661 30.7432C116.575 30.5516 116.446 30.3826 116.283 30.2492C116.121 30.1159 115.93 30.0219 115.725 29.9745C115.521 29.9271 115.308 29.9276 115.103 29.976C114.899 30.0244 114.709 30.1194 114.547 30.2535C114.366 30.4167 114.224 30.6196 114.135 30.8464C114.045 31.0733 114.009 31.3173 114.029 31.5604Z" fill="#334AFF"/>
<path d="M134.181 31.5399C134.181 30.9824 134.194 30.4249 134.173 29.868C134.166 29.7048 134.173 29.6065 134.348 29.5954C134.512 29.5855 134.678 29.579 134.685 29.8189C134.685 29.9148 134.63 30.0529 134.784 30.0821C134.906 30.1055 134.959 29.9838 135.039 29.9172C135.261 29.7082 135.543 29.5729 135.845 29.5299C136.146 29.4869 136.454 29.5381 136.726 29.6767C136.952 29.7876 137.139 29.9659 137.259 30.1871C137.38 30.4082 137.429 30.6614 137.4 30.9116C137.392 31.6949 137.392 32.4782 137.419 33.2609C137.427 33.489 137.333 33.4891 137.172 33.5007C136.984 33.5142 136.915 33.454 136.917 33.2574C136.927 32.5408 136.921 31.8242 136.921 31.107C136.921 30.3769 136.601 30.0248 136 29.9757C135.837 29.9576 135.671 29.9737 135.515 30.0228C135.358 30.0719 135.213 30.153 135.089 30.261C134.965 30.3689 134.865 30.5014 134.795 30.6501C134.725 30.7987 134.686 30.9603 134.682 31.1246C134.689 31.8148 134.677 32.5051 134.686 33.1954C134.686 33.3984 134.661 33.5107 134.413 33.5054C134.145 33.4996 134.173 33.3656 134.179 33.172C134.197 32.628 134.185 32.0833 134.185 31.5393L134.181 31.5399Z" fill="#334AFF"/>
<path d="M134.181 31.5399C134.181 30.9824 134.194 30.4249 134.173 29.868C134.166 29.7048 134.173 29.6065 134.348 29.5954C134.512 29.5855 134.678 29.579 134.685 29.8189C134.685 29.9148 134.63 30.0529 134.784 30.0821C134.906 30.1055 134.959 29.9838 135.039 29.9172C135.261 29.7082 135.543 29.5729 135.845 29.5299C136.146 29.4869 136.454 29.5381 136.726 29.6767C136.952 29.7876 137.139 29.9659 137.259 30.1871C137.38 30.4082 137.429 30.6614 137.4 30.9116C137.392 31.6949 137.392 32.4782 137.419 33.2609C137.427 33.489 137.333 33.4891 137.172 33.5007C136.984 33.5142 136.915 33.454 136.917 33.2574C136.927 32.5408 136.921 31.8242 136.921 31.107C136.921 30.3769 136.601 30.0248 136 29.9757C135.837 29.9576 135.671 29.9737 135.515 30.0228C135.358 30.0719 135.213 30.153 135.089 30.261C134.965 30.3689 134.865 30.5014 134.795 30.6501C134.725 30.7987 134.686 30.9603 134.682 31.1246C134.689 31.8148 134.677 32.5051 134.686 33.1954C134.686 33.3984 134.661 33.5107 134.413 33.5054C134.145 33.4996 134.173 33.3656 134.179 33.172C134.197 32.628 134.185 32.0833 134.185 31.5393L134.181 31.5399Z" fill="#334AFF"/>
<path d="M138.187 29.5936C138.279 29.5827 138.373 29.6057 138.449 29.6583C138.526 29.7109 138.582 29.7895 138.605 29.8797C138.933 30.6507 139.275 31.4158 139.61 32.1839C139.644 32.2617 139.623 32.384 139.762 32.3752C139.89 32.367 139.919 32.2728 139.958 32.1652C140.22 31.4545 140.48 30.7437 140.769 30.0441C140.84 29.8721 140.85 29.6059 141.143 29.5925C141.356 29.5825 141.476 29.6211 141.371 29.8738C140.813 31.213 140.258 32.5532 139.706 33.8944C139.586 34.1842 139.467 34.4741 139.348 34.7643C139.296 34.8924 139.231 34.9913 139.069 35.0024C138.797 35.0211 138.752 34.9053 138.85 34.68C139.025 34.2706 139.195 33.8611 139.384 33.4568C139.429 33.371 139.453 33.2756 139.454 33.1786C139.455 33.0816 139.432 32.9858 139.388 32.8994C138.937 31.8979 138.507 30.887 138.056 29.8861C137.957 29.6662 137.95 29.5585 138.186 29.5936" fill="#334AFF"/>
<path d="M138.187 29.5937C138.279 29.5828 138.373 29.6057 138.449 29.6583C138.526 29.7109 138.582 29.7896 138.605 29.8797C138.933 30.6507 139.275 31.4159 139.61 32.184C139.644 32.2618 139.623 32.384 139.761 32.3753C139.89 32.3671 139.919 32.2729 139.958 32.1653C140.22 31.4545 140.48 30.7438 140.769 30.0441C140.84 29.8721 140.85 29.606 141.143 29.5925C141.356 29.5826 141.476 29.6212 141.371 29.8739C140.813 31.2131 140.258 32.5533 139.706 33.8945C139.586 34.1842 139.467 34.4742 139.348 34.7643C139.296 34.8924 139.231 34.9913 139.069 35.0024C138.797 35.0211 138.752 34.9053 138.849 34.6801C139.025 34.2706 139.195 33.8611 139.384 33.4569C139.429 33.3711 139.453 33.2757 139.454 33.1787C139.455 33.0816 139.432 32.9859 139.388 32.8994C138.937 31.8979 138.507 30.8871 138.056 29.8862C137.958 29.6668 137.951 29.5592 138.187 29.5937Z" fill="#334AFF"/>
<path d="M109.641 31.5732C109.597 31.8686 109.645 32.1706 109.78 32.437C109.915 32.7034 110.131 32.9209 110.395 33.0591C110.549 33.1428 110.719 33.1938 110.893 33.2089C111.068 33.2239 111.244 33.2028 111.41 33.1468C111.576 33.0908 111.729 33.0011 111.858 32.8833C111.988 32.7655 112.092 32.6222 112.164 32.4624C112.265 32.2348 112.403 32.1611 112.581 32.2366C112.807 32.3314 112.636 32.5127 112.581 32.6361C112.27 33.351 111.633 33.6558 110.673 33.5686C110.327 33.5186 110.002 33.3716 109.736 33.1447C109.471 32.9177 109.275 32.6201 109.171 32.2863C108.985 31.7737 109.009 31.2083 109.238 30.7133C109.467 30.2183 109.882 29.8338 110.393 29.6434C110.789 29.4796 111.231 29.4694 111.633 29.6149C112.036 29.7603 112.37 30.0509 112.569 30.4296C112.613 30.5466 112.797 30.7309 112.55 30.8303C112.348 30.9116 112.203 30.8139 112.113 30.6103C112.037 30.4356 111.915 30.2845 111.761 30.1726C111.607 30.0608 111.425 29.9924 111.235 29.9745C111.039 29.9419 110.837 29.9528 110.645 30.0062C110.453 30.0597 110.274 30.1545 110.123 30.2841C109.971 30.4136 109.849 30.5747 109.766 30.7562C109.683 30.9376 109.641 31.135 109.642 31.3346C109.639 31.4141 109.642 31.4943 109.642 31.5732" fill="#334AFF"/>
<path d="M109.641 31.5732C109.597 31.8686 109.645 32.1706 109.78 32.437C109.915 32.7034 110.131 32.9209 110.395 33.0591C110.549 33.1428 110.719 33.1938 110.893 33.2089C111.068 33.2239 111.244 33.2028 111.41 33.1468C111.576 33.0908 111.729 33.0011 111.858 32.8833C111.988 32.7655 112.092 32.6222 112.164 32.4624C112.265 32.2348 112.403 32.1611 112.581 32.2366C112.807 32.3314 112.636 32.5127 112.581 32.6361C112.27 33.351 111.633 33.6558 110.673 33.5686C110.327 33.5186 110.002 33.3716 109.736 33.1447C109.471 32.9177 109.275 32.6201 109.171 32.2863C108.985 31.7737 109.009 31.2083 109.238 30.7133C109.467 30.2183 109.882 29.8338 110.393 29.6434C110.789 29.4796 111.231 29.4694 111.633 29.6149C112.036 29.7603 112.37 30.0509 112.569 30.4296C112.613 30.5466 112.797 30.7309 112.55 30.8303C112.348 30.9116 112.203 30.8139 112.113 30.6103C112.037 30.4356 111.915 30.2845 111.761 30.1726C111.607 30.0608 111.425 29.9924 111.235 29.9745C111.039 29.9419 110.837 29.9528 110.645 30.0062C110.453 30.0597 110.274 30.1545 110.123 30.2841C109.971 30.4136 109.849 30.5747 109.766 30.7562C109.683 30.9376 109.641 31.135 109.642 31.3346C109.639 31.4135 109.641 31.4937 109.641 31.5732Z" fill="#334AFF"/>
<path d="M122.526 11.7214C122.493 13.0873 122.559 14.4538 122.485 15.8192C122.495 15.9668 122.473 16.1149 122.421 16.2534C122.369 16.3919 122.288 16.5177 122.183 16.6224C122.079 16.727 121.953 16.8081 121.814 16.8601C121.676 16.9122 121.528 16.934 121.38 16.9242C120.125 16.9827 119.976 16.3924 119.951 15.2125C119.91 13.4225 119.933 11.6307 119.943 9.83948C119.916 9.07131 119.936 8.30224 120.001 7.53641C120.089 6.84086 120.36 6.53433 121.064 6.4735C121.952 6.39686 122.45 6.71275 122.489 7.70196C122.543 9.04156 122.489 10.3806 122.524 11.7196" fill="#334AFF"/>
<path d="M122.526 11.7214C122.493 13.0873 122.559 14.4538 122.485 15.8192C122.495 15.9668 122.473 16.1149 122.421 16.2534C122.369 16.3919 122.288 16.5177 122.183 16.6224C122.079 16.727 121.953 16.8081 121.814 16.8601C121.676 16.9122 121.528 16.934 121.38 16.9242C120.125 16.9827 119.976 16.3924 119.951 15.2125C119.91 13.4225 119.933 11.6307 119.943 9.83948C119.916 9.07131 119.936 8.30224 120.001 7.53641C120.089 6.84086 120.36 6.53433 121.064 6.4735C121.952 6.39686 122.45 6.71275 122.489 7.70196C122.546 9.04332 122.489 10.3823 122.526 11.7214Z" fill="#334AFF" stroke="white" stroke-miterlimit="10"/>
<path d="M144.364 2.70813V0.99513H143.788V0.68613H145.315V0.99513H144.733V2.70813H144.364ZM145.723 6.70813L145.684 5.88313C145.672 5.62213 145.657 5.30713 145.66 5.03413H145.651C145.585 5.28013 145.501 5.55313 145.411 5.80813L145.117 6.68413H144.832L144.562 5.82013C144.484 5.56213 144.412 5.28613 144.358 5.03413H144.352C144.343 5.29813 144.331 5.61913 144.316 5.89513L144.271 6.70813H143.926L144.061 4.68613H144.547L144.811 5.49913C144.883 5.73613 144.946 5.97613 144.997 6.20113H145.006C145.06 5.98213 145.129 5.73313 145.207 5.49613L145.486 4.68613H145.966L146.083 6.70813H145.723Z" fill="#334AFF"/>
</g>
</g>
<defs>
<clipPath id="clip0_1751_28796">
<rect width="156.19" height="35.0989" fill="white"/>
</clipPath>
</defs>
</svg>
