<svg width="117" height="23" viewBox="0 0 117 23" fill="none" xmlns="http://www.w3.org/2000/svg">
<g clip-path="url(#clip0_1751_28821)">
<path d="M9.43333 9.99709C9.40107 10.0391 9.37837 10.0876 9.36682 10.1393C9.35528 10.191 9.35516 10.2446 9.36649 10.2963C9.36649 12.1397 9.37097 13.983 9.3595 15.8266C9.3595 16.1373 9.44004 16.2592 9.76922 16.2477C10.3699 16.2248 10.9718 16.2477 11.5711 16.2385C11.8128 16.234 11.9095 16.3224 11.9067 16.5699C11.9021 18.4754 11.9021 20.3817 11.9067 22.2889C11.9067 22.5535 11.8055 22.6365 11.5502 22.6365C7.81972 22.6319 4.09003 22.6319 0.361091 22.6365C0.0814197 22.6365 -0.000244141 22.5283 -0.000244141 22.2615C0.00665441 20.3767 0.00665441 18.4919 -0.000244141 16.6071C-0.000244141 16.3378 0.0872928 16.2296 0.365565 16.2365C0.92239 16.2503 1.48173 16.2321 2.04107 16.2458C2.30564 16.2528 2.41863 16.1745 2.41611 15.8892C2.40921 12.8445 2.40921 9.80058 2.41611 6.75739C2.41611 6.48359 2.3241 6.38459 2.04779 6.39158C1.47949 6.40528 0.910923 6.38934 0.340115 6.39857C0.101276 6.4022 3.55302e-05 6.32054 3.55302e-05 6.06884C0.00917144 4.1516 0.0101037 2.23455 0.00283224 0.317688C0.00283224 0.0838828 0.099039 0.00221896 0.324454 0.00445633C3.2541 0.00911751 6.1829 0.00911751 9.11087 0.00445633C9.19992 0.0053144 9.28714 0.029858 9.36356 0.0755669C9.43999 0.121276 9.50288 0.186503 9.54576 0.26455C10.7679 1.96756 11.9916 3.66926 13.2167 5.36966C13.9998 6.4559 14.7829 7.53767 15.5595 8.62838C15.7091 8.84009 15.7967 8.89547 15.9759 8.64209C17.9642 5.86869 19.9564 3.09845 21.9525 0.331391C22.0174 0.224992 22.1098 0.138057 22.22 0.0797359C22.3301 0.0214144 22.4539 -0.00613692 22.5784 -1.84074e-05C25.4137 0.00921073 28.2465 0.00445633 31.0818 0.00697336C31.4938 0.00697336 31.503 0.0184399 31.503 0.437387V5.96732C31.503 6.38375 31.4915 6.39549 31.0796 6.39549C30.532 6.39549 29.9841 6.40472 29.4365 6.39326C29.1949 6.38878 29.1009 6.47156 29.1009 6.71991C29.1056 9.77373 29.1056 12.8276 29.1009 15.8816C29.1009 16.1613 29.2114 16.25 29.4785 16.243C30.0146 16.2293 30.5532 16.2385 31.0894 16.2407C31.4876 16.2407 31.5036 16.257 31.5036 16.6457V22.2058C31.5036 22.6178 31.4898 22.6315 31.0754 22.6315H21.5934C21.0458 22.6315 20.4979 22.6245 19.9503 22.6315C19.7065 22.636 19.6119 22.5325 19.6119 22.2931C19.6166 20.376 19.6166 18.459 19.6119 16.5419C19.6119 16.3048 19.7179 16.2312 19.9411 16.236C20.5844 16.243 21.2276 16.2338 21.8708 16.2405C22.0873 16.2427 22.2023 16.1845 22.2023 15.939C22.1953 14.0011 22.1978 12.0636 22.1978 10.1257C22.1933 10.0869 22.1857 10.0484 22.1749 10.0108C22.0275 10.0614 21.9768 10.1948 21.9033 10.2961L15.972 18.3671C15.7441 18.6778 15.7374 18.6823 15.5002 18.3534C13.7079 15.8816 11.9157 13.4089 10.1236 10.9351C9.89814 10.6244 9.67245 10.3159 9.44004 9.99625L9.43333 9.99709Z" fill="#FFCB34"/>
<path d="M108.059 14.1027C108.004 14.1953 107.985 14.3044 108.003 14.4103V20.0356C108.003 20.1195 108.003 20.2034 108.008 20.2887C108.036 21.0897 108.249 21.3336 109.034 21.4633C109.168 21.4915 109.304 21.5084 109.441 21.5139C109.747 21.5139 109.793 21.6913 109.784 21.9488C109.773 22.2526 109.559 22.2019 109.379 22.2019H100.847C100.656 22.2019 100.462 22.2299 100.451 21.9326C100.442 21.6588 100.52 21.5506 100.815 21.5184C101.74 21.4216 101.901 21.1663 101.659 20.2733C101.583 19.9881 101.487 19.7095 101.41 19.4242C101.4 19.3408 101.357 19.2649 101.29 19.2131C101.224 19.1614 101.14 19.1381 101.056 19.1482C99.9607 19.1552 98.8652 19.1504 97.7697 19.1504C97.6249 19.1504 97.4901 19.1667 97.4406 19.3322C97.3024 19.7833 97.0655 20.2068 97.0608 20.6945C97.0355 20.8537 97.0725 21.0165 97.1643 21.1489C97.256 21.2814 97.3954 21.3734 97.5533 21.4057C97.7814 21.4884 98.0218 21.532 98.2645 21.5346C98.5338 21.5369 98.5223 21.7164 98.5268 21.9052C98.5313 22.094 98.467 22.2019 98.2575 22.1997C96.9089 22.1975 95.5603 22.1975 94.2118 22.1997C94 22.1997 93.9402 22.0937 93.9424 21.9027C93.9447 21.7117 93.938 21.5369 94.2048 21.5344C95.0717 21.5251 95.5581 21.0463 95.8411 20.2593C96.8032 17.5851 97.7857 14.9176 98.7592 12.2459C98.7847 12.1791 98.8235 12.0848 98.7961 12.0342C98.6073 11.6844 98.88 11.6567 99.0954 11.5867C99.6451 11.4377 100.166 11.1982 100.637 10.8781C100.895 10.6848 100.945 10.8481 101.01 11.0554C101.611 12.931 102.214 14.8048 102.821 16.6768C103.194 17.8275 103.572 18.9782 103.954 20.1287C104.016 20.3175 104.105 20.4993 104.177 20.6856C104.511 21.5509 105.632 21.6569 106.256 21.4012C106.342 21.3631 106.417 21.3039 106.474 21.2291C106.532 21.1543 106.569 21.0662 106.584 20.9731C106.668 20.5387 106.707 20.0968 106.699 19.6544C106.745 18.2966 106.755 16.9388 106.779 15.581C106.796 14.6861 106.807 13.7911 106.837 12.8976C106.847 12.7837 106.826 12.6692 106.776 12.5665C106.725 12.4639 106.648 12.377 106.552 12.3153C106.265 12.0782 105.915 11.9321 105.545 11.8958C105.234 11.8773 105.248 11.6704 105.246 11.4483C105.246 11.2044 105.393 11.1812 105.579 11.1812C106.486 11.1812 107.39 11.1857 108.297 11.179C108.386 11.1742 108.474 11.1934 108.553 11.2347C108.632 11.276 108.698 11.3378 108.745 11.4136C110.397 13.7841 112.3 15.9566 114.088 18.2186C114.132 18.2745 114.182 18.3268 114.233 18.3819C114.344 18.3014 114.304 18.1979 114.304 18.1103C114.304 16.4581 114.304 14.8049 114.302 13.1509V13.0889C114.284 12.1522 114.058 11.9243 113.117 11.8944C113.033 11.8921 112.949 11.8852 112.864 11.8874C112.574 11.8989 112.521 11.7355 112.521 11.4847C112.521 11.2109 112.671 11.1809 112.887 11.1832C114.109 11.1877 115.331 11.1854 116.553 11.1832C116.744 11.1832 116.909 11.1832 116.916 11.4525C116.923 11.6964 116.875 11.839 116.592 11.8782C115.816 11.9864 115.727 12.1061 115.635 12.9023C115.605 13.1852 115.59 13.4695 115.591 13.7539C115.563 15.68 115.55 17.6064 115.499 19.5325C115.478 20.3217 115.476 21.1112 115.451 21.9004C115.446 22.0545 115.524 22.2847 115.289 22.32C115.055 22.3552 114.786 22.4234 114.59 22.1726C114.155 21.6179 113.715 21.0664 113.269 20.518C111.578 18.433 109.885 16.3487 108.19 14.2652C108.151 14.2168 108.11 14.1709 108.05 14.1041L108.059 14.1027ZM99.5258 13.5917C99.4699 13.6401 99.4475 13.6516 99.4419 13.6678C98.9701 14.9934 98.503 16.3213 98.029 17.6469C97.9392 17.8956 98.0981 17.8793 98.2527 17.8793C99.0512 17.8793 99.8499 17.8723 100.648 17.8838C100.915 17.8861 100.98 17.8125 100.89 17.5524C100.566 16.6317 100.259 15.7043 99.9419 14.7792C99.8088 14.3927 99.6707 14.0093 99.5258 13.5917Z" fill="#00274C"/>
<path d="M37.8845 14.1164C37.8845 14.3902 37.8868 14.664 37.8845 14.9356C37.8638 16.6524 37.8431 18.3684 37.8224 20.0837C37.8155 20.3048 37.82 20.526 37.8361 20.7466C37.8325 20.8397 37.8475 20.9326 37.8802 21.0198C37.9128 21.1071 37.9625 21.187 38.0263 21.2549C38.0901 21.3228 38.1668 21.3774 38.2519 21.4153C38.3369 21.4533 38.4287 21.474 38.5219 21.4762C38.6242 21.5005 38.728 21.5182 38.8326 21.5291C39.1204 21.5405 39.0879 21.7453 39.0927 21.9363C39.0997 22.1502 38.9822 22.2034 38.7934 22.2034C37.698 22.2011 36.6025 22.1989 35.5048 22.2034C35.2839 22.2034 35.2055 22.1066 35.2081 21.8974C35.2103 21.7042 35.2173 21.5383 35.4796 21.5316C35.6266 21.5234 35.7723 21.5002 35.9145 21.4625C36.0557 21.4372 36.1853 21.3679 36.2849 21.2646C36.3845 21.1613 36.4489 21.0293 36.4691 20.8872C36.5492 20.3774 36.5846 19.8615 36.5751 19.3454C36.631 17.1452 36.7753 14.9476 36.7384 12.7452V12.6509C36.7177 12.0871 36.5729 11.9353 36.0043 11.8824C35.5993 11.8455 35.5568 11.7904 35.5809 11.4268C35.5923 11.2543 35.6706 11.1807 35.8362 11.1807C36.8489 11.1807 37.8591 11.1829 38.8718 11.1807C39.1134 11.1807 39.1514 11.3647 39.2194 11.5283C39.8684 13.1047 40.5173 14.6827 41.1662 16.2623C41.5551 17.2059 41.9448 18.1503 42.3352 19.0954C42.3696 19.1793 42.3721 19.2842 42.4941 19.337C42.5975 19.1953 42.6768 19.0375 42.7287 18.87C43.8425 16.4145 44.9533 13.9581 46.061 11.5009C46.0901 11.4007 46.1529 11.3136 46.2389 11.2545C46.3249 11.1953 46.4288 11.1678 46.5328 11.1765C47.4277 11.188 48.3227 11.1857 49.2207 11.1787C49.4531 11.1787 49.6027 11.2157 49.5982 11.5032C49.5938 11.7655 49.5683 11.9381 49.2369 11.9587C48.4913 12.0049 48.3188 12.1889 48.3188 12.9415C48.3141 15.2475 48.3172 17.5542 48.328 19.8617C48.328 20.1148 48.3624 20.3651 48.3808 20.6168C48.4222 21.1622 48.618 21.3719 49.1564 21.4936C49.299 21.5257 49.49 21.4773 49.5706 21.6614C49.6077 21.7183 49.6275 21.7849 49.6275 21.8529C49.6276 21.9209 49.6079 21.9875 49.5709 22.0445C49.5338 22.1015 49.481 22.1466 49.4188 22.1742C49.3567 22.2018 49.2878 22.2108 49.2207 22.2C47.8503 22.2 46.4799 22.193 45.1095 22.207C44.8036 22.2092 44.7253 22.0828 44.7437 21.8113C44.7552 21.6295 44.8243 21.5582 45.0061 21.5316C45.9933 21.3982 46.0601 21.297 46.0993 20.2887C46.1754 18.3626 46.1155 16.434 46.1362 14.5077C46.1559 14.3909 46.1382 14.2709 46.0856 14.1648C45.7519 14.8945 45.4275 15.5939 45.1067 16.2981C44.2304 18.2243 43.3541 20.1513 42.4778 22.0792C42.4532 22.1594 42.4019 22.2287 42.3324 22.2756C42.2628 22.3225 42.1794 22.3442 42.0958 22.3371C41.1706 22.3208 41.3916 22.4453 41.0716 21.6765C40.0707 19.2761 39.0879 16.8661 38.0982 14.461C38.0476 14.3368 37.99 14.2149 37.9349 14.0926L37.8789 14.1133L37.8845 14.1164Z" fill="#00274C"/>
<path d="M75.4769 22.2058H73.4219C73.2401 22.2058 73.079 22.1966 73.0812 21.9505C73.0812 21.7433 73.0583 21.5433 73.3609 21.5248C73.5598 21.503 73.7573 21.47 73.9524 21.4258C74.1105 21.4058 74.2565 21.3307 74.3647 21.2136C74.4729 21.0966 74.5363 20.9451 74.5439 20.7859C74.6033 20.2204 74.6226 19.6513 74.6015 19.083C74.6085 18.5561 74.597 18.0289 74.606 17.5043C74.6105 17.297 74.5391 17.1866 74.323 17.1821C74.217 17.1821 74.1135 17.1569 74.0078 17.1541C72.7028 17.122 71.3956 17.1172 70.091 17.1541C69.5663 17.1704 69.5549 17.1821 69.5641 17.6973C69.5825 18.696 69.502 19.6972 69.6239 20.6936C69.686 21.2046 69.8955 21.4071 70.4109 21.4784C70.5143 21.4996 70.6188 21.515 70.7239 21.5246C71.0161 21.529 71.0206 21.7203 71.0206 21.9365C71.0206 22.2036 70.8503 22.2081 70.6593 22.2058H66.6122C66.4443 22.2058 66.2578 22.2288 66.2553 21.9687C66.2553 21.7547 66.2184 21.5338 66.5431 21.5212C66.6794 21.5093 66.8139 21.4811 66.9436 21.4373C67.0853 21.4127 67.2144 21.3405 67.3094 21.2325C67.4044 21.1245 67.4597 20.9873 67.466 20.8436C67.4797 20.6548 67.5074 20.466 67.5096 20.2775C67.5143 18.0028 67.5158 15.7282 67.5141 13.4535C67.5122 13.2113 67.4976 12.9693 67.4705 12.7286C67.4061 12.1187 67.2451 11.9646 66.6166 11.8932C66.4326 11.8726 66.2623 11.8653 66.2531 11.6055C66.2394 11.2371 66.276 11.1798 66.6466 11.1798H70.6279C70.8441 11.1798 71.0214 11.1798 71.0262 11.4835C71.0284 11.7596 70.9423 11.8793 70.6534 11.9C69.8424 11.9598 69.7053 12.0932 69.6155 12.9034C69.5143 13.8056 69.5834 14.7123 69.5672 15.6162C69.5649 15.7751 69.6432 15.8464 69.7973 15.8464C70.8601 15.8464 71.9228 15.9661 72.9856 15.8878C73.4252 15.8556 73.8693 15.8579 74.3112 15.8509C74.4975 15.8486 74.6127 15.8003 74.6057 15.5838C74.5828 14.7 74.6519 13.814 74.5596 12.9325C74.4757 12.1178 74.3135 11.966 73.4711 11.8924C73.2938 11.8762 73.1075 11.8924 73.0868 11.6278C73.0569 11.2528 73.1097 11.1804 73.4895 11.1804H77.5353C77.7333 11.1804 77.9173 11.1734 77.9195 11.46C77.924 11.7154 77.8781 11.8672 77.5744 11.9019C76.8218 11.9858 76.6607 12.1816 76.6562 13.0158C76.647 15.1629 76.6518 17.3124 76.6518 19.4597C76.6484 19.8492 76.6645 20.2387 76.7002 20.6265C76.7622 21.248 76.8635 21.3721 77.4897 21.4918C77.7176 21.5355 77.9545 21.5402 77.9246 21.8901C77.9061 22.118 77.8303 22.2078 77.6024 22.2053C76.8959 22.1983 76.1917 22.203 75.4853 22.203L75.4769 22.2058Z" fill="#00274C"/>
<path d="M92.2791 17.306H94.1431C94.3319 17.306 94.5089 17.3038 94.5207 17.5661C94.5299 17.7871 94.5022 17.9411 94.2284 17.9943C93.7107 18.0955 93.5634 18.2913 93.5334 18.885C93.5013 19.5562 93.4392 20.2291 93.4713 20.9034C93.4799 20.9916 93.4616 21.0803 93.4189 21.1579C93.3762 21.2355 93.311 21.2984 93.232 21.3383C91.6755 22.3504 89.7864 22.7177 87.9641 22.3625C87.0499 22.2213 86.1939 21.826 85.4936 21.2217C84.7933 20.6175 84.2769 19.8285 84.0034 18.9449C83.3322 17.0233 83.4396 15.1154 84.5328 13.3548C85.4879 11.8152 86.9147 11.0235 88.7278 10.92C90.0642 10.8455 91.3887 11.2056 92.5034 11.9464C92.7587 12.1097 92.9338 12.1329 93.0907 11.8522C93.0998 11.8332 93.1132 11.8166 93.1299 11.8038C93.2219 11.7302 93.2725 11.5437 93.4095 11.6013C93.5155 11.6474 93.4579 11.8108 93.4624 11.9235C93.4879 12.8279 93.506 13.7324 93.5292 14.6391C93.5337 14.8279 93.5292 14.9934 93.2854 15.0418C93.0367 15.0924 92.9816 14.9313 92.9126 14.7588C92.615 13.9541 92.1158 13.2394 91.4628 12.6831C90.2339 11.6844 87.7851 11.6704 86.752 13.7139C86.2273 14.6785 85.9651 15.764 85.9918 16.8618C86.0185 17.9595 86.333 19.031 86.9038 19.969C87.1686 20.4699 87.5857 20.8737 88.095 21.1219C88.6043 21.3701 89.1793 21.4499 89.7369 21.3498C90.692 21.2186 91.6999 20.565 91.4538 19.1935C91.4496 19.173 91.4465 19.1523 91.4446 19.1314C91.3249 18.1878 91.3019 18.1526 90.3698 18.0108C90.1167 17.9716 89.9992 17.8774 90.0155 17.6058C90.0292 17.3919 90.1052 17.3066 90.3214 17.3088C90.975 17.3158 91.6286 17.3111 92.2791 17.3088V17.306Z" fill="#00274C"/>
<path d="M65.3279 13.7136C65.3279 14.0081 65.3235 14.3029 65.3279 14.5974C65.3324 14.8069 65.3028 14.9587 65.0483 15.0046C64.7996 15.0507 64.7468 14.9103 64.6732 14.733C64.3435 13.8939 63.7787 13.1677 63.0467 12.6414C62.6992 12.3966 62.3057 12.2249 61.8899 12.1368C61.4741 12.0487 61.0448 12.046 60.6279 12.1288C60.211 12.2117 59.8154 12.3784 59.4649 12.6188C59.1144 12.8592 58.8164 13.1683 58.589 13.5274C58.0561 14.3941 57.7891 15.398 57.821 16.415C57.793 17.4638 58.0567 18.4997 58.5828 19.4074C59.6736 21.2233 61.8692 21.4532 63.3465 20.6917C63.8613 20.3966 64.2939 19.9773 64.605 19.472C64.7728 19.2282 64.8995 19.2441 65.1045 19.4122C65.5164 19.7506 65.5164 19.7366 65.2356 20.1693C63.9033 22.2198 61.6156 22.8919 59.2062 22.3026C57.1397 21.7964 55.6046 19.9184 55.3677 17.6601C55.1882 15.9502 55.4989 14.3599 56.5424 12.97C57.5274 11.6555 58.8896 11.0299 60.5098 10.9334C61.8812 10.825 63.2419 11.2467 64.3116 12.1117C64.4383 12.2129 64.5211 12.2129 64.6316 12.1002C64.7557 11.9735 64.8961 11.8608 65.0343 11.7436C65.0871 11.7 65.131 11.6102 65.2161 11.6539C65.2944 11.693 65.2689 11.785 65.2689 11.8541C65.2645 12.4755 65.3528 13.0944 65.3288 13.7159L65.3279 13.7136Z" fill="#00274C"/>
<path d="M81.0623 22.2056H79.0716C78.8898 22.2056 78.7287 22.1964 78.7264 21.9525C78.7264 21.743 78.7264 21.5749 79.0061 21.5154C79.9313 21.3151 80.0348 21.1817 80.037 20.2429C80.0416 17.9278 80.0393 15.6118 80.03 13.295C80.0239 13.0533 79.9993 12.8125 79.9564 12.5746C79.8781 12.0544 79.4662 11.9646 79.0475 11.9048C78.838 11.8748 78.7253 11.8035 78.7209 11.5711C78.7139 11.2973 78.7969 11.1729 79.0984 11.1754C80.4034 11.1869 81.7105 11.1824 83.0152 11.1776C83.2269 11.1776 83.3902 11.2031 83.3928 11.4721C83.395 11.7182 83.3307 11.8611 83.0499 11.8933C82.3202 11.9772 82.2215 12.0821 82.1155 12.7978C82.094 12.9541 82.084 13.1118 82.0856 13.2696C82.0856 15.5226 82.0863 17.7749 82.0878 20.0264C82.0917 20.2049 82.1048 20.3831 82.127 20.5603C82.2053 21.2737 82.3135 21.3934 83.0544 21.5176C83.2591 21.552 83.3858 21.6052 83.388 21.8398C83.3902 22.0837 83.3167 22.2081 83.0451 22.2034C82.3823 22.1919 81.7195 22.1989 81.0544 22.1989L81.0623 22.2056Z" fill="#00274C"/>
<path d="M52.9124 22.2059H50.9217C50.7513 22.2059 50.5972 22.1944 50.5925 21.9687C50.5902 21.7662 50.5718 21.5845 50.8571 21.5212C51.8214 21.2975 51.9019 21.1898 51.9041 20.1978C51.9064 17.9126 51.9049 15.6281 51.8997 13.3445C51.8997 13.2385 51.8997 13.1328 51.8927 13.0293C51.8306 12.1984 51.6924 12.0351 50.8708 11.9017C50.583 11.8555 50.5911 11.6738 50.5911 11.4668C50.5911 11.2431 50.7153 11.1838 50.9155 11.1838C52.2525 11.186 53.5904 11.186 54.9291 11.1838C55.1271 11.1838 55.256 11.2366 55.2582 11.4634C55.2582 11.6774 55.2468 11.8732 54.966 11.8916C54.9039 11.8961 54.8393 11.9009 54.7772 11.9101C54.2318 11.9906 54.0845 12.1517 54.0017 12.6971C53.9607 13.0099 53.9438 13.3253 53.9511 13.6407C53.9511 15.7142 53.9525 17.7885 53.9555 19.8636C53.9555 20.0731 53.974 20.2848 53.9947 20.4918C54.0786 21.3135 54.1465 21.3892 54.9735 21.5319C55.1645 21.564 55.2532 21.6379 55.2613 21.8311C55.275 22.089 55.1922 22.2201 54.9047 22.2132C54.2419 22.1994 53.5769 22.2087 52.914 22.2087L52.9124 22.2059Z" fill="#00274C"/>
<path d="M107.382 7.99267C105.201 7.99267 103.617 6.39323 103.617 4.1816C103.617 1.93081 105.118 0.370523 107.281 0.368286C109.49 0.368286 111.08 1.94479 111.087 4.14384C111.093 6.41169 109.574 7.99043 107.382 7.99267ZM109.382 4.22998C109.432 3.5611 109.302 2.89097 109.004 2.2899C108.648 1.60639 108.139 1.09767 107.317 1.1069C106.506 1.11613 106.024 1.63631 105.679 2.30948C105.324 3.00223 105.322 3.74783 105.347 4.49818C105.364 5.22933 105.609 5.93688 106.049 6.52104C106.797 7.52226 108.026 7.50129 108.749 6.47965C109.215 5.82589 109.438 5.02971 109.379 4.22886L109.382 4.22998Z" fill="#00274C"/>
<path d="M45.4881 2.39118C45.4209 2.50226 45.3956 2.63367 45.4167 2.76175C45.4145 3.94 45.4123 5.12049 45.4167 6.29902C45.419 7.04015 45.5524 7.18502 46.2728 7.2678C46.4501 7.2885 46.6135 7.30919 46.6065 7.54747C46.5995 7.80757 46.4107 7.77988 46.2451 7.77988H43.9071C43.7482 7.77988 43.5779 7.7961 43.5664 7.55614C43.5572 7.33744 43.7024 7.30444 43.8702 7.28011C44.4015 7.19956 44.4801 7.10979 44.5053 6.57366C44.5514 5.58549 44.5759 4.59667 44.5789 3.60719C44.5789 3.01793 44.611 2.42894 44.6225 1.83967C44.6371 1.73554 44.6302 1.62951 44.602 1.5282C44.5738 1.42689 44.5251 1.33248 44.4588 1.25086C44.3925 1.16923 44.3101 1.10216 44.2167 1.05382C44.1233 1.00547 44.0209 0.976906 43.916 0.969897C43.8654 0.95843 43.8126 0.953676 43.7594 0.944447C43.6006 0.916479 43.5592 0.811044 43.5662 0.668411C43.5644 0.639012 43.5691 0.609585 43.5799 0.582173C43.5906 0.55476 43.6072 0.530019 43.6285 0.509664C43.6498 0.48931 43.6753 0.47383 43.7031 0.464298C43.731 0.454766 43.7606 0.45141 43.7899 0.454463C44.4113 0.454463 45.0327 0.455209 45.6539 0.456701C45.8242 0.456701 45.9025 0.596536 45.9875 0.719032C47.0576 2.23569 48.2727 3.63488 49.4275 5.08469C49.4725 5.12969 49.5201 5.17199 49.5701 5.21138C49.5517 3.90196 49.6138 2.65463 49.531 1.40954C49.5125 1.12651 49.2938 1.00234 49.0293 0.972414C48.8819 0.956193 48.7348 0.956193 48.5874 0.942489C48.4285 0.928785 48.3757 0.827544 48.3801 0.680158C48.3846 0.542 48.4515 0.456421 48.5918 0.456421C49.4227 0.454184 50.2556 0.451946 51.0865 0.456421C51.1156 0.453316 51.145 0.45692 51.1725 0.466956C51.1999 0.476992 51.2247 0.493194 51.245 0.514315C51.2652 0.535436 51.2803 0.560915 51.2892 0.588792C51.298 0.616669 51.3003 0.646203 51.296 0.675124C51.3005 0.705999 51.2989 0.737476 51.2912 0.76771C51.2834 0.797944 51.2697 0.826328 51.2508 0.8512C51.232 0.876072 51.2084 0.896933 51.1813 0.91256C51.1543 0.928187 51.1245 0.938267 51.0935 0.942209C50.5367 1.08037 50.4813 1.14945 50.4676 1.7292C50.4421 2.76007 50.424 3.79122 50.4033 4.82208C50.3848 5.70584 50.3664 6.5896 50.3434 7.47336C50.339 7.61152 50.3963 7.79107 50.1916 7.83917C50.1062 7.86637 50.0144 7.86614 49.9291 7.8385C49.8438 7.81086 49.7693 7.75721 49.7161 7.68507C49.2812 7.13048 48.8346 6.58513 48.3905 6.03725C47.4493 4.87606 46.5087 3.7144 45.5686 2.55227C45.5358 2.50178 45.5088 2.44774 45.4881 2.39118Z" fill="#00274C"/>
<path d="M71.1663 7.78327H69.9638C69.8071 7.78327 69.667 7.76956 69.6623 7.55533C69.6575 7.36656 69.7498 7.30223 69.9201 7.26755C70.4289 7.16631 70.477 7.095 70.5002 6.57705C70.5715 4.95691 70.5645 3.33678 70.5002 1.71665C70.4772 1.12067 70.4658 1.09298 69.888 0.957341C69.8542 0.954118 69.8213 0.944082 69.7915 0.927839C69.7617 0.911596 69.7354 0.889482 69.7144 0.862828C69.6933 0.836175 69.6779 0.805534 69.669 0.772751C69.66 0.739969 69.6579 0.705723 69.6626 0.672077C69.667 0.504275 69.766 0.455612 69.9087 0.453375C71.1392 0.441908 72.3756 0.421212 73.6023 0.526928C74.585 0.610829 75.181 1.15982 75.3144 1.94234C75.4012 2.38534 75.3398 2.84459 75.1398 3.24927C74.9398 3.65395 74.6121 3.98159 74.2075 4.18167C73.9865 4.29214 73.9681 4.36345 74.0925 4.57069C74.5045 5.25644 74.8935 5.95618 75.2915 6.64892C75.5354 7.07458 75.8024 7.47982 76.3386 7.57855C76.3627 7.57938 76.3863 7.58554 76.4078 7.59658C76.4293 7.60761 76.4481 7.62325 76.4628 7.64239C76.4775 7.66152 76.4878 7.68366 76.493 7.70724C76.4981 7.73082 76.498 7.75526 76.4927 7.77879C76.4672 7.91695 76.3528 7.91443 76.2466 7.92366C74.9142 8.05483 74.0811 7.56456 73.501 6.31975C73.2917 5.87097 73.0754 5.42601 72.8522 4.98488C72.7877 4.83873 72.6773 4.71761 72.5378 4.63993C72.3982 4.56224 72.2371 4.53224 72.0789 4.55447C71.9223 4.56593 71.8535 4.63054 71.8487 4.78687C71.8391 5.43967 71.863 6.09253 71.9201 6.74289C71.9185 6.81226 71.9309 6.88123 71.9565 6.94572C71.9821 7.0102 72.0204 7.06888 72.0691 7.11827C72.1179 7.16765 72.176 7.20674 72.2402 7.2332C72.3043 7.25966 72.3731 7.27296 72.4425 7.27231C72.622 7.28377 72.7417 7.34362 72.7325 7.55757C72.721 7.79697 72.553 7.78131 72.3969 7.78299C71.9872 7.78522 71.5752 7.78327 71.1663 7.78327ZM71.8913 2.52238V3.34181C71.8913 3.85501 71.8982 3.862 72.4137 3.8964C72.6313 3.92072 72.8516 3.89287 73.0564 3.81515C73.2611 3.73744 73.4444 3.61208 73.5911 3.44947C73.7378 3.28685 73.8436 3.09164 73.8999 2.88C73.9562 2.66835 73.9612 2.44635 73.9147 2.23236C73.8047 1.8547 73.551 1.53522 73.2081 1.34249C72.8652 1.14976 72.4604 1.09914 72.0806 1.20149C72.0194 1.21516 71.9657 1.25176 71.9306 1.30377C71.8955 1.35578 71.8816 1.41925 71.8918 1.48116L71.8913 2.52238Z" fill="#00274C"/>
<path d="M35.9768 3.15745C35.9768 2.65125 35.9838 2.14728 35.9768 1.6408C35.9699 1.15753 35.8778 1.04706 35.4153 0.959522C35.2449 0.92736 35.1459 0.865273 35.1529 0.676495C35.1599 0.46003 35.307 0.452759 35.4589 0.452759H38.1437C38.3071 0.452759 38.4637 0.457234 38.4681 0.694394C38.4704 0.918131 38.3347 0.946098 38.1622 0.963717C37.6996 1.01658 37.543 1.13152 37.5363 1.59186C37.5156 2.88534 37.4213 4.18329 37.5922 5.47201C37.6798 6.13483 37.9074 6.76073 38.6301 7.0102C39.5505 7.32539 40.7497 7.04935 41.0878 5.76063C41.2033 5.31139 41.2666 4.85034 41.2766 4.38661C41.2951 3.51208 41.2903 2.63755 41.2881 1.76525C41.2881 1.18298 41.1591 1.04035 40.5889 0.966794C40.4001 0.941344 40.2622 0.897715 40.2782 0.665309C40.2944 0.446606 40.4507 0.455835 40.5981 0.455835H42.8419C42.9938 0.455835 43.1135 0.497226 43.1216 0.68125C43.1286 0.846815 43.0548 0.925123 42.8869 0.95281C42.3715 1.03671 42.2862 1.1346 42.2588 1.67072C42.2266 2.30138 42.2197 2.93428 42.1827 3.56242C42.1716 4.24629 42.1178 4.9288 42.0216 5.60597C41.944 6.16978 41.6879 6.69392 41.2908 7.10158C40.8936 7.50924 40.3764 7.77899 39.8148 7.87131C39.1623 8.01187 38.4841 7.97694 37.8495 7.77006C37.3329 7.62306 36.8775 7.31317 36.5512 6.8865C36.2248 6.45984 36.045 5.93921 36.0384 5.40209C35.9922 4.65425 35.997 3.90865 35.9824 3.16053L35.9768 3.15745Z" fill="#00274C"/>
<path d="M66.0576 7.78325C65.2684 7.78325 64.4766 7.78548 63.6871 7.78101C63.5238 7.78101 63.3051 7.84785 63.2821 7.56231C63.2615 7.30445 63.441 7.27704 63.6273 7.25635C63.6961 7.25461 63.7639 7.23869 63.8263 7.20958C63.8887 7.18046 63.9444 7.13879 63.99 7.08716C64.0355 7.03552 64.07 6.97504 64.0911 6.9095C64.1122 6.84396 64.1196 6.77476 64.1128 6.70624C64.1841 4.98011 64.1967 3.2565 64.1128 1.53037C64.0943 1.1461 63.9908 1.03088 63.6094 0.96879C63.4298 0.940823 63.2738 0.915932 63.2827 0.678771C63.2942 0.41644 63.4874 0.450839 63.6485 0.450839C65.1445 0.448602 66.641 0.455314 68.1361 0.443848C68.4239 0.443848 68.5366 0.555716 68.5366 0.830353C68.5366 1.21015 68.5481 1.58742 68.5503 1.96721C68.5503 2.08468 68.5503 2.20661 68.3915 2.22955C68.3604 2.23691 68.3281 2.23746 68.2968 2.23116C68.2655 2.22486 68.2359 2.21185 68.2101 2.19304C68.1843 2.17422 68.1629 2.15005 68.1473 2.12217C68.1317 2.09429 68.1224 2.06337 68.1199 2.03154C67.9773 1.4034 67.5376 1.20315 66.9486 1.20539C66.5688 1.20763 66.1893 1.20539 65.8118 1.1984C65.6001 1.19392 65.5058 1.27894 65.5081 1.49765C65.515 2.1283 65.5125 2.7612 65.5081 3.39158C65.5081 3.55267 65.5564 3.65866 65.7405 3.65391C66.0766 3.66495 66.413 3.65186 66.7473 3.61475C66.8907 3.60529 67.0262 3.5457 67.1302 3.44642C67.2341 3.34713 67.2998 3.21447 67.3158 3.07163C67.341 2.91054 67.3827 2.77714 67.5827 2.7956C67.7966 2.81406 67.7829 2.97962 67.7829 3.12477C67.7851 3.73473 67.7829 4.34665 67.7829 4.95661C67.7829 5.09645 67.7784 5.23629 67.5827 5.25111C67.3754 5.26481 67.348 5.13365 67.3273 4.97144C67.2812 4.5799 67.1707 4.46803 66.7772 4.40063C66.4317 4.36485 66.084 4.3555 65.7371 4.37266C65.5783 4.37043 65.5069 4.45097 65.5069 4.60507C65.5069 5.2265 65.5047 5.84793 65.5162 6.46907C65.5171 6.60344 65.5693 6.73239 65.6621 6.82951C65.755 6.92663 65.8815 6.98458 66.0157 6.9915C66.5667 7.09276 67.1318 7.09039 67.6819 6.98451C67.8608 6.95839 68.0287 6.88234 68.1663 6.76509C68.3038 6.64784 68.4055 6.49415 68.4597 6.32169C68.5011 6.20199 68.5402 6.08229 68.5816 5.96259C68.6278 5.82443 68.7382 5.80374 68.8613 5.81772C69.0087 5.83394 69.0087 5.9419 68.9995 6.05488C68.9581 6.54738 68.9074 7.03988 68.8753 7.53238C68.8591 7.78409 68.6913 7.77626 68.5187 7.77626H66.054L66.0576 7.78325Z" fill="#00274C"/>
<path d="M76.5011 5.97484C76.4941 5.89094 76.4897 5.80704 76.4804 5.72314C76.469 5.6082 76.4368 5.47927 76.5979 5.44347C76.752 5.40655 76.8902 5.42054 76.9615 5.60008C77.0664 5.87603 77.2048 6.13807 77.3734 6.38037C77.9442 7.20428 78.8532 7.34915 79.7048 7.11226C79.8819 7.07434 80.0435 6.98407 80.1687 6.85316C80.2938 6.72226 80.3768 6.55676 80.4067 6.37813C80.4512 6.18136 80.4399 5.97609 80.374 5.78541C80.3082 5.59473 80.1904 5.42623 80.0339 5.29888C79.7149 5.05596 79.3536 4.87419 78.9684 4.76275C78.4496 4.61966 77.9565 4.396 77.5071 4.09993C77.2242 3.88325 77.0017 3.5975 76.8609 3.2701C76.7202 2.9427 76.6659 2.58463 76.7033 2.23023C76.7408 1.87582 76.8686 1.53698 77.0747 1.2462C77.2807 0.95542 77.558 0.722454 77.8799 0.569646C78.2796 0.38734 78.7157 0.298791 79.1548 0.310763C79.594 0.322735 80.0246 0.434912 80.4137 0.638725C80.6095 0.730736 80.7751 0.786111 80.9613 0.625021C81.0947 0.507559 81.1867 0.54895 81.2052 0.735491C81.265 1.31087 81.3287 1.88624 81.3962 2.46162C81.4147 2.61823 81.3825 2.72395 81.203 2.75863C81.0282 2.79303 80.9792 2.68955 80.9406 2.56062C80.8653 2.31941 80.7576 2.08949 80.6207 1.87711C80.1419 1.1385 79.502 0.974889 78.6048 1.1315C78.4462 1.1552 78.2986 1.22705 78.1821 1.33734C78.0656 1.44764 77.9858 1.59105 77.9535 1.74818C77.9115 1.918 77.9159 2.09596 77.9661 2.26353C78.0162 2.4311 78.1104 2.58217 78.2387 2.70102C78.464 2.90869 78.7341 3.06179 79.028 3.14849C79.3938 3.28189 79.7643 3.40159 80.1304 3.54003C81.1372 3.91758 81.7576 4.78736 81.6929 5.72146C81.6592 6.23047 81.4616 6.71488 81.1298 7.10232C80.7979 7.48976 80.3496 7.75942 79.8519 7.87101C78.6389 8.17026 77.6145 7.76753 76.6852 7.01494C76.6486 6.98519 76.6187 6.94812 76.5973 6.90613C76.5759 6.86413 76.5635 6.81813 76.561 6.77107C76.5403 6.50874 76.5126 6.24864 76.4874 5.98631H76.5011V5.97484Z" fill="#00274C"/>
<path d="M94.9922 0.444063C95.4869 0.444063 95.9817 0.439589 96.4767 0.444063C96.654 0.444063 96.8864 0.386451 96.8794 0.695767C96.8724 0.995015 96.6448 0.935165 96.4674 0.953623C96.3939 0.960615 96.3201 0.955861 96.2465 0.962853C95.8323 0.999769 95.7171 1.19526 95.8807 1.58428C95.9004 1.63334 95.9235 1.681 95.9498 1.72691C96.3156 2.32988 96.6861 2.9295 97.0497 3.53359C97.1395 3.68321 97.2063 3.72013 97.3051 3.54058C97.6435 2.92139 98 2.31394 98.3245 1.68804C98.5776 1.19778 98.4833 1.03221 97.9447 0.953903C97.7791 0.93097 97.6686 0.877833 97.6709 0.682343C97.6709 0.472869 97.802 0.442945 97.9631 0.442945H100.269C100.414 0.442945 100.543 0.465878 100.552 0.656893C100.56 0.693164 100.559 0.73075 100.55 0.766736C100.541 0.802722 100.524 0.836142 100.5 0.864404C100.476 0.892666 100.446 0.915012 100.412 0.929708C100.377 0.944404 100.34 0.951056 100.303 0.949149C100.125 0.969777 99.9537 1.03089 99.8025 1.12783C99.6513 1.22477 99.5243 1.35497 99.4311 1.50849C98.796 2.39001 98.2845 3.34733 97.719 4.27248C97.6757 4.34497 97.6519 4.42745 97.6499 4.51187C97.6219 5.25866 97.6388 6.00644 97.7005 6.7512C97.7419 7.0896 97.8893 7.2093 98.2713 7.26439C98.4671 7.29236 98.7775 7.20231 98.7468 7.55889C98.7216 7.8903 98.4338 7.77284 98.2473 7.77535C97.3199 7.78682 96.3947 7.78234 95.4673 7.77983C95.3018 7.77983 95.1105 7.80528 95.0968 7.5519C95.0806 7.28733 95.2693 7.28257 95.4534 7.26411C96.0633 7.19979 96.1525 7.10302 96.169 6.50229C96.1805 6.01902 96.192 5.53575 96.2127 5.05248C96.2202 4.84156 96.1588 4.63392 96.0379 4.46097C95.4226 3.51737 94.8135 2.56928 94.2013 1.62567C93.9758 1.2758 93.7457 0.932928 93.2554 0.944394C93.0943 0.946632 93.0552 0.826933 93.0552 0.682063C93.0552 0.49804 93.1587 0.444902 93.3175 0.444902H94.9905L94.9922 0.444063Z" fill="#00274C"/>
<path d="M114.053 0.50737C114.833 0.50737 115.611 0.511845 116.391 0.505133C116.623 0.502896 116.743 0.574212 116.755 0.820322C116.775 1.23983 116.817 1.65933 116.844 2.07884C116.854 2.21001 116.844 2.3367 116.662 2.35264C116.629 2.36014 116.594 2.36014 116.56 2.35262C116.527 2.34511 116.495 2.33028 116.468 2.30919C116.441 2.28809 116.418 2.26125 116.403 2.23057C116.387 2.19989 116.378 2.16613 116.377 2.1317C116.276 1.53796 115.91 1.28486 115.323 1.25269C114.861 1.22724 114.398 1.232 113.935 1.232C113.684 1.232 113.553 1.32401 113.563 1.60955C113.581 2.21029 113.574 2.8085 113.563 3.40923C113.558 3.64388 113.647 3.73141 113.878 3.71687C114.255 3.69394 114.633 3.7261 115.012 3.67772C115.156 3.67472 115.293 3.6163 115.395 3.51467C115.496 3.41304 115.555 3.27606 115.558 3.13236C115.576 2.97351 115.601 2.83311 115.811 2.8471C116.02 2.86108 116.023 3.02189 116.023 3.16928C116.025 3.77001 116.025 4.36823 116.023 4.96896C116.023 5.11383 116.036 5.2766 115.825 5.30261C115.622 5.32806 115.578 5.19913 115.553 5.03552C115.531 4.87093 115.449 4.7202 115.323 4.6123C115.197 4.5044 115.036 4.44695 114.87 4.45101C114.513 4.42108 114.154 4.43479 113.797 4.42807C113.638 4.42584 113.569 4.50862 113.569 4.66272C113.574 5.34623 113.56 6.03311 113.583 6.7155C113.596 7.12746 113.723 7.24016 114.14 7.30924C114.314 7.33917 114.446 7.3828 114.437 7.59451C114.427 7.82244 114.271 7.83167 114.105 7.83167H111.676C111.526 7.83167 111.372 7.83167 111.351 7.61996C111.333 7.41971 111.435 7.34616 111.621 7.30924C112.099 7.21499 112.196 7.12522 112.205 6.64419C112.242 4.95973 112.246 3.27499 112.205 1.59277C112.196 1.19228 112.072 1.08181 111.676 1.01749C111.498 0.989523 111.335 0.959878 111.347 0.725234C111.36 0.46514 111.556 0.504294 111.717 0.504294C112.497 0.502057 113.275 0.504294 114.055 0.504294L114.053 0.50737Z" fill="#00274C"/>
<path d="M59.7886 5.79707C60.1428 4.88572 60.4957 3.97437 60.8471 3.06301C61.006 2.65106 61.1738 2.24134 61.3142 1.82267C61.51 1.24515 61.3603 1.02421 60.7574 0.952897C60.6539 0.941431 60.5412 0.948423 60.4721 0.846902C60.4445 0.808597 60.4283 0.763213 60.4255 0.716063C60.4228 0.668913 60.4335 0.621947 60.4564 0.580663C60.4794 0.539379 60.5136 0.505485 60.5551 0.482948C60.5966 0.460411 60.6437 0.450164 60.6908 0.453405C61.3858 0.444176 62.0808 0.448931 62.7757 0.453405C62.9117 0.453405 63.0289 0.487805 63.0403 0.658124C63.0495 0.796282 63.0241 0.922693 62.8655 0.95038C62.38 1.03428 62.182 1.40848 62.0139 1.80198C61.5169 2.96177 61.0289 4.12632 60.5364 5.29087C60.2096 6.06649 59.8833 6.84286 59.5576 7.61997C59.4907 7.78106 59.4286 7.92369 59.2077 7.92145C58.9823 7.91698 58.9339 7.75813 58.8763 7.60151C58.2135 5.81572 57.5522 4.02984 56.8926 2.24386C56.8087 2.01593 56.72 1.79275 56.6255 1.56957C56.5768 1.41819 56.4879 1.28284 56.3684 1.1779C56.2489 1.07296 56.1032 1.00236 55.9467 0.973593C55.9098 0.971945 55.8737 0.962254 55.8408 0.945198C55.808 0.928141 55.7793 0.90413 55.7567 0.874838C55.7342 0.845547 55.7182 0.811681 55.7101 0.775604C55.702 0.739527 55.7018 0.702107 55.7096 0.665955C55.7258 0.477178 55.8614 0.458719 56.0041 0.458719H58.9406C59.1017 0.458719 59.2351 0.493119 59.2376 0.698117C59.2399 0.893887 59.1258 0.951219 58.958 0.958211C58.8741 0.960449 58.7902 0.962686 58.7049 0.971915C58.3458 1.01554 58.2168 1.16768 58.2951 1.5265C58.539 2.45193 58.8317 3.36382 59.1719 4.25833C59.3422 4.776 59.5263 5.28919 59.7058 5.80491H59.7819L59.7886 5.79707Z" fill="#00274C"/>
<path d="M89.2022 0.448894C90.1709 0.448894 91.14 0.460361 92.1088 0.441902C92.431 0.437428 92.5322 0.547898 92.5252 0.863087C92.516 1.3142 92.5574 1.76754 92.5688 2.21865C92.5733 2.36128 92.5943 2.52461 92.3731 2.54782C92.1518 2.57104 92.1244 2.42812 92.0934 2.2578C91.9415 1.47473 91.7435 1.30972 90.9521 1.29126C90.6783 1.28427 90.4045 1.29574 90.1304 1.28903C89.9486 1.28455 89.8588 1.34887 89.8611 1.54436C89.8655 3.28196 89.8611 5.01927 89.8703 6.75463C89.8703 7.12044 90.0177 7.26335 90.3927 7.3576C90.5309 7.392 90.7104 7.38753 90.685 7.60623C90.6595 7.82493 90.4733 7.77879 90.3399 7.77879C89.5504 7.78345 88.7603 7.78345 87.9694 7.77879C87.8382 7.77879 87.6724 7.80871 87.6472 7.61322C87.6173 7.39927 87.7854 7.38529 87.9325 7.36459C88.0769 7.35668 88.2128 7.2939 88.3124 7.1891C88.4121 7.0843 88.4679 6.94539 88.4686 6.80078C88.4823 6.64416 88.503 6.48783 88.503 6.32897C88.5052 4.79172 88.5052 3.25446 88.503 1.7172C88.503 1.28679 88.503 1.28231 88.0589 1.28679C87.7322 1.27216 87.405 1.28292 87.08 1.31895C86.5691 1.3995 86.3943 1.56059 86.2883 2.07154C86.2676 2.17502 86.2583 2.28102 86.2399 2.38226C86.217 2.51119 86.1249 2.54559 86.0075 2.54335C85.8855 2.54111 85.798 2.49273 85.798 2.36156C85.7752 1.78298 85.7938 1.20351 85.8539 0.627604C85.8839 0.415893 86.0587 0.445818 86.1991 0.445818C87.2 0.44358 88.199 0.445818 89.1999 0.445818L89.2022 0.448894Z" fill="#00274C"/>
<path d="M52.8573 4.14472C52.8573 3.32305 52.8643 2.50166 52.8551 1.68362C52.8481 1.18888 52.7583 1.08065 52.2798 0.967943C52.1072 0.926552 52.0219 0.852999 52.0281 0.670933C52.0373 0.47768 52.1662 0.454468 52.3111 0.454468H54.8379C54.9945 0.454468 55.1025 0.507326 55.1117 0.686874C55.1189 0.720755 55.118 0.75583 55.1093 0.78934C55.1006 0.822849 55.0842 0.853878 55.0615 0.879985C55.0387 0.906091 55.0103 0.926562 54.9783 0.939787C54.9463 0.953012 54.9116 0.958629 54.8771 0.956197C54.3594 0.986122 54.2833 1.23922 54.2719 1.66964C54.2512 2.41748 54.2604 3.16308 54.2604 3.9112C54.2604 4.75357 54.2604 5.59566 54.2696 6.43802C54.2766 7.05022 54.3273 7.11455 54.9185 7.28962C54.981 7.30029 55.0371 7.33475 55.0748 7.38578C55.1125 7.43682 55.1291 7.50047 55.121 7.56342C55.1187 7.72451 55.0197 7.78212 54.8723 7.78212H52.2809C52.1411 7.78212 52.0348 7.74073 52.0278 7.57041C52.0221 7.53694 52.0231 7.50265 52.031 7.4696C52.0389 7.43656 52.0533 7.40545 52.0735 7.37814C52.0937 7.35084 52.1192 7.3279 52.1485 7.31072C52.1778 7.29354 52.2103 7.28246 52.244 7.27815C52.8313 7.11706 52.8607 7.07567 52.8654 6.45424C52.8699 5.68571 52.8654 4.91606 52.8654 4.14836H52.8562L52.8573 4.14472Z" fill="#00274C"/>
<path d="M83.626 7.78291H82.3955C82.2414 7.78291 82.094 7.76921 82.0803 7.56197C82.0666 7.37319 82.1745 7.30887 82.3381 7.26972C82.8468 7.14554 82.9411 7.04178 82.9433 6.51041C82.9478 4.94425 82.9548 3.37586 82.9363 1.80886C82.9294 1.16562 82.8029 1.01264 82.285 0.952793C82.1284 0.934334 82.0803 0.828619 82.0825 0.68347C82.0797 0.65162 82.0841 0.61954 82.0954 0.589645C82.1068 0.55975 82.1248 0.532818 82.148 0.510876C82.1713 0.488935 82.1992 0.472555 82.2297 0.46297C82.2602 0.453384 82.2925 0.450844 82.3241 0.455538H84.9455C84.9773 0.451741 85.0095 0.455324 85.0396 0.46601C85.0697 0.476695 85.097 0.494194 85.1193 0.517144C85.1416 0.540094 85.1582 0.567876 85.168 0.598326C85.1778 0.628776 85.1804 0.661072 85.1757 0.692699C85.1786 0.723973 85.1752 0.755509 85.1659 0.785506C85.1566 0.815504 85.1415 0.843375 85.1215 0.867528C85.1014 0.89168 85.0767 0.911642 85.0489 0.926272C85.0212 0.940902 84.9908 0.949914 84.9595 0.952793C84.3909 1.09095 84.3794 1.10941 84.352 1.68245C84.2715 3.34398 84.3036 5.00326 84.359 6.66479C84.3727 7.07451 84.4765 7.19421 84.8952 7.26552C85.0769 7.29545 85.1897 7.35753 85.1748 7.56477C85.1611 7.77872 85.0115 7.77872 84.8596 7.77872H83.6291L83.626 7.78291Z" fill="#00274C"/>
</g>
<defs>
<clipPath id="clip0_1751_28821">
<rect width="116.92" height="22.636" fill="white"/>
</clipPath>
</defs>
</svg>
