<svg width="56" height="34" viewBox="0 0 56 34" fill="none" xmlns="http://www.w3.org/2000/svg">
<g id="Property 1=Colored" clip-path="url(#clip0_1751_28833)">
<path id="Path 1675" d="M29.0249 33.98C28.9766 33.8287 28.8371 33.8348 28.7101 33.8044C25.8762 32.9937 24.2597 31.0252 24.181 28.0826C24.1084 25.3274 24.181 22.5726 24.1384 19.8175C24.1384 19.1392 24.5438 19.3088 24.9075 19.2966C25.2713 19.2845 25.6101 19.2118 25.5979 19.8175V26.9926C25.5882 27.6951 25.6613 28.3963 25.8158 29.0817C26.39 31.5038 28.2815 32.7509 30.8536 32.5087C33.4257 32.2665 34.9166 30.6618 35.0013 28.0644C35.0861 25.4669 35.0013 22.7118 35.0496 20.0296C35.0496 19.7931 34.8983 19.424 35.2131 19.3453C35.598 19.2817 35.9908 19.2817 36.3757 19.3453C36.5635 19.3453 36.5331 19.5874 36.527 19.7388C36.4848 22.6209 36.6662 25.5146 36.4362 28.3913C36.1998 31.4187 34.317 33.4291 31.7132 33.8408C31.6588 33.8408 31.6119 33.9317 31.5558 33.98H29.0249Z" fill="#646666"/>
<path id="Path 1676" d="M0.0243422 25.0792C0.28476 24.8853 0.236119 24.5705 0.320898 24.3101C1.19909 21.5975 2.97913 19.787 5.77043 19.1574C8.56174 18.5278 11.1109 19.4614 13.1152 21.6157C13.533 22.0639 13.1152 22.2213 12.8973 22.397C12.6794 22.5726 12.4555 23.063 11.9891 22.5604C11.4057 21.8694 10.6762 21.3165 9.85315 20.9416C9.03015 20.5667 8.13418 20.3792 7.22992 20.3926C5.98067 20.4177 4.77242 20.8429 3.78288 21.6059C2.79334 22.3688 2.07475 23.4291 1.73278 24.6309C1.3511 25.9131 1.39099 27.2839 1.84658 28.5418C2.30217 29.7996 3.14941 30.878 4.26366 31.6183C5.31377 32.2978 6.55723 32.6152 7.80452 32.5223C9.05181 32.4293 10.2345 31.9311 11.1723 31.1036C11.4434 30.8987 11.6875 30.6603 11.8989 30.3942C12.3106 29.7886 12.6193 29.9704 13.0432 30.3942C13.3702 30.7273 13.4185 30.9151 13.0854 31.2782C11.9591 32.6029 10.415 33.5041 8.70765 33.8334C8.65684 33.8276 8.60558 33.8394 8.56251 33.867C8.51944 33.8946 8.48719 33.9361 8.47121 33.9847H6.27337C6.21291 33.8395 6.07375 33.8516 5.95249 33.8212C4.58898 33.5548 3.32935 32.9061 2.32051 31.9509C1.31167 30.9957 0.595206 29.7733 0.254701 28.4264C0.200321 28.2447 0.254704 27.9964 0.000366211 27.8934L0.0243422 25.0792Z" fill="#646666"/>
<path id="Path 1677" d="M55.3278 11.0503L48.9102 10.9959H44.8348C44.3504 10.9959 44.2291 10.8568 44.2291 10.3903V0.647781C44.2291 0.133025 44.3683 -0.00613512 44.8891 -5.53244e-05C45.41 0.00602447 45.5674 0.151264 45.5674 0.702161V8.88861C45.5674 9.49422 45.6822 9.69384 46.3304 9.68776C49.3578 9.63946 52.3369 9.65128 55.34 9.63946L55.3278 11.0503Z" fill="#54B6C4"/>
<path id="Path 1678" d="M17.2352 21.8035C18.3613 20.3079 19.6026 19.3814 21.2546 19.0727C21.4846 19.0305 21.7275 19.0305 21.9508 18.9879C22.7198 18.8305 22.8965 19.1939 22.8289 19.8718C22.7989 20.2049 22.7746 20.4048 22.3628 20.3987C19.6928 20.3312 17.9428 22.6753 17.3976 24.9279C17.2807 25.4341 17.224 25.9523 17.2288 26.4718C17.2288 28.6576 17.2288 30.8434 17.2288 33.0292C17.2288 33.5801 17.0227 33.6831 16.5444 33.6348C16.0662 33.5865 15.7571 33.6892 15.7635 33.0292C15.7876 28.6333 15.7876 24.2353 15.7635 19.8354C15.7635 19.1936 16.1087 19.2723 16.5022 19.2723C16.8957 19.2723 17.3014 19.1875 17.2348 19.8354C17.2015 20.491 17.2016 21.1479 17.2352 21.8035Z" fill="#646666"/>
<path id="Path 1679" d="M44.2264 19.5584V12.7693C44.2264 12.2545 44.3778 12.1154 44.8865 12.1154C47.217 12.1458 49.5429 12.1518 51.8677 12.1154C52.4734 12.1154 52.5217 12.3518 52.5399 12.848C52.5581 13.3442 52.371 13.5444 51.8195 13.5444C50.0029 13.514 48.1864 13.5444 46.4125 13.5444C45.8069 13.5444 45.6194 13.6775 45.6255 14.3075C45.6555 18.3157 45.6255 22.3243 45.6255 26.3265C45.6255 27.0696 45.135 27.3922 44.4146 27.1196C44.0572 26.9805 44.2028 26.6775 44.2028 26.4475C44.2204 24.1358 44.2264 21.8471 44.2264 19.5584Z" fill="#DB822E"/>
<path id="Path 1680" d="M37.2185 12.2447H42.1533C42.6741 12.2447 42.8072 12.396 42.8072 12.9047C42.7829 16.1339 42.7829 19.3835 42.8072 22.6533C42.8072 23.1981 42.668 23.3626 42.1171 23.3498C41.5663 23.3369 41.3906 23.2484 41.3964 22.6715C41.4268 19.9164 41.3964 17.1615 41.4268 14.4064C41.4268 13.8008 41.2994 13.6072 40.6577 13.6133C37.8907 13.6498 35.1234 13.6133 32.3503 13.6437C31.7873 13.6437 31.6599 13.4681 31.6599 12.9415C31.6599 12.4149 31.8051 12.2322 32.3564 12.245C33.979 12.2687 35.6199 12.2447 37.2185 12.2447Z" fill="#F6BF37"/>
<path id="Path 1681" d="M38.6398 11.0383H35.4246C34.9518 11.0383 34.4073 11.2622 34.4012 10.3479C34.3951 9.43353 34.8673 9.62133 35.3807 9.62133H40.6364C41.242 9.62133 41.369 9.43961 41.3568 8.87047C41.3203 7.05396 41.3568 5.28001 41.3568 3.48749C41.3568 2.91835 41.5385 2.78527 42.0712 2.80317C42.6038 2.82107 42.8251 2.85789 42.8116 3.46823C42.7751 5.78126 42.8116 8.10036 42.8116 10.4134C42.8116 10.8917 42.6903 11.0491 42.2059 11.019C41.0255 11.0139 39.8142 11.0383 38.6398 11.0383Z" fill="#007799"/>
</g>
<defs>
<clipPath id="clip0_1751_28833">
<rect width="55.34" height="33.9861" fill="white"/>
</clipPath>
</defs>
</svg>
