<svg xmlns="http://www.w3.org/2000/svg" width="320.428" height="60" viewBox="0 0 320.428 60">
  <g id="Group_4575" data-name="Group 4575" transform="translate(-665.729 -3420)">
    <g id="VC" transform="translate(617.729 3191.601)">
      <g id="Group_2731" data-name="Group 2731" transform="translate(188.134 238.4)">
        <path id="Path_11847" data-name="Path 11847" d="M378.8,238.4h5.041c.3,0,.381.169.466.381,1.228,2.076,2.5,4.109,3.685,6.185.254.424.424.424.8.212a17.486,17.486,0,0,1,17.114.042c.381.212.508.127.678-.169,1.228-2.076,2.5-4.152,3.728-6.227.127-.212.212-.381.508-.381h4.745a1.5,1.5,0,0,0,.254.042c-6.185,10.252-12.327,20.5-18.512,30.8-.551-.89-1.059-1.737-1.567-2.584-2.33-3.855-4.617-7.71-6.947-11.523a.644.644,0,0,1,.042-.847,11.854,11.854,0,0,1,2.542-2.5c.381-.3.551-.3.847.169,1.567,2.711,3.219,5.38,4.787,8.049.212.381.339.424.551,0,2.033-3.389,4.067-6.82,6.143-10.209.212-.381.169-.508-.169-.72a12.67,12.67,0,0,0-11.438-.508,12.49,12.49,0,0,0-7.456,9.193,12.9,12.9,0,0,0,21.139,12.243,10.779,10.779,0,0,0,1.652-1.737c.8,1.313,1.567,2.584,2.33,3.9.127.254,0,.339-.127.466a17.407,17.407,0,0,1-25.417-23.765.887.887,0,0,0,.085-1.271c-1.779-2.923-3.516-5.846-5.3-8.769A2.028,2.028,0,0,0,378.8,238.4Z" transform="translate(-378.8 -238.4)" fill="#e30000"/>
      </g>
      <path id="Path_11848" data-name="Path 11848" d="M48,270.2h3.092l5.422,9.4,5.549-9.4h3.05l-8.557,14.827Z" transform="translate(0 -18.329)" fill="#e30000"/>
      <rect id="Rectangle_743" data-name="Rectangle 743" width="2.669" height="14.318" transform="translate(70.155 251.871)" fill="#e30000"/>
      <path id="Path_11849" data-name="Path 11849" d="M128.911,284.518H126.2V270.2h11.777a2.359,2.359,0,0,1,2.245,2.542c.042,2.5,0,4.872,0,4.872s-.635,1.822-2.076,1.864l-1.313-.042,4.067,4.829h-3.431l-6.27-7.371,6.185-.042s.212.169.212-.424v-3.389s.042-.17-.3-.212h-8.515Z" transform="translate(-45.073 -18.329)" fill="#e30000"/>
      <path id="Path_11850" data-name="Path 11850" d="M187.149,270.2v2.669h-5.677v11.65h-2.711v-11.65H173V270.2Z" transform="translate(-72.047 -18.329)" fill="#e30000"/>
      <path id="Path_11851" data-name="Path 11851" d="M233.318,270.2v11.861a2.459,2.459,0,0,1-2.457,2.457h-9.4A2.459,2.459,0,0,1,219,282.061V270.2h2.881v11.438h8.557V270.2Z" transform="translate(-98.561 -18.329)" fill="#e30000"/>
      <path id="Path_11852" data-name="Path 11852" d="M549.061,270.2h-9.4a2.459,2.459,0,0,0-2.457,2.457v9.4a2.459,2.459,0,0,0,2.457,2.457h9.4a2.459,2.459,0,0,0,2.457-2.457v-9.4A2.459,2.459,0,0,0,549.061,270.2Zm-.424,11.4h-8.557v-8.515h8.557Z" transform="translate(-281.965 -18.329)" fill="#e30000"/>
      <path id="Path_11853" data-name="Path 11853" d="M504.319,284.518H492.457A2.459,2.459,0,0,1,490,282.061v-9.4a2.459,2.459,0,0,1,2.457-2.457h12.412l-2.076,2.881h-9.87v8.557h11.438v2.881Z" transform="translate(-254.759 -18.329)" fill="#e30000"/>
      <path id="Path_11854" data-name="Path 11854" d="M264,283.654h3.05l5.507-9.574,3.9,6.693H270.99l2.33,2.881h7.71L272.515,268.7Z" transform="translate(-124.498 -17.464)" fill="#e30000"/>
      <path id="Path_11855" data-name="Path 11855" d="M329.29,281.838v2.8H316.2V270.4h2.881v11.438Z" transform="translate(-154.585 -18.444)" fill="#e30000"/>
      <path id="Path_11856" data-name="Path 11856" d="M600.713,270.2v14.318h-2.669V274.1l-5.338,6.4-5.3-6.142v10.167H584.7V270.2h3.008l5.041,6.016,5-6.016Z" transform="translate(-309.342 -18.329)" fill="#e30000"/>
      <path id="Path_11857" data-name="Path 11857" d="M800.711,297.5v2.626h-.466V298.22l-.89,1.186-.889-1.144v1.864H798V297.5h.508l.847,1.1.847-1.1Z" transform="translate(-432.284 -34.064)" fill="#e30000"/>
      <rect id="Rectangle_744" data-name="Rectangle 744" width="2.711" height="14.318" transform="translate(317.635 251.871)" fill="#e30000"/>
      <path id="Path_11858" data-name="Path 11858" d="M720.276,270.285V284.6h-2.753l-8.769-10.209v10.125H706V270.2h2.754l8.769,10.209V270.285Z" transform="translate(-379.257 -18.329)" fill="#e30000"/>
      <path id="Path_11859" data-name="Path 11859" d="M712.442,270.2Z" transform="translate(-382.946 -18.329)" fill="#e30000"/>
      <path id="Path_11860" data-name="Path 11860" d="M712.342,270.142H712.3l.042-.042Z" transform="translate(-382.889 -18.271)" fill="#e30000"/>
      <path id="Path_11861" data-name="Path 11861" d="M757.554,272.911V276H765.9l-2.245,2.669h-6.1v3.008h10.252v2.711H754.8V270.2h13.005v2.711Z" transform="translate(-407.385 -18.329)" fill="#e30000"/>
      <path id="Path_11862" data-name="Path 11862" d="M650.614,276.651c-.042-.042-.085-.042-.127-.085a1.392,1.392,0,0,0,.169-.72v-3.389l-.042-.339a2.474,2.474,0,0,0-.974-1.652,2.31,2.31,0,0,0-1.4-.466H637.1v14.4h11.946a2.512,2.512,0,0,0,1.61-.762,3.009,3.009,0,0,0,.424-.593,2.3,2.3,0,0,0,.254-1.059v-4.025A1.723,1.723,0,0,0,650.614,276.651ZM639.9,272.8h8.133v2.881H639.9Zm8.6,8.854h-8.6v-3.177h8.6Z" transform="translate(-339.545 -18.214)" fill="#e30000"/>
      <path id="Path_11863" data-name="Path 11863" d="M668.985,282.8v.424a1.252,1.252,0,0,0-.085-.424Z" transform="translate(-357.874 -25.591)" fill="#e30000"/>
      <path id="Path_11864" data-name="Path 11864" d="M664.424,285.7a1.346,1.346,0,0,0-.424.424V285.7Z" transform="translate(-355.049 -27.263)" fill="#e30000"/>
      <path id="Path_11865" data-name="Path 11865" d="M662.785,281.6H662.7" transform="translate(-354.3 -24.9)" fill="#e30000"/>
      <path id="Path_11866" data-name="Path 11866" d="M793.918,297.5v.466h-.763v2.16H792.6v-2.16h-.8V297.5Z" transform="translate(-428.711 -34.064)" fill="#e30000"/>
    </g>
    <rect id="Rectangle_1976" data-name="Rectangle 1976" width="320" height="60" transform="translate(665.729 3420)" fill="none"/>
  </g>
</svg>
