<svg width="107" height="20" viewBox="0 0 107 20" fill="none" xmlns="http://www.w3.org/2000/svg">
<g id="Property 1=COlored" clip-path="url(#clip0_1751_28876)">
<path id="Vector" d="M55.3064 19.2155C40.2519 19.2155 25.2002 19.2495 10.1457 19.19C6.61082 19.1759 3.65091 17.7257 1.62572 14.7204C-0.957469 10.8825 -0.419304 6.14661 2.9343 2.97993C4.97933 1.04822 7.40957 0.119174 10.2392 0.122007C21.4472 0.141834 32.6553 0.144666 43.8604 0.122007C48.9079 0.113509 53.9581 0.0398658 59.0055 0.000211644C59.6882 -0.00545325 60.3708 0.10218 60.9939 0.374095C62.0702 0.844282 62.5858 2.07923 62.2657 3.40763C61.668 5.89735 61.0279 8.37291 60.4359 10.8626C59.7505 13.7376 58.085 14.5533 55.6887 14.6496C52.8138 14.7657 49.9332 14.6638 47.0554 14.6921C46.4465 14.6978 46.3587 14.389 46.4578 13.95C47.1376 11.0043 47.8429 8.06134 48.5311 5.1156C48.602 4.81253 48.7492 4.69073 49.0665 4.6964C49.8454 4.71339 50.6243 4.72755 51.4004 4.69356C51.8989 4.6709 51.9754 4.92866 51.8904 5.29971C51.6242 6.48084 51.3353 7.65914 51.0549 8.83743C50.8453 9.72116 50.6328 10.6049 50.4261 11.4886C50.3666 11.7464 50.4374 11.8823 50.7376 11.8823C52.4371 11.8738 54.1394 11.9446 55.8332 11.8512C56.7509 11.803 56.9973 10.9334 57.1786 10.1857C57.6743 8.14915 58.1303 6.10129 58.5977 4.05909C58.7846 3.24618 58.4277 2.8015 57.5751 2.79867C54.6011 2.793 51.6298 2.79867 48.6558 2.79867C35.703 2.79867 22.7501 2.79867 9.79449 2.79867C6.6788 2.79867 3.69623 4.9938 2.89181 7.9877C2.10441 10.9164 3.46114 13.8509 6.20011 15.4512C7.61067 16.2755 9.16002 16.5587 10.7773 16.5587C38.3825 16.5587 65.9903 16.5587 93.5954 16.5559C95.5299 16.5559 97.4645 16.5389 99.3991 16.519C100.475 16.5077 100.685 16.3009 100.824 15.2161C100.872 14.8479 100.963 14.4882 101.042 14.1256C101.215 13.3297 101.104 13.1881 100.263 13.1852C98.2349 13.1796 96.2041 13.1909 94.176 13.1739C92.7995 13.1626 92.2868 12.4318 92.6267 11.1091C92.9949 9.66734 93.281 8.20296 93.652 6.76125C94.0061 5.37902 94.8785 4.71056 96.2805 4.70206C99.4189 4.6879 102.557 4.70206 105.696 4.67657C106.268 4.6709 106.384 4.86351 106.288 5.38185C106.222 5.72741 106.086 6.04747 106.052 6.40719C105.993 7.06149 105.667 7.36739 104.905 7.34757C102.478 7.28525 100.045 7.33907 97.6146 7.31358C97.0935 7.30791 96.8272 7.51751 96.7054 7.98487C96.5695 8.5032 96.425 9.01871 96.3004 9.53988C96.1134 10.3216 96.2749 10.5227 97.0878 10.5227C99.045 10.5284 101.005 10.5227 102.962 10.5284C103.291 10.5284 103.634 10.5199 103.942 10.6134C104.724 10.8513 104.968 11.3243 104.747 12.5961C104.48 14.1341 104.172 15.6721 103.721 17.1648C103.229 18.7963 102.444 19.0654 100.815 19.19C99.5718 19.2863 98.3171 19.2099 97.0651 19.2099C83.1436 19.2099 69.2222 19.2099 55.3035 19.2099L55.3064 19.2155Z" fill="#070707"/>
<path id="Vector_2" d="M41.0959 4.7077C41.9966 4.83516 43.1381 4.4981 44.2427 4.87199C45.135 5.17506 45.489 5.6849 45.2794 6.56579C44.7809 8.66746 44.2569 10.7663 43.6933 12.8538C43.3562 14.1001 42.5801 14.6581 41.2177 14.6836C39.4956 14.7147 37.7734 14.7119 36.0513 14.6836C34.9382 14.6666 34.1196 13.9925 34.2102 13.1852C34.2697 12.6556 34.4312 12.1344 34.5614 11.616C34.9863 9.92507 35.3885 8.2256 35.8587 6.54879C36.2184 5.26286 37.0058 4.72187 38.3343 4.71337C39.184 4.7077 40.0337 4.71337 41.0987 4.71337L41.0959 4.7077ZM39.1104 12.0494C39.5494 12.0494 39.9063 12.0126 40.2547 12.0579C40.6767 12.1146 40.8665 11.8993 40.9543 11.5566C41.2743 10.3216 41.5746 9.08383 41.8862 7.84889C41.9853 7.44951 41.8493 7.30506 41.4273 7.32205C40.6994 7.35038 39.9658 7.36454 39.2406 7.31639C38.8045 7.28806 38.6572 7.5005 38.575 7.84889C38.3598 8.75244 38.1388 9.65316 37.9406 10.5595C37.8386 11.0297 37.4279 11.6274 37.7083 11.9333C38.0142 12.2703 38.6855 12.0013 39.1104 12.0466V12.0494Z" fill="#070707"/>
<path id="Vector_3" d="M22.0902 4.70777C22.9144 4.70777 23.7415 4.70494 24.5657 4.70777C26.1292 4.71627 26.7637 5.52918 26.3898 7.01621C25.8885 8.99893 25.4013 10.9845 24.9085 12.97C24.6705 13.9246 23.7132 14.6525 22.5179 14.678C20.7504 14.7148 18.9801 14.7261 17.2155 14.6751C15.72 14.6327 15.2073 13.8028 15.5982 12.361C16.0967 10.5228 16.5612 8.67036 16.9889 6.81511C17.2948 5.4782 18.1219 4.7276 19.4758 4.7106C20.3482 4.69927 21.2206 4.7106 22.093 4.7106L22.0902 4.70777ZM23.2118 7.33062C22.4272 7.33062 21.6965 7.37593 20.977 7.31929C20.2604 7.26264 19.8185 7.37027 19.6798 8.22C19.4985 9.31616 19.1416 10.384 18.881 11.4688C18.796 11.8257 18.8329 12.0976 19.3512 12.0608C20.031 12.0127 20.7164 12.0353 21.4019 12.0551C21.8239 12.0665 22.042 12.007 22.1496 11.4858C22.4329 10.1206 22.8351 8.778 23.2146 7.33062H23.2118Z" fill="#070707"/>
<path id="Vector_4" d="M72.8392 14.5505C71.6836 14.5505 70.5279 14.5562 69.3723 14.5505C68.6868 14.5449 68.6047 14.4118 68.8199 13.7433C68.9106 13.4572 69.0664 13.1627 69.0579 12.8737C69.0324 12.0297 69.5507 12.0212 70.1682 12.0297C71.7487 12.0495 73.3292 12.041 74.9097 12.0353C75.3176 12.0353 75.8331 11.2281 75.6603 10.874C75.5498 10.6474 75.3289 10.7381 75.1561 10.7381C73.9523 10.7296 72.7486 10.7381 71.5476 10.7296C70.3551 10.7239 69.868 10.1716 70.0379 9.00462C70.1767 8.05858 70.4203 7.1352 70.7234 6.23165C71.0689 5.20914 71.7487 4.71913 72.8165 4.71346C75.1051 4.6993 77.3938 4.71913 79.6824 4.69363C80.2489 4.68797 80.3083 4.94572 80.1922 5.37909C80.0931 5.73881 79.8891 6.09003 79.8863 6.44692C79.8863 7.21451 79.4246 7.24284 78.8581 7.24C77.3258 7.22867 75.7906 7.27683 74.2582 7.21734C73.5445 7.18902 73.5275 7.67337 73.4482 8.0954C73.3745 8.49761 73.7371 8.4353 73.9835 8.4353C75.1165 8.44096 76.2495 8.42397 77.3796 8.44379C78.9176 8.46929 79.3935 9.13774 78.9743 10.605C78.7307 11.4547 78.5721 12.3271 78.2945 13.1627C78.0084 14.0152 77.3626 14.4712 76.4477 14.5166C76.3061 14.5222 76.1645 14.5477 76.0257 14.5505C74.9635 14.5534 73.9014 14.5505 72.842 14.5505V14.5562L72.8392 14.5505Z" fill="#090909"/>
<path id="Vector_5" d="M87.735 4.6964C88.8198 4.6964 89.9018 4.69924 90.9867 4.6964C91.4002 4.6964 91.6126 4.77571 91.4342 5.27705C91.2557 5.7784 91.1651 6.3109 91.0603 6.8349C90.981 7.22861 90.7714 7.35041 90.3692 7.34191C88.9331 7.31642 87.4943 7.34757 86.0582 7.32208C85.6872 7.31642 85.537 7.41272 85.4492 7.7866C85.1688 9.00739 84.8771 10.231 84.5145 11.4291C84.3729 11.8993 84.5598 11.888 84.8827 11.888C86.2508 11.8852 87.6161 11.888 88.9841 11.888C89.7206 11.888 89.8424 12.0013 89.6271 12.7037C89.511 13.0833 89.4288 13.4827 89.3637 13.8537C89.2589 14.4514 88.9785 14.5618 88.4601 14.5562C86.5284 14.5363 84.5938 14.576 82.6649 14.5307C81.1722 14.4967 80.6794 13.831 81.0306 12.378C81.498 10.4378 81.9993 8.50604 82.512 6.57432C82.8745 5.21191 83.5572 4.70773 84.9847 4.6964C85.9024 4.68791 86.823 4.6964 87.7407 4.6964H87.735Z" fill="#070707"/>
<path id="Vector_6" d="M12.0152 4.70775C12.5335 4.70775 13.0547 4.72757 13.5702 4.70208C14.0659 4.67659 14.3265 4.7559 14.1679 5.36204C13.7996 6.7811 13.4909 8.21431 13.1453 9.6362C12.7885 11.1091 12.4117 12.5763 12.0577 14.0492C11.9529 14.491 11.7574 14.7346 11.2533 14.7006C10.6415 14.661 10.0268 14.6921 9.41502 14.6893C8.97599 14.6893 8.8287 14.4797 8.93633 14.052C9.45467 11.9985 9.94468 9.93644 10.4885 7.89142C10.6188 7.40423 10.4772 7.32776 10.0438 7.32493C9.19975 7.31926 9.19125 7.28244 9.42068 6.42138C9.72846 5.27896 10.4744 4.70775 11.6583 4.70775C11.7773 4.70775 11.8934 4.70775 12.0124 4.70775H12.0152Z" fill="#090909"/>
<path id="Vector_7" d="M30.8454 4.70774C31.3864 4.70774 31.9302 4.73323 32.4684 4.69924C32.9895 4.66525 33.0972 4.93433 32.998 5.34504C32.6156 6.92554 32.2134 8.50038 31.8169 10.0752C31.477 11.4263 31.1116 12.7745 30.8029 14.1313C30.6952 14.61 30.4488 14.7176 30.0155 14.6921C29.4745 14.6638 28.9278 14.6411 28.3925 14.6949C27.6786 14.7658 27.6673 14.3494 27.7721 13.8735C27.9562 13.0323 28.1714 12.1967 28.3868 11.364C28.6757 10.2395 28.9788 9.11502 29.2762 7.99337C29.398 7.53735 29.3555 7.21728 28.7522 7.32492C28.1148 7.43821 28.0327 7.09266 28.1516 6.58282C28.2196 6.28824 28.2791 5.99367 28.3386 5.69626C28.5313 4.73323 28.5737 4.69924 29.5793 4.70207C30.0041 4.70207 30.4262 4.70207 30.851 4.70207L30.8454 4.70774Z" fill="#090909"/>
<path id="Vector_8" d="M66.4321 4.7078C66.7153 4.7078 66.9958 4.7078 67.279 4.7078C67.9701 4.71063 68.1061 4.87208 67.9361 5.53487C67.4036 7.62522 66.8598 9.71556 66.3216 11.8059C66.1177 12.5962 65.9053 13.3836 65.7381 14.1795C65.6588 14.5506 65.4917 14.6978 65.1207 14.6922C64.4154 14.6808 63.7073 14.6865 63.002 14.6922C62.597 14.6922 62.4299 14.4854 62.5233 14.1087C63.2343 11.2281 63.9707 8.35316 64.6562 5.46406C64.8063 4.82676 65.1093 4.60583 65.7268 4.70213C65.9562 4.73896 66.197 4.7078 66.4321 4.7078Z" fill="#090909"/>
</g>
<defs>
<clipPath id="clip0_1751_28876">
<rect width="106.5" height="19.2606" fill="white"/>
</clipPath>
</defs>
</svg>
