<svg width="79" height="35" viewBox="0 0 79 35" fill="none" xmlns="http://www.w3.org/2000/svg">
<g id="Group">
<g id="Group_2">
<path id="Vector" d="M47.9828 12.0485C47.2303 10.9628 46.144 10.1524 44.889 9.74027C44.7129 9.69306 44.5502 9.60562 44.4136 9.48485C44.2771 9.36407 44.1704 9.21325 44.102 9.04425C44.0337 8.87526 44.0055 8.6927 44.0197 8.51096C44.0339 8.32921 44.09 8.15324 44.1837 7.99689C44.2775 7.84053 44.4062 7.70807 44.5598 7.60992C44.7135 7.51177 44.8877 7.45062 45.069 7.43127C45.2503 7.41193 45.4336 7.43492 45.6044 7.49844C45.7753 7.56196 45.9291 7.66427 46.0537 7.79732C47.4426 9.16486 47.9828 12.0485 47.9828 12.0485Z" fill="#1A1818"/>
<path id="Vector_2" d="M49.7017 14.5816C51.568 13.5057 53.7691 13.1664 55.8728 13.6303C56.1133 13.7254 56.3727 13.7628 56.6303 13.7394C56.8878 13.716 57.1363 13.6324 57.3557 13.4955C57.575 13.3586 57.7592 13.1721 57.8934 12.951C58.0275 12.7299 58.1079 12.4804 58.1281 12.2226C58.1482 11.9648 58.1076 11.7058 58.0095 11.4666C57.9113 11.2273 57.7583 11.0145 57.5629 10.8451C57.3675 10.6757 57.1351 10.5546 56.8843 10.4914C56.6335 10.4283 56.3714 10.4249 56.1191 10.4815C52.3177 10.8755 49.7017 14.5816 49.7017 14.5816Z" fill="#1A1818"/>
<path id="Vector_3" d="M47.9064 8.60421C47.8243 8.55332 46.7785 5.39878 44.4793 3.87528C41.8862 2.15642 45.0703 -0.781407 46.6866 1.90524C48.0065 4.09855 47.9064 8.60585 47.9064 8.60585" fill="#1A1818"/>
<path id="Vector_4" d="M51.1331 11.4599C51.2283 11.4542 53.1203 9.44718 55.4598 9.13116C58.0725 8.77655 56.586 5.76566 54.5174 7.2276C53.1034 8.38421 51.9501 9.826 51.1331 11.4599Z" fill="#1A1818"/>
<path id="Vector_5" d="M49.0244 13.4579C49.1673 13.3216 49.7558 9.35362 54.3961 4.80282C58.2385 1.03266 52.087 -2.44201 50.2163 2.28445C48.4047 6.8648 49.0236 13.4579 49.0236 13.4579" fill="#1A1818"/>
</g>
<g id="Group_3">
<path id="Vector_6" d="M62.933 16.3161C63.5593 16.2193 64.2464 14.6851 63.5897 14.0834C61.5975 12.4417 60.2965 16.477 62.933 16.3161Z" fill="#1A1818"/>
<path id="Vector_7" d="M42.8918 11.9246C42.5398 11.4059 42.0607 10.9863 41.5002 10.7056C40.9397 10.4249 40.3167 10.2927 39.6905 10.3214C37.5563 10.3214 35.1364 11.6701 34.3698 13.2486C32.9086 16.2578 35.4032 18.6293 37.4315 20.8062C39.0979 22.5932 40.2955 24.4179 39.7447 26.5932C39.5355 27.119 39.1707 27.5684 38.6991 27.8812C38.2274 28.194 37.6715 28.3552 37.1057 28.3432C36.8148 28.355 36.5245 28.3087 36.2518 28.2069C35.979 28.1052 35.7293 27.95 35.5173 27.7506C35.3541 27.5771 35.2272 27.3728 35.1439 27.1497C35.0606 26.9266 35.0226 26.6891 35.0322 26.4511C35.1005 25.9399 35.2911 25.4527 35.588 25.0308C35.8848 24.609 36.279 24.265 36.7371 24.028C37.0137 23.8909 36.8487 23.7694 36.7921 23.7645C34.3952 23.9648 33.3527 25.3364 33.3847 26.6375C33.4225 28.1232 34.8212 29.6279 37.425 29.6279C37.8025 29.626 38.1794 29.5969 38.5528 29.5408C40.1042 29.3085 42.4199 27.4649 42.6965 25.3619C43.1127 22.1786 41.1598 20.1158 39.2489 18.2082C37.6072 16.5706 36.0632 15.0971 36.5155 13.196C36.6731 12.6373 37.0201 12.1508 37.4971 11.8198C37.9741 11.4889 38.5513 11.3341 39.1299 11.382C39.3432 11.3826 39.5561 11.3997 39.7669 11.4329C40.0042 11.4446 40.2354 11.5125 40.4413 11.6311C40.6473 11.7497 40.8221 11.9156 40.9513 12.115C41.7008 13.1977 41.4266 15.0389 41.1566 16.3982C41.1367 16.5123 41.1093 16.6251 41.0745 16.7356C41.0619 16.7678 41.0598 16.8031 41.0685 16.8366C41.0772 16.87 41.0963 16.8999 41.1229 16.9219C41.1899 16.9397 41.2603 16.9397 41.3273 16.9219C41.4785 16.8728 41.624 16.8079 41.7615 16.7282C42.2554 16.4221 42.6491 15.9785 42.8943 15.4517C43.1782 14.9066 43.326 14.3009 43.325 13.6862C43.324 13.0716 43.1743 12.4663 42.8886 11.9221" fill="#1A1818"/>
<path id="Vector_8" d="M43.9877 32.5952H44.0222L44.0378 32.6034C44.2195 32.6669 44.41 32.7018 44.6025 32.7068C45.7517 32.7068 45.7862 30.8887 45.8256 28.9621C45.8437 28.014 45.9495 25.9988 45.9495 25.9988L46.2688 26.0916C46.6257 26.2417 47.008 26.3223 47.395 26.3288C49.3462 26.3288 50.5233 24.0206 50.6785 21.7419C50.7967 20.0075 50.2779 18.1704 48.857 17.9742C48.6794 17.949 48.5003 17.9359 48.321 17.9348C47.1595 17.9348 46.5044 18.7097 45.883 19.7825C45.9585 18.9128 45.9448 18.0376 45.842 17.1706C45.545 17.0265 45.2216 16.9449 44.8918 16.9307C44.5619 16.9166 44.2327 16.9703 43.9245 17.0885C43.6971 18.6572 43.6569 32.3908 43.991 32.5977M47.2071 19.322C47.2813 19.1982 47.3823 19.0926 47.5025 19.0127C47.6228 18.9329 47.7594 18.881 47.9023 18.8607C47.9669 18.8613 48.0307 18.8749 48.0898 18.9009C48.1489 18.9269 48.2022 18.9646 48.2463 19.0118L48.284 19.0668C48.4468 19.6647 48.4925 20.2885 48.4187 20.9038C48.3456 22.6531 47.803 25.3364 46.149 24.5812L46.0727 24.5213L46.0259 24.3801C45.7953 22.6067 46.2149 20.8099 47.2071 19.322Z" fill="#1A1818"/>
<path id="Vector_9" d="M28.8651 34.1647C28.9472 34.1704 29.0235 34.1745 29.1015 34.1745C29.4652 34.1721 29.8245 34.0942 30.1566 33.9457C30.4886 33.7972 30.7862 33.5813 31.0305 33.3118C32.1075 32.2028 32.7428 30.094 32.6878 27.8055C32.6435 25.934 32.5482 23.9229 32.4662 22.149C32.389 20.5188 32.3225 19.1028 32.3061 18.0825C32.1006 17.9342 31.8579 17.8458 31.6051 17.8273C30.5905 17.8273 30.4239 20.1593 30.3237 21.5531C30.3089 21.9168 30.2716 22.2792 30.2121 22.6383C30.0646 23.4612 29.6087 24.1969 28.9373 24.6953C28.3159 25.1 28.2191 24.596 28.1936 24.0879C28.1928 23.2993 28.2723 22.5127 28.4309 21.7403C28.6771 20.2627 28.9332 18.7285 28.1715 17.7608C27.7517 17.6264 27.3011 17.6219 26.8786 17.7476C26.532 18.7772 26.2959 19.8407 26.1743 20.9202C25.8723 22.8689 25.3715 24.7413 24.5958 24.7864H24.5458C24.4989 24.7864 24.4524 24.7768 24.4094 24.7581C24.3663 24.7395 24.3275 24.7123 24.2954 24.6781C24.0426 24.4211 24.1115 23.6627 24.1271 22.4774C24.1353 21.879 24.4029 20.8644 24.3545 20.3235C24.3266 20.0189 23.4146 19.8523 23.097 20.2414C22.5773 20.9987 22.1721 21.8285 21.8944 22.7039C21.7434 23.1694 20.7099 25.5211 20.0886 25.0343C19.6223 24.6699 20.1928 22.9896 20.3266 22.5939C20.692 21.5702 21.2362 20.6194 21.9338 19.7858C22.1946 19.3878 22.5322 19.0459 22.9269 18.7802C23.3216 18.5145 23.7653 18.3303 24.2322 18.2385C24.6369 18.1622 23.9859 17.7854 23.8842 17.7353C23.2905 17.471 22.6244 17.4174 21.9962 17.5835C21.0982 17.7616 19.9441 18.8188 19.0592 20.2775C17.9494 22.1006 17.4274 23.9713 17.8279 25.3783C18.0742 26.2557 18.588 26.7614 19.1569 26.7606C20.2995 26.7606 21.5472 25.3939 22.194 24.4244L22.4895 23.9795L22.5273 24.5147C22.5162 24.718 22.5463 24.9215 22.6156 25.113C22.6849 25.3044 22.7921 25.48 22.9308 25.6291C23.0695 25.7782 23.2368 25.8978 23.4227 25.9808C23.6087 26.0638 23.8094 26.1084 24.013 26.1121C24.4153 26.084 24.8008 25.9395 25.1223 25.696C25.4439 25.4526 25.6876 25.1209 25.8238 24.7413C25.8238 24.7413 25.924 24.4195 25.924 24.4179C25.9042 24.6451 25.9321 24.8739 26.0057 25.0898C26.0793 25.3057 26.1971 25.5038 26.3516 25.6717C26.506 25.8395 26.6938 25.9733 26.9028 26.0645C27.1118 26.1558 27.3376 26.2024 27.5657 26.2016C27.9332 26.216 28.2995 26.15 28.6389 26.0082C28.9783 25.8665 29.2827 25.6523 29.5308 25.3807C29.7647 25.1468 30.4871 24.4203 30.5158 24.0944L30.4666 24.669C30.4218 25.4179 30.4155 26.1686 30.4477 26.9182C30.5035 29.2166 30.5667 31.8252 28.6976 32.2176C28.6565 32.2223 28.6151 32.2248 28.5737 32.225C28.4173 32.2213 28.2654 32.1719 28.1368 32.083C28.0081 31.994 27.9083 31.8693 27.8497 31.7243C27.7249 31.5133 27.6511 31.4033 27.4393 31.4033C27.3713 31.4039 27.3035 31.4122 27.2373 31.4279C26.909 31.6537 26.8754 32.3309 27.0888 32.8234C27.2575 33.1725 27.5068 33.4765 27.816 33.7104C28.1253 33.9443 28.4857 34.1014 28.8675 34.1688" fill="#1A1818"/>
<path id="Vector_10" d="M8.68126 10.5184C8.44813 10.5077 8.21173 10.5028 7.97532 10.5028C5.87463 10.4639 3.81231 11.0686 2.0652 12.2356C1.15833 12.8594 0.477601 13.7598 0.124706 14.8024C-0.012976 15.2829 -0.035197 15.7892 0.0598569 16.2799C0.182164 16.7536 0.375062 16.9974 0.769891 16.5049C0.966013 15.9222 1.21323 15.358 1.50866 14.8188C2.68658 12.5032 5.47419 11.6947 7.90391 11.771C8.92821 11.8244 9.92118 12.1424 10.7859 12.694C11.6507 13.2456 12.3577 14.0119 12.838 14.9182C14.3336 17.5112 15.1003 21.6311 13.4988 24.6091C12.8619 25.7583 10.946 28.3292 7.7184 28.4195C7.16761 28.4359 6.8836 28.4458 6.64391 28.243L7.22835 12.9342C6.63898 12.5475 3.93674 13.3011 3.85301 14.6579C3.66504 18.415 3.52467 22.8271 3.31864 27.1398C3.31864 27.1398 3.31864 27.2318 3.31864 27.2334C3.23327 27.8225 3.3642 28.4227 3.6872 28.9227C4.25112 29.5113 5.31577 29.5342 6.06767 29.5876C6.96803 29.6376 7.87115 29.5913 8.7617 29.4497C13.4603 28.793 17.2107 25.6738 17.3724 19.973C17.5366 14.1909 13.5555 10.74 8.67962 10.52" fill="#1A1818"/>
<path id="Vector_11" d="M77.4021 18.3165C77.4903 18.3166 77.5778 18.3321 77.6606 18.3625C77.8587 18.4341 78.0667 18.4746 78.2771 18.4823C78.621 18.4823 78.7155 18.3256 78.7491 18.1721C78.6198 17.87 78.4028 17.6138 78.1262 17.4364C77.8496 17.259 77.5261 17.1687 77.1977 17.1772C77.0516 17.1624 76.9079 17.1558 76.7692 17.1558C74.3526 17.1558 72.9744 19.5568 72.408 21.3504C72.2439 21.861 72.1273 22.2468 71.9221 22.7458C71.7709 23.2036 71.5786 23.6468 71.3475 24.0699C71.1718 24.3104 70.7877 24.7783 70.5455 24.7126C70.5099 24.5105 70.5019 24.3045 70.5217 24.1003C70.5545 23.7194 70.6169 23.2794 70.6859 22.8148C70.8605 21.8434 70.9383 20.8571 70.9182 19.8704C70.8862 19.3779 70.6884 18.2788 69.5228 18.319C68.3736 18.3584 67.611 19.648 67.0118 20.4762L66.6892 20.9342L66.6941 20.4565C66.6941 20.3046 66.699 20.152 66.7031 19.9993C66.7261 19.0487 66.7499 18.0645 66.227 17.7395L66.1852 17.7263C66.017 17.6668 65.8406 17.6335 65.6623 17.6278C65.4569 17.6339 65.2534 17.6695 65.0581 17.7337C64.6173 18.1959 64.4499 19.2827 64.2718 20.4311C64.0198 22.0728 63.5527 23.9361 62.5307 24.3711C61.8741 24.6551 61.6278 24.5763 61.5408 23.8868C61.5395 22.9641 61.7098 22.0491 62.0431 21.1887C62.5137 20.1598 62.6151 19.0002 62.3304 17.9053C61.6171 17.636 61.3191 17.6377 60.9005 17.9972C60.1831 18.6137 59.7842 20.0379 59.4 21.4152C58.9436 23.0569 58.5102 24.6084 57.512 24.6847C57.4896 24.6858 57.4672 24.6858 57.4447 24.6847C57.3778 24.6866 57.3113 24.6728 57.2507 24.6443C57.1901 24.6157 57.1371 24.5733 57.0959 24.5205C56.8496 24.2029 56.9924 23.5109 57.2756 22.3182C57.3963 21.8084 57.5219 21.2683 57.6105 20.7405C57.7173 20.2195 57.7449 19.6855 57.6926 19.1563C57.6335 18.976 57.5158 18.8207 57.3583 18.715C57.2008 18.6093 57.0126 18.5592 56.8234 18.5726C56.625 18.5785 56.4273 18.5974 56.2315 18.6293C55.9584 18.6709 55.6828 18.6945 55.4066 18.6999C55.048 18.7037 54.692 18.6382 54.3583 18.507C53.8525 18.2521 53.4174 17.8762 53.0917 17.4128C52.7388 16.99 52.4351 16.6248 52.0862 16.6248C51.8186 16.6248 51.5116 16.8365 51.1439 17.2708C51.0789 17.524 51.0823 17.7899 51.1537 18.0414C51.225 18.2929 51.3619 18.521 51.5502 18.7023C51.7532 18.9226 51.8928 19.1938 51.9541 19.4871C52.1054 21.0582 51.8753 22.6427 51.2834 24.106C50.9446 24.8583 50.7128 25.6543 50.5947 26.4709C50.7082 26.4981 50.8244 26.5127 50.9411 26.5144C51.2522 26.5144 51.3975 26.3781 51.6709 26.0966C52.9727 24.7528 53.5137 21.1091 53.5137 19.4559V19.2507L53.7599 19.2794C54.3813 19.3541 55.1554 19.4436 55.3631 20.0034L55.3844 20.0658L55.3647 20.129C55.1184 20.8562 54.7761 22.5094 54.7811 22.5094C54.5668 23.8368 54.5849 25.1214 55.0963 25.8421C55.2715 26.0755 55.5081 26.2555 55.7798 26.362C56.0515 26.4686 56.3474 26.4975 56.6346 26.4454C57.383 26.3055 58.056 25.9004 58.5299 25.3044C58.8514 24.8896 59.1404 24.4505 59.3943 23.9911L59.4058 24.4943C59.4337 25.7329 59.9098 26.3863 60.7864 26.3863C61.6894 26.3863 62.5513 25.8996 63.4747 24.784L63.7792 24.3186L63.808 24.8743C63.8901 26.438 64.4827 26.4692 64.8751 26.4881L64.9933 26.4963H65.0179C65.3528 26.4963 65.6885 25.7534 65.975 25.0557C66.1556 24.6182 66.3296 24.1282 66.5152 23.6094C67.0397 22.1417 68.2389 19.62 68.7314 19.7998L68.5903 20.3112C67.9081 22.7738 68.3292 24.8661 69.0105 25.7666C69.114 25.9255 69.253 26.0583 69.4165 26.1544C69.58 26.2506 69.7636 26.3075 69.9529 26.3206C70.502 26.3206 71.1103 25.8544 71.7078 24.9728L71.9188 24.6617L72.0321 25.0196C72.2915 25.8405 72.7832 26.2771 73.448 26.2771C74.0084 26.2127 74.5379 25.9869 74.9724 25.6273C75.4069 25.2677 75.7277 24.7897 75.8958 24.2513L76.1306 23.46L76.2504 24.2808C76.5295 26.1688 76.9457 30.6662 74.8033 31.5987L74.754 31.6119C73.4119 31.7883 73.6869 29.9201 73.8593 29.1263C73.9241 28.8234 74.1056 28.4376 74.1876 28.0797C74.1597 27.7202 73.494 28.12 73.3939 28.2029C73.0441 28.4928 72.7572 28.8512 72.5509 29.256C72.2255 30.0498 72.1867 30.9321 72.4409 31.7514C72.5658 32.1583 72.8024 32.522 73.1239 32.8011C73.4453 33.0801 73.8386 33.2634 74.2591 33.3299C74.8054 33.4489 75.3735 33.4225 75.9064 33.2532C76.4394 33.084 76.9186 32.7779 77.2962 32.3654C79.1144 29.8848 78.8287 23.3705 77.8412 20.0461C77.7649 20.0387 77.6927 20.0338 77.6213 20.0338C76.4721 20.0338 76.1651 21.2749 75.9533 22.1795C75.7834 22.9117 74.983 24.8062 74.3756 24.9055C74.2328 24.9285 74.0333 24.8308 73.9225 24.4787L73.9159 24.4015C74.2082 21.8872 76.0608 18.3141 77.4029 18.3141" fill="#1A1818"/>
</g>
</g>
</svg>
