<svg width="141" height="22" viewBox="0 0 141 22" fill="none" xmlns="http://www.w3.org/2000/svg">
<path d="M-0.000488281 0.833008H7.80841L12.6234 13.1839L8.02294 21.243L-0.000488281 0.833008Z" fill="black"/>
<path d="M9.62158 0.833008H17.4305L22.2455 13.1839L17.6481 21.243L9.62158 0.833008Z" fill="black"/>
<path d="M34.8676 21.243H27.0587L22.2437 8.89213L26.8437 0.833008L34.8676 21.243Z" fill="#2962FF"/>
<path d="M37.7119 5.54346H41.2308L42.4177 9.94053C42.6526 10.7908 42.9043 11.9943 42.9043 11.9943H42.9465C42.9465 11.9943 43.2014 10.7686 43.4332 9.87925L44.5778 5.54422H47.5032L48.6901 9.87963C48.925 10.7924 49.199 12.0165 49.199 12.0165H49.2413C49.2413 12.0165 49.5153 10.7908 49.7502 9.9413L50.9586 5.54422H54.3718L51.0444 16.1642H47.7999L46.5277 11.3523C46.2928 10.5212 46.0618 9.44375 46.0618 9.44375H46.0195C46.0195 9.44375 45.7647 10.5227 45.533 11.3523L44.2407 16.1638H41.0397L37.7119 5.54346Z" fill="black"/>
<path d="M62.3654 10.8738C62.3654 8.94524 61.5606 7.638 60.0558 7.638C58.551 7.638 57.7692 8.94448 57.7692 10.8738C57.7692 12.803 58.5522 14.0888 60.0558 14.0888C61.5594 14.0888 62.3654 12.803 62.3654 10.8738ZM54.2649 10.8738C54.2545 9.75008 54.5856 8.64873 55.2159 7.70938C55.8462 6.77002 56.7474 6.03499 57.8053 5.5975C58.8632 5.16001 60.03 5.03977 61.1578 5.25203C62.2856 5.4643 63.3236 5.99951 64.1401 6.78978C64.9566 7.58005 65.5148 8.58977 65.744 9.69089C65.9731 10.792 65.8629 11.9349 65.4272 12.9746C64.9916 14.0144 64.2502 14.9041 63.297 15.531C62.3438 16.1579 61.2219 16.4936 60.0734 16.4957C59.307 16.529 58.5419 16.4067 57.8261 16.1367C57.1103 15.8667 56.4594 15.4548 55.9141 14.9268C55.3689 14.3988 54.9411 13.7662 54.6578 13.0687C54.3744 12.3712 54.2416 11.6239 54.2676 10.8738H54.2649Z" fill="black"/>
<path d="M67.0312 5.5437H70.3391V7.20563H70.4045C71.1674 5.94166 72.058 5.38054 73.3725 5.38054C73.602 5.36579 73.8322 5.39373 74.051 5.46289V8.36771H73.966C71.8454 8.07738 70.4894 9.09545 70.4894 11.3936V16.1649H67.034L67.0312 5.5437Z" fill="black"/>
<path d="M75.1512 1.33289H78.5643V9.13118L81.7872 5.54266H85.7727L81.9567 9.52607L86.2178 16.1638H82.2096L79.6021 11.8288L78.5632 12.9078V16.1634H75.1504L75.1512 1.33289Z" fill="black"/>
<path d="M87.0229 1.33289H90.4788V6.85029H90.5442C90.896 6.33434 91.3767 5.91483 91.9406 5.63151C92.5046 5.34818 93.1331 5.21041 93.7667 5.23126C96.1417 5.23126 97.5408 6.89319 97.5408 9.25795V16.1634H94.0849V9.94241C94.0849 8.82323 93.5126 8.05566 92.3864 8.05566C91.2417 8.05566 90.4788 8.98869 90.4788 10.2929V16.1627H87.0229V1.33289Z" fill="black"/>
<path d="M106.717 10.8737C106.717 8.94524 105.913 7.638 104.408 7.638C102.903 7.638 102.118 8.94448 102.118 10.8737C102.118 12.803 102.901 14.0888 104.408 14.0888C105.915 14.0888 106.717 12.803 106.717 10.8737ZM98.6169 10.8737C98.6066 9.75011 98.9376 8.64879 99.5679 7.70945C100.198 6.77011 101.099 6.03509 102.157 5.59757C103.215 5.16006 104.382 5.03978 105.51 5.25198C106.637 5.46419 107.675 5.99932 108.492 6.78951C109.308 7.5797 109.867 8.58935 110.096 9.69042C110.325 10.7915 110.215 11.9344 109.78 12.9741C109.344 14.0139 108.603 14.9036 107.65 15.5306C106.697 16.1576 105.575 16.4935 104.426 16.4957C103.66 16.529 102.895 16.4068 102.179 16.1369C101.463 15.8669 100.812 15.455 100.267 14.927C99.7214 14.399 99.2937 13.7663 99.0103 13.0688C98.7269 12.3713 98.594 11.6239 98.6201 10.8737H98.6169Z" fill="black"/>
<path d="M111.382 5.54369H114.689V7.20562H114.754C115.517 5.94165 116.408 5.38053 117.722 5.38053C117.952 5.3658 118.182 5.39374 118.401 5.46288V8.3677H118.315C116.195 8.07737 114.839 9.09544 114.839 11.3936V16.1648H111.387L111.382 5.54369Z" fill="black"/>
<path d="M118.845 12.722H122.113C122.24 13.7806 122.963 14.2989 124.106 14.2989C125.145 14.2989 125.805 13.9247 125.805 13.241C125.805 12.2869 124.49 12.1831 123.049 11.9345C121.162 11.6231 119.148 11.1252 119.148 8.63707C119.148 6.39679 121.268 5.23547 123.833 5.23547C126.907 5.23547 128.561 6.54272 128.733 8.63707H125.546C125.419 7.68259 124.763 7.39187 123.807 7.39187C122.958 7.39187 122.305 7.70327 122.305 8.36666C122.305 9.11316 123.534 9.21697 124.912 9.46593C126.82 9.77733 129.067 10.2542 129.067 12.9721C129.067 15.2951 126.968 16.4978 124.128 16.4978C120.944 16.4993 118.952 15.0645 118.845 12.722Z" fill="black"/>
<path d="M137.501 9.71255C137.37 8.44859 136.568 7.63735 135.445 7.63735C134.13 7.63735 133.452 8.44591 133.22 9.71255H137.501ZM129.805 10.8325C129.805 7.6588 132.073 5.23161 135.381 5.23161C136.746 5.19364 138.073 5.66842 139.091 6.55838C140.383 7.7197 141.021 9.56586 140.999 11.723H133.197C133.41 13.154 134.215 14.046 135.635 14.046C136.011 14.0759 136.386 13.99 136.709 13.8004C137.032 13.6109 137.286 13.3271 137.436 12.9889H140.809C140.536 14.0161 139.887 14.9093 138.985 15.4985C137.988 16.1646 136.801 16.5057 135.593 16.4732C134.824 16.5155 134.054 16.3985 133.333 16.1301C132.613 15.8616 131.958 15.4477 131.412 14.9152C130.866 14.3828 130.441 13.7437 130.165 13.0397C129.888 12.3358 129.766 11.5826 129.806 10.8294L129.805 10.8325Z" fill="black"/>
</svg>
