<svg width="56" height="17" viewBox="0 0 56 17" fill="none" xmlns="http://www.w3.org/2000/svg">
<g clip-path="url(#clip0_1751_28925)">
<path d="M10.1367 12.5581C10.3103 13.2731 10.5905 13.5496 11.0858 13.5496C11.5991 13.5496 11.8683 13.2138 11.8683 12.5581V0.383823H15.0842V12.5581C15.0842 14.2741 14.8797 15.0177 14.0803 15.888C13.5042 16.5152 12.4417 17 11.1 17C10.016 17 8.97877 16.6095 8.31729 15.8881C7.73735 15.2556 7.41878 14.606 6.92094 12.558L4.94762 4.44191C4.77385 3.72692 4.49374 3.45057 3.99854 3.45057C3.48504 3.45057 3.21584 3.78617 3.21584 4.44191V16.6163H0V4.44191C0 2.72598 0.204626 1.98233 1.00396 1.11201C1.57982 0.485056 2.64251 0 3.98432 0C5.06828 0 6.10552 0.39066 6.767 1.11189C7.34694 1.74436 7.6655 2.39398 8.16335 4.44203L10.1367 12.5581Z" fill="#DB362D"/>
<path d="M52.676 16.6163L48.9621 3.96969C48.9211 3.83007 48.8824 3.71157 48.8229 3.63252C48.7209 3.49735 48.5797 3.42634 48.3897 3.42634C48.1999 3.42634 48.0587 3.49735 47.9566 3.63252C47.8972 3.71145 47.8584 3.82995 47.8175 3.96969L44.1037 16.6163H40.7795L44.8363 2.80143C45.0476 2.08176 45.3498 1.47076 45.7331 1.06367C46.3911 0.365471 47.1664 0 48.3898 0C49.6133 0 50.3887 0.365471 51.0465 1.06355C51.4298 1.47076 51.732 2.08164 51.9434 2.80131L56 16.6162H52.676V16.6163Z" fill="#DB362D"/>
<path d="M36.2397 16.6163C38.3465 16.6163 39.3742 16.1291 40.1861 15.2502C41.0845 14.2781 41.5142 13.2144 41.5142 11.6264C41.5142 10.2231 41.0423 8.92341 40.3237 8.14568C39.3842 7.12867 38.2173 6.80818 36.3145 6.80818L33.6493 6.80806C32.6309 6.80806 32.225 6.67408 31.9039 6.33068C31.6835 6.09511 31.5801 5.74475 31.5801 5.33178C31.5801 4.9049 31.6745 4.48329 31.9441 4.19531C32.1833 3.9397 32.5093 3.8224 33.1359 3.8224H40.8386V0.383823H33.7242C31.6173 0.383823 30.5898 0.871158 29.7778 1.74987C28.8795 2.72202 28.4497 3.78557 28.4497 5.37364C28.4497 6.77711 28.9216 8.07672 29.6402 8.85432C30.5798 9.87133 31.7466 10.1919 33.6494 10.1919L36.3147 10.1922C37.3331 10.1922 37.7389 10.3259 38.06 10.6694C38.2805 10.9051 38.3839 11.2554 38.3839 11.6683C38.3839 12.0952 38.2895 12.5168 38.02 12.8048C37.7807 13.0604 37.4546 13.1777 36.8281 13.1777H28.8839L25.837 2.80143C25.6257 2.08176 25.3235 1.47076 24.9401 1.06367C24.2822 0.365471 23.5069 0 22.2834 0C21.06 0 20.2845 0.365471 19.6269 1.06355C19.2434 1.47076 18.9414 2.08164 18.7301 2.80131L14.6733 16.6162H17.9974L21.7113 3.96957C21.7523 3.82995 21.791 3.71145 21.8505 3.63241C21.9525 3.49723 22.0938 3.42622 22.2836 3.42622C22.4735 3.42622 22.6147 3.49723 22.7168 3.63241C22.7763 3.71133 22.815 3.82983 22.8559 3.96957L26.5698 16.6162H36.2397V16.6163Z" fill="#DB362D"/>
</g>
<defs>
<clipPath id="clip0_1751_28925">
<rect width="56" height="17" fill="white"/>
</clipPath>
</defs>
</svg>
