<svg width="75" height="39" viewBox="0 0 75 39" fill="none" xmlns="http://www.w3.org/2000/svg">
<path d="M1.7946 18.4476H6.49457V11.0168C6.34027 10.2784 5.93323 9.6151 5.34198 9.13848C4.75072 8.66186 4.01134 8.40103 3.24827 8.3999C0.514994 8.3999 0 11.1868 0 11.1868V25.3715C0.154304 26.1098 0.561336 26.7731 1.15259 27.2498C1.74385 27.7264 2.48323 27.9872 3.2463 27.9883C5.97958 27.9883 6.4926 25.2014 6.4926 25.2014V20.1351H4.78208V24.442C4.78647 24.6429 4.74968 24.8425 4.67393 25.0289C4.59818 25.2153 4.48504 25.3847 4.34131 25.5267C4.19758 25.6688 4.02624 25.7807 3.8376 25.8556C3.64897 25.9305 3.44693 25.967 3.24367 25.9627C1.70526 25.9627 1.79 24.2752 1.79 24.2752V18.4476H1.7946ZM1.7946 12.126C1.7946 11.7205 1.95765 11.3315 2.24788 11.0447C2.53811 10.758 2.93175 10.5969 3.3422 10.5969C3.52045 10.5967 3.69698 10.6312 3.8617 10.6985C4.02643 10.7658 4.17612 10.8645 4.30221 10.989C4.42831 11.1134 4.52834 11.2612 4.5966 11.4239C4.66485 11.5866 4.69998 11.761 4.69998 11.9371V16.9295H1.7946V12.126Z" fill="#3D8EC9"/>
<path d="M13.0739 14.1404H8.03296V15.9135H13.0739V14.1404Z" fill="#3D8EC9"/>
<path d="M21.554 11.2705C21.5212 9.65507 20.8485 8.38881 19.1498 8.39984C18.2061 8.42454 17.311 8.81835 16.6609 9.49476V2.4917H14.4407V27.9857H16.6609V11.3192C19.0415 9.33639 19.406 11.4938 19.406 11.4938V27.7345H21.5534C21.5534 27.7345 21.5862 12.8853 21.5534 11.2725L21.554 11.2705Z" fill="#3D8EC9"/>
<path d="M27.0018 8.3999C23.5722 8.3999 23.6051 10.9214 23.6051 10.9214V16.1137L25.5271 16.0812V11.7119C25.5271 11.7119 25.2381 10.4788 26.8632 10.4788C28.4883 10.4788 28.2512 11.3971 28.2512 11.3971V16.4641C23.9256 17.7622 23.6057 20.3687 23.6057 20.3687C23.4075 22.2493 23.4075 24.1451 23.6057 26.0257C23.6621 26.5946 23.942 27.119 24.3854 27.4862C24.8288 27.8534 25.4003 28.0342 25.977 27.9896C26.4807 27.9736 26.9731 27.8389 27.4133 27.5967C27.8536 27.3546 28.2289 27.012 28.508 26.5975V27.7346H30.2698V11.2706C30.2698 11.2706 30.4294 8.3999 27.0018 8.3999ZM26.8652 25.9887C26.6861 26.0072 26.5051 25.9897 26.3332 25.937C26.1613 25.8844 26.0019 25.7978 25.8649 25.6825C25.7278 25.5672 25.6159 25.4255 25.536 25.2662C25.456 25.1068 25.4096 24.9331 25.3997 24.7555C25.3997 24.7555 25.2729 21.4948 25.3997 20.6089C25.5264 19.7229 26.8743 18.1497 28.2505 18.1919V24.9158C28.2505 24.9158 28.2952 25.9919 26.8625 25.9919L26.8652 25.9887Z" fill="#3D8EC9"/>
<path d="M54.1099 8.3999C50.6803 8.3999 50.7132 10.9214 50.7132 10.9214V16.1137L52.6352 16.0812V11.7119C52.6352 11.7119 52.3462 10.4788 53.9713 10.4788C55.5964 10.4788 55.3593 11.3971 55.3593 11.3971V16.4641C51.0337 17.7622 50.7138 20.3687 50.7138 20.3687C50.5156 22.2493 50.5156 24.1451 50.7138 26.0257C50.7702 26.5946 51.0502 27.119 51.4935 27.4862C51.9369 27.8534 52.5084 28.0342 53.0852 27.9896C53.5888 27.9736 54.0812 27.8389 54.5215 27.5967C54.9617 27.3546 55.337 27.012 55.6161 26.5975V27.7346H57.3779V11.2706C57.3779 11.2706 57.5369 8.3999 54.1099 8.3999ZM53.9733 25.9887C53.7943 26.0072 53.6133 25.9897 53.4413 25.937C53.2694 25.8844 53.1101 25.7978 52.973 25.6825C52.836 25.5672 52.7241 25.4255 52.6441 25.2662C52.5641 25.1068 52.5178 24.9331 52.5078 24.7555C52.5078 24.7555 52.381 21.4948 52.5078 20.6089C52.6346 19.7229 53.9825 18.1497 55.3586 18.1919V24.9158C55.3586 24.9158 55.4033 25.9919 53.9707 25.9919L53.9733 25.9887Z" fill="#3D8EC9"/>
<path d="M36.9028 3.4191L33.5599 0L30.062 3.46778L31.4546 4.84373L32.4268 4.02984V27.7345H34.6917V4.09734L35.5246 4.84373L36.9028 3.4191Z" fill="#8EACC1"/>
<path d="M40.0434 34.1936L39.2203 35.1581V8.78076H37.1269V35.295L36.0706 34.1917L34.6912 35.5839L38.1069 38.94L41.5175 35.6468L40.0434 34.1936Z" fill="#8EACC1"/>
<path d="M46.0979 8.64385C45.6291 8.6035 45.1578 8.685 44.7308 8.88026C44.3037 9.07552 43.9358 9.37775 43.6635 9.75694V8.78339H41.6121V31.9545H43.6635V26.9167C43.9855 27.2607 44.3774 27.5338 44.8136 27.718C45.2497 27.9022 45.7202 27.9934 46.1945 27.9857C46.8093 28.0187 47.4126 27.8115 47.8742 27.4088C48.3358 27.0062 48.6186 26.4404 48.6617 25.8335V10.8609C48.6016 10.2382 48.3029 9.6617 47.8266 9.24951C47.3503 8.83733 46.7326 8.62065 46.0999 8.64385H46.0979ZM45.1054 25.9938C44.7805 25.9765 44.4686 25.8625 44.2107 25.6667C43.9527 25.4709 43.7608 25.2025 43.6602 24.8969V11.7605C43.8082 11.4445 44.0497 11.1802 44.3529 11.0025C44.656 10.8249 45.0066 10.7423 45.3582 10.7655C47.0234 10.7655 46.672 12.5692 46.672 12.5692L46.7029 24.9806C46.7029 24.9806 46.7705 25.9938 45.1054 25.9938Z" fill="#3D8EC9"/>
<path d="M64.1732 15.1652H66.0644V10.7654C66.0644 10.7654 65.8713 8.40164 62.8279 8.40164C62.0057 8.37387 61.2007 8.63879 60.5596 9.14816C59.9184 9.65753 59.4837 10.3775 59.3347 11.1769V15.737C59.4571 16.1188 59.6527 16.4738 59.9107 16.7826C60.2944 17.196 63.6911 20.7079 63.6911 20.7079C63.8094 20.8476 63.8985 21.0091 63.9534 21.183C64.0083 21.3568 64.0279 21.5397 64.011 21.7211C64.011 22.4486 64.0438 25.0448 64.0438 25.0448C64.0438 25.0448 64.3637 25.9956 62.6986 25.9956C61.0334 25.9956 61.1601 24.6664 61.1601 24.6664V21.4381H59.332V25.6172C59.332 25.6172 59.4588 27.9927 62.6959 27.9927C65.933 27.9927 66.0598 25.7756 66.0598 25.7756V20.9942C66.0483 20.4556 65.8443 19.9385 65.4837 19.5345C64.8748 18.8394 61.7342 15.8649 61.7342 15.8649C61.7342 15.8649 61.3506 15.7065 61.3178 14.7563C61.2849 13.8061 61.3178 11.3372 61.3178 11.3372C61.3178 11.3372 61.191 10.4519 62.8871 10.4519C64.5831 10.4519 64.1693 12.351 64.1693 12.351V15.1678L64.1732 15.1652Z" fill="#3D8EC9"/>
<path d="M72.789 15.1652H74.6802V10.7654C74.6802 10.7654 74.487 8.40164 71.4437 8.40164C70.6215 8.37387 69.8165 8.63879 69.1754 9.14816C68.5342 9.65753 68.0995 10.3775 67.9504 11.1769V15.737C68.0729 16.1188 68.2684 16.4738 68.5265 16.7826C68.9102 17.196 72.3069 20.7079 72.3069 20.7079C72.4251 20.8476 72.5143 21.0091 72.5692 21.183C72.6241 21.3568 72.6437 21.5397 72.6268 21.7211C72.6268 22.4486 72.6596 25.0448 72.6596 25.0448C72.6596 25.0448 72.9795 25.9956 71.3143 25.9956C69.6491 25.9956 69.7759 24.6664 69.7759 24.6664V21.4381H67.9504V25.6172C67.9504 25.6172 68.0772 27.9927 71.3143 27.9927C74.5514 27.9927 74.6782 25.7756 74.6782 25.7756V20.9942C74.6668 20.4556 74.4627 19.9385 74.1021 19.5345C73.4932 18.8394 70.3527 15.8649 70.3527 15.8649C70.3527 15.8649 69.969 15.7065 69.9362 14.7563C69.9033 13.8061 69.9362 11.3372 69.9362 11.3372C69.9362 11.3372 69.8094 10.4519 71.5055 10.4519C73.2015 10.4519 72.7877 12.351 72.7877 12.351V15.1678L72.789 15.1652Z" fill="#3D8EC9"/>
</svg>
