<svg width="154" height="24" viewBox="0 0 154 24" fill="none" xmlns="http://www.w3.org/2000/svg">
<path d="M0.0749512 0.746704H11.281L8.72576 3.31856H3.29143V8.88419H10.2224L7.83581 11.3555H3.29143V18.7491H0.0749512V0.746704Z" fill="#006450"/>
<path d="M4.24609 4.94543H15.4521L12.8969 7.51728H7.46257V13.0829H14.3935L12.0069 15.5543H7.46257V22.928H4.24609V4.94543Z" fill="#006450"/>
<path d="M22.7153 10.9529H30.746L28.9196 12.8013H25.0186V16.7797H29.9782L28.2767 18.548H25.0186V23.8304H22.7153V10.9529Z" fill="#006450"/>
<path d="M106.531 10.9529H114.562L112.735 12.8013H108.835V16.7797H113.794L112.093 18.548H108.835V23.8304H106.531V10.9529Z" fill="#006450"/>
<path d="M22.2378 0.666016H27.1147V1.60828H25.2656V6.85197H24.1448V1.60828H22.2378V0.666016Z" fill="#006450"/>
<path d="M31.9077 0.666016H33.0285V6.85406H31.9077V4.22201H29.0854V6.85406H27.9651V0.666016H29.0859V3.27818H31.9082L31.9077 0.666016Z" fill="#006450"/>
<path d="M34.564 0.666016H38.4655V1.55017H35.6848V3.27765H38.0919V4.12098H35.6848V5.96938H38.4655V6.85354H34.564V0.666016Z" fill="#006450"/>
<path d="M32.5928 23.6714V10.9132H36.8052C40.3953 10.9132 41.3912 12.4805 41.3912 14.7911C41.4355 15.5602 41.2419 16.3245 40.8353 16.9866C40.4287 17.6486 39.8275 18.1782 39.1085 18.5078L41.827 23.6714H39.4594L37.1345 18.99C36.9268 19.0098 36.6987 19.0099 36.491 19.0099H34.7479V23.6688H32.5928V23.6714ZM36.5565 17.2625C38.1958 17.2625 39.1517 16.4773 39.1517 14.8513C39.1517 13.2642 38.3629 12.7218 36.8268 12.7218H34.7517V17.2625H36.5565Z" fill="#006450"/>
<path d="M43.6738 10.9132H51.2276V12.7417H45.8322V16.2977H50.5015V18.0456H45.8322V21.8628H51.2276V23.6709H43.6738V10.9132Z" fill="#006450"/>
<path d="M53.5728 10.9132H61.1265V12.7417H55.7311V16.2977H60.4209V18.0456H55.7517V21.8628H61.1471V23.6709H53.5728V10.9132Z" fill="#006450"/>
<path d="M63.4917 10.9132H67.7041C70.8584 10.9132 73.3693 12.379 73.3693 16.9207C73.3693 21.6623 71.1904 23.6735 67.0401 23.6735H63.4717V10.9132H63.4917ZM67.2478 21.9434C69.5927 21.9434 71.1282 20.6175 71.1282 17.1013C71.1282 12.8611 69.0531 12.6208 66.5422 12.6208H65.6501V21.9434H67.2478Z" fill="#006450"/>
<path d="M74.926 17.465C74.926 13.5672 76.7935 10.7122 80.6329 10.7122C84.5133 10.7122 85.9856 13.6436 85.9856 17.0609C85.9856 20.6572 84.4084 23.852 80.3625 23.852C76.3372 23.8515 74.926 20.7378 74.926 17.465ZM83.8077 17.1635C83.8077 14.3106 82.9156 12.5627 80.5496 12.5627C78.3707 12.5627 77.0633 14.1902 77.0633 17.3446C77.0633 20.5996 78.329 22.0036 80.4252 22.0036C82.6036 22.0036 83.8077 20.3562 83.8077 17.1614V17.1635Z" fill="#006450"/>
<path d="M100.492 23.6714H98.4589V12.7213H98.4172L95.5122 22.6062H93.1257L90.2601 12.7213H90.2184V23.6714H88.186V10.9132H91.5891L94.3281 20.6777H94.3697L97.0888 10.9132H100.492V23.6714Z" fill="#006450"/>
<path d="M118.276 23.6708H116.097V10.9126H118.276V23.6708Z" fill="#006450"/>
<path d="M128.113 21.7622V18.9506H126.038V17.2828H130.25V23.1096C128.975 23.6475 127.594 23.908 126.204 23.8728C122.157 23.8728 120.559 20.9414 120.559 17.3817C120.559 13.8456 122.406 10.7335 126.681 10.7335C127.714 10.7281 128.74 10.9055 129.708 11.257L129.916 13.2462H129.854C128.899 12.8637 127.878 12.6593 126.845 12.6437C124.728 12.6437 122.819 13.7891 122.819 17.4257C122.819 20.2383 123.96 22.0846 126.409 22.0846C126.992 22.0699 127.568 21.961 128.113 21.7622Z" fill="#006450"/>
<path d="M140.439 10.9126H142.597V23.6708H140.439V18.246H134.981V23.6708H132.802V10.9126H134.981V16.2971H140.439V10.9126Z" fill="#006450"/>
<path d="M144.133 10.9126H153.595V12.8416H150.005V23.6708H147.826V12.8416H144.133V10.9126Z" fill="#006450"/>
</svg>
