<svg width="100" height="36" viewBox="0 0 100 36" fill="none" xmlns="http://www.w3.org/2000/svg">
<path d="M99.71 29.265C99.572 29.3061 99.5849 29.4412 99.5338 29.5381C99.416 29.8185 99.2029 30.0482 98.9322 30.1866C98.6614 30.3249 98.3504 30.3631 98.0542 30.2944C97.758 30.2256 97.4957 30.0543 97.3136 29.8108C97.1315 29.5673 97.0413 29.2672 97.0591 28.9637C97.0582 28.6746 97.1579 28.3942 97.341 28.1706C97.5242 27.9469 97.7794 27.7939 98.063 27.7378C98.3643 27.668 98.6807 27.7095 98.9539 27.8546C99.2271 27.9996 99.4387 28.2385 99.5497 28.5272C99.5931 28.6241 99.5597 28.7675 99.7083 28.8057L99.71 29.265ZM97.8151 29.9012C98.1934 30.1261 98.5611 30.2125 98.903 29.8371C99.0192 29.765 99.1192 29.6695 99.1968 29.5568C99.2743 29.4442 99.3278 29.3167 99.3537 29.1823C99.3796 29.048 99.3775 28.9098 99.3474 28.7763C99.3174 28.6428 99.26 28.517 99.179 28.4068C99.1084 28.2938 99.015 28.1969 98.9046 28.1222C98.7943 28.0475 98.6695 27.9967 98.5384 27.9732C98.4073 27.9496 98.2727 27.9537 98.1432 27.9853C98.0138 28.0169 97.8924 28.0752 97.7869 28.1566C97.6422 28.2529 97.5241 28.384 97.4434 28.5379C97.3627 28.6918 97.3221 28.8635 97.3251 29.0372C97.3281 29.211 97.3748 29.3811 97.4608 29.5321C97.5469 29.6831 97.6695 29.81 97.8174 29.9012H97.8151Z" fill="#2F79B8"/>
<path d="M95.0994 20.8082C94.7088 19.8913 94.3205 18.982 93.9299 18.0727C93.2074 16.3868 92.469 14.7086 91.7641 13.0151C91.7254 12.8505 91.6254 12.7068 91.4846 12.6133C91.3437 12.5198 91.1725 12.4835 91.0058 12.5117C89.6636 12.5368 88.3337 12.7729 87.0649 13.2113C86.6972 13.3593 86.6102 13.5308 86.7177 13.9367C87.2325 15.8847 87.3093 17.9224 86.9427 19.9036C86.6907 21.106 86.1751 22.2375 85.4331 23.2165C85.0372 23.7787 84.6336 24.3379 84.2224 24.8895C83.3553 26.0068 82.7944 27.3308 82.5951 28.731C82.3957 30.1312 82.5649 31.5592 83.0858 32.874C83.2926 33.4691 83.5634 34.0412 83.8013 34.6239C83.8729 34.7949 84.0157 34.9511 83.8958 35.2448C83.403 34.5552 82.9202 33.9143 82.4731 33.2476C81.7642 32.1586 81.1202 31.0287 80.5447 29.8636C79.6793 28.3409 78.475 27.0378 77.025 26.0555C74.2469 24.0585 71.0709 22.684 67.7134 22.0259C67.509 21.9801 67.3023 21.9366 67.0955 21.8931C67.0368 21.7093 67.1748 21.6047 67.2459 21.4819C69.1079 18.3605 70.98 15.2472 72.8291 12.1211C72.8968 11.9674 73.0134 11.8404 73.1607 11.76C73.3081 11.6795 73.478 11.6501 73.6439 11.6764C75.1386 11.7497 76.611 12.0699 78.0012 12.6239C78.1598 12.6926 78.4712 12.6926 78.3284 13.0274C78.1857 13.3623 77.976 13.1449 77.7997 13.0862C76.5523 12.7075 75.257 12.5097 73.9534 12.4988C73.685 12.4859 73.5881 12.6163 73.4964 12.826C72.4058 15.3714 71.3109 17.9154 70.2117 20.4581C70.1118 20.6931 70.0713 20.8105 70.3985 20.8922C74.1917 21.7496 77.549 23.9448 79.8557 27.0758C79.8885 27.1418 79.9348 27.2002 79.9916 27.2472C80.0483 27.2942 80.1143 27.3289 80.1852 27.3489C80.3122 26.8223 80.4779 26.3057 80.681 25.8035C80.7755 25.612 80.6528 25.4816 80.5482 25.3412C78.2826 22.3454 77.7821 18.9455 78.3208 15.3342C78.5654 14.069 79.1092 12.8806 79.9068 11.8685C80.2974 11.3246 80.6886 10.7806 81.0869 10.2414C82.9542 7.71555 83.1939 4.98765 82.1266 2.09116C81.8741 1.37995 81.5676 0.689102 81.2096 0.0246775C81.4393 -0.0646079 81.5033 0.108676 81.5879 0.221458C82.7467 1.69711 83.7474 3.29025 84.5737 4.97473C84.9965 5.8178 85.166 6.76527 85.0618 7.70263C85.0084 8.10618 85.1435 8.19076 85.5088 8.18783C87.3298 8.1749 89.1507 8.19781 90.9746 8.17255C91.4445 8.16492 91.6261 8.31588 91.6513 8.76759C91.6872 9.14792 91.746 9.52572 91.8275 9.89893C91.9626 10.642 91.9656 10.632 91.2454 10.7748C89.811 11.0296 88.4231 11.4989 87.1283 12.1669C86.9262 12.2744 86.7347 12.4019 86.5409 12.527C86.4234 12.601 86.3059 12.6932 86.3982 12.8512C86.5027 13.0327 86.6278 12.9047 86.7377 12.8512C88.2674 12.1316 89.9287 11.7343 91.6184 11.6841C91.7473 11.6589 91.8808 11.6768 91.9985 11.735C92.1162 11.7931 92.2115 11.8883 92.2698 12.0059C94.1601 15.1985 96.0704 18.3787 97.9735 21.5636C98.0323 21.6582 98.1268 21.7451 98.081 21.8702C92.459 23.0221 87.328 24.9835 84.1196 30.2172C84.04 29.5395 84.1655 28.8534 84.4797 28.2477C85.6648 26.3626 87.2149 24.7335 89.0387 23.4563C90.8625 22.179 92.9234 21.2792 95.1 20.81L95.0994 20.8082ZM80.9594 25.135C82.032 23.0685 83.0464 21.0661 83.9886 19.0307C84.6649 17.6344 85.0523 16.116 85.1276 14.5664C85.195 13.0469 84.9327 11.5307 84.3587 10.1221C84.1878 10.1709 84.1696 10.2984 84.1185 10.3982C83.1557 12.3061 82.18 14.2064 81.2783 16.1477C80.4666 17.8212 80.0764 19.6678 80.1417 21.5266C80.1922 22.7683 80.4683 23.9904 80.9565 25.1332L80.9594 25.135Z" fill="#2F79B8"/>
<path d="M0 30.2002C0.617949 28.821 1.19772 27.5181 1.78512 26.2158C3.8845 21.5464 5.98153 16.8763 8.07621 12.2057C8.12716 12.0177 8.24452 11.8546 8.40653 11.7466C8.56855 11.6386 8.76424 11.593 8.95732 11.6183C9.97118 11.6617 10.9903 11.6412 12.0071 11.6259C12.1467 11.604 12.2895 11.6315 12.4108 11.7038C12.5321 11.7761 12.6244 11.8886 12.6715 12.0218C15.3175 17.9323 17.9722 23.8392 20.6355 29.7426C20.8193 30.1485 20.7119 30.2201 20.3136 30.2125C19.1441 30.1949 17.974 30.192 16.8044 30.2125C16.674 30.2281 16.5424 30.1966 16.4332 30.1235C16.3241 30.0505 16.2447 29.9408 16.2094 29.8143C15.844 28.9537 15.4381 28.1108 15.0728 27.2473C15.0371 27.121 14.9576 27.0116 14.8486 26.9386C14.7395 26.8657 14.6081 26.8339 14.4777 26.849C11.7729 26.862 9.06892 26.862 6.36569 26.849C6.22717 26.8352 6.08823 26.871 5.97365 26.9501C5.85908 27.0292 5.77631 27.1464 5.74011 27.2808C5.37239 28.1413 4.9712 28.9843 4.58057 29.8378C4.50421 30.004 4.46309 30.2078 4.20229 30.2055C2.82835 30.2002 1.45382 30.2055 0.000587404 30.2055L0 30.2002ZM7.59102 23.048C9.36615 23.048 11.0496 23.035 12.7302 23.0556C13.1749 23.0609 13.2054 22.9381 13.0392 22.5675C12.3519 21.0349 11.6882 19.4947 11.0109 17.9546C10.827 17.5358 10.6455 17.114 10.4135 16.583C9.44545 18.7975 8.5338 20.8869 7.59395 23.0444L7.59102 23.048Z" fill="#2F79B8"/>
<path d="M47.9698 30.6648C46.4038 30.7228 44.8457 30.4167 43.418 29.7708C41.8787 29.0393 40.6739 27.7516 40.0463 26.1671C39.9159 25.8581 39.9929 25.7253 40.2637 25.5896C41.1706 25.135 42.0693 24.6651 42.9657 24.1975C43.1678 24.0929 43.3234 24.0037 43.4538 24.315C44.1846 26.0543 45.6531 26.7363 47.3977 26.946C48.5053 27.107 49.6359 26.9622 50.6672 26.5271C50.9655 26.4186 51.2343 26.2417 51.4521 26.0107C51.6698 25.7797 51.8305 25.5009 51.9213 25.1967C52.0546 24.7904 52.0323 24.3491 51.8587 23.9583C51.685 23.5676 51.3724 23.2553 50.9814 23.082C49.9123 22.6049 48.7638 22.3304 47.5944 22.2726C46.4511 22.1412 45.3273 21.8754 44.2462 21.4808C42.1592 20.676 40.9027 19.241 40.7876 16.9472C40.6856 15.8955 40.9291 14.8392 41.4813 13.9382C42.0334 13.0373 42.864 12.3408 43.8474 11.9542C45.2059 11.3169 46.6873 10.9844 48.1879 10.98C49.6884 10.9757 51.1718 11.2996 52.5339 11.929C53.7527 12.4731 54.7479 13.4188 55.3535 14.6081C55.5373 14.9477 55.5373 15.1268 55.1467 15.3077C54.3138 15.6937 53.502 16.1301 52.6872 16.5519C52.4675 16.664 52.3195 16.7381 52.1175 16.4679C51.083 15.0939 49.6169 14.6516 47.9745 14.6545C47.2427 14.6338 46.5169 14.7917 45.8598 15.1145C45.5373 15.2442 45.2627 15.4703 45.0735 15.762C44.8842 16.0536 44.7896 16.3965 44.8025 16.7439C44.8331 17.4899 45.3694 17.8242 45.9826 18.0697C47.0599 18.4122 48.1732 18.629 49.3003 18.7158C50.4984 18.8672 51.672 19.1728 52.7918 19.6251C53.7247 19.9707 54.532 20.5892 55.1082 21.4002C55.6845 22.2112 56.0031 23.177 56.0225 24.1717C56.1453 26.3327 55.4351 28.1255 53.5501 29.3285C51.8648 30.3267 49.9191 30.7972 47.9639 30.6795L47.9698 30.6648Z" fill="#2F79B8"/>
<path d="M20.9925 20.9967C21.0871 17.3137 22.4129 14.2586 25.7869 12.4529C27.6537 11.4384 29.7931 11.0391 31.9001 11.312C34.0071 11.5848 35.9742 12.5159 37.5209 13.9725C37.8146 14.2562 37.881 14.4172 37.5209 14.7232C36.8419 15.3134 36.1949 15.9392 35.5825 16.5982C35.2659 16.9354 35.0896 16.9636 34.7343 16.6288C32.2537 14.2915 26.9335 14.5852 25.4421 18.5754C24.5687 20.9174 24.7425 23.2059 26.4818 25.1267C28.479 27.3312 32.6402 27.3465 34.8876 25.2137C35.2858 24.833 35.465 24.92 35.7816 25.2548C36.4201 25.942 37.0739 26.6164 37.7635 27.2519C38.106 27.5686 38.0243 27.7424 37.733 28.0156C36.3856 29.2847 34.6941 30.1287 32.8698 30.4421C30.7683 30.8595 28.5914 30.6736 26.5911 29.9058C23.3704 28.6388 21.6869 26.1382 21.0948 22.8206C21.042 22.5387 21.0071 22.2539 20.9902 21.9677C20.9726 21.6434 20.9849 21.3215 20.9849 20.9943L20.9925 20.9967Z" fill="#2F79B8"/>
<path d="M64.6049 20.8822C64.6049 23.7886 64.5897 26.6928 64.6202 29.5998C64.6255 30.1285 64.4593 30.2307 63.9741 30.2131C62.9755 30.1772 61.9816 30.1902 60.986 30.2078C60.6564 30.2131 60.5671 30.1079 60.5671 29.7866C60.575 23.8789 60.575 17.972 60.5671 12.0658C60.5671 11.7005 60.6923 11.6165 61.0294 11.6241C62.0462 11.6417 63.0624 11.6523 64.0763 11.6188C64.5157 11.6035 64.6149 11.7416 64.6126 12.1657C64.592 15.0721 64.6026 17.9763 64.6026 20.8833L64.6049 20.8822Z" fill="#2F79B8"/>
<path d="M80.4284 30.317H79.3634C76.4311 30.317 73.4964 30.3094 70.5641 30.3247C70.1735 30.3247 70.0355 30.2712 70.1148 29.8318C70.3832 28.3275 70.6052 26.8179 70.8478 25.3088C70.886 25.0662 70.9066 24.8054 71.2948 24.9029C74.4568 25.7024 77.4174 26.8801 79.6906 29.3472C79.8721 29.544 80.0331 29.7584 80.2016 29.9681C80.2604 30.0421 80.3062 30.1238 80.4313 30.3153L80.4284 30.317Z" fill="#2F79B8"/>
<path d="M84.7782 30.3176C85.4091 29.4994 86.1541 28.776 86.9904 28.1695C89.076 26.6993 91.4056 25.6105 93.8712 24.9534C94.1955 24.8589 94.2595 24.974 94.3053 25.2624C94.5454 26.8104 94.7966 28.3557 95.059 29.8982C95.1048 30.1713 95.1101 30.3223 94.7553 30.3223C91.4758 30.3123 88.1987 30.317 84.7759 30.317L84.7782 30.3176Z" fill="#2F79B8"/>
<path d="M77.7657 8.18251C78.9534 8.18251 80.1411 8.18251 81.3259 8.18251C81.4922 8.18251 81.7165 8.09557 81.8088 8.24889C81.921 8.43509 81.7118 8.59369 81.6173 8.74466C80.9487 9.69994 80.2038 10.5995 79.3898 11.4344C78.6644 12.2697 78.6667 12.2567 77.6323 11.8403C76.3579 11.319 75.0291 10.9421 73.6709 10.7166C73.2902 10.6578 73.201 10.5327 73.2979 10.1621C73.4213 9.70098 73.4982 9.2287 73.5276 8.75229C73.5528 8.23126 73.806 8.15725 74.2583 8.17017C75.4254 8.20072 76.5956 8.18016 77.7627 8.18016L77.7657 8.18251Z" fill="#2F79B8"/>
<path d="M98.9105 29.8448C98.7519 29.7808 98.5833 29.7273 98.568 29.51C98.5551 29.3238 98.4887 29.1476 98.2743 29.1676C98.0394 29.1881 98.1339 29.3972 98.1263 29.5329C98.1187 29.6886 98.0752 29.7908 97.9066 29.8061C97.8493 29.2984 97.8519 28.7858 97.9143 28.2788C98.124 28.2888 98.3354 28.2841 98.5428 28.3146C98.7501 28.3452 98.9616 28.5214 98.87 28.6976C98.6503 29.1088 98.9287 29.4689 98.9134 29.8495L98.9105 29.8448ZM98.3384 28.4938C98.2003 28.4785 98.1339 28.5449 98.1239 28.6777C98.114 28.8257 98.1522 28.9332 98.3307 28.9279C98.4482 28.9226 98.558 28.8791 98.5733 28.7517C98.5886 28.596 98.4788 28.5243 98.3384 28.4938Z" fill="#2F79B8"/>
</svg>
