<svg width="164" height="24" viewBox="0 0 164 24" fill="none" xmlns="http://www.w3.org/2000/svg">
<path d="M13.7755 6.13838H8.27176V22.783H5.53597V6.13838H0V3.68148H13.7755V6.13838Z" fill="url(#paint0_linear_1751_29652)"/>
<path d="M26.4901 8.00577H29.0649V22.7832H26.4901V20.2608C24.9452 22.128 23.1427 23.0453 21.0185 23.0453C20.2787 23.0782 19.5409 22.9456 18.8569 22.657C18.1729 22.3683 17.5594 21.9306 17.0596 21.3746C16.0619 20.2608 15.5469 18.7539 15.5469 16.8539V8.00904H18.1218V16.297C18.1218 17.7384 18.4758 18.8194 19.1517 19.5401C19.5197 19.9095 19.9578 20.1987 20.4392 20.3902C20.9206 20.5817 21.4353 20.6714 21.9519 20.6539C23.1527 20.6814 24.3175 20.2354 25.2026 19.4091C25.628 19.0109 25.9634 18.5235 26.1856 17.9805C26.4079 17.4376 26.5118 16.852 26.4901 16.2642V8.00577Z" fill="url(#paint1_linear_1751_29652)"/>
<path d="M40.4901 7.71421C42.1316 7.71421 43.4834 8.27111 44.4811 9.41766C45.4789 10.5642 45.9939 12.0384 45.9939 13.9384V22.816H43.4512V14.492C43.4512 13.0834 43.0972 12.0023 42.4212 11.2489C42.0622 10.8671 41.6256 10.5696 41.142 10.3773C40.6584 10.1849 40.1393 10.1023 39.6211 10.1351C38.4212 10.1133 37.2585 10.5585 36.3703 11.3799C35.945 11.7781 35.6096 12.2655 35.3873 12.8084C35.165 13.3514 35.0612 13.937 35.0829 14.5247V22.7832H32.508V8.00576H35.0829V10.4627C36.5956 8.63036 38.398 7.71421 40.4901 7.71421Z" fill="url(#paint2_linear_1751_29652)"/>
<path d="M56.0347 23.0747H56.0026C53.5564 23.0747 51.6575 22.3868 50.2735 21.0109C48.8895 19.6351 48.1814 17.7678 48.1814 15.4092C48.1518 14.2502 48.3715 13.0986 48.8251 12.0351C49.1968 11.1092 49.7689 10.2806 50.4988 9.61094C51.8606 8.39252 53.61 7.71754 55.4232 7.71094C57.5689 7.71094 59.307 8.39888 60.6373 9.77474C61.9569 11.1506 62.6007 13.0834 62.6007 15.573C62.6007 15.9334 62.5685 16.3265 62.5363 16.7851H50.8528C50.9895 17.8925 51.5434 18.9026 52.3977 19.6023C53.2989 20.3885 54.522 20.7816 56.0669 20.7816C56.8103 20.7766 57.5485 20.655 58.2556 20.4213C58.7958 20.2688 59.3072 20.0252 59.7683 19.7006L60.2511 19.3403L61.6254 20.8177C61.5592 20.9027 61.4836 20.9796 61.4001 21.047C61.1748 21.2435 60.9495 21.4401 60.7242 21.6039C60.3678 21.8641 59.991 22.0941 59.5977 22.2918C59.0898 22.526 58.5619 22.7124 58.0206 22.8487C57.3675 22.9897 56.7024 23.0654 56.0347 23.0747ZM55.3588 10.1351C54.7528 10.115 54.1492 10.2208 53.5847 10.4461C53.0203 10.6714 52.5069 11.0114 52.0759 11.4454C51.2667 12.2844 50.8156 13.4146 50.8206 14.5903H59.8005C59.8231 13.4238 59.3956 12.2947 58.6096 11.4454C57.8371 10.5937 56.775 10.1351 55.3588 10.1351Z" fill="url(#paint3_linear_1751_29652)"/>
<path d="M69.9948 23.1731L69.9626 23.2059C67.4843 23.2059 65.4565 22.5835 63.8794 21.3386L64.9094 19.5042C65.6082 19.9887 66.3801 20.3538 67.1946 20.5852C68.0604 20.8568 68.9601 21.0002 69.866 21.0111C71.8937 21.0111 72.9237 20.3559 72.9237 19.0455C72.9255 18.7214 72.8394 18.4029 72.6747 18.1255C72.5099 17.848 72.2731 17.6222 71.9903 17.4731C71.2848 17.0845 70.525 16.8083 69.7373 16.6542C68.8039 16.4576 67.9349 16.2611 67.098 16.0317C66.2378 15.8087 65.4569 15.3431 64.845 14.6886C64.5228 14.3459 64.2736 13.9391 64.113 13.4938C63.9524 13.0485 63.8838 12.5742 63.9116 12.1007C63.9116 10.6593 64.4588 9.57829 65.5209 8.8576C66.6742 8.11468 68.0188 7.73833 69.3832 7.77657C71.4431 7.77657 73.149 8.26795 74.5008 9.28347L73.5674 11.1835C72.2826 10.3972 70.8177 9.968 69.3188 9.93864C68.6392 9.94252 67.9688 10.0991 67.3555 10.3973C67.0708 10.5322 66.8326 10.7512 66.6718 11.0258C66.5111 11.3004 66.4353 11.6179 66.4543 11.9369C66.4479 12.1958 66.5067 12.4521 66.625 12.6815C66.7433 12.9108 66.9172 13.1056 67.1302 13.2473C67.6175 13.6032 68.1795 13.8387 68.7717 13.9352C69.4476 14.0662 70.1557 14.23 70.9281 14.4266C71.662 14.6173 72.3825 14.8581 73.0846 15.1473C73.7584 15.4208 74.3398 15.8873 74.7583 16.4904C75.2366 17.1898 75.4742 18.0306 75.4342 18.8817C75.4605 19.5022 75.3362 20.1196 75.0724 20.6795C74.8085 21.2395 74.4132 21.7246 73.9214 22.0921C72.9655 22.8128 71.6459 23.1731 69.9948 23.1731Z" fill="url(#paint4_linear_1751_29652)"/>
<path d="M76.957 15.4092C76.928 14.3955 77.1045 13.3866 77.4756 12.4454C77.8466 11.5041 78.4041 10.6508 79.1134 9.93853C80.3105 8.73243 81.8674 7.96535 83.5395 7.75781C85.2115 7.55027 86.9039 7.91405 88.3508 8.79197C89.3876 9.41904 90.2084 10.3574 90.7003 11.4782L88.4795 12.4937C88.1232 11.8043 87.5891 11.2268 86.9346 10.823C85.9875 10.262 84.8838 10.0383 83.7979 10.1872C82.7119 10.3361 81.7057 10.8492 80.9384 11.6453C80.0127 12.6807 79.5267 14.0466 79.5865 15.4453C79.5593 16.1227 79.6648 16.7989 79.8969 17.4344C80.129 18.0699 80.483 18.6521 80.9384 19.147C81.7166 19.9239 82.7245 20.4186 83.8064 20.5548C84.8883 20.6909 85.9841 20.461 86.9249 19.9004C87.574 19.4794 88.1147 18.9066 88.502 18.2297L90.7229 19.2453C90.2012 20.3462 89.3873 21.2767 88.3733 21.9315C86.9121 22.7913 85.217 23.1474 83.5407 22.9467C81.8644 22.746 80.2968 21.9992 79.0716 20.8177C78.368 20.1161 77.8164 19.2725 77.4522 18.3411C77.0881 17.4096 76.9193 16.411 76.957 15.4092Z" fill="url(#paint5_linear_1751_29652)"/>
<path d="M95.3037 11.4129C96.5268 9.02151 98.3936 7.80944 100.904 7.80944V10.6627H100.55C99.9163 10.6594 99.2862 10.7589 98.6832 10.9575C98.072 11.1804 97.5051 11.5133 97.0096 11.9403C96.4411 12.4695 96.0099 13.1334 95.7543 13.8731C95.43 14.82 95.2774 15.8189 95.3037 16.8213V22.7179H92.7289V8.00599H95.3037V11.4129Z" fill="url(#paint6_linear_1751_29652)"/>
<path d="M103.381 22.7832V8.00577H105.956V22.7832H103.381Z" fill="url(#paint7_linear_1751_29652)"/>
<path d="M117.511 7.67819C118.412 7.65019 119.308 7.82336 120.137 8.18556C120.965 8.54776 121.706 9.09019 122.306 9.77475C123.594 11.1834 124.205 13.0179 124.205 15.3437C124.205 17.6696 123.561 19.5041 122.306 20.9454C121.703 21.6286 120.962 22.1721 120.135 22.5394C119.308 22.9067 118.413 23.0893 117.511 23.0748C115.129 23.0748 113.391 22.223 112.296 20.5523V22.7832H109.722V2.53509H112.296V10.2006C113.391 8.52992 115.129 7.67819 117.511 7.67819ZM116.77 20.6179C117.425 20.6361 118.076 20.5077 118.677 20.2416C119.277 19.9755 119.813 19.5784 120.246 19.0782C121.122 18.0406 121.592 16.7112 121.566 15.3437C121.612 13.9729 121.14 12.6363 120.246 11.6092C119.816 11.1077 119.28 10.7117 118.678 10.4508C118.076 10.1898 117.424 10.0707 116.77 10.1023C115.354 10.1023 114.26 10.5937 113.455 11.5765C112.625 12.6452 112.202 13.983 112.264 15.3437C112.228 16.6908 112.649 18.0094 113.455 19.0782C113.844 19.5884 114.349 19.995 114.927 20.2631C115.504 20.5313 116.137 20.653 116.77 20.6179Z" fill="url(#paint8_linear_1751_29652)"/>
<path d="M133.443 23.0747H133.401C130.955 23.0747 129.056 22.3868 127.672 21.0109C126.288 19.6351 125.58 17.7678 125.58 15.4092C125.551 14.2502 125.77 13.0986 126.224 12.0351C126.584 11.1028 127.158 10.2716 127.898 9.61094C129.259 8.39252 131.009 7.71754 132.822 7.71094C134.968 7.71094 136.706 8.39888 138.036 9.77474C139.356 11.1506 140 13.0834 140 15.573C140 15.9334 139.967 16.3265 139.935 16.7851H128.284C128.421 17.8925 128.974 18.9026 129.829 19.6023C130.73 20.3885 131.953 20.7816 133.498 20.7816C134.241 20.7766 134.98 20.655 135.687 20.4213C136.227 20.2688 136.738 20.0252 137.199 19.7006L137.682 19.3403L139.066 20.8144C139 20.8994 138.924 20.9764 138.841 21.0437C138.616 21.2403 138.39 21.4368 138.165 21.6006C137.809 21.8608 137.432 22.0909 137.038 22.2885C136.531 22.5227 136.003 22.7091 135.461 22.8454C134.797 22.9858 134.122 23.0626 133.443 23.0747ZM132.758 10.1351C132.152 10.115 131.548 10.2208 130.984 10.4461C130.419 10.6714 129.906 11.0114 129.475 11.4454C128.666 12.2844 128.214 13.4146 128.22 14.5903H137.199C137.218 14.0116 137.122 13.435 136.918 12.8948C136.713 12.3546 136.404 11.8617 136.008 11.4454C135.268 10.5937 134.174 10.1351 132.758 10.1351Z" fill="url(#paint9_linear_1751_29652)"/>
<path d="M144.966 11.4129C146.189 9.02151 148.056 7.80944 150.566 7.80944V10.6627H150.212C149.579 10.6594 148.948 10.7589 148.346 10.9575C147.734 11.1804 147.167 11.5133 146.672 11.9403C146.103 12.4695 145.672 13.1334 145.417 13.8731C145.092 14.82 144.94 15.8189 144.966 16.8213V22.7179H142.391V8.00599H144.966V11.4129Z" fill="url(#paint10_linear_1751_29652)"/>
<path d="M157.646 23.1731L157.614 23.2059C155.135 23.2059 153.108 22.5835 151.53 21.3386L152.56 19.5042C153.259 19.9887 154.031 20.3538 154.846 20.5852C155.711 20.8568 156.611 21.0002 157.517 21.0111C159.545 21.0111 160.575 20.3559 160.575 19.0455C160.577 18.7214 160.49 18.4029 160.326 18.1255C160.161 17.848 159.924 17.6222 159.641 17.4731C158.936 17.0845 158.176 16.8083 157.388 16.6542C156.455 16.4576 155.586 16.2611 154.749 16.0317C153.889 15.8087 153.108 15.3431 152.496 14.6886C152.174 14.3459 151.925 13.9391 151.764 13.4938C151.603 13.0485 151.535 12.5742 151.563 12.1007C151.563 10.6593 152.11 9.57829 153.204 8.8576C154.357 8.11468 155.702 7.73833 157.066 7.77657C159.126 7.77657 160.832 8.26795 162.184 9.25071L161.251 11.1507C159.969 10.36 158.5 9.94088 157.002 9.93864C156.322 9.94252 155.652 10.0991 155.039 10.3973C154.754 10.5322 154.516 10.7512 154.355 11.0258C154.194 11.3004 154.118 11.6179 154.137 11.9369C154.131 12.1958 154.19 12.4521 154.308 12.6815C154.426 12.9108 154.6 13.1056 154.813 13.2473C155.301 13.6032 155.863 13.8387 156.455 13.9352C157.131 14.0662 157.839 14.23 158.611 14.4266C159.384 14.6231 160.06 14.8524 160.768 15.1145C161.442 15.388 162.023 15.8546 162.441 16.4576C162.92 17.157 163.157 17.9978 163.117 18.849C163.144 19.4694 163.019 20.0868 162.756 20.6468C162.492 21.2067 162.096 21.6918 161.605 22.0593C160.607 22.7833 159.287 23.1731 157.646 23.1731Z" fill="url(#paint11_linear_1751_29652)"/>
<path d="M108.933 4.45395C108.94 4.45874 108.945 4.46582 108.948 4.47398C108.95 4.48214 108.949 4.49085 108.946 4.49861C108.94 4.50499 108.933 4.51137 108.927 4.51137C108.701 4.56241 108.038 4.65812 107.651 4.28168C107.162 3.81591 106.434 1.98476 106.06 2.25911V6.19578C106.06 6.19578 106.093 7.26129 104.656 7.17197C103.22 7.08265 103.259 6.25256 103.323 5.94057C103.387 5.62857 104.418 4.67088 105.552 5.4748V0.427964C105.552 0.427964 105.539 -0.063321 105.835 0.00686236C106.131 0.077046 106.885 0.472626 107.31 1.67851C107.716 2.83335 108.424 4.14131 108.933 4.45395Z" fill="url(#paint12_linear_1751_29652)"/>
<defs>
<linearGradient id="paint0_linear_1751_29652" x1="0" y1="11.6029" x2="163.122" y2="11.6029" gradientUnits="userSpaceOnUse">
<stop stop-color="#FD5CBF"/>
<stop offset="1" stop-color="#CF46B2"/>
</linearGradient>
<linearGradient id="paint1_linear_1751_29652" x1="0" y1="11.6029" x2="163.122" y2="11.6029" gradientUnits="userSpaceOnUse">
<stop stop-color="#FD5CBF"/>
<stop offset="1" stop-color="#CF46B2"/>
</linearGradient>
<linearGradient id="paint2_linear_1751_29652" x1="0" y1="11.6029" x2="163.122" y2="11.6029" gradientUnits="userSpaceOnUse">
<stop stop-color="#FD5CBF"/>
<stop offset="1" stop-color="#CF46B2"/>
</linearGradient>
<linearGradient id="paint3_linear_1751_29652" x1="0" y1="11.6029" x2="163.122" y2="11.6029" gradientUnits="userSpaceOnUse">
<stop stop-color="#FD5CBF"/>
<stop offset="1" stop-color="#CF46B2"/>
</linearGradient>
<linearGradient id="paint4_linear_1751_29652" x1="0" y1="11.6029" x2="163.122" y2="11.6029" gradientUnits="userSpaceOnUse">
<stop stop-color="#FD5CBF"/>
<stop offset="1" stop-color="#CF46B2"/>
</linearGradient>
<linearGradient id="paint5_linear_1751_29652" x1="0" y1="11.6029" x2="163.122" y2="11.6029" gradientUnits="userSpaceOnUse">
<stop stop-color="#FD5CBF"/>
<stop offset="1" stop-color="#CF46B2"/>
</linearGradient>
<linearGradient id="paint6_linear_1751_29652" x1="0" y1="11.6029" x2="163.122" y2="11.6029" gradientUnits="userSpaceOnUse">
<stop stop-color="#FD5CBF"/>
<stop offset="1" stop-color="#CF46B2"/>
</linearGradient>
<linearGradient id="paint7_linear_1751_29652" x1="0" y1="11.6029" x2="163.122" y2="11.6029" gradientUnits="userSpaceOnUse">
<stop stop-color="#FD5CBF"/>
<stop offset="1" stop-color="#CF46B2"/>
</linearGradient>
<linearGradient id="paint8_linear_1751_29652" x1="0" y1="11.6029" x2="163.122" y2="11.6029" gradientUnits="userSpaceOnUse">
<stop stop-color="#FD5CBF"/>
<stop offset="1" stop-color="#CF46B2"/>
</linearGradient>
<linearGradient id="paint9_linear_1751_29652" x1="0" y1="11.6029" x2="163.122" y2="11.6029" gradientUnits="userSpaceOnUse">
<stop stop-color="#FD5CBF"/>
<stop offset="1" stop-color="#CF46B2"/>
</linearGradient>
<linearGradient id="paint10_linear_1751_29652" x1="0" y1="11.6029" x2="163.122" y2="11.6029" gradientUnits="userSpaceOnUse">
<stop stop-color="#FD5CBF"/>
<stop offset="1" stop-color="#CF46B2"/>
</linearGradient>
<linearGradient id="paint11_linear_1751_29652" x1="0" y1="11.6029" x2="163.122" y2="11.6029" gradientUnits="userSpaceOnUse">
<stop stop-color="#FD5CBF"/>
<stop offset="1" stop-color="#CF46B2"/>
</linearGradient>
<linearGradient id="paint12_linear_1751_29652" x1="0" y1="11.6029" x2="163.122" y2="11.6029" gradientUnits="userSpaceOnUse">
<stop stop-color="#FD5CBF"/>
<stop offset="1" stop-color="#CF46B2"/>
</linearGradient>
</defs>
</svg>
