<svg width="142" height="25" viewBox="0 0 142 25" fill="none" xmlns="http://www.w3.org/2000/svg">
<g id="Property 1=Colour">
<path id="Colour" d="M52.7796 2.71593C52.5537 3.49802 52.0791 4.18669 51.4265 4.67921C50.7739 5.17173 49.9783 5.4417 49.1585 5.44885C47.4879 5.44885 46.399 4.24411 46.723 2.73478C46.9501 1.95271 47.4253 1.26417 48.0781 0.771483C48.731 0.278793 49.5266 0.00823461 50.3467 8.45367e-06C52.0191 -0.00369845 53.1103 1.21217 52.7796 2.71593ZM95.4837 6.05462C95.4467 6.04175 95.4116 6.02421 95.3791 6.00242C95.0117 5.79421 93.797 5.10504 93.1488 6.75245L93.071 6.93779L94.3655 6.93408L93.4107 9.51069L92.2395 9.51625L88.9844 18.6541H83.1056L86.2667 9.47208H84.7412L85.6023 6.96096L87.1526 6.95633L87.1729 6.86365C88.4907 3.00229 91.9304 1.80095 94.9632 1.78859C95.7031 1.77901 96.4403 1.88119 97.1492 2.09163L95.4837 6.05462ZM72.4447 23.975C77.7158 23.9287 79.9218 20.9277 80.7458 18.5141C82.7753 12.5726 84.6416 6.86829 84.6416 6.86829H79.08L78.4082 8.60405C78.3951 8.58737 78.3817 8.57037 78.3696 8.55277L78.3266 8.495C77.8453 7.84907 77.0555 6.79137 74.0106 6.80095C73.0141 6.72825 72.0168 6.93183 71.1302 7.38895C70.2435 7.84606 69.5023 8.53873 68.9894 9.3896C67.8385 11.4853 67.0441 13.7551 66.6381 16.1074C66.6088 17.3304 67.0272 18.6491 69.9663 18.6377C71.9358 18.7153 73.871 18.1091 75.4386 16.9233C75.4672 16.9041 75.5099 16.8958 75.4974 16.9387C75.4382 17.1055 75.3729 17.3211 75.2997 17.5436C75.1883 17.9289 75.0538 18.3074 74.8972 18.6769C73.2472 22.6928 68.1921 22.0709 66.8753 21.6672C66.8753 21.6672 67.1741 24.0223 72.4453 23.976L72.4447 23.975ZM74.1662 11.3595C74.3704 10.8424 74.9261 9.43254 76.2629 9.43254C77.0502 9.43007 77.5617 10.3336 77.629 11.0256L76.8115 13.2259L76.4961 13.9781C76.247 14.6031 74.8296 15.9585 73.8811 15.9632C72.3967 15.966 72.8926 14.3031 73.0832 13.9244L74.1211 11.4723C74.1351 11.4414 74.15 11.404 74.1681 11.3586L74.1662 11.3595ZM64.6867 18.6553H58.4294L60.5562 12.3063C60.7119 11.8979 61.2723 10.2366 59.7904 10.2413C58.8446 10.2413 57.3622 11.5958 57.1442 12.255L54.957 18.6559L48.8011 18.6606L51.7131 10.2348L52.5991 6.87138H58.8904L58.4253 8.67509C60.0468 7.42343 62.0584 6.77398 64.1117 6.83925C67.0512 6.82751 67.3671 8.21142 67.3737 9.40319C67.3737 9.40319 67.35 10.6178 64.6889 18.6559L64.6867 18.6553ZM28.7011 15.9755C28.179 16.8248 27.4317 17.5152 26.5408 17.9714C25.6499 18.4276 24.6498 18.6321 23.6498 18.5623C20.63 18.5716 19.7867 17.5232 19.302 16.8887C19.2855 16.8633 19.2241 16.897 19.2241 16.897L16.8423 23.9488L11.1172 23.9664L15.5111 10.776L16.2508 6.86983H21.9073L21.9973 8.77364L22.0745 8.75294C23.6504 7.48284 25.6346 6.81831 27.6638 6.88095C30.6033 6.87169 30.9541 8.22131 30.9578 9.4449C30.9675 10.6981 29.5227 14.751 28.7042 15.9768L28.7011 15.9755ZM23.8487 9.59194C23.2743 9.68555 22.7277 9.90363 22.2478 10.2306C21.768 10.5577 21.3667 10.9856 21.0724 11.484L20.2888 13.8082C20.0709 14.4332 20.5152 15.8134 21.4625 15.847C22.9194 15.9341 23.6105 14.3053 23.7643 13.8941L24.5202 11.6913C24.5295 11.6604 24.542 11.6236 24.556 11.581C24.7319 11.0469 25.1948 9.6426 23.8506 9.5907L23.8487 9.59194ZM119.487 15.7914C119.487 15.7914 109.669 18.5373 111.116 13.3072L120.69 13.2763C124.275 6.35982 114.442 6.39102 114.442 6.39102C107.801 6.40863 104.682 11.0009 104.695 13.6383C104.705 18.1237 109.963 18.6047 112.042 18.6961C117.573 18.5114 119.487 15.7914 119.487 15.7914ZM111.455 11.8621C111.987 9.13012 114.074 9.12425 114.074 9.12425C114.074 9.12425 116.856 9.11714 115.504 11.851L111.455 11.8621ZM42.6153 10.9008C42.6153 10.9008 38.1199 9.49339 36.7081 13.3699L34.8869 18.6544H29.2637L32.1791 10.2941L32.8509 6.86983H37.8733L37.8248 8.37144L37.9263 8.37762C38.7581 7.75484 39.6676 7.2414 40.6322 6.85006C41.7439 6.65478 42.8822 6.66211 43.9913 6.87169L42.6153 10.9008ZM45.1095 6.87199L44.2531 10.2558L41.2713 18.6661L47.1274 18.6461L51.299 6.86983L45.1095 6.87199ZM9.59118 10.2771C9.61992 10.4388 9.61184 10.6048 9.56752 10.763C10.6593 10.7596 11.5288 10.7522 12.2759 10.746C13.2021 10.738 13.9399 10.7321 14.6827 10.7368C15.2655 8.13728 12.7382 6.92883 7.93904 6.94521C6.56128 6.94689 5.19162 7.15433 3.87609 7.56055L3.71483 7.61399C2.41977 8.04152 0.191076 8.77734 0.0130052 10.97C-0.197131 13.7251 2.17943 13.98 4.23223 14.1999C5.80218 14.3667 7.18535 14.5166 7.0876 15.746C6.68289 18.31 0.517021 16.8426 0.517021 16.8426C0.867248 17.9563 2.49977 19.1011 6.1577 19.0903C10.267 19.0773 13.1996 16.8253 13.3761 14.4875C13.5006 12.8654 11.8037 12.2038 9.94296 11.9854C9.35146 11.9236 8.74285 11.8309 8.14232 11.7355C7.86526 11.6938 7.58974 11.6496 7.31859 11.6119L7.29555 11.6094C7.01537 11.5807 6.22401 11.4998 6.22401 10.759C6.22401 9.67781 7.30894 9.48536 7.69652 9.48351H7.78307C8.21891 9.47949 9.13012 9.47115 9.4019 9.82949C9.4978 9.96284 9.56247 10.1158 9.59118 10.2771ZM105.263 10.5137C105.263 10.5137 100.661 9.41277 99.2546 13.2871L97.4148 18.625L91.7822 18.6427L94.7216 10.2144L95.399 6.82411L100.419 6.81021L100.371 8.29483H100.475C101.335 7.71602 102.239 7.20526 103.179 6.76727C104.31 6.47647 105.483 6.38169 106.647 6.48709L105.263 10.5137ZM136.475 15.7914C136.475 15.7914 126.658 18.5373 128.104 13.3072L137.68 13.2763C141.264 6.35982 131.432 6.39102 131.432 6.39102C124.792 6.40863 121.673 11.0009 121.685 13.6383C121.695 18.1237 126.953 18.6047 129.032 18.6961C134.563 18.5114 136.475 15.7914 136.475 15.7914ZM128.442 11.8621C128.974 9.13012 131.061 9.12425 131.061 9.12425C131.061 9.12425 133.844 9.11714 132.491 11.851L128.442 11.8621ZM141.999 6.54146C142.007 6.829 141.928 7.11229 141.773 7.35508C141.617 7.59787 141.393 7.78913 141.127 7.90437C140.861 8.01962 140.567 8.05361 140.282 8.002C139.997 7.95039 139.734 7.81553 139.526 7.61467C139.319 7.41381 139.176 7.15609 139.117 6.87448C139.058 6.59287 139.085 6.30019 139.195 6.03388C139.304 5.76757 139.491 5.53975 139.732 5.37956C139.973 5.21938 140.256 5.13412 140.546 5.13469C140.735 5.13089 140.923 5.16443 141.099 5.23337C141.275 5.30232 141.435 5.40528 141.57 5.53627C141.705 5.66704 141.813 5.82279 141.887 5.99469C141.961 6.16776 141.999 6.35363 141.999 6.54146ZM139.45 6.54146C139.445 6.68819 139.47 6.83438 139.523 6.97125C139.577 7.10812 139.658 7.23285 139.761 7.33794C139.864 7.44302 139.988 7.5263 140.124 7.58276C140.261 7.63923 140.408 7.66771 140.556 7.66651C140.847 7.65181 141.121 7.52639 141.321 7.31629C141.522 7.10619 141.633 6.82756 141.632 6.53827C141.631 6.24899 141.517 5.97128 141.315 5.76282C141.113 5.55437 140.838 5.4312 140.546 5.41889C140.325 5.41975 140.109 5.48665 139.927 5.61089C139.745 5.73513 139.604 5.91095 139.524 6.11548C139.471 6.25097 139.446 6.39577 139.45 6.54115L139.45 6.54146ZM140.321 7.27975H139.992V5.87484C140.172 5.8438 140.353 5.82984 140.535 5.83313C140.706 5.8194 140.877 5.85513 141.028 5.936C141.073 5.9738 141.108 6.02109 141.132 6.07439C141.157 6.12751 141.168 6.18545 141.166 6.24367C141.16 6.32242 141.128 6.39706 141.075 6.45589C141.022 6.51475 140.95 6.55458 140.872 6.56926V6.58347C140.943 6.61175 141.005 6.65889 141.05 6.7197C141.096 6.78044 141.124 6.85243 141.132 6.92791C141.146 7.05029 141.181 7.16938 141.236 7.28006H140.881C140.826 7.17165 140.788 7.05579 140.767 6.93625C140.742 6.78179 140.656 6.71414 140.473 6.71414H140.318L140.321 7.27975ZM140.33 6.48215H140.485C140.667 6.48215 140.815 6.42222 140.815 6.2758C140.815 6.14668 140.72 6.06111 140.511 6.06111C140.45 6.06003 140.39 6.06552 140.33 6.07748L140.33 6.48215ZM117.077 22.4404C117.077 24.1125 116.053 25 114.802 25C114.49 24.9952 114.182 24.9258 113.898 24.7964C113.614 24.667 113.361 24.4804 113.154 24.2484C112.947 24.0165 112.791 23.7443 112.695 23.4491C112.6 23.154 112.568 22.8424 112.601 22.5343C112.601 20.9925 113.566 19.9815 114.875 19.9815C116.212 19.9815 117.077 21.0012 117.077 22.4404ZM113.279 22.5176C113.279 23.5559 113.846 24.486 114.841 24.486C115.837 24.486 116.412 23.5694 116.412 22.4669C116.412 21.501 115.903 20.4921 114.85 20.4921C113.796 20.4921 113.277 21.4534 113.277 22.5204L113.279 22.5176ZM88.8409 20.1254C89.2416 20.0548 89.648 20.0211 90.055 20.0247C90.5608 19.9736 91.0672 20.1155 91.4712 20.4217C91.5984 20.5392 91.6988 20.6823 91.7657 20.8415C91.8326 21.0007 91.8643 21.1723 91.8588 21.3447C91.8624 21.6231 91.774 21.8951 91.6072 22.119C91.4405 22.343 91.2044 22.5066 90.9351 22.585V22.6066C91.1316 22.6925 91.3017 22.8285 91.4282 23.0008C91.5546 23.173 91.633 23.3754 91.6552 23.5874C91.7413 24.042 91.8678 24.4881 92.0331 24.9206H91.3793C91.2348 24.5444 91.1253 24.1558 91.0522 23.7597C90.9074 23.0888 90.6453 22.8367 90.0718 22.8151H89.4757V24.92H88.8434L88.8409 20.1254ZM89.4732 22.3391H90.1188C90.795 22.3391 91.224 21.9715 91.224 21.416C91.224 20.7911 90.7657 20.515 90.098 20.5078C89.8881 20.5016 89.6783 20.5209 89.4732 20.5653V22.3391ZM84.6643 20.5953H83.1744V20.0609H86.8012V20.5947H85.3069V24.9212H84.6674L84.6643 20.5953ZM94.5641 24.92L95.0724 23.3918H96.8096L97.3323 24.92H98.0084L96.3386 20.0605H95.5762L93.9122 24.9206L94.5641 24.92ZM96.1988 21.5035L96.6788 22.9025H95.2029L95.6829 21.4957C95.7763 21.2004 95.8573 20.9048 95.9301 20.6166H95.9447L95.9613 20.6784C96.0285 20.9397 96.0989 21.2085 96.1988 21.5035ZM104.322 22.7873C104.285 22.1098 104.244 21.2943 104.249 20.6889H104.227C104.059 21.2588 103.856 21.8717 103.607 22.5346L102.742 24.8922H102.262L101.47 22.5782C101.237 21.8936 101.041 21.2662 100.903 20.6889H100.889C100.874 21.2953 100.838 22.1098 100.795 22.8379L100.664 24.9212H100.063L100.406 20.0612H101.215L102.051 22.4117C102.254 23.01 102.421 23.5438 102.544 24.0489H102.566C102.691 23.5589 102.864 23.0251 103.082 22.4117L103.953 20.0612H104.76L105.065 24.9212H104.445L104.322 22.7873ZM108.743 20.0244C108.336 20.0217 107.93 20.0527 107.528 20.1171V24.9197H108.158V22.9736C108.325 23.0071 108.496 23.0211 108.667 23.0153C108.939 23.031 109.213 22.9919 109.47 22.9001C109.727 22.8084 109.963 22.666 110.163 22.4815C110.292 22.3419 110.392 22.1784 110.457 22.0002C110.522 21.8223 110.551 21.6332 110.541 21.4442C110.549 21.2539 110.514 21.0644 110.44 20.8887C110.366 20.7131 110.254 20.5557 110.112 20.4275C109.72 20.1322 109.233 19.9894 108.743 20.026V20.0244ZM108.685 22.5127C108.509 22.5174 108.333 22.5003 108.161 22.4617V20.5733C108.357 20.5345 108.557 20.5177 108.757 20.5233C109.454 20.5233 109.912 20.8322 109.912 21.4744C109.912 22.146 109.447 22.5136 108.684 22.5136L108.685 22.5127ZM120.025 20.0615H119.392V24.9212H122.117V24.3942H120.025L120.025 20.0615ZM124.949 20.0615V24.9212H124.317V20.0609L124.949 20.0615ZM127.55 20.0615V24.9212H128.145V22.8447C128.145 22.0363 128.13 21.4547 128.093 20.8396L128.115 20.8325C128.388 21.3909 128.694 21.9325 129.031 22.4546L130.585 24.9212H131.224V20.0609H130.631V22.0947C130.631 22.854 130.644 23.4453 130.703 24.0946L130.688 24.1017C130.431 23.5566 130.137 23.0291 129.809 22.5226L128.237 20.0609L127.55 20.0615ZM136.36 22.6449H134.456V24.3948H136.578V24.92H133.825V20.0609H136.471V20.586H134.456V22.1234H136.362L136.36 22.6449Z" fill="#0088CE"/>
</g>
</svg>
