<svg width="154" height="39" viewBox="0 0 154 39" fill="none" xmlns="http://www.w3.org/2000/svg">
<path d="M0 39C0 39 17.1132 19.5286 53.0437 24.8215L43.906 29.5984C43.8869 29.5984 23.25 24.0571 0 39Z" fill="#0733A5"/>
<path d="M16.2807 27.7452L6.0979 25.2804L18.3906 26.7708L16.2807 27.7452Z" fill="#FAA21D"/>
<path d="M19.7474 26.6181L2.03296 18.6498L20.8497 25.4715L9.00216 16.4716L21.9923 24.3061L8.22905 9.11495L22.8839 22.4523L15.2937 10.2232L24.3156 22.0129L17.2693 2.84699L25.9421 21.2673L23.5214 6.955L27.2961 21.3629L27.7814 0L29.0984 21.1718L32.3312 6.6118L30.4148 21.1718L38.6991 2.405L32.291 21.4558L40.5186 9.70449L33.4138 22.5667L48.3591 8.15879L35.0403 23.6372C35.0403 23.6372 25.1091 24.0188 19.7474 26.6181Z" fill="#FAA21D"/>
<path d="M35.6592 23.3695L46.8291 16.0316L37.7882 23.3695H35.6592Z" fill="#FAA21D"/>
<path d="M40.5569 23.3695L53.5661 18.1149L43.2088 23.3695H40.5569Z" fill="#FAA21D"/>
<path d="M64.1176 12.2291H66.0932V19.4331H63.2279L61.0594 14.5984H61.0015V19.4331H59.0259V12.2291H61.9102L64.0787 17.2926H64.1367V12.2291H64.1176Z" fill="#01379E"/>
<path d="M68.5698 12.2291H73.8743V13.8151H70.9109V15.0761H73.4278V16.5666H70.9109V17.8276H73.8743V19.4526H68.5698V12.2291Z" fill="#01379E"/>
<path d="M80.3594 12.2291H81.7337L82.9342 17.3121H82.9922L84.4409 12.2291H86.3381L84.4218 19.4331H82.0794L80.9178 15.8217H80.879L79.795 19.4331H77.6271L75.4421 12.2291H77.533L79.1207 17.3121H79.1786L80.3594 12.2291Z" fill="#01379E"/>
<path d="M95.9237 12.2297H98.1884V19.4337H95.9237V16.7394H93.717V19.4337H91.4517V12.2297H93.7163V14.9812H95.923L95.9237 12.2297Z" fill="#01379E"/>
<path d="M100.279 15.8983C100.279 13.739 101.441 12.0958 104.093 12.0958C106.822 12.0958 107.674 13.7962 107.674 15.7644C107.674 17.771 106.686 19.6241 103.92 19.6241C101.112 19.5864 100.279 17.7898 100.279 15.8983ZM105.35 15.7644C105.35 14.4462 105.04 13.7195 104.033 13.7195C103.065 13.7195 102.601 14.3884 102.601 15.86C102.601 17.29 103.046 17.94 103.975 17.94C104.925 17.9458 105.35 17.236 105.35 15.7644Z" fill="#01379E"/>
<path d="M109.765 19.4337V12.2297H113.018C115.166 12.2297 116.019 12.9941 116.019 14.5047C116.028 14.9239 115.919 15.3374 115.704 15.6988C115.488 16.0601 115.175 16.3548 114.799 16.5496L116.445 19.4538H113.967L112.69 16.9507H112.051V19.4538H109.765V19.4337ZM112.688 15.574C112.824 15.5895 112.962 15.5754 113.092 15.5327C113.222 15.49 113.341 15.4197 113.441 15.3268C113.541 15.2339 113.618 15.1206 113.669 14.9949C113.719 14.8691 113.741 14.734 113.733 14.599C113.733 13.8346 113.327 13.7007 112.765 13.7007H112.03V15.5922H112.689L112.688 15.574Z" fill="#01379E"/>
<path d="M120.568 19.4337H118.322V12.2297H120.568V19.4337Z" fill="#01379E"/>
<path d="M122.91 12.2297H128.388V13.8157L125.349 17.7905H128.466V19.4337H122.774V17.8477L125.852 13.9113H122.929V12.2297H122.91Z" fill="#01379E"/>
<path d="M130.112 15.8983C130.112 13.739 131.273 12.0958 133.925 12.0958C136.655 12.0958 137.507 13.7962 137.507 15.7644C137.507 17.771 136.519 19.6241 133.753 19.6241C130.944 19.5864 130.112 17.7898 130.112 15.8983ZM135.182 15.7644C135.182 14.4462 134.873 13.7195 133.865 13.7195C132.897 13.7195 132.433 14.3884 132.433 15.86C132.433 17.29 132.878 17.94 133.807 17.94C134.758 17.9458 135.182 17.236 135.182 15.7644Z" fill="#01379E"/>
<path d="M144.514 12.2297H146.431V19.4337H143.665L141.558 14.599H141.5V19.4337H139.597V12.2297H142.385L144.476 17.2932H144.533V12.2297H144.514Z" fill="#01379E"/>
<path d="M148.502 17.5227H148.56C149.191 17.7881 149.869 17.9309 150.554 17.9432C151.174 17.9432 151.677 17.8477 151.677 17.3888C151.677 16.2994 148.483 17.121 148.483 14.4267C148.483 13.1267 149.47 12.0958 151.406 12.0958C152.136 12.0824 152.862 12.1923 153.555 12.4208L153.69 14.0068H153.632C153.065 13.8126 152.471 13.703 151.871 13.6818C151.29 13.6818 150.767 13.7962 150.767 14.2168C150.767 15.2106 154 14.4651 154 17.121C154 18.1909 153.303 19.6053 150.905 19.6053C150.133 19.6124 149.365 19.4829 148.639 19.2231L148.502 17.5227Z" fill="#01379E"/>
<path d="M59.0259 23.0641H63.438V23.6186H59.8569V25.8936H62.9928V26.448H59.8569V29.1234H59.0436V23.0641H59.0259Z" fill="#01379E"/>
<path d="M67.6208 26.1593C67.6208 24.3055 68.7048 22.9873 70.9892 22.9873C73.2941 22.9873 74.1449 24.3439 74.1449 25.9682C74.1449 27.6686 73.2348 29.1974 70.8154 29.1974C68.4144 29.1974 67.6208 27.707 67.6208 26.1593ZM73.3125 26.0066C73.3125 24.4394 72.5769 23.5606 70.951 23.5606C69.441 23.5606 68.4341 24.4011 68.4341 26.121C68.4341 27.9169 69.3824 28.643 70.8345 28.643C72.3833 28.6241 73.3125 27.7642 73.3125 26.0066Z" fill="#01379E"/>
<path d="M79.0432 26.255V23.0641H79.8565V27.0005C79.8565 28.1087 80.4182 28.6255 81.7926 28.6255C83.1478 28.6255 83.6318 28.0138 83.6318 27.0005V23.0641H84.4431V26.2745C84.4431 28.0132 84.2107 29.1995 81.7326 29.1995C79.624 29.1982 79.0432 28.5098 79.0432 26.255Z" fill="#01379E"/>
<path d="M94.7649 23.0641H95.5393V29.1026H94.5133L90.6412 23.9819H90.6023V29.1026H89.8259V23.0641H90.871L94.7234 28.2231H94.7623L94.7649 23.0641Z" fill="#01379E"/>
<path d="M101.016 23.0641H103.339C105.411 23.0641 106.804 23.6946 106.804 25.9683C106.804 28.0892 105.681 29.1214 103.164 29.1214H101.016V23.0641ZM103.281 28.5891C105.236 28.5891 105.933 27.5575 105.933 26.0287C105.933 23.8311 104.713 23.6023 102.545 23.6023H101.828V28.5891H103.281Z" fill="#01379E"/>
<path d="M113.386 23.0641H114.315L117.026 29.1026H116.155L115.4 27.3639H112.263L111.528 29.1026H110.656L113.386 23.0641ZM112.496 26.8282H115.225L113.87 23.6751L112.496 26.8282Z" fill="#01379E"/>
<path d="M120.084 23.0641H125.756V23.6374H123.356V29.1026H122.521V23.6374H120.1V23.0641H120.084Z" fill="#01379E"/>
<path d="M131.119 29.1026H130.305V23.0641H131.119V29.1026Z" fill="#01379E"/>
<path d="M136.171 26.1593C136.171 24.3055 137.255 22.9873 139.539 22.9873C141.844 22.9873 142.695 24.3439 142.695 25.9682C142.695 27.6686 141.785 29.1974 139.365 29.1974C136.984 29.1974 136.171 27.707 136.171 26.1593ZM141.882 26.0066C141.882 24.4394 141.146 23.5606 139.52 23.5606C138.01 23.5606 137.003 24.4011 137.003 26.121C137.003 27.9169 137.952 28.643 139.404 28.643C140.933 28.6241 141.882 27.7642 141.882 26.0066Z" fill="#01379E"/>
<path d="M152.648 23.0641H153.422V29.1026H152.396L148.525 23.9819H148.486V29.1026H147.709V23.0641H148.754L152.606 28.2231H152.645V23.0641H152.648Z" fill="#01379E"/>
</svg>
