<svg width="150" height="40" viewBox="0 0 150 40" fill="none" xmlns="http://www.w3.org/2000/svg">
<g id="Adobe Commerce">
<path id="Vector" d="M38.9827 36.3854C34.2733 24.9856 29.5695 13.5913 24.8159 2.08082C25.2144 2.02549 25.4634 1.96461 25.7179 1.96461C29.885 1.95908 34.0575 1.97568 38.2245 1.94248C38.9937 1.93694 39.2151 2.1749 39.2096 2.93858C39.1874 14.0008 39.193 25.0631 39.193 36.1253C39.193 36.1917 39.1708 36.2581 39.1598 36.3245C39.0989 36.3466 39.038 36.3688 38.9771 36.3854H38.9827Z" fill="#E9272B"/>
<path id="Vector_2" d="M-0.000244141 2.02515H14.3491C9.58445 13.5633 4.86404 24.9742 0.149171 36.3851L-0.000244141 36.3463V2.02515Z" fill="#E9272B"/>
<path id="Vector_3" d="M28.763 37.0436C26.7432 37.0436 24.9723 37.0713 23.207 37.0104C22.958 36.9993 22.6315 36.5843 22.5097 36.291C21.7793 34.5257 21.0654 32.7548 20.4235 30.9563C20.1523 30.1982 19.7871 29.8883 18.9514 29.9215C17.1474 29.9934 15.3434 29.9436 13.2903 29.9436C15.3876 24.9465 17.413 20.1099 19.5657 14.98C22.6758 22.4452 25.6696 29.6282 28.763 37.0436Z" fill="#E9272B"/>
<path id="Vector_4" d="M92.668 28.2614C94.6215 28.0124 94.7764 28.0566 95.3077 29.0029C97.394 27.7135 99.4636 27.2598 101.306 29.2243C102.303 28.8037 103.199 28.2725 104.173 28.04C106.547 27.4756 108.567 28.8259 108.711 31.2054C108.871 33.8562 108.75 36.518 108.75 39.3292C108.052 39.3292 107.366 39.4011 106.719 39.2904C106.497 39.2517 106.215 38.737 106.204 38.4382C106.154 36.4239 106.204 34.4095 106.165 32.3952C106.126 30.5635 104.848 29.7555 103.155 30.4251C102.391 30.724 101.982 31.1556 102.02 32.1074C102.109 34.4538 102.048 36.8113 102.048 39.3347C101.312 39.3347 100.631 39.4122 99.9894 39.296C99.7625 39.2572 99.4747 38.7426 99.4692 38.4438C99.4194 36.4294 99.4692 34.4151 99.4304 32.4007C99.3972 30.641 98.296 29.8718 96.6137 30.3698C95.7449 30.6299 95.2579 31.0947 95.2911 32.1296C95.3686 34.476 95.3132 36.8279 95.3132 39.3347C94.544 39.3347 93.8689 39.379 93.2048 39.307C93.0056 39.2849 92.6902 38.9473 92.6902 38.7481C92.657 35.2728 92.668 31.7976 92.668 28.2614Z" fill="#E9272B"/>
<path id="Vector_5" d="M87.1562 39.3347C87.1562 37.514 87.1562 35.8483 87.1562 34.1826C87.1562 33.5684 87.1617 32.9541 87.1396 32.3398C87.1008 31.4821 86.8795 30.6797 85.983 30.3532C84.998 29.9935 84.0793 30.2702 83.3157 30.9287C83.1109 31.1058 83.05 31.5264 83.05 31.8363C83.039 34.0553 83.0611 36.2689 83.0666 38.488C83.0666 38.7204 83.0224 38.9528 82.9892 39.2572H80.4602C80.4602 38.6983 80.4602 38.1394 80.4602 37.5749C80.4602 35.8373 80.5044 34.0941 80.427 32.3564C80.3495 30.5911 79.2206 29.8441 77.5659 30.3698C76.758 30.6243 76.2544 31.0449 76.2987 32.0521C76.3817 34.0941 76.2821 36.1471 76.343 38.1892C76.3706 39.069 76.1493 39.473 75.214 39.3457C74.7824 39.2849 74.3342 39.3347 73.7476 39.3347V28.289C75.297 27.9459 75.784 28.0732 76.271 29.0195C78.3518 27.7301 80.4159 27.2487 82.303 29.2464C83.1939 28.848 84.0185 28.3444 84.9149 28.1009C87.5103 27.387 89.5689 28.7981 89.7239 31.4655C89.8622 33.8451 89.7792 36.2357 89.8069 38.6263C89.8124 39.141 89.6077 39.3734 89.0764 39.3457C88.5009 39.3181 87.9254 39.3402 87.1617 39.3402L87.1562 39.3347Z" fill="#E9272B"/>
<path id="Vector_6" d="M87.0901 0.486735H89.7021V5.33995C90.0784 5.32335 90.3053 5.33442 90.5267 5.29568C93.6201 4.80317 96.0218 6.09256 96.8353 8.68242C97.7539 11.6098 96.459 14.7697 93.7861 16.0591C91.8105 17.0165 89.7519 16.9556 87.6933 16.3911C87.4498 16.3247 87.1122 15.9595 87.1122 15.7271C87.079 10.6857 87.0846 5.64985 87.0846 0.481201L87.0901 0.486735ZM91.2627 7.39302C90.7369 7.56457 89.7851 7.1606 89.7519 8.22311C89.6966 10.0991 89.7132 11.9806 89.763 13.8566C89.7685 14.0946 90.095 14.5041 90.3053 14.5317C91.6002 14.6978 92.7845 14.3768 93.598 13.3032C94.5885 11.9972 94.6771 10.5252 94.0517 9.03659C93.5537 7.8634 92.5465 7.43176 91.2571 7.39302H91.2627Z" fill="#E9272B"/>
<path id="Vector_7" d="M69.2869 5.06888C69.2869 3.86803 69.3423 2.67825 69.2703 1.49399C69.215 0.61964 69.5415 0.331878 70.3771 0.425954C70.8364 0.475759 71.3123 0.437022 71.9045 0.437022C71.9045 0.962741 71.9045 1.36118 71.9045 1.75962C71.9266 6.25867 71.9653 10.7522 71.9543 15.2512C71.9543 15.5335 71.6886 15.9706 71.4396 16.0647C69.5913 16.7841 67.6766 17.0663 65.7286 16.5406C63.2827 15.8821 61.8549 13.7903 61.8992 11.0344C61.949 8.2398 63.6811 6.02071 66.3761 5.41752C67.2615 5.2183 68.1912 5.19616 69.2869 5.06888ZM69.2869 10.9569C69.2869 10.0383 69.3367 9.11415 69.2537 8.20106C69.2261 7.9133 68.8664 7.45399 68.6118 7.42079C67.2394 7.2437 66.0053 7.62001 65.2306 8.84299C64.3562 10.2265 64.3894 11.7151 65.1808 13.1096C65.8891 14.3603 67.1232 14.5982 68.4624 14.4986C69.0324 14.4544 69.3201 14.2385 69.2925 13.6132C69.2537 12.7278 69.2814 11.8424 69.2814 10.9569H69.2869Z" fill="#E9272B"/>
<path id="Vector_8" d="M60.8822 16.491C58.3255 16.8175 58.3532 16.8064 57.5342 14.4933C56.7317 12.2078 57.3073 12.6505 54.8834 12.6062C53.9593 12.5896 53.0351 12.5509 52.122 12.6339C51.8121 12.6615 51.4026 12.9714 51.2698 13.2647C50.9544 13.9399 50.7053 14.6648 50.5559 15.3897C50.3622 16.325 49.9085 16.7455 48.929 16.5851C48.5693 16.5242 48.1874 16.574 47.5676 16.574C49.2942 11.5935 50.9654 6.75688 52.7086 1.72104C53.4778 1.72104 54.4573 1.69337 55.4313 1.74318C55.6194 1.75425 55.8795 2.03648 55.957 2.24676C57.6338 6.92843 59.2884 11.6212 60.943 16.3139C60.9541 16.336 60.9209 16.3748 60.8822 16.4855V16.491ZM54.164 3.91246C53.4557 6.17029 52.8414 8.11822 52.2106 10.127H56.1728C55.5088 8.06841 54.8834 6.13708 54.164 3.91246Z" fill="#E9272B"/>
<path id="Vector_9" d="M71.4541 33.6901C71.4541 37.8959 68.1559 40.4913 64.2987 39.3015C63.9114 39.1797 63.5295 39.0082 63.1864 38.7979C60.8345 37.3757 59.9546 33.7288 61.2772 30.9342C62.4338 28.4827 65.245 27.3427 67.9511 28.2282C70.1204 28.9365 71.4541 31.0172 71.4541 33.6956V33.6901ZM68.8753 33.7399C68.7037 33.0537 68.6041 32.3343 68.344 31.6813C67.9345 30.6797 67.1266 30.1484 66.0253 30.1429C64.9517 30.1373 64.1991 30.6797 63.773 31.626C63.1422 33.0316 63.1477 34.4759 63.8118 35.876C64.2766 36.8555 65.0901 37.3646 66.1913 37.3314C67.2649 37.2982 67.9954 36.7061 68.3717 35.7487C68.6207 35.1289 68.7037 34.4427 68.8753 33.7399Z" fill="#E9272B"/>
<path id="Vector_10" d="M79.5161 5.17948C82.7369 5.16841 84.9338 7.53138 84.9006 10.9735C84.8674 14.4211 82.6649 16.784 79.4829 16.7896C76.2512 16.7896 74.1206 14.4819 74.1206 10.9845C74.1206 7.54799 76.312 5.19055 79.5161 5.17948ZM82.3218 10.9458C82.0949 10.1821 81.9898 9.3465 81.6135 8.65476C80.6672 6.88945 78.2267 6.90605 77.2971 8.6769C76.5002 10.1876 76.5278 11.7648 77.3303 13.2811C77.8006 14.1665 78.6031 14.6037 79.6047 14.5705C80.5731 14.5373 81.3202 14.0448 81.6965 13.1704C81.9843 12.4953 82.1005 11.7537 82.3218 10.9513V10.9458Z" fill="#E9272B"/>
<path id="Vector_11" d="M59.0958 36.9663C59.129 37.0272 59.1788 37.0825 59.1843 37.1434C59.3946 39.119 59.1843 39.3957 57.2198 39.5174C56.3731 39.5673 55.4987 39.5949 54.6687 39.4621C50.3965 38.7925 48.1055 35.8263 48.3379 31.3494C48.5426 27.365 51.4092 24.5538 55.5983 24.2937C56.4782 24.2384 57.3692 24.3491 58.2546 24.3933C59.0792 24.4321 59.5108 24.7862 59.378 25.6827C59.3171 26.1088 59.3669 26.546 59.3669 27.0219C56.5944 26.4353 53.9105 26.0535 52.0511 28.6046C50.6677 30.4972 50.7119 32.661 51.7468 34.7251C52.7982 36.8169 54.486 37.2818 59.1013 36.9829L59.0958 36.9663Z" fill="#E9272B"/>
<path id="Vector_12" d="M113.822 34.3763C114.044 37.0658 115.787 37.7299 119.932 36.8998C120.369 38.7647 120.22 39.1134 118.399 39.3624C117.237 39.5173 116.008 39.5007 114.857 39.3015C113.269 39.0359 112.162 37.9844 111.581 36.4903C110.818 34.5202 110.89 32.5391 111.858 30.641C113.009 28.3942 115.555 27.3926 117.956 28.1839C120.026 28.8646 121.315 31.2552 120.845 33.6735C120.795 33.9281 120.314 34.2712 120.02 34.2823C118.349 34.3597 116.672 34.3487 115.001 34.3708C114.63 34.3708 114.265 34.3708 113.822 34.3708V34.3763ZM113.856 32.3786H118.382C118.272 30.8402 117.547 30.0599 116.285 30.0267C114.99 29.9935 114.094 30.8236 113.861 32.3786H113.856Z" fill="#E9272B"/>
<path id="Vector_13" d="M142.861 34.3766C143.237 37.1214 144.842 37.7301 149.003 36.9055C149.49 38.7151 149.313 39.0748 147.498 39.3681C146.535 39.5231 145.512 39.6061 144.554 39.4511C140.741 38.8369 138.948 34.4264 140.918 30.6633C142.092 28.4276 144.598 27.3928 147.006 28.1731C149.634 29.0308 150.243 31.7535 149.922 33.8287C149.889 34.0335 149.363 34.2825 149.059 34.2935C147.388 34.3544 145.716 34.3544 144.045 34.371C143.68 34.371 143.309 34.371 142.866 34.371L142.861 34.3766ZM147.459 32.4176C147.354 30.8404 146.618 30.0546 145.357 30.0269C144.012 29.9993 143.077 30.9179 142.971 32.4176H147.465H147.459Z" fill="#E9272B"/>
<path id="Vector_14" d="M107.668 14.1392C108.011 16.0484 107.812 16.3472 105.98 16.6516C105.88 16.6682 105.781 16.6903 105.676 16.7014C103.318 16.9614 101.06 16.7401 99.7211 14.4878C98.3155 12.1193 98.4539 9.63458 99.9203 7.31588C101.165 5.35135 103.866 4.62088 106.008 5.5395C107.884 6.34745 109.062 8.77129 108.553 10.9461C108.498 11.1951 107.994 11.494 107.69 11.505C106.019 11.5714 104.342 11.5493 102.671 11.5604C102.305 11.5604 101.946 11.5936 101.592 11.6102C101.575 14.1724 103.357 14.8807 107.662 14.1336L107.668 14.1392ZM101.63 9.65672H106.03C106.152 8.28984 105.382 7.34908 104.121 7.25501C102.748 7.1554 101.708 8.11829 101.63 9.65672Z" fill="#E9272B"/>
<path id="Vector_15" d="M138.764 30.3479C134.57 30.1984 133.17 31.0507 133.164 33.6737C133.159 36.3466 134.658 37.2929 138.62 37.1103C138.659 37.1656 138.72 37.2154 138.726 37.2763C138.93 39.274 138.726 39.4677 136.717 39.5563C131.493 39.7887 129.639 35.4169 130.762 31.8309C131.664 28.9367 135.455 27.0663 138.266 28.1011C138.482 28.1786 138.715 28.4995 138.742 28.7375C138.814 29.2632 138.764 29.8111 138.764 30.3479Z" fill="#E9272B"/>
<path id="Vector_16" d="M125.633 29.3071C126.756 28.7869 127.891 28.2556 129.031 27.7244C129.136 27.8074 129.236 27.8959 129.341 27.9789C129.341 28.6762 129.374 29.3735 129.319 30.0652C129.302 30.2423 129.02 30.4581 128.809 30.5356C128.494 30.6463 128.14 30.6407 127.802 30.7071C126.042 31.0613 125.733 31.4431 125.733 33.225C125.733 34.9295 125.699 36.6395 125.749 38.3439C125.771 39.091 125.55 39.3732 124.77 39.3455C122.772 39.2791 123.049 39.5613 123.032 37.5802C123.01 34.7137 122.999 31.8471 122.988 28.9806C122.988 28.7481 123.01 28.5212 123.015 28.3054C124.969 27.8959 125.212 28.0011 125.627 29.3015L125.633 29.3071Z" fill="#E9272B"/>
</g>
</svg>
