<svg width="107" height="17" viewBox="0 0 107 17" fill="none" xmlns="http://www.w3.org/2000/svg">
<g id="Android">
<path id="path1" d="M106.444 15.8221C106.435 15.7643 106.426 15.7072 106.417 15.65C106.358 15.2956 106.286 14.9453 106.202 14.5998C106.054 13.9962 105.867 13.407 105.645 12.8365C105.457 12.3533 105.243 11.8832 105.006 11.4276C104.7 10.8426 104.356 10.281 103.976 9.74688C103.509 9.09236 102.988 8.47916 102.42 7.91411C102.181 7.67663 101.934 7.44745 101.679 7.22788C101.126 6.75095 100.536 6.31667 99.9148 5.92849C99.9202 5.91952 99.9248 5.90991 99.9303 5.90093C100.215 5.40886 100.501 4.91742 100.785 4.42534C101.064 3.94493 101.342 3.46452 101.621 2.98415C101.821 2.63933 102.022 2.29381 102.221 1.949C102.268 1.86708 102.306 1.78244 102.334 1.69575C102.412 1.45416 102.415 1.20019 102.352 0.964097C102.337 0.905628 102.317 0.848502 102.294 0.79276C102.27 0.736976 102.243 0.682618 102.212 0.630316C102.105 0.451388 101.953 0.295822 101.762 0.18224C101.593 0.0817873 101.404 0.021893 101.21 0.00469643C101.129 -0.00218219 101.047 -0.0015111 100.965 0.00675163C100.898 0.0136303 100.832 0.0260453 100.765 0.0432419C100.53 0.105863 100.311 0.235256 100.14 0.422447C100.079 0.489891 100.024 0.564256 99.9764 0.646128C99.7763 0.99094 99.5763 1.33647 99.3766 1.68128L98.5411 3.12247C98.2563 3.61459 97.9707 4.10599 97.6859 4.59811C97.6549 4.65175 97.6234 4.70544 97.5924 4.75984C97.5492 4.7426 97.5064 4.7254 97.4632 4.70888C95.8929 4.1101 94.1891 3.78253 92.4082 3.78253C92.3596 3.78253 92.3114 3.78253 92.2623 3.7832C90.6789 3.79901 89.1577 4.07432 87.7383 4.56849C87.5743 4.62562 87.412 4.68619 87.251 4.74952C87.222 4.69927 87.1922 4.64902 87.1637 4.59878C86.8789 4.10666 86.5933 3.61526 86.3085 3.12315C86.03 2.64277 85.7515 2.16236 85.473 1.68195C85.2725 1.33714 85.0725 0.991653 84.8732 0.646841C84.8254 0.564927 84.7705 0.490604 84.7092 0.42316C84.5389 0.235927 84.32 0.106534 84.0843 0.043913C84.018 0.0267164 83.9513 0.0143433 83.8838 0.00746466C83.8028 -0.000798075 83.7211 -0.0015111 83.6397 0.00536752C83.4459 0.021893 83.2567 0.0817873 83.0873 0.182953C82.896 0.296493 82.745 0.452059 82.6377 0.630987C82.6066 0.683289 82.5789 0.737689 82.5559 0.793431C82.5324 0.849173 82.5123 0.906299 82.4972 0.96481C82.4347 1.20086 82.438 1.45483 82.5156 1.69642C82.5441 1.78316 82.5811 1.8678 82.6284 1.94971C82.8289 2.29452 83.029 2.64001 83.2282 2.98482C83.5071 3.46523 83.7856 3.94564 84.0641 4.42602C84.3489 4.91813 84.6342 5.40953 84.9189 5.90165C84.921 5.90576 84.924 5.90991 84.9261 5.91402C84.3515 6.27125 83.8049 6.66698 83.289 7.09987C82.9799 7.35937 82.6821 7.6312 82.3969 7.91545C81.8286 8.4805 81.3081 9.09375 80.8408 9.74827C80.46 10.2824 80.1152 10.8433 79.8107 11.429C79.5733 11.8846 79.3594 12.3547 79.1715 12.8379C78.9492 13.4084 78.763 13.9975 78.6149 14.6011C78.5306 14.9467 78.4589 15.2963 78.3998 15.6514C78.3901 15.7086 78.3813 15.7663 78.3725 15.8235C78.3406 16.0293 78.3138 16.2364 78.2911 16.445H106.523C106.501 16.2364 106.474 16.0293 106.442 15.8235L106.444 15.8221Z" fill="#34A853"/>
<path id="path2" d="M99.7508 12.5404C100.316 12.1643 100.398 11.2942 99.9341 10.5971C99.4706 9.89993 98.6368 9.63967 98.0723 10.0157C97.5073 10.3918 97.4251 11.2619 97.889 11.959C98.3524 12.6562 99.1863 12.9165 99.7508 12.5404Z" fill="#202124"/>
<path id="path3" d="M86.9502 11.9614C87.4141 11.2643 87.3319 10.3943 86.7669 10.0182C86.202 9.64209 85.3686 9.90239 84.9047 10.5995C84.4412 11.2967 84.5234 12.1667 85.088 12.5428C85.6529 12.9189 86.4868 12.6586 86.9502 11.9614Z" fill="#202124"/>
<path id="path4" d="M64.3272 11.1569C64.3272 9.26247 65.6946 7.76792 67.4197 7.76792C69.1448 7.76792 70.4068 9.22036 70.4068 11.1569C70.4068 13.0935 69.1238 14.588 67.4197 14.588C65.7155 14.588 64.3272 13.0725 64.3272 11.1569ZM58.3948 16.4404H60.8141V5.91556H58.3948V16.4404ZM58.0161 2.40029C58.0161 3.30541 58.7526 4.04214 59.6149 4.04214C60.4773 4.04214 61.1928 3.30541 61.1928 2.40029C61.1928 1.55828 60.4773 0.842613 59.6149 0.842613C58.7526 0.842613 58.0161 1.55828 58.0161 2.40029ZM48.5286 11.1359C48.5286 9.24141 49.9169 7.76792 51.7049 7.76792C53.4934 7.76792 54.8817 9.24141 54.8817 11.1359C54.8817 13.0304 53.472 14.588 51.7049 14.588C49.9379 14.588 48.5286 13.0514 48.5286 11.1359ZM46.067 11.1359C46.067 14.2933 48.5496 16.7772 51.7049 16.7772C54.8607 16.7772 57.3429 14.2933 57.3429 11.1359C57.3429 7.97843 54.9027 5.57875 51.7049 5.57875C48.5076 5.57875 46.067 7.99948 46.067 11.1359ZM39.5247 16.4404H41.944V10.9254C41.944 8.73621 43.1008 7.76792 45.0365 7.76792C45.3938 7.76792 45.6677 7.78897 45.9198 7.85214V5.7261C45.6677 5.64192 45.2256 5.57875 44.742 5.57875C41.46 5.57875 39.5247 7.64163 39.5247 10.9254V16.4404ZM29.8267 11.1569C29.8267 9.26247 31.1941 7.76792 32.9192 7.76792C34.6443 7.76792 35.9063 9.22036 35.9063 11.1569C35.9063 13.0935 34.6233 14.588 32.9192 14.588C31.2151 14.588 29.8267 13.0725 29.8267 11.1569ZM27.3654 11.1569C27.3654 14.2091 29.8057 16.7772 32.6876 16.7772C33.8868 16.7772 34.9807 16.293 35.6329 15.4932H35.7381V16.4404H38.1574V0.000610352H35.7381V6.77861H35.6329C35.0016 6.02083 33.9078 5.57875 32.6876 5.57875C29.7846 5.57875 27.3654 8.12577 27.3654 11.1569ZM16.7628 16.4404H19.182V10.2728C19.182 8.79938 20.1708 7.76792 21.5382 7.76792C22.9056 7.76792 23.8943 8.79938 23.8943 10.2728V16.4404H26.3136V10.2728C26.3136 7.70479 24.273 5.57875 21.5382 5.57875C18.8034 5.57875 16.7628 7.70479 16.7628 10.2728V16.4404ZM5.65529 10.1255L8.26388 2.65286H8.39008L10.9987 10.1255H5.65529ZM0.732666 16.4404H3.46746L4.83484 12.5252H11.8191L13.1865 16.4404H15.9213L9.84164 0.000610352H6.81232L0.732666 16.4404ZM67.1881 16.7772C68.3873 16.7772 69.4812 16.293 70.1334 15.4932H70.2386V16.4404H72.6579V0.000610352H70.2386V6.77861H70.1334C69.5021 6.02083 68.4083 5.57875 67.1881 5.57875C64.2853 5.57875 61.866 8.12577 61.866 11.1569C61.866 14.1881 64.3063 16.7772 67.1881 16.7772Z" fill="#202124"/>
</g>
</svg>
