<svg width="26" height="26" viewBox="0 0 26 26" fill="none" xmlns="http://www.w3.org/2000/svg">
<g id="Group">
<path id="Vector" d="M25.929 13.4309C25.929 19.746 21.2492 24.9669 15.1698 25.8141C14.6014 25.8929 14.0198 25.9341 13.4294 25.9341C12.748 25.9341 12.0789 25.8798 11.4272 25.7747C5.47479 24.8162 0.929016 19.654 0.929016 13.4309C0.929016 6.52522 6.52583 0.926758 13.4286 0.926758C20.3313 0.926758 25.929 6.52522 25.929 13.4309Z" fill="#1877F2"/>
<path id="Vector_2" d="M15.1698 10.9663V13.6902H18.5384L18.005 17.3594H15.1698V25.8132C14.6014 25.892 14.0198 25.9332 13.4295 25.9332C12.748 25.9332 12.0789 25.8789 11.4272 25.7737V17.3594H8.3205V13.6902H11.4272V10.3574C11.4272 8.2897 13.1028 6.61279 15.1707 6.61279V6.61454C15.1768 6.61454 15.1821 6.61279 15.1882 6.61279H18.5393V9.78613H16.3496C15.6988 9.78613 15.1707 10.3144 15.1707 10.9654L15.1698 10.9663Z" fill="white"/>
</g>
</svg>
