<svg width="262" height="260" viewBox="0 0 262 260" fill="none" xmlns="http://www.w3.org/2000/svg">
<rect x="20.8301" y="20.2627" width="220.34" height="220.34" rx="70" fill="url(#paint0_radial_102_676)"/>
<mask id="path-2-inside-1_102_676" fill="white">
<path fill-rule="evenodd" clip-rule="evenodd" d="M137.147 124.337C139.375 122.418 140.786 119.577 140.786 116.405C140.786 110.626 136.101 105.941 130.321 105.941C124.542 105.941 119.857 110.626 119.857 116.405C119.857 119.481 121.184 122.246 123.296 124.161C120.536 125.193 118 126.861 115.889 129.076C112.148 133.001 110.047 138.324 110.047 143.875L129.994 143.875H149.942C149.942 138.324 147.841 133.001 144.1 129.076C142.105 126.983 139.731 125.379 137.147 124.337Z"/>
</mask>
<path d="M137.147 124.337L136.495 123.58L135.251 124.651L136.774 125.265L137.147 124.337ZM123.296 124.161L123.646 125.098L125.184 124.522L123.967 123.42L123.296 124.161ZM115.889 129.076L115.165 128.386L115.889 129.076ZM110.047 143.875H109.047V144.875L110.047 144.875L110.047 143.875ZM129.994 143.875V144.875V143.875ZM149.942 143.875V144.875H150.942V143.875H149.942ZM144.1 129.076L143.376 129.766L144.1 129.076ZM139.786 116.405C139.786 119.273 138.512 121.843 136.495 123.58L137.8 125.095C140.239 122.994 141.786 119.88 141.786 116.405H139.786ZM130.321 106.941C135.549 106.941 139.786 111.178 139.786 116.405H141.786C141.786 110.074 136.653 104.941 130.321 104.941V106.941ZM120.857 116.405C120.857 111.178 125.094 106.941 130.321 106.941V104.941C123.99 104.941 118.857 110.074 118.857 116.405H120.857ZM123.967 123.42C122.056 121.687 120.857 119.187 120.857 116.405H118.857C118.857 119.775 120.312 122.806 122.624 124.902L123.967 123.42ZM122.945 123.224C120.043 124.31 117.38 126.062 115.165 128.386L116.613 129.766C118.621 127.659 121.029 126.076 123.646 125.098L122.945 123.224ZM115.165 128.386C111.242 132.501 109.047 138.074 109.047 143.875H111.047C111.047 138.574 113.054 133.5 116.613 129.766L115.165 128.386ZM110.047 144.875L129.994 144.875V142.875L110.047 142.875L110.047 144.875ZM129.994 144.875H149.942V142.875H129.994V144.875ZM150.942 143.875C150.942 138.074 148.746 132.501 144.824 128.386L143.376 129.766C146.935 133.5 148.942 138.574 148.942 143.875H150.942ZM144.824 128.386C142.731 126.19 140.238 124.505 137.521 123.41L136.774 125.265C139.224 126.252 141.478 127.775 143.376 129.766L144.824 128.386Z" fill="url(#paint1_linear_102_676)" mask="url(#path-2-inside-1_102_676)"/>
<path d="M126.923 140.062L124.547 145.138V148.318H123.419V145.15L121.043 140.062H122.243L124.007 144.19L125.759 140.062H126.923ZM129.436 141.85C130.244 141.85 130.872 142.134 131.32 142.702C131.768 143.27 131.992 144.086 131.992 145.15C131.992 146.174 131.764 146.986 131.308 147.586C130.852 148.178 130.224 148.474 129.424 148.474C128.616 148.474 127.984 148.182 127.528 147.598C127.08 147.014 126.856 146.202 126.856 145.162C126.856 144.114 127.084 143.302 127.54 142.726C127.996 142.142 128.628 141.85 129.436 141.85ZM129.436 142.714C128.964 142.714 128.604 142.914 128.356 143.314C128.108 143.706 127.984 144.322 127.984 145.162C127.984 146.802 128.464 147.622 129.424 147.622C130.384 147.622 130.864 146.798 130.864 145.15C130.864 144.31 130.744 143.694 130.504 143.302C130.264 142.91 129.908 142.714 129.436 142.714ZM137.888 148.318H136.952L136.892 147.37C136.452 148.106 135.864 148.474 135.128 148.474C134.624 148.474 134.228 148.31 133.94 147.982C133.652 147.654 133.508 147.21 133.508 146.65V142.006H134.588V146.554C134.588 146.922 134.656 147.194 134.792 147.37C134.936 147.538 135.148 147.622 135.428 147.622C135.964 147.622 136.424 147.27 136.808 146.566V142.006H137.888V148.318Z" fill="white"/>
<g filter="url(#filter0_f_102_676)">
<path fill-rule="evenodd" clip-rule="evenodd" d="M62.7564 44.7719C56.5553 44.6368 52.2644 46.2218 49.5731 48.9511C46.8764 51.6858 45.3367 56.0241 45.5414 62.2617C45.7463 68.5036 47.7017 76.3094 51.5907 85.4166C59.3649 103.622 74.0409 125.104 93.005 145.824C111.953 166.527 133.744 184.897 154.288 197.534L152.503 200.402C131.652 187.576 109.624 168.993 90.4962 148.094C71.3686 127.195 56.4378 105.397 48.4684 86.7345C44.4837 77.4034 42.3744 69.1724 42.1512 62.3717C41.928 55.5701 43.5914 50.2 47.1509 46.5903C50.7104 42.9806 56.0464 41.2526 62.8308 41.4005C69.6143 41.5483 77.845 43.5716 87.1936 47.4632L85.8835 50.5738C76.7629 46.7772 68.9679 44.9074 62.7564 44.7719Z" fill="url(#paint2_linear_102_676)"/>
<path fill-rule="evenodd" clip-rule="evenodd" d="M175.33 208.584C184.462 212.463 192.308 214.444 198.604 214.696C204.9 214.949 209.305 213.475 212.102 210.855C214.881 208.25 216.526 204.084 216.476 198.041C216.425 191.979 214.655 184.346 210.961 175.385L214.1 174.106C217.888 183.297 219.812 191.372 219.868 198.012C219.923 204.653 218.111 209.858 214.428 213.309C210.746 216.759 205.316 218.341 198.467 218.066C191.619 217.791 183.352 215.659 173.997 211.685L175.33 208.584Z" fill="url(#paint3_linear_102_676)"/>
<path fill-rule="evenodd" clip-rule="evenodd" d="M169.389 117.556C168.725 101.566 166.888 86.1242 164.005 72.2065L167.327 71.5263C170.251 85.6421 172.107 101.266 172.778 117.417C173.45 133.568 172.921 149.895 171.227 165.374C169.533 180.852 166.71 195.147 162.934 207.359C159.158 219.571 154.513 229.437 149.288 236.336C144.064 243.235 138.374 247.018 132.578 247.447C126.782 247.877 121.002 244.944 115.603 238.831C110.204 232.719 105.303 223.561 101.208 211.932C97.1131 200.303 93.9123 186.455 91.8069 171.258L95.1673 170.798C97.2489 185.824 100.405 199.445 104.41 210.818C108.428 222.228 113.149 230.942 118.151 236.606C123.15 242.266 127.977 244.406 132.326 244.084C136.75 243.756 141.649 240.817 146.579 234.307C151.481 227.833 155.982 218.369 159.692 206.368C163.392 194.399 166.179 180.319 167.855 165.009C169.53 149.704 170.054 133.545 169.389 117.556Z" fill="url(#paint4_linear_102_676)"/>
<path fill-rule="evenodd" clip-rule="evenodd" d="M135.77 16.5438C132.533 15.1029 129.382 15.0094 126.245 16.1631C123.018 17.3499 119.582 19.9463 116.127 24.2737C109.184 32.9698 103.071 47.5181 98.7647 66.4367C94.4758 85.2789 92.2326 107.337 92.3348 129.917L88.9428 129.932C88.8397 107.136 91.1024 84.8202 95.4563 65.6924C99.8102 46.5646 106.068 31.4478 113.47 22.177C117.172 17.5415 121.079 14.4673 125.068 13.0002C129.058 11.5331 133.128 11.673 137.156 13.4659C145.212 17.0518 152.748 27.0954 158.85 42.3778L155.698 43.6221C149.667 28.5195 142.555 19.5643 135.77 16.5438Z" fill="url(#paint5_linear_102_676)"/>
<path fill-rule="evenodd" clip-rule="evenodd" d="M216.663 56.8337C215.71 52.0463 213.281 48.882 209.491 47.1115C205.514 45.2541 199.764 44.8062 192.263 46.2413C184.813 47.6667 175.968 50.8883 166.086 55.9355C146.322 66.0293 124.184 82.5156 103.861 102.363L101.484 99.9569C121.989 79.9326 144.399 63.2204 164.536 52.9358C174.604 47.7936 183.761 44.4337 191.622 42.9298C199.483 41.4258 206.048 41.7778 210.933 44.0592C215.817 46.3403 218.855 50.4729 219.991 56.1792C221.126 61.8849 220.359 69.1632 217.634 77.7353C212.184 94.8794 199.274 116.029 181.311 137.24C163.348 158.451 141.558 178.277 120.003 193.022C98.4477 207.767 78.5987 216.424 64.1561 217.379C56.9342 217.857 51.3113 216.393 47.474 213.146C43.6369 209.9 41.5843 204.87 41.5055 198.215C41.3479 184.907 49.094 166.01 63.2996 145.047L66.1127 146.931C51.9977 167.761 44.7524 185.935 44.8973 198.175C44.9682 204.162 46.7884 208.138 49.6723 210.578C52.6066 213.06 57.2338 214.457 63.9309 214.014C77.4491 213.12 96.6793 204.883 118.08 190.244C139.369 175.681 160.936 156.063 178.716 135.068C196.531 114.031 209.137 93.2738 214.399 76.719C217.033 68.4344 217.646 61.7712 216.663 56.8337Z" fill="url(#paint6_linear_102_676)"/>
<path fill-rule="evenodd" clip-rule="evenodd" d="M243.88 137.158C245.469 134.558 246.126 132.061 246.032 129.668C245.938 127.267 245.078 124.731 243.248 122.084C239.521 116.689 232.055 111.26 220.87 106.456L222.215 103.36C233.642 108.268 241.789 114.016 246.044 120.174C248.172 123.253 249.298 126.394 249.422 129.536C249.545 132.679 248.665 135.823 246.779 138.909C243.008 145.081 235.312 150.857 224.272 155.804C213.231 160.751 199.134 164.739 183.041 167.468L182.47 164.143C198.371 161.447 212.173 157.526 222.878 152.73C233.669 147.894 240.631 142.475 243.88 137.158Z" fill="url(#paint7_linear_102_676)"/>
<path fill-rule="evenodd" clip-rule="evenodd" d="M38.9817 152.081C49.7717 157.006 63.7298 161.057 79.8238 163.869L79.2368 167.19C62.9496 164.345 48.6942 160.224 37.5665 155.146C26.4389 150.067 18.7354 144.165 15.0483 137.895C13.2047 134.759 12.3899 131.573 12.5996 128.399C12.8092 125.224 14.0433 122.062 16.298 118.973C20.8073 112.795 29.2781 107.077 41.0594 102.259L42.3498 105.377C30.8075 110.098 23.0134 115.514 19.0433 120.953C17.0931 123.625 16.1447 126.191 15.9843 128.62C15.8246 131.037 16.4289 133.56 17.9767 136.193C21.146 141.583 28.1016 147.115 38.9817 152.081Z" fill="url(#paint8_linear_102_676)"/>
</g>
<path fill-rule="evenodd" clip-rule="evenodd" d="M62.7564 44.7719C56.5553 44.6368 52.2644 46.2218 49.5731 48.9511C46.8764 51.6858 45.3367 56.0241 45.5414 62.2617C45.7463 68.5036 47.7017 76.3094 51.5907 85.4166C59.3649 103.622 74.0409 125.104 93.005 145.824C111.953 166.527 133.744 184.897 154.288 197.534L152.503 200.402C131.652 187.576 109.624 168.993 90.4962 148.094C71.3686 127.195 56.4378 105.397 48.4684 86.7345C44.4837 77.4034 42.3744 69.1724 42.1512 62.3717C41.928 55.5701 43.5914 50.2 47.1509 46.5903C50.7104 42.9806 56.0464 41.2526 62.8308 41.4005C69.6143 41.5483 77.845 43.5716 87.1936 47.4632L85.8835 50.5738C76.7629 46.7772 68.9679 44.9074 62.7564 44.7719Z" fill="url(#paint9_linear_102_676)"/>
<path fill-rule="evenodd" clip-rule="evenodd" d="M175.33 208.584C184.462 212.463 192.308 214.444 198.604 214.696C204.9 214.949 209.305 213.475 212.102 210.855C214.881 208.25 216.526 204.084 216.476 198.041C216.425 191.979 214.655 184.346 210.961 175.385L214.1 174.106C217.888 183.297 219.812 191.372 219.868 198.012C219.923 204.653 218.111 209.858 214.428 213.309C210.746 216.759 205.316 218.341 198.467 218.066C191.619 217.791 183.352 215.659 173.997 211.685L175.33 208.584Z" fill="url(#paint10_linear_102_676)"/>
<path fill-rule="evenodd" clip-rule="evenodd" d="M169.389 117.556C168.725 101.566 166.888 86.1242 164.005 72.2065L167.327 71.5263C170.251 85.6421 172.107 101.266 172.778 117.417C173.45 133.568 172.921 149.895 171.227 165.374C169.533 180.852 166.71 195.147 162.934 207.359C159.158 219.571 154.513 229.437 149.288 236.336C144.064 243.235 138.374 247.018 132.578 247.447C126.782 247.877 121.002 244.944 115.603 238.831C110.204 232.719 105.303 223.561 101.208 211.932C97.1131 200.303 93.9123 186.455 91.8069 171.258L95.1673 170.798C97.2489 185.824 100.405 199.445 104.41 210.818C108.428 222.228 113.149 230.942 118.151 236.606C123.15 242.266 127.977 244.406 132.326 244.084C136.75 243.756 141.649 240.817 146.579 234.307C151.481 227.833 155.982 218.369 159.692 206.368C163.392 194.399 166.179 180.319 167.855 165.009C169.53 149.704 170.054 133.545 169.389 117.556Z" fill="url(#paint11_linear_102_676)"/>
<path fill-rule="evenodd" clip-rule="evenodd" d="M135.77 16.5438C132.533 15.1029 129.382 15.0094 126.245 16.1631C123.018 17.3499 119.582 19.9463 116.127 24.2737C109.184 32.9698 103.071 47.5181 98.7647 66.4367C94.4758 85.2789 92.2326 107.337 92.3348 129.917L88.9428 129.932C88.8397 107.136 91.1024 84.8202 95.4563 65.6924C99.8102 46.5646 106.068 31.4478 113.47 22.177C117.172 17.5415 121.079 14.4673 125.068 13.0002C129.058 11.5331 133.128 11.673 137.156 13.4659C145.212 17.0518 152.748 27.0954 158.85 42.3778L155.698 43.6221C149.667 28.5195 142.555 19.5643 135.77 16.5438Z" fill="url(#paint12_linear_102_676)"/>
<path fill-rule="evenodd" clip-rule="evenodd" d="M216.663 56.8337C215.71 52.0463 213.281 48.882 209.491 47.1115C205.514 45.2541 199.764 44.8062 192.263 46.2413C184.813 47.6667 175.968 50.8883 166.086 55.9355C146.322 66.0293 124.184 82.5156 103.861 102.363L101.484 99.9569C121.989 79.9326 144.399 63.2204 164.536 52.9358C174.604 47.7936 183.761 44.4337 191.622 42.9298C199.483 41.4258 206.048 41.7778 210.933 44.0592C215.817 46.3403 218.855 50.4729 219.991 56.1792C221.126 61.8849 220.359 69.1632 217.634 77.7353C212.184 94.8794 199.274 116.029 181.311 137.24C163.348 158.451 141.558 178.277 120.003 193.022C98.4477 207.767 78.5987 216.424 64.1561 217.379C56.9342 217.857 51.3113 216.393 47.474 213.146C43.6369 209.9 41.5843 204.87 41.5055 198.215C41.3479 184.907 49.094 166.01 63.2996 145.047L66.1127 146.931C51.9977 167.761 44.7524 185.935 44.8973 198.175C44.9682 204.162 46.7884 208.138 49.6723 210.578C52.6066 213.06 57.2338 214.457 63.9309 214.014C77.4491 213.12 96.6793 204.883 118.08 190.244C139.369 175.681 160.936 156.063 178.716 135.068C196.531 114.031 209.137 93.2738 214.399 76.719C217.033 68.4344 217.646 61.7712 216.663 56.8337Z" fill="url(#paint13_linear_102_676)"/>
<path fill-rule="evenodd" clip-rule="evenodd" d="M243.88 137.158C245.469 134.558 246.126 132.061 246.032 129.668C245.938 127.267 245.078 124.731 243.248 122.084C239.521 116.689 232.055 111.26 220.87 106.456L222.215 103.36C233.642 108.268 241.789 114.016 246.044 120.174C248.172 123.253 249.298 126.394 249.422 129.536C249.545 132.679 248.665 135.823 246.779 138.909C243.008 145.081 235.312 150.857 224.272 155.804C213.231 160.751 199.134 164.739 183.041 167.468L182.47 164.143C198.371 161.447 212.173 157.526 222.878 152.73C233.669 147.894 240.631 142.475 243.88 137.158Z" fill="url(#paint14_linear_102_676)"/>
<path fill-rule="evenodd" clip-rule="evenodd" d="M38.9817 152.081C49.7717 157.006 63.7298 161.057 79.8238 163.869L79.2368 167.19C62.9496 164.345 48.6942 160.224 37.5665 155.146C26.4389 150.067 18.7354 144.165 15.0483 137.895C13.2047 134.759 12.3899 131.573 12.5996 128.399C12.8092 125.224 14.0433 122.062 16.298 118.973C20.8073 112.795 29.2781 107.077 41.0594 102.259L42.3498 105.377C30.8075 110.098 23.0134 115.514 19.0433 120.953C17.0931 123.625 16.1447 126.191 15.9843 128.62C15.8246 131.037 16.4289 133.56 17.9767 136.193C21.146 141.583 28.1016 147.115 38.9817 152.081Z" fill="url(#paint15_linear_102_676)"/>
<g filter="url(#filter1_i_102_676)">
<circle cx="50.696" cy="96.627" r="13.0195" fill="white"/>
</g>
<g filter="url(#filter2_b_102_676)">
<rect x="62.5007" y="108.788" width="23.9659" height="23.9659" rx="11.9829" transform="rotate(-179.832 62.5007 108.788)" fill="url(#paint16_radial_102_676)"/>
</g>
<path fill-rule="evenodd" clip-rule="evenodd" d="M48.1564 97.0562C47.1199 97.0562 46.126 97.4679 45.3931 98.2008C44.6602 98.9337 44.2485 99.9277 44.2485 100.964V101.563C44.2485 101.721 44.1204 101.849 43.9624 101.849C43.8043 101.849 43.6762 101.721 43.6762 101.563V100.964C43.6762 99.7759 44.1482 98.6363 44.9884 97.7961C45.8286 96.9559 46.9682 96.4839 48.1564 96.4839C49.3446 96.4839 50.4841 96.9559 51.3243 97.7961C52.1645 98.6363 52.6365 99.7759 52.6365 100.964V101.563C52.6365 101.721 52.5084 101.849 52.3504 101.849C52.1924 101.849 52.0643 101.721 52.0643 101.563V100.964C52.0643 99.9277 51.6525 98.9337 50.9197 98.2008C50.1868 97.4679 49.1928 97.0562 48.1564 97.0562Z" fill="white"/>
<path fill-rule="evenodd" clip-rule="evenodd" d="M54.1479 95.2587C53.4292 95.2587 52.7401 95.5442 52.2319 96.0524C51.7238 96.5605 51.4383 97.2497 51.4383 97.9683C51.4383 98.1264 51.3102 98.2545 51.1521 98.2545C50.9941 98.2545 50.866 98.1264 50.866 97.9683C50.866 97.0979 51.2118 96.2632 51.8272 95.6477C52.4427 95.0322 53.2775 94.6865 54.1479 94.6865C54.5789 94.6865 55.0056 94.7714 55.4038 94.9363C55.802 95.1012 56.1638 95.343 56.4685 95.6477C56.7733 95.9525 57.015 96.3142 57.1799 96.7124C57.3449 97.1106 57.4297 97.5374 57.4297 97.9683V98.2679C57.4297 98.4259 57.3016 98.5541 57.1436 98.5541C56.9856 98.5541 56.8575 98.4259 56.8575 98.2679V97.9683C56.8575 97.6125 56.7874 97.2602 56.6512 96.9314C56.515 96.6027 56.3154 96.304 56.0638 96.0524C55.8122 95.8008 55.5135 95.6012 55.1848 95.465C54.856 95.3288 54.5037 95.2587 54.1479 95.2587Z" fill="white"/>
<path fill-rule="evenodd" clip-rule="evenodd" d="M52.6745 91.7019C53.0653 91.3111 53.5952 91.0916 54.1478 91.0916C54.7004 91.0916 55.2304 91.3111 55.6211 91.7019C56.0119 92.0926 56.2314 92.6226 56.2314 93.1752C56.2314 93.7278 56.0119 94.2577 55.6211 94.6485C55.2304 95.0392 54.7004 95.2587 54.1478 95.2587C53.5952 95.2587 53.0653 95.0392 52.6745 94.6485C52.2838 94.2577 52.0642 93.7278 52.0642 93.1752C52.0642 92.6226 52.2838 92.0926 52.6745 91.7019ZM54.1478 91.6639C53.747 91.6639 53.3626 91.8231 53.0792 92.1065C52.7958 92.3899 52.6365 92.7743 52.6365 93.1752C52.6365 93.576 52.7958 93.9604 53.0792 94.2438C53.3626 94.5272 53.747 94.6865 54.1478 94.6865C54.5486 94.6865 54.9331 94.5272 55.2165 94.2438C55.4999 93.9604 55.6591 93.576 55.6591 93.1752C55.6591 92.7743 55.4999 92.3899 55.2165 92.1065C54.9331 91.8231 54.5486 91.6639 54.1478 91.6639ZM46.2594 92.4765C46.7625 91.9734 47.4449 91.6907 48.1564 91.6907C48.8679 91.6907 49.5502 91.9734 50.0533 92.4765C50.5564 92.9796 50.8391 93.662 50.8391 94.3735C50.8391 95.085 50.5564 95.7673 50.0533 96.2704C49.5502 96.7735 48.8679 97.0562 48.1564 97.0562C47.4449 97.0562 46.7625 96.7735 46.2594 96.2704C45.7563 95.7673 45.4736 95.085 45.4736 94.3735C45.4736 93.662 45.7563 92.9796 46.2594 92.4765ZM48.1564 92.263C47.5966 92.263 47.0598 92.4854 46.6641 92.8812C46.2683 93.2769 46.0459 93.8137 46.0459 94.3735C46.0459 94.9332 46.2683 95.47 46.6641 95.8658C47.0598 96.2616 47.5966 96.4839 48.1564 96.4839C48.7161 96.4839 49.2529 96.2616 49.6487 95.8658C50.0445 95.47 50.2668 94.9332 50.2668 94.3735C50.2668 93.8137 50.0445 93.2769 49.6487 92.8812C49.2529 92.4854 48.7161 92.263 48.1564 92.263Z" fill="white"/>
<g filter="url(#filter3_i_102_676)">
<circle cx="160.897" cy="57.1034" r="15.3445" fill="white"/>
</g>
<g filter="url(#filter4_b_102_676)">
<rect x="174.81" y="71.4361" width="28.2455" height="28.2455" rx="14.1227" transform="rotate(-179.832 174.81 71.4361)" fill="url(#paint17_radial_102_676)"/>
</g>
<path d="M162.106 52.872C161.804 53.1742 161.197 53.1211 160.293 52.3739M160.293 52.3739C160.426 52.2643 160.565 52.1382 160.709 51.9955C162.103 50.6149 164.001 50.8851 164.89 51.9955C165.269 52.4682 166.01 53.3743 165.625 55.5922M160.293 52.3739C160.159 52.2643 160.02 52.1382 159.876 51.9955C158.482 50.6149 156.584 50.8851 155.695 51.9955C155.081 52.7632 153.509 54.6734 157.356 61.4798C157.516 61.7615 157.833 61.9392 158.174 61.9392C158.72 61.9392 159.146 61.504 159.163 60.9962C159.191 60.2086 159.343 59.3309 159.768 58.9168M163.315 60.1258L163.728 60.5393C163.817 60.6281 163.862 60.6728 163.916 60.6698C163.97 60.6668 164.01 60.6178 164.088 60.5193L165.128 59.2191M161.502 59.1913V59.4246C161.502 60.1512 161.502 60.5145 161.591 60.8469C161.703 61.2593 161.913 61.6383 162.204 61.9513C162.44 62.2064 162.752 62.4047 163.375 62.8018C163.653 62.9795 163.793 63.0684 163.942 63.1101C164.125 63.1609 164.319 63.1609 164.502 63.1101C164.65 63.0684 164.79 62.9795 165.069 62.8018C165.692 62.4047 166.004 62.2064 166.239 61.9513C166.53 61.6383 166.741 61.2593 166.852 60.8469C166.942 60.5145 166.942 60.1518 166.942 59.4246V59.1913C166.942 58.7391 166.942 58.513 166.856 58.322C166.802 58.2041 166.726 58.0975 166.633 58.0077C166.48 57.8626 166.263 57.7828 165.829 57.6238L164.938 57.2974C164.584 57.1681 164.407 57.1034 164.222 57.1034C164.037 57.1034 163.86 57.1681 163.505 57.298L162.614 57.6244C162.18 57.7828 161.963 57.862 161.81 58.0077C161.717 58.0974 161.641 58.2041 161.587 58.322C161.502 58.513 161.502 58.7391 161.502 59.1913Z" stroke="white" stroke-width="0.5" stroke-linecap="round" stroke-linejoin="round"/>
<g filter="url(#filter5_i_102_676)">
<circle cx="163.9" cy="204.251" r="12.7671" fill="white"/>
</g>
<g filter="url(#filter6_b_102_676)">
<rect x="175.475" y="216.176" width="23.5012" height="23.5012" rx="11.7506" transform="rotate(-179.832 175.475 216.176)" fill="url(#paint18_radial_102_676)"/>
</g>
<path d="M160.436 204.077L163.415 206.461L167.139 200.9M164.16 212.021C168.273 212.021 171.607 208.465 171.607 204.077C171.607 199.69 168.273 196.133 164.16 196.133C160.046 196.133 156.712 199.69 156.712 204.077C156.712 208.465 160.046 212.021 164.16 212.021Z" stroke="white"/>
<defs>
<filter id="filter0_f_102_676" x="0.667383" y="0.1" width="260.666" height="259.288" filterUnits="userSpaceOnUse" color-interpolation-filters="sRGB">
<feFlood flood-opacity="0" result="BackgroundImageFix"/>
<feBlend mode="normal" in="SourceGraphic" in2="BackgroundImageFix" result="shape"/>
<feGaussianBlur stdDeviation="5.95" result="effect1_foregroundBlur_102_676"/>
</filter>
<filter id="filter1_i_102_676" x="37.6765" y="83.6074" width="26.0391" height="30.0391" filterUnits="userSpaceOnUse" color-interpolation-filters="sRGB">
<feFlood flood-opacity="0" result="BackgroundImageFix"/>
<feBlend mode="normal" in="SourceGraphic" in2="BackgroundImageFix" result="shape"/>
<feColorMatrix in="SourceAlpha" type="matrix" values="0 0 0 0 0 0 0 0 0 0 0 0 0 0 0 0 0 0 127 0" result="hardAlpha"/>
<feOffset dy="4"/>
<feGaussianBlur stdDeviation="2"/>
<feComposite in2="hardAlpha" operator="arithmetic" k2="-1" k3="1"/>
<feColorMatrix type="matrix" values="0 0 0 0 0 0 0 0 0 0 0 0 0 0 0 0 0 0 0.25 0"/>
<feBlend mode="normal" in2="shape" result="effect1_innerShadow_102_676"/>
</filter>
<filter id="filter2_b_102_676" x="24.57" y="70.7871" width="51.9659" height="51.9659" filterUnits="userSpaceOnUse" color-interpolation-filters="sRGB">
<feFlood flood-opacity="0" result="BackgroundImageFix"/>
<feGaussianBlur in="BackgroundImageFix" stdDeviation="7"/>
<feComposite in2="SourceAlpha" operator="in" result="effect1_backgroundBlur_102_676"/>
<feBlend mode="normal" in="SourceGraphic" in2="effect1_backgroundBlur_102_676" result="shape"/>
</filter>
<filter id="filter3_i_102_676" x="145.553" y="41.7589" width="30.6889" height="34.6889" filterUnits="userSpaceOnUse" color-interpolation-filters="sRGB">
<feFlood flood-opacity="0" result="BackgroundImageFix"/>
<feBlend mode="normal" in="SourceGraphic" in2="BackgroundImageFix" result="shape"/>
<feColorMatrix in="SourceAlpha" type="matrix" values="0 0 0 0 0 0 0 0 0 0 0 0 0 0 0 0 0 0 127 0" result="hardAlpha"/>
<feOffset dy="4"/>
<feGaussianBlur stdDeviation="2"/>
<feComposite in2="hardAlpha" operator="arithmetic" k2="-1" k3="1"/>
<feColorMatrix type="matrix" values="0 0 0 0 0 0 0 0 0 0 0 0 0 0 0 0 0 0 0.25 0"/>
<feBlend mode="normal" in2="shape" result="effect1_innerShadow_102_676"/>
</filter>
<filter id="filter4_b_102_676" x="132.606" y="29.1493" width="56.2455" height="56.2455" filterUnits="userSpaceOnUse" color-interpolation-filters="sRGB">
<feFlood flood-opacity="0" result="BackgroundImageFix"/>
<feGaussianBlur in="BackgroundImageFix" stdDeviation="7"/>
<feComposite in2="SourceAlpha" operator="in" result="effect1_backgroundBlur_102_676"/>
<feBlend mode="normal" in="SourceGraphic" in2="effect1_backgroundBlur_102_676" result="shape"/>
</filter>
<filter id="filter5_i_102_676" x="151.132" y="191.484" width="25.5342" height="29.5342" filterUnits="userSpaceOnUse" color-interpolation-filters="sRGB">
<feFlood flood-opacity="0" result="BackgroundImageFix"/>
<feBlend mode="normal" in="SourceGraphic" in2="BackgroundImageFix" result="shape"/>
<feColorMatrix in="SourceAlpha" type="matrix" values="0 0 0 0 0 0 0 0 0 0 0 0 0 0 0 0 0 0 127 0" result="hardAlpha"/>
<feOffset dy="4"/>
<feGaussianBlur stdDeviation="2"/>
<feComposite in2="hardAlpha" operator="arithmetic" k2="-1" k3="1"/>
<feColorMatrix type="matrix" values="0 0 0 0 0 0 0 0 0 0 0 0 0 0 0 0 0 0 0.25 0"/>
<feBlend mode="normal" in2="shape" result="effect1_innerShadow_102_676"/>
</filter>
<filter id="filter6_b_102_676" x="138.009" y="178.64" width="51.5012" height="51.5012" filterUnits="userSpaceOnUse" color-interpolation-filters="sRGB">
<feFlood flood-opacity="0" result="BackgroundImageFix"/>
<feGaussianBlur in="BackgroundImageFix" stdDeviation="7"/>
<feComposite in2="SourceAlpha" operator="in" result="effect1_backgroundBlur_102_676"/>
<feBlend mode="normal" in="SourceGraphic" in2="effect1_backgroundBlur_102_676" result="shape"/>
</filter>
<radialGradient id="paint0_radial_102_676" cx="0" cy="0" r="1" gradientUnits="userSpaceOnUse" gradientTransform="translate(128.175 133.258) rotate(85.8151) scale(116.129)">
<stop stop-color="white" stop-opacity="0.2"/>
<stop offset="0.715" stop-color="white" stop-opacity="0"/>
</radialGradient>
<linearGradient id="paint1_linear_102_676" x1="129.994" y1="105.941" x2="129.994" y2="143.875" gradientUnits="userSpaceOnUse">
<stop stop-color="white"/>
<stop offset="1" stop-color="#0E1724" stop-opacity="0"/>
</linearGradient>
<linearGradient id="paint2_linear_102_676" x1="12.5674" y1="31.9683" x2="264.581" y2="186.895" gradientUnits="userSpaceOnUse">
<stop stop-color="#109C9F"/>
<stop offset="0.955547" stop-color="white"/>
</linearGradient>
<linearGradient id="paint3_linear_102_676" x1="12.5674" y1="31.9683" x2="264.581" y2="186.895" gradientUnits="userSpaceOnUse">
<stop stop-color="#109C9F"/>
<stop offset="0.955547" stop-color="white"/>
</linearGradient>
<linearGradient id="paint4_linear_102_676" x1="12.5674" y1="31.9683" x2="264.581" y2="186.895" gradientUnits="userSpaceOnUse">
<stop stop-color="#109C9F"/>
<stop offset="0.955547" stop-color="white"/>
</linearGradient>
<linearGradient id="paint5_linear_102_676" x1="12.5674" y1="31.9683" x2="264.581" y2="186.895" gradientUnits="userSpaceOnUse">
<stop stop-color="#109C9F"/>
<stop offset="0.955547" stop-color="white"/>
</linearGradient>
<linearGradient id="paint6_linear_102_676" x1="12.5674" y1="31.9683" x2="264.581" y2="186.895" gradientUnits="userSpaceOnUse">
<stop stop-color="#109C9F"/>
<stop offset="0.955547" stop-color="white"/>
</linearGradient>
<linearGradient id="paint7_linear_102_676" x1="12.5674" y1="31.9683" x2="264.581" y2="186.895" gradientUnits="userSpaceOnUse">
<stop stop-color="#109C9F"/>
<stop offset="0.955547" stop-color="white"/>
</linearGradient>
<linearGradient id="paint8_linear_102_676" x1="12.5674" y1="31.9683" x2="264.581" y2="186.895" gradientUnits="userSpaceOnUse">
<stop stop-color="#109C9F"/>
<stop offset="0.955547" stop-color="white"/>
</linearGradient>
<linearGradient id="paint9_linear_102_676" x1="12.5674" y1="31.9683" x2="264.581" y2="186.895" gradientUnits="userSpaceOnUse">
<stop stop-color="#109C9F"/>
<stop offset="0.955547" stop-color="white"/>
</linearGradient>
<linearGradient id="paint10_linear_102_676" x1="12.5674" y1="31.9683" x2="264.581" y2="186.895" gradientUnits="userSpaceOnUse">
<stop stop-color="#109C9F"/>
<stop offset="0.955547" stop-color="white"/>
</linearGradient>
<linearGradient id="paint11_linear_102_676" x1="12.5674" y1="31.9683" x2="264.581" y2="186.895" gradientUnits="userSpaceOnUse">
<stop stop-color="#109C9F"/>
<stop offset="0.955547" stop-color="white"/>
</linearGradient>
<linearGradient id="paint12_linear_102_676" x1="12.5674" y1="31.9683" x2="264.581" y2="186.895" gradientUnits="userSpaceOnUse">
<stop stop-color="#109C9F"/>
<stop offset="0.955547" stop-color="white"/>
</linearGradient>
<linearGradient id="paint13_linear_102_676" x1="12.5674" y1="31.9683" x2="264.581" y2="186.895" gradientUnits="userSpaceOnUse">
<stop stop-color="#109C9F"/>
<stop offset="0.955547" stop-color="white"/>
</linearGradient>
<linearGradient id="paint14_linear_102_676" x1="12.5674" y1="31.9683" x2="264.581" y2="186.895" gradientUnits="userSpaceOnUse">
<stop stop-color="#109C9F"/>
<stop offset="0.955547" stop-color="white"/>
</linearGradient>
<linearGradient id="paint15_linear_102_676" x1="12.5674" y1="31.9683" x2="264.581" y2="186.895" gradientUnits="userSpaceOnUse">
<stop stop-color="#109C9F"/>
<stop offset="0.955547" stop-color="white"/>
</linearGradient>
<radialGradient id="paint16_radial_102_676" cx="0" cy="0" r="1" gradientUnits="userSpaceOnUse" gradientTransform="translate(74.4836 120.771) rotate(90) scale(11.9829)">
<stop offset="1" stop-color="#0E1724"/>
</radialGradient>
<radialGradient id="paint17_radial_102_676" cx="0" cy="0" r="1" gradientUnits="userSpaceOnUse" gradientTransform="translate(188.932 85.5589) rotate(90) scale(14.1227)">
<stop offset="1" stop-color="#0E1724"/>
</radialGradient>
<radialGradient id="paint18_radial_102_676" cx="0" cy="0" r="1" gradientUnits="userSpaceOnUse" gradientTransform="translate(187.226 227.927) rotate(90) scale(11.7506)">
<stop offset="1" stop-color="#0E1724"/>
</radialGradient>
</defs>
</svg>
