<svg width="41" height="20" viewBox="0 0 41 20" fill="none" xmlns="http://www.w3.org/2000/svg">
<g id="Group">
<path id="Vector" d="M0.708494 19.4593H4.00467V5.42751H0.708494V19.4593ZM2.34997 3.58738C3.38251 3.58738 4.19 2.7931 4.19 1.80031C4.19 0.794239 3.38251 0 2.34997 0C1.33068 0 0.523193 0.794273 0.523193 1.80031C0.523193 2.79314 1.33068 3.58738 2.34997 3.58738ZM14.9791 0.0396154C9.40619 0.0396154 5.91129 3.83883 5.91129 9.91499C5.91129 15.9912 9.40585 19.7772 14.9791 19.7772C20.5388 19.7772 24.0337 15.9912 24.0337 9.91499C24.0337 3.83883 20.5392 0.0396154 14.9791 0.0396154ZM14.9791 2.9519C18.3811 2.9519 20.552 5.65239 20.552 9.91492C20.552 14.1642 18.3811 16.8647 14.9791 16.8647C11.5639 16.8647 9.40619 14.1642 9.40619 9.91492C9.40619 5.65246 11.5639 2.9519 14.9791 2.9519ZM25.4241 14.0849C25.5698 17.6062 28.4556 19.7771 32.8504 19.7771C37.4704 19.7771 40.3828 17.5002 40.3828 13.8731C40.3828 11.027 38.7413 9.42524 34.8627 8.53838L32.6653 8.03535C30.3222 7.47938 29.3559 6.73807 29.3559 5.46726C29.3559 3.87875 30.812 2.81974 32.9697 2.81974C35.1539 2.81974 36.6496 3.892 36.8086 5.67906H40.065C39.9856 2.3167 37.2057 0.039717 32.9963 0.039717C28.8395 0.039717 25.8875 2.32982 25.8875 5.71871C25.8875 8.44567 27.5555 10.1401 31.0765 10.9477L33.5519 11.5301C35.9612 12.0994 36.9408 12.8936 36.9408 14.2703C36.9408 15.8588 35.339 16.9973 33.0358 16.9973C30.706 16.9973 28.9455 15.8456 28.7337 14.085H25.4243L25.4241 14.0849Z" fill="black"/>
</g>
</svg>
