<svg width="54" height="52" viewBox="0 0 54 52" fill="none" xmlns="http://www.w3.org/2000/svg">
<g id="Group 1000004452" opacity="0.6" filter="url(#filter0_d_99_556)">
<path id="Vector" d="M26.8926 47.5687C20.616 47.5687 14.3407 47.5637 8.06409 47.5712C5.94067 47.5737 4.37808 46.6769 3.43003 44.762C3.16398 44.2249 3.03657 43.6454 3.0041 43.0483C2.97162 42.4463 3.12526 42.2826 3.71607 42.2764C4.32437 42.2701 4.93391 42.2589 5.54221 42.2814C5.87072 42.2939 5.9694 42.1827 5.9669 41.8567C5.95316 40.0768 5.96065 38.2968 5.96065 36.5169C5.96065 30.6937 5.9594 24.8705 5.96065 19.0461C5.96065 17.4548 6.76131 16.3231 8.14153 15.9347C8.50626 15.8322 8.87974 15.816 9.25446 15.816C12.0174 15.816 14.7816 15.8098 17.5446 15.8235C17.9043 15.8248 18.0392 15.7398 18.0205 15.3588C17.9892 14.7206 18.003 14.0785 18.0155 13.439C18.0205 13.178 17.933 13.0768 17.6645 13.0868C17.2435 13.1018 16.8213 13.0868 16.4004 13.0793C16.0182 13.0743 15.8271 12.8719 15.8246 12.4935C15.8221 12.0413 15.8121 11.5879 15.8296 11.1357C15.8383 10.8934 15.7659 10.8072 15.5148 10.8147C14.8903 10.831 14.2657 10.8322 13.6412 10.8147C13.3889 10.8072 13.2615 10.8909 13.1303 11.1083C12.6744 11.8677 11.7376 12.0825 10.9657 11.6354C10.25 11.2194 10.0002 10.2989 10.4011 9.55316C10.7896 8.83244 11.7564 8.53891 12.5158 8.91238C12.7156 9.01106 12.9305 9.12597 13.0104 9.32583C13.2015 9.80297 13.5663 9.81047 13.9909 9.79673C14.7079 9.77299 15.4274 9.78673 16.1456 9.79173C16.6814 9.79548 16.8476 9.95911 16.8538 10.4837C16.8588 10.8897 16.8726 11.2969 16.8488 11.7016C16.8313 11.9938 16.9388 12.1025 17.2198 12.0625C17.266 12.0563 17.3135 12.0625 17.3597 12.0625C17.7852 12.0642 18.0021 11.8494 18.0105 11.418C18.0304 10.3588 18.6125 9.80297 19.6917 9.78424C19.8891 9.78049 20.1988 9.92788 20.27 9.66557C20.3475 9.37704 20.3063 9.04603 20.2675 8.73876C20.25 8.59762 20.0602 8.63883 19.9403 8.63759C19.5343 8.63259 19.1284 8.64133 18.7224 8.63384C18.1853 8.62385 18.018 8.46272 18.013 7.92936C18.0042 7.10248 18.003 6.27434 18.0142 5.44745C18.018 5.19139 17.9555 5.03651 17.7119 4.89162C17.0624 4.50815 16.8276 3.79243 17.0549 3.06297C17.2648 2.40471 17.8331 1.99751 18.5438 2.00001C19.2658 2.00251 19.8491 2.44093 20.034 3.12168C20.2301 3.84364 19.984 4.54312 19.3482 4.90036C19.0997 5.04026 19.0335 5.19514 19.0397 5.45245C19.0534 6.06075 19.0509 6.6703 19.0409 7.27859C19.0372 7.51967 19.1234 7.61584 19.3682 7.60835C19.8054 7.59586 20.2426 7.60835 20.6797 7.60086C21.1094 7.59336 21.313 7.81695 21.3255 8.22664C21.3392 8.63259 21.348 9.03854 21.333 9.44324C21.323 9.69805 21.388 9.79922 21.6665 9.79673C23.1179 9.78424 24.5706 9.78548 26.022 9.79673C26.2856 9.79922 26.3755 9.71803 26.3705 9.45198C26.358 8.57763 26.3593 7.70328 26.3705 6.82893C26.373 6.59535 26.2831 6.47544 26.0857 6.35428C25.3513 5.90212 25.1202 5.03776 25.4999 4.27457C25.8534 3.56385 26.6928 3.24659 27.456 3.53512C28.1854 3.80992 28.5926 4.66179 28.3765 5.46619C28.2703 5.86215 28.0368 6.17316 27.6733 6.35928C27.4597 6.46795 27.391 6.60659 27.3935 6.83642C27.4035 7.69454 27.411 8.5539 27.391 9.41201C27.3835 9.73053 27.5009 9.80047 27.7957 9.79798C29.2159 9.78548 30.6373 9.78548 32.0575 9.79798C32.3361 9.80047 32.4535 9.73802 32.4323 9.43699C32.406 9.07976 32.4148 8.71878 32.4285 8.36029C32.451 7.75449 32.5896 7.6146 33.1842 7.59961C33.5739 7.58961 33.9649 7.58836 34.3546 7.6096C34.6494 7.62584 34.7318 7.50343 34.7243 7.22613C34.7093 6.61784 34.7106 6.00829 34.7243 5.39999C34.7293 5.17016 34.6556 5.04275 34.4508 4.92034C33.785 4.52189 33.5327 3.84739 33.7375 3.11044C33.9262 2.43469 34.5157 1.99751 35.2377 2.00001C35.9659 2.00251 36.528 2.42844 36.7203 3.12418C36.9252 3.86613 36.6791 4.52189 35.9984 4.92409C35.7823 5.0515 35.7448 5.19764 35.7473 5.41373C35.7548 6.24061 35.7548 7.06875 35.7473 7.89564C35.7436 8.46396 35.5824 8.6251 35.0253 8.63509C34.6194 8.64258 34.2134 8.64758 33.8075 8.63259C33.5477 8.62385 33.4265 8.71128 33.4565 8.98108C33.469 9.0885 33.4727 9.20217 33.4565 9.30834C33.394 9.6968 33.5489 9.80672 33.9386 9.80047C35.2277 9.78174 35.7286 10.3063 35.7548 11.6179C35.7573 11.7665 35.6461 12.0151 35.8984 12.0426C36.2157 12.0775 36.5492 12.1262 36.859 11.9963C36.9027 11.9776 36.9027 11.8265 36.9027 11.7365C36.9077 11.3156 36.9002 10.8934 36.9064 10.4725C36.9127 9.9691 37.0813 9.79673 37.5809 9.79298C38.4241 9.78673 39.2672 9.78299 40.1103 9.79673C40.3526 9.80047 40.4938 9.73927 40.6249 9.51194C40.9997 8.86492 41.6866 8.61385 42.3949 8.81371C43.0968 9.01231 43.539 9.57439 43.549 10.2839C43.5603 11.0071 43.1093 11.5966 42.3911 11.799C41.6841 11.9988 41.0022 11.744 40.6199 11.0983C40.5013 10.8972 40.3876 10.8097 40.1515 10.816C39.527 10.8322 38.9025 10.8322 38.2779 10.816C38.0206 10.8097 37.9144 10.8734 37.9294 11.1507C37.9519 11.5717 37.9294 11.9938 37.9382 12.4148C37.9457 12.8557 37.7496 13.088 37.2962 13.0855C36.9064 13.0843 36.5155 13.1043 36.1258 13.088C35.8447 13.0755 35.7373 13.1667 35.7448 13.4578C35.761 14.0973 35.7685 14.7381 35.7423 15.3776C35.7273 15.7273 35.8372 15.8285 36.187 15.8248C37.7945 15.8073 39.4033 15.8173 41.0109 15.8173C42.1975 15.8173 43.3841 15.8135 44.5708 15.8173C46.5805 15.8248 47.8009 17.0463 47.8009 19.0648C47.8034 26.6055 47.8059 34.1462 47.7921 41.6868C47.7921 42.1527 47.8945 42.3226 48.3817 42.2839C48.955 42.2377 49.5358 42.2664 50.1141 42.2764C50.6 42.2839 50.7574 42.4525 50.7599 42.9271C50.7737 45.2604 48.6702 47.4825 46.327 47.5437C44.5021 47.5912 42.6734 47.5649 40.8473 47.5662C36.1945 47.5687 31.5417 47.5662 26.8901 47.5662L26.8926 47.5687ZM26.8701 39.9568C32.5372 39.9568 38.2055 39.9581 43.8725 39.9556C44.572 39.9556 44.4796 40.0505 44.4808 39.3261C44.4858 37.375 44.4821 35.4227 44.4821 33.4717C44.4821 28.8501 44.4783 24.2285 44.4883 19.6082C44.4883 19.2797 44.4359 19.1298 44.0611 19.1523C43.4853 19.186 42.9057 19.1635 42.3287 19.1598C42.155 19.1598 42.0289 19.1723 41.9127 19.3609C41.2132 20.4975 39.8393 20.5 39.1435 19.3721C39.0499 19.2197 38.9612 19.1548 38.7813 19.156C37.8757 19.1648 36.9701 19.1673 36.0646 19.156C35.816 19.1523 35.7448 19.241 35.7461 19.4795C35.7535 20.9472 35.7548 22.4149 35.7461 23.8825C35.7436 24.1661 35.8697 24.2185 36.1158 24.2098C36.5205 24.196 36.9277 24.2098 37.3336 24.2135C37.7383 24.2173 37.9332 24.4309 37.9344 24.8281C37.9369 25.2802 37.9457 25.7337 37.9319 26.1858C37.9257 26.4119 38.0069 26.4818 38.228 26.4793C38.8837 26.4681 39.5395 26.4644 40.1953 26.4818C40.4251 26.4881 40.5125 26.3757 40.6187 26.2008C41.0109 25.555 41.6791 25.3015 42.3886 25.5013C43.1093 25.7037 43.559 26.2882 43.5503 27.0115C43.5415 27.7184 43.0943 28.2918 42.3999 28.4866C41.6941 28.6852 41.0022 28.4304 40.6262 27.7884C40.495 27.5648 40.3576 27.4961 40.1103 27.4998C39.2522 27.5136 38.3928 27.5036 37.5347 27.5048C37.1088 27.5048 36.9039 27.2962 36.9064 26.8716C36.9089 26.4344 36.9114 25.9972 36.9039 25.56C36.9014 25.4489 36.9701 25.269 36.7878 25.2553C36.478 25.2315 36.1383 25.1753 35.861 25.2752C35.6224 25.3602 35.7648 25.6937 35.756 25.9148C35.7186 26.8828 35.149 27.4811 34.2209 27.5048C33.4278 27.5248 33.4378 27.5248 33.4553 28.3217C33.4602 28.5803 33.5327 28.689 33.8012 28.679C34.2072 28.664 34.6131 28.6715 35.0191 28.6765C35.5912 28.684 35.7448 28.8301 35.7498 29.3972C35.7573 30.1616 35.7685 30.9273 35.7448 31.6917C35.7336 32.0515 35.8197 32.2688 36.1508 32.4774C36.8964 32.947 37.0001 34.0337 36.4268 34.752C35.8897 35.424 34.7993 35.4952 34.1685 34.8981C33.5252 34.2898 33.4565 33.0844 34.1672 32.6148C34.7293 32.2438 34.7405 31.8154 34.7243 31.2858C34.7131 30.9111 34.6968 30.5338 34.7293 30.1629C34.763 29.7757 34.6007 29.6757 34.2459 29.6995C33.8724 29.7244 33.4977 29.7032 33.123 29.7082C32.6533 29.7132 32.4398 29.4659 32.4348 29.0162C32.4298 28.6265 32.416 28.2355 32.4348 27.8458C32.4472 27.5785 32.3523 27.4986 32.0875 27.5011C30.6511 27.5123 29.2146 27.5123 27.7782 27.5011C27.4984 27.4986 27.391 27.5773 27.396 27.8683C27.4097 28.7427 27.406 29.617 27.3972 30.4914C27.3947 30.7037 27.4709 30.8199 27.6558 30.9323C28.3403 31.3507 28.5914 32.0415 28.3628 32.7834C28.1617 33.4342 27.5696 33.8689 26.8851 33.8689C26.1994 33.8689 25.6073 33.4354 25.4062 32.7859C25.1764 32.0427 25.4275 31.3507 26.1107 30.9335C26.2943 30.8211 26.3743 30.7087 26.373 30.4939C26.3643 29.6195 26.3605 28.7452 26.373 27.8708C26.378 27.5835 26.2768 27.4986 25.9945 27.5011C24.5581 27.5136 23.1217 27.5123 21.6852 27.5011C21.4242 27.4986 21.3218 27.5723 21.3355 27.8433C21.3542 28.2168 21.353 28.5928 21.3355 28.9675C21.3093 29.5458 21.1719 29.6845 20.6035 29.7094C20.2451 29.7257 19.8828 29.7344 19.5268 29.7007C19.1234 29.6632 19.0172 29.8269 19.0384 30.2066C19.0684 30.7512 19.0559 31.2995 19.0422 31.8454C19.036 32.1027 19.1009 32.2576 19.3482 32.3987C19.979 32.7559 20.2263 33.4617 20.0315 34.1799C19.8466 34.8619 19.262 35.3015 18.5401 35.3015C17.8343 35.3015 17.2635 34.8894 17.0587 34.2286C16.8313 33.4966 17.0662 32.7822 17.7182 32.4025C17.9655 32.2576 18.0205 32.0989 18.018 31.8454C18.008 31.0335 18.0092 30.2216 18.0155 29.4097C18.0205 28.8339 18.1691 28.684 18.7337 28.6765C19.1546 28.6702 19.5768 28.6765 19.9977 28.6727C20.1189 28.6727 20.2825 28.6915 20.29 28.5203C20.3038 28.2106 20.3525 27.8733 20.2525 27.596C20.1789 27.3912 19.8566 27.5136 19.648 27.5098C18.6088 27.4898 18.0317 26.9228 18.0117 25.881C18.0034 25.4514 17.7873 25.2369 17.3634 25.2378C17.3172 25.2378 17.2685 25.244 17.2235 25.2378C16.945 25.1978 16.8313 25.2965 16.8513 25.595C16.8763 25.9997 16.8613 26.4069 16.8563 26.8128C16.8501 27.3412 16.6877 27.5011 16.1493 27.5048C15.3225 27.5098 14.4943 27.5123 13.6674 27.5023C13.4326 27.4998 13.2802 27.5436 13.1453 27.7771C12.7594 28.4416 12.0524 28.694 11.3342 28.4766C10.6409 28.2668 10.2088 27.6884 10.2137 26.979C10.2187 26.2708 10.6572 25.7049 11.3566 25.5013C12.0786 25.2927 12.7656 25.5538 13.1578 26.2245C13.2702 26.4169 13.3839 26.4831 13.595 26.4793C14.2345 26.4681 14.8753 26.4656 15.5148 26.4793C15.7621 26.4856 15.8408 26.4032 15.8321 26.1583C15.8158 25.7062 15.8246 25.2528 15.8296 24.8006C15.8333 24.4221 16.0282 24.221 16.4079 24.2148C16.8138 24.2073 17.221 24.1898 17.6245 24.2098C17.9243 24.2248 18.0367 24.1398 18.0342 23.8213C18.0192 22.3849 18.0205 20.9485 18.0342 19.512C18.0367 19.2122 17.9218 19.1498 17.6507 19.1548C16.8076 19.1698 15.9645 19.1685 15.1214 19.1548C14.8628 19.151 14.7192 19.221 14.5768 19.4608C14.0509 20.3514 12.7007 20.5138 12.1111 19.6831C11.7389 19.1585 11.3342 19.1398 10.8258 19.1573C10.4823 19.1685 10.1363 19.1885 9.79656 19.1523C9.37937 19.1073 9.28069 19.2522 9.28069 19.6644C9.29443 26.2533 9.29443 32.8409 9.28069 39.4297C9.28069 39.8619 9.39685 39.9668 9.82154 39.9656C15.5048 39.9506 21.1869 39.9556 26.8701 39.9556V39.9568ZM26.8951 10.8147C24.5231 10.8147 22.1511 10.8147 19.7791 10.8147C19.1521 10.8147 19.0447 10.9196 19.0447 11.5492C19.0434 16.2782 19.0434 21.0059 19.0447 25.7349C19.0447 26.3657 19.1521 26.4731 19.7754 26.4731C24.5194 26.4731 29.2634 26.4731 34.0086 26.4731C34.6031 26.4731 34.7193 26.3594 34.7193 25.7624C34.7206 21.0184 34.7206 16.2744 34.7193 11.5292C34.7193 10.9284 34.6056 10.816 34.0123 10.8147C31.6403 10.8135 29.2684 10.8147 26.8964 10.8147H26.8951ZM26.8951 42.2751C33.3278 42.2751 39.7593 42.2689 46.1908 42.2864C46.6679 42.2876 46.7841 42.1665 46.7829 41.6931C46.7679 34.1686 46.7729 26.643 46.7716 19.1186C46.7716 17.5909 46.0297 16.849 44.5033 16.849C41.8802 16.8477 39.2572 16.8403 36.6354 16.8527C35.6137 16.8577 35.7698 16.6317 35.7448 17.7808C35.7398 18.0356 35.8048 18.1393 36.0821 18.1343C36.9714 18.1181 37.862 18.1218 38.7513 18.1343C38.9524 18.1368 39.0449 18.0618 39.1473 17.8945C39.8093 16.814 41.222 16.7978 41.874 17.867C41.9989 18.0718 42.1226 18.1368 42.3487 18.133C43.0981 18.1206 43.8475 18.1268 44.597 18.1293C45.2677 18.1318 45.5013 18.3566 45.5013 19.0274C45.5038 26.2083 45.5001 33.3905 45.5113 40.5714C45.5113 40.9449 45.3814 41.0048 45.0516 40.9998C43.7713 40.9836 42.491 40.9936 41.2107 40.9936C30.3913 40.9936 19.5731 40.9923 8.75358 40.9998C8.40009 40.9998 8.23771 40.9636 8.23771 40.5352C8.2527 33.3692 8.24771 26.2033 8.24895 19.0374C8.24895 18.3591 8.47629 18.1318 9.14079 18.1293C9.90523 18.1255 10.6709 18.123 11.4353 18.1318C11.6414 18.1343 11.7564 18.0768 11.8725 17.8845C12.5208 16.809 13.946 16.8053 14.598 17.8795C14.7266 18.0918 14.8615 18.1368 15.0801 18.133C15.8133 18.123 16.5478 18.1293 17.281 18.1293C18.0117 18.1293 17.9867 18.1293 18.0192 17.3811C18.0392 16.9452 17.8993 16.8353 17.4721 16.839C14.7242 16.8577 11.9762 16.8477 9.22948 16.849C7.73933 16.849 6.98864 17.6034 6.98739 19.0986C6.98614 26.6392 6.99114 34.1799 6.97615 41.7205C6.97615 42.1752 7.10106 42.2864 7.54822 42.2851C13.9959 42.2701 20.4437 42.2751 26.8914 42.2751H26.8951ZM26.8689 46.5382C29.6793 46.5382 32.4897 46.5382 35.2989 46.5382C38.8113 46.5382 42.3249 46.5445 45.8373 46.5357C47.6585 46.5307 49.0974 45.489 49.5883 43.8577C49.7519 43.3144 49.7469 43.3081 49.1973 43.3081C44.9355 43.3081 40.6736 43.3081 36.4106 43.3081C36.3169 43.3081 36.2232 43.3119 36.1295 43.3081C35.9921 43.3031 35.9047 43.3468 35.8435 43.4867C35.1765 44.9856 33.9586 45.469 32.3948 45.4553C28.71 45.4228 25.0265 45.4453 21.3417 45.444C21.0607 45.444 20.7784 45.439 20.4999 45.4103C19.3907 45.2916 18.5576 44.7333 18.0717 43.7378C17.8943 43.3743 17.6882 43.3006 17.326 43.3019C13.1578 43.3131 8.98966 43.3094 4.82025 43.3094C3.98712 43.3094 3.98462 43.3131 4.26941 44.0875C4.83899 45.6401 6.20797 46.5382 8.04036 46.5395C14.317 46.5432 20.5923 46.5407 26.8689 46.5407V46.5382ZM18.9985 43.3281C19.5168 44.19 20.2613 44.4173 21.1369 44.4148C24.9603 44.4085 28.785 44.4135 32.6084 44.4098C32.8569 44.4098 33.1118 44.4035 33.3541 44.3548C33.9561 44.2349 34.4333 43.9289 34.7505 43.3268H18.9985V43.3281ZM27.4347 4.99529C27.3898 4.67053 27.2024 4.48941 26.8801 4.47567C26.5754 4.46318 26.3068 4.75172 26.343 5.05025C26.383 5.37751 26.5916 5.55737 26.9139 5.53988C27.2336 5.5224 27.4147 5.3238 27.436 4.99529H27.4347ZM26.8876 31.7542C26.5741 31.7742 26.3505 31.9291 26.3393 32.2601C26.3268 32.6098 26.5391 32.8171 26.8851 32.8184C27.2111 32.8196 27.4135 32.6185 27.4185 32.2938C27.4235 31.9653 27.2211 31.7892 26.8876 31.7542ZM18.5226 4.0997C18.8811 4.08721 19.0647 3.88611 19.0672 3.5701C19.0709 3.25658 18.8998 3.03924 18.5526 3.03549C18.1891 3.03175 17.9967 3.24159 18.0017 3.58384C18.0055 3.90735 18.2041 4.08971 18.5226 4.0997ZM35.2239 4.09221C35.5574 4.08097 35.7598 3.89985 35.7623 3.57634C35.7648 3.2316 35.5612 3.02925 35.2015 3.03674C34.8605 3.04424 34.6781 3.25158 34.6843 3.5701C34.6906 3.88986 34.8867 4.07847 35.2239 4.09096V4.09221ZM18.5151 33.2006C18.2278 33.2168 18.008 33.3717 17.9942 33.7002C17.9805 34.0487 18.1803 34.2486 18.5363 34.2523C18.8773 34.2573 19.0634 34.0525 19.0684 33.7352C19.0734 33.4167 18.8861 33.2218 18.5138 33.2006H18.5151ZM11.7863 27.5198C12.1298 27.5111 12.3272 27.3262 12.3347 27.0052C12.3422 26.6842 12.1561 26.4781 11.8213 26.4669C11.4653 26.4556 11.2555 26.6542 11.2567 27.0002C11.2592 27.3237 11.4628 27.5036 11.7863 27.5186V27.5198ZM41.9627 27.5198C42.2924 27.5086 42.4998 27.3325 42.5073 27.009C42.5148 26.663 42.3087 26.4606 41.9514 26.4644C41.6129 26.4681 41.4281 26.6755 41.4293 26.9952C41.4306 27.3175 41.6242 27.5048 41.9639 27.5198H41.9627ZM11.7838 9.768C11.4716 9.77924 11.2755 9.96535 11.2667 10.2851C11.2567 10.6011 11.4266 10.8172 11.7701 10.8322C12.1348 10.8484 12.3334 10.6399 12.3347 10.2989C12.3347 9.98284 12.1473 9.78299 11.7851 9.76675L11.7838 9.768ZM42.0039 10.8372C42.3099 10.8197 42.4985 10.6199 42.4985 10.3051C42.4985 9.96285 42.2962 9.75551 41.934 9.77299C41.5942 9.78923 41.4218 10.0066 41.4306 10.3226C41.4406 10.6411 41.6317 10.8322 42.0039 10.8372ZM13.7836 18.6577C13.7624 18.3254 13.5887 18.1318 13.254 18.128C12.9205 18.1243 12.7219 18.3042 12.7169 18.6427C12.7119 18.9812 12.898 19.1673 13.2365 19.1698C13.5713 19.1723 13.7549 18.9949 13.7836 18.6564V18.6577ZM40.5063 19.176C40.8448 19.1635 41.0496 19.0024 41.0546 18.6689C41.0609 18.3167 40.861 18.1205 40.5088 18.128C40.1815 18.1355 39.9929 18.3229 39.9941 18.6552C39.9941 18.9924 40.1928 19.1523 40.5063 19.1748V19.176ZM35.2689 34.2636C35.5837 34.2398 35.766 34.0375 35.7585 33.7227C35.751 33.383 35.5474 33.1806 35.1865 33.2019C34.843 33.2218 34.6856 33.4454 34.7018 33.7589C34.7181 34.0762 34.9092 34.2636 35.2702 34.2636H35.2689Z" fill="white"/>
<path id="Vector_2" d="M23.7287 13.6188C24.1472 13.6063 24.3732 13.921 24.6618 14.1221C24.7842 14.2083 24.8841 14.3645 25.0677 14.2795C25.2314 14.2033 25.1801 14.0397 25.2001 13.9085C25.2301 13.7087 25.2426 13.5038 25.2838 13.3065C25.3625 12.9268 25.6023 12.6882 25.9895 12.672C26.5504 12.6482 27.1137 12.642 27.6733 12.6695C28.1642 12.6932 28.3815 12.9917 28.464 13.6025C28.4952 13.8348 28.369 14.1634 28.6488 14.2733C28.9186 14.3794 29.076 14.0734 29.2621 13.9273C29.8392 13.4789 30.1702 13.4839 30.6886 13.9922C30.9671 14.2658 31.2431 14.5406 31.5154 14.8191C31.9776 15.2913 31.9838 15.6435 31.5866 16.1769C31.4368 16.3792 31.0983 16.5441 31.2182 16.8251C31.3368 17.1037 31.6891 16.9788 31.9401 17.0125C32.5834 17.0987 32.8445 17.3735 32.8557 18.0267C32.8619 18.3852 32.8582 18.7437 32.8557 19.1034C32.8532 19.9053 32.6534 20.1239 31.8802 20.2538C31.6503 20.2926 31.3181 20.1539 31.2107 20.4399C31.1095 20.711 31.4205 20.8634 31.5642 21.0507C32.0051 21.6241 31.9976 21.9613 31.4892 22.4747C31.1932 22.7745 30.8997 23.0767 30.5936 23.3665C30.2027 23.7362 29.8467 23.75 29.422 23.4352C28.8749 23.0289 28.5564 23.155 28.4665 23.8137C28.3965 24.3283 28.118 24.5969 27.6009 24.6131C27.1337 24.6281 26.6653 24.6256 26.1969 24.6156C25.6111 24.6031 25.36 24.3545 25.2751 23.7787C25.2351 23.5139 25.345 23.1417 25.0827 23.0105C24.7854 22.8631 24.6168 23.2391 24.4045 23.3928C23.8774 23.7737 23.5539 23.7725 23.088 23.3178C22.7869 23.0243 22.4871 22.727 22.1949 22.4247C21.7752 21.99 21.7602 21.6191 22.1287 21.1419C22.5167 20.6415 22.3993 20.3442 21.7764 20.2501C21.1194 20.1502 20.8821 19.8841 20.8758 19.2283C20.8708 18.8074 20.8696 18.3865 20.8758 17.9643C20.8846 17.3835 21.1294 17.1087 21.7015 17.0275C21.7939 17.0137 21.8888 17.02 21.9813 17.0037C22.1699 16.97 22.4247 17.055 22.5109 16.8076C22.5858 16.5928 22.3622 16.4841 22.2523 16.348C21.6503 15.601 21.6565 15.3487 22.3235 14.6817C22.5883 14.4169 22.8544 14.1534 23.1179 13.8873C23.2903 13.7124 23.4889 13.605 23.7287 13.6213V13.6188ZM23.755 14.7179C23.5089 14.9827 23.2453 15.2101 23.0567 15.4899C22.9256 15.6835 23.1954 15.7959 23.2866 15.942C23.4539 16.2106 23.7662 16.3992 23.6937 16.7914C23.5351 17.6595 23.2328 17.9406 22.3472 18.028C22.2136 18.0417 22.005 17.9805 21.9638 18.1242C21.8701 18.4539 21.8788 18.8124 21.9525 19.1409C22 19.352 22.2798 19.2296 22.4497 19.2808C22.7495 19.3707 23.1129 19.2558 23.3303 19.6056C23.8274 20.4087 23.8162 20.6935 23.2341 21.4342C23.1529 21.5379 22.9555 21.6503 23.0517 21.774C23.2591 22.0425 23.4914 22.3173 23.7749 22.4909C23.9398 22.5921 24.096 22.3023 24.2571 22.1924C24.4594 22.0525 24.6156 21.8289 24.8866 21.8139C25.4949 21.7815 26.1857 22.391 26.2356 22.9931C26.2431 23.0867 26.2606 23.1792 26.2643 23.2716C26.2743 23.5127 26.3705 23.6476 26.6378 23.6163C26.7765 23.6001 26.9201 23.5976 27.0588 23.6163C27.3873 23.6626 27.5371 23.5039 27.5072 23.2016C27.431 22.446 27.8619 22.1199 28.5027 21.9089C28.8162 21.8052 29.0698 21.7889 29.3196 22.0238C29.467 22.1624 29.6293 22.2848 29.7892 22.4097C29.8579 22.4634 29.9366 22.5759 30.0266 22.4947C30.2689 22.2748 30.5437 22.0687 30.7085 21.7964C30.8409 21.5791 30.5337 21.438 30.41 21.2806C30.1739 20.9783 29.9254 20.7135 30.1427 20.2826C30.3738 19.8229 30.4425 19.2746 31.1769 19.2683C31.8477 19.2621 31.8215 19.1959 31.8527 18.5251C31.8714 18.1354 31.7415 18.0192 31.3631 18.0068C31.052 17.9968 30.6923 18.0355 30.4625 17.7232C29.9529 17.0287 29.9341 16.5541 30.5199 15.9071C30.9309 15.4524 30.4975 15.3187 30.3101 15.0652C30.0915 14.7692 29.8929 14.7217 29.6069 15.004C29.4033 15.2051 29.1959 15.4549 28.8724 15.4699C28.2404 15.4974 27.5534 14.9103 27.5409 14.2883C27.5309 13.8061 27.3473 13.685 26.8726 13.6725C26.3518 13.6587 26.2231 13.8661 26.2319 14.3132C26.2356 14.5606 26.2344 14.8191 26.0333 15.0115C25.5374 15.4886 24.7767 15.5198 24.2421 15.0889C24.0997 14.974 23.9523 14.8641 23.7587 14.7154L23.755 14.7179Z" fill="white"/>
<path id="Vector_3" d="M26.9126 15.8534C28.4877 15.8797 29.703 17.1362 29.6856 18.7226C29.6693 20.2452 28.3465 21.4668 26.7527 21.4318C25.2826 21.3993 24.066 20.139 24.0847 18.6663C24.1047 17.0713 25.355 15.8272 26.9126 15.8534ZM26.8914 16.8852C25.9009 16.8789 25.1227 17.6621 25.1152 18.6726C25.109 19.5994 25.8696 20.3763 26.7977 20.3888C27.8232 20.4026 28.6426 19.6519 28.6538 18.6851C28.6651 17.6896 27.8831 16.8902 26.8914 16.8852Z" fill="white"/>
</g>
<defs>
<filter id="filter0_d_99_556" x="0.700603" y="0.850302" width="52.3588" height="50.1711" filterUnits="userSpaceOnUse" color-interpolation-filters="sRGB">
<feFlood flood-opacity="0" result="BackgroundImageFix"/>
<feColorMatrix in="SourceAlpha" type="matrix" values="0 0 0 0 0 0 0 0 0 0 0 0 0 0 0 0 0 0 127 0" result="hardAlpha"/>
<feOffset dy="1.1497"/>
<feGaussianBlur stdDeviation="1.1497"/>
<feComposite in2="hardAlpha" operator="out"/>
<feColorMatrix type="matrix" values="0 0 0 0 0 0 0 0 0 0 0 0 0 0 0 0 0 0 0.1 0"/>
<feBlend mode="normal" in2="BackgroundImageFix" result="effect1_dropShadow_99_556"/>
<feBlend mode="normal" in="SourceGraphic" in2="effect1_dropShadow_99_556" result="shape"/>
</filter>
</defs>
</svg>
