<svg width="62" height="61" viewBox="0 0 62 61" fill="none" xmlns="http://www.w3.org/2000/svg">
<g id="Group 1000004453" opacity="0.6" filter="url(#filter0_d_99_569)">
<path id="Vector" d="M28.4999 42.9651C26.5912 40.2002 26.7006 37.7282 28.7381 35.995C30.5663 34.4403 33.2716 34.5482 34.992 36.2251C36.5675 37.7604 37.0858 40.6058 35.021 42.8524C35.1207 43.0471 35.3026 42.9602 35.4442 42.9618C37.3545 42.9683 39.2648 42.9602 41.1751 42.9731C41.4986 42.9747 41.748 42.8701 42.0007 42.6866C43.6438 41.4941 45.2773 40.2903 46.943 39.13C48.5894 37.9825 50.7362 38.858 51.0967 40.8101C51.2802 41.7983 50.9792 42.6866 50.181 43.2821C48.0856 44.8432 45.9549 46.3543 43.8273 47.8703C43.4105 48.1665 42.9148 48.2695 42.3966 48.2662C41.1494 48.2598 39.9021 48.3033 38.6565 48.2502C38.0449 48.2244 37.9323 48.4368 37.9403 48.9953C37.9725 51.1261 37.9548 53.2584 37.9516 55.3892C37.9516 56.2277 37.81 56.3645 36.9651 56.3645C33.4663 56.3645 29.9676 56.3661 26.4689 56.3645C25.6465 56.3645 25.5371 56.2518 25.5371 55.4101C25.5339 53.2182 25.5242 51.0263 25.5451 48.8343C25.55 48.3934 25.4405 48.2421 24.977 48.255C23.7105 48.2872 22.4439 48.255 21.1774 48.2695C20.5063 48.2775 19.914 48.0812 19.3765 47.6917C17.4035 46.269 15.4224 44.8593 13.4606 43.4221C12.2326 42.5225 11.9719 40.9292 12.8168 39.7367C13.6762 38.5249 15.2856 38.2497 16.5521 39.1413C18.213 40.308 19.8497 41.5086 21.4976 42.6947C21.6747 42.8218 21.8372 42.9683 22.0834 42.9683C24.1917 42.9634 26.2999 42.9651 28.4951 42.9651H28.4999ZM31.725 55.1575C33.2137 55.1575 34.7023 55.1382 36.1894 55.1687C36.6545 55.1784 36.7607 55.0239 36.7575 54.5861C36.7381 52.3733 36.7446 50.1604 36.751 47.9492C36.7526 47.2218 36.9168 47.0625 37.641 47.0608C39.1699 47.056 40.6987 47.0576 42.2276 47.0608C42.5752 47.0608 42.9164 47.0464 43.2093 46.8355C45.2661 45.3582 47.3276 43.8856 49.3715 42.3889C49.864 42.0284 50.049 41.4989 49.8768 40.8874C49.5872 39.8655 48.4896 39.513 47.5594 40.1728C45.8535 41.3815 44.1588 42.6078 42.4706 43.8405C42.1455 44.0787 41.814 44.1801 41.4117 44.1801C34.955 44.1721 28.4983 44.1721 22.0416 44.1801C21.6602 44.1801 21.3512 44.0819 21.0406 43.8566C19.3685 42.6351 17.6851 41.4281 16.0001 40.2243C15.1745 39.6337 14.3264 39.719 13.8178 40.4223C13.3109 41.124 13.4992 41.9689 14.3135 42.5579C16.219 43.9371 18.1341 45.3034 20.038 46.6826C20.3952 46.9418 20.7718 47.0657 21.2144 47.0625C22.6821 47.0512 24.1514 47.0576 25.6192 47.0592C26.6314 47.0592 26.7425 47.1735 26.7425 48.2131C26.7425 50.3053 26.765 52.3974 26.728 54.488C26.7184 55.0641 26.9066 55.1832 27.4377 55.1703C28.8652 55.1365 30.2943 55.1591 31.7218 55.1591L31.725 55.1575ZM31.7556 42.9618C33.6434 42.9554 35.1674 41.4362 35.1803 39.55C35.1916 37.659 33.616 36.0803 31.7266 36.0899C29.8453 36.0996 28.3245 37.6301 28.3164 39.5194C28.3068 41.441 29.8324 42.9667 31.7572 42.9618H31.7556Z" fill="white" stroke="white"/>
<path id="Vector_2" d="M12.4547 36.201C10.3835 36.201 8.31228 36.2074 6.24105 36.1994C4.22937 36.1913 3.00627 34.9682 3.00305 32.9694C2.99983 30.5168 2.99822 28.0625 3.00305 25.6099C3.00788 23.6963 4.26316 22.4411 6.17668 22.4314C6.98135 22.4266 7.78602 22.4153 8.58909 22.4378C8.94475 22.4475 9.12017 22.3622 9.0735 21.9743C9.04775 21.7555 9.06224 21.5318 9.07189 21.3113C9.11695 20.1703 9.7623 19.5442 10.913 19.5362C11.9591 19.5281 13.0051 19.5281 14.0496 19.5362C15.2228 19.5458 15.8682 20.1928 15.8955 21.3692C15.9127 22.0773 16.2721 22.4314 16.9738 22.4314C17.6368 22.4314 18.3015 22.4201 18.9645 22.4346C20.6576 22.4684 21.9418 23.7382 21.9531 25.4264C21.9692 28.0207 21.9692 30.6149 21.9531 33.2092C21.9418 34.9054 20.6769 36.1768 18.9694 36.1945C16.7984 36.2171 14.6257 36.1994 12.4547 36.1994C12.4547 36.1994 12.4547 36.201 12.4547 36.2026V36.201ZM4.25673 29.2277C4.22776 29.3806 4.21328 29.4192 4.21328 29.4578C4.21167 30.6439 4.20523 31.8316 4.21006 33.0177C4.21488 34.2762 4.92622 34.9827 6.20243 34.9907C7.30805 34.9988 8.41528 34.9923 9.5209 34.9923C12.6189 34.9923 15.7153 34.9956 18.8133 34.9891C19.8432 34.9875 20.6608 34.4178 20.7123 33.5101C20.7911 32.1164 20.7332 30.7147 20.7332 29.2019C19.877 29.8344 18.9694 29.7909 18.0649 29.7893C14.3232 29.7829 10.5831 29.7813 6.84134 29.7893C5.95298 29.7909 5.07267 29.8038 4.25673 29.2245V29.2277ZM12.474 28.5807C14.5662 28.5807 16.6567 28.5839 18.7489 28.5807C20.046 28.5775 20.7445 27.8646 20.7509 26.5562C20.7525 26.1941 20.7574 25.8319 20.7493 25.4698C20.7236 24.3996 19.9913 23.6642 18.9163 23.6416C18.2532 23.6271 17.5886 23.6384 16.9255 23.6384C13.3656 23.6384 9.80575 23.6368 6.24588 23.6384C4.91334 23.6384 4.21328 24.3497 4.20845 25.6935C4.20845 25.9752 4.20845 26.2568 4.20845 26.5385C4.21328 27.8726 4.91817 28.5791 6.26036 28.5807C8.33159 28.5839 10.4028 28.5807 12.474 28.5807ZM12.4177 22.4298C13.0405 22.4298 13.6634 22.4153 14.2862 22.4362C14.6064 22.4459 14.7239 22.3284 14.6933 22.0178C14.6756 21.8392 14.6805 21.6557 14.6933 21.4754C14.7304 20.9315 14.4825 20.7191 13.9402 20.7335C13.0164 20.7593 12.0926 20.74 11.1673 20.74C10.3561 20.74 10.2837 20.8156 10.2789 21.6396C10.2789 21.7796 10.2902 21.9212 10.2789 22.0613C10.2515 22.3606 10.3964 22.4394 10.6716 22.433C11.2542 22.4185 11.8367 22.4282 12.4193 22.4282L12.4177 22.4298Z" fill="white" stroke="white"/>
<path id="Vector_3" d="M47.252 20.8865C48.0712 20.2958 48.9145 19.7229 49.7143 19.0985C50.2068 18.7139 50.5978 18.7122 51.108 19.0872C53.4029 20.7819 55.7188 22.4459 58.0378 24.1084C58.3822 24.3546 58.5335 24.6314 58.5319 25.0611C58.519 28.5389 58.5255 32.0151 58.5239 35.4929C58.5239 36.201 58.3372 36.4006 57.6419 36.4022C52.8187 36.407 47.9939 36.407 43.1707 36.4022C42.5012 36.4022 42.3177 36.2107 42.3177 35.5315C42.3129 32.0344 42.321 28.5373 42.3081 25.0402C42.3065 24.6057 42.4433 24.2822 42.8215 24.1036C43.6068 23.7334 43.8241 23.1267 43.734 22.2995C43.6664 21.6831 43.7259 21.0555 43.7211 20.431C43.7163 19.8871 43.9545 19.6103 44.5209 19.6247C45.1035 19.6408 45.6877 19.6457 46.2687 19.6247C46.8448 19.6022 47.1426 19.8372 47.1345 20.4294C47.1329 20.5646 47.1023 20.7111 47.2504 20.8897L47.252 20.8865ZM50.4385 35.1984C52.55 35.1984 54.6614 35.1887 56.7729 35.2064C57.1736 35.2097 57.3313 35.1308 57.3281 34.685C57.3088 31.6289 57.3136 28.5727 57.3249 25.515C57.3249 25.1963 57.2219 25.0048 56.966 24.8213C54.9077 23.3472 52.8525 21.8666 50.8135 20.365C50.4884 20.1253 50.284 20.1671 49.9847 20.394C49.0062 21.1311 48.002 21.8376 47.009 22.5538C46.7901 22.7115 46.5712 22.8338 46.2864 22.7002C45.9758 22.5554 45.9339 22.2898 45.9307 21.9969C45.9291 21.7362 45.913 21.4723 45.9307 21.2132C45.9613 20.8012 45.6909 20.835 45.4206 20.8301C45.1341 20.8237 44.9056 20.8301 44.9233 21.2293C44.9474 21.7909 44.8766 22.3606 44.941 22.9159C45.0391 23.7575 44.7736 24.3578 44.0027 24.7296C43.6165 24.9147 43.5087 25.2237 43.5103 25.6582C43.5296 28.6146 43.5376 31.5709 43.5071 34.5257C43.5006 35.1067 43.697 35.2145 44.2248 35.208C46.296 35.1807 48.3673 35.1968 50.4385 35.1968V35.1984Z" fill="white" stroke="white"/>
<path id="Vector_4" d="M28.4146 2.00879C29.4704 1.99913 30.4424 2.29043 31.3114 2.88106C31.6156 3.08705 31.812 3.12246 32.1483 2.90037C34.432 1.38758 37.4318 1.82372 39.1795 3.88851C40.9482 5.97583 40.8871 9.04002 38.9591 11.0308C36.7768 13.2839 34.535 15.479 32.3141 17.6951C31.8731 18.136 31.5995 18.128 31.1425 17.6726C28.9505 15.4855 26.7345 13.3193 24.5828 11.0935C22.9589 9.41339 22.5984 7.40815 23.4739 5.24358C24.2818 3.24477 26.242 2.00235 28.4146 2.00879ZM39.2343 7.01708C39.1844 5.66683 38.4376 4.352 36.875 3.61975C35.2737 2.86979 33.7335 3.09027 32.3784 4.24095C31.9278 4.62398 31.5931 4.66582 31.1296 4.26348C29.3963 2.75875 26.9083 2.87623 25.3697 4.50489C23.8312 6.13194 23.8473 8.62964 25.4566 10.2744C27.4265 12.2861 29.4382 14.2543 31.4161 16.2579C31.6913 16.5364 31.8297 16.4913 32.0791 16.2402C34.0457 14.2543 36.0284 12.2845 37.9999 10.305C38.8013 9.5003 39.2246 8.52986 39.2327 7.01868L39.2343 7.01708Z" fill="white" stroke="white"/>
<path id="Vector_5" d="M11.7804 16.8807C11.8142 16.8003 11.8641 16.6474 11.9365 16.5074C13.5507 13.3595 15.7829 10.7379 18.6378 8.64731C18.6861 8.61191 18.7328 8.57328 18.7843 8.5411C19.1078 8.33993 19.4055 8.37373 19.6308 8.68272C19.8448 8.97562 19.7708 9.2653 19.5085 9.48417C19.1399 9.79317 18.7424 10.07 18.3707 10.3774C16.1578 12.2056 14.3908 14.3943 13.0631 16.9387C12.9794 17.098 12.9005 17.267 12.7814 17.3989C12.606 17.5921 12.3759 17.6516 12.1232 17.5373C11.8754 17.4247 11.7691 17.2235 11.7788 16.8807H11.7804Z" fill="white" stroke="white"/>
<path id="Vector_6" d="M51.7405 16.9403C51.718 17.2589 51.6037 17.4682 51.3591 17.5663C51.1177 17.6629 50.8715 17.6259 50.6977 17.4199C50.5834 17.2847 50.5077 17.1141 50.4241 16.9548C48.9193 14.0773 46.8738 11.66 44.2683 9.71915C44.1717 9.64673 44.0704 9.57913 43.9818 9.49867C43.7002 9.246 43.6455 8.94505 43.8805 8.64571C44.0977 8.36891 44.3987 8.33189 44.6835 8.5395C45.1551 8.88068 45.6218 9.22991 46.066 9.60649C48.319 11.5087 50.1247 13.7715 51.4878 16.3867C51.5892 16.5814 51.6713 16.7858 51.7405 16.9403Z" fill="white" stroke="white"/>
</g>
<defs>
<filter id="filter0_d_99_569" x="0.200603" y="0.350302" width="61.1307" height="59.964" filterUnits="userSpaceOnUse" color-interpolation-filters="sRGB">
<feFlood flood-opacity="0" result="BackgroundImageFix"/>
<feColorMatrix in="SourceAlpha" type="matrix" values="0 0 0 0 0 0 0 0 0 0 0 0 0 0 0 0 0 0 127 0" result="hardAlpha"/>
<feOffset dy="1.1497"/>
<feGaussianBlur stdDeviation="1.1497"/>
<feComposite in2="hardAlpha" operator="out"/>
<feColorMatrix type="matrix" values="0 0 0 0 0 0 0 0 0 0 0 0 0 0 0 0 0 0 0.1 0"/>
<feBlend mode="normal" in2="BackgroundImageFix" result="effect1_dropShadow_99_569"/>
<feBlend mode="normal" in="SourceGraphic" in2="effect1_dropShadow_99_569" result="shape"/>
</filter>
</defs>
</svg>
