<svg width="26" height="26" viewBox="0 0 26 26" fill="none" xmlns="http://www.w3.org/2000/svg">
<g id="Group">
<path id="Vector" d="M13.4575 0.926758H13.4005C6.51271 0.926758 0.929016 6.5121 0.929016 13.402V13.4589C0.929016 20.3488 6.51271 25.9341 13.4005 25.9341H13.4575C20.3453 25.9341 25.929 20.3488 25.929 13.4589V13.402C25.929 6.5121 20.3453 0.926758 13.4575 0.926758Z" fill="url(#paint0_linear_33_438)"/>
<g id="Group_2">
<path id="Vector_2" d="M17.2973 6.0144H9.56158C7.42446 6.0144 5.68585 7.75352 5.68585 9.89127V16.9704C5.68585 19.1082 7.42446 20.8473 9.56158 20.8473H17.2973C19.4344 20.8473 21.173 19.1082 21.173 16.9704V9.89127C21.173 7.75352 19.4344 6.0144 17.2973 6.0144ZM7.05309 9.89127C7.05309 8.50787 8.17858 7.38204 9.56158 7.38204H17.2973C18.6803 7.38204 19.8058 8.50787 19.8058 9.89127V16.9704C19.8058 18.3538 18.6803 19.4796 17.2973 19.4796H9.56158C8.17858 19.4796 7.05309 18.3538 7.05309 16.9704V9.89127Z" fill="white"/>
<path id="Vector_3" d="M13.4295 17.0363C15.4168 17.0363 17.0346 15.4189 17.0346 13.4301C17.0346 11.4413 15.4177 9.82397 13.4295 9.82397C11.4413 9.82397 9.8244 11.4413 9.8244 13.4301C9.8244 15.4189 11.4413 17.0363 13.4295 17.0363ZM13.4295 11.1925C14.6636 11.1925 15.6673 12.1965 15.6673 13.431C15.6673 14.6655 14.6636 15.6695 13.4295 15.6695C12.1954 15.6695 11.1916 14.6655 11.1916 13.431C11.1916 12.1965 12.1954 11.1925 13.4295 11.1925Z" fill="white"/>
<path id="Vector_4" d="M17.3682 10.4064C17.9034 10.4064 18.3396 9.97095 18.3396 9.43476C18.3396 8.89857 17.9043 8.46313 17.3682 8.46313C16.8322 8.46313 16.3969 8.89857 16.3969 9.43476C16.3969 9.97095 16.8322 10.4064 17.3682 10.4064Z" fill="white"/>
</g>
</g>
<defs>
<linearGradient id="paint0_linear_33_438" x1="4.5814" y1="22.2806" x2="22.2818" y2="4.5863" gradientUnits="userSpaceOnUse">
<stop stop-color="#FAAD4F"/>
<stop offset="0.35" stop-color="#DD2A7B"/>
<stop offset="0.62" stop-color="#9537B0"/>
<stop offset="1" stop-color="#515BD4"/>
</linearGradient>
</defs>
</svg>
