<svg width="108" height="25" viewBox="0 0 108 25" fill="none" xmlns="http://www.w3.org/2000/svg">
<g id="Laravel">
<path id="laravel-seeklogo.com 2" d="M35.9302 5.65039V20.9271H41.4341V23.5588H32.9995V5.65039H35.9302ZM51.7697 13.2457V11.6354H54.5547V23.5651H51.7823V21.9485C51.3911 22.5544 50.8375 23.037 50.1851 23.3406C49.5431 23.6768 48.8303 23.8541 48.1062 23.8576C47.2556 23.8684 46.4123 23.699 45.6313 23.3603C44.9026 23.0427 44.2469 22.5777 43.7051 21.9943C43.1676 21.4157 42.7424 20.7414 42.4511 20.0062C41.8591 18.4615 41.8614 16.7508 42.4574 15.2077C42.7451 14.4627 43.1706 13.779 43.7114 13.1927C44.2487 12.6072 44.9 12.1387 45.625 11.8164C46.4066 11.4797 47.2495 11.3104 48.0999 11.3192C48.8207 11.3268 49.53 11.5016 50.1725 11.8299C50.8216 12.1391 51.3705 12.626 51.7563 13.2346L51.7697 13.2457ZM51.5186 19.0583C51.6924 18.5919 51.7817 18.0979 51.7823 17.5998C51.7828 17.1017 51.6935 16.6075 51.5186 16.1413C51.3606 15.695 51.1188 15.2834 50.8062 14.9287C50.494 14.5874 50.1169 14.3124 49.697 14.12C49.2457 13.9121 48.7546 13.8058 48.2581 13.8085C47.7651 13.8034 47.2775 13.9115 46.8325 14.1247C46.4102 14.3167 46.0325 14.5951 45.7234 14.9421C45.4144 15.289 45.1809 15.697 45.0378 16.1398C44.8741 16.6084 44.7915 17.1017 44.7937 17.5983C44.7904 18.095 44.873 18.5884 45.0378 19.0568C45.1857 19.499 45.4241 19.9054 45.7376 20.2497C46.0446 20.596 46.417 20.8776 46.8333 21.0781C47.2843 21.2792 47.7722 21.3831 48.2656 21.3831C48.759 21.3831 49.2469 21.2792 49.6978 21.0781C50.1189 20.8819 50.4962 20.6023 50.807 20.256C51.1174 19.9072 51.3592 19.5024 51.5194 19.0631L51.5186 19.0583ZM56.7454 23.5643V11.6354H64.2826V14.3793H59.517V23.5588H56.7454V23.5643ZM74.3474 13.2457V11.6354H77.119V23.5651H74.3474V21.9485C73.9631 22.5553 73.4134 23.0385 72.7636 23.3406C72.1194 23.677 71.4045 23.8542 70.6784 23.8576C69.8278 23.8684 68.9845 23.699 68.2035 23.3603C67.4746 23.0431 66.8186 22.5783 66.2765 21.9951C65.7387 21.4163 65.3131 20.7418 65.0217 20.0062C64.4386 18.4599 64.4408 16.7525 65.028 15.2077C65.3158 14.4627 65.7412 13.779 66.282 13.1927C66.8195 12.6071 67.4711 12.1386 68.1964 11.8164C68.978 11.4797 69.8209 11.3104 70.6713 11.3192C71.3921 11.3268 72.1014 11.5016 72.7439 11.8299C73.3933 12.1369 73.9421 12.6234 74.3261 13.2322L74.3474 13.2457ZM74.0963 19.0583C74.2658 18.5911 74.3509 18.0972 74.3474 17.5998C74.3489 17.1027 74.2639 16.6091 74.0963 16.1413C73.9395 15.6954 73.699 15.2837 73.3878 14.9287C73.072 14.586 72.6904 14.3109 72.2661 14.12C71.8171 13.9128 71.3284 13.8065 70.8342 13.8085C70.3393 13.8041 69.8498 13.9122 69.4024 14.1247C68.9801 14.3168 68.6024 14.5952 68.2933 14.9421C67.9843 15.2891 67.7507 15.697 67.6076 16.1398C67.4466 16.6088 67.3667 17.1021 67.3715 17.5983C67.3688 18.0942 67.4486 18.5872 67.6076 19.0568C67.7581 19.4978 67.9962 19.9037 68.3074 20.2497C68.6144 20.596 68.9869 20.8776 69.4032 21.0781C69.8524 21.2839 70.3412 21.3881 70.835 21.3833C71.3313 21.3906 71.823 21.2864 72.274 21.0781C72.6996 20.8834 73.0812 20.6037 73.3957 20.256C73.7047 19.9068 73.9451 19.5021 74.1042 19.0631L74.0963 19.0583ZM88.2591 11.6354H91.0772L86.5273 23.5651H83.026L78.4722 11.6354H81.2769L84.7751 20.7682L88.2591 11.6417V11.6354ZM97.129 11.3303C100.907 11.3303 103.491 14.6971 103.003 18.6338H93.7835C93.8717 19.4899 94.2838 20.2794 94.9348 20.8392C95.5857 21.3991 96.4258 21.6866 97.2817 21.6425C97.966 21.5947 98.633 21.4051 99.2408 21.0857C99.8485 20.7662 100.384 20.3238 100.813 19.7864L102.687 21.2449C101.003 23.0354 99.6306 23.8639 97.4691 23.8639C93.6276 23.8639 91.0276 21.4133 91.0276 17.5872C91.0145 16.7727 91.1621 15.9636 91.4619 15.2066C91.7617 14.4497 92.2078 13.7599 92.7745 13.1769C93.3411 12.594 94.0171 12.1295 94.7634 11.8102C95.5097 11.491 96.3115 11.3233 97.1227 11.3168L97.129 11.3303ZM93.7961 16.5658H100.46C100.385 15.7298 99.998 14.9533 99.3759 14.3926C98.7539 13.8318 97.9435 13.5285 97.1077 13.5437C96.2751 13.5249 95.4671 13.8281 94.8508 14.3908C94.2346 14.9535 93.8573 15.7324 93.7969 16.5666L93.7961 16.5658ZM104.817 23.5453V5.65039H107.588V23.5588H104.818L104.817 23.5453Z" fill="#FF2D20"/>
<g id="laravel-seeklogo.com">
<path id="Path 16599" d="M25.1802 5.65537C25.1893 5.68871 25.1938 5.72309 25.1939 5.75762V11.1256C25.1941 11.1947 25.1761 11.2627 25.1416 11.3225C25.1071 11.3824 25.0574 11.4321 24.9975 11.4664L20.4934 14.0567V19.1964C20.4937 19.2654 20.4757 19.3332 20.4414 19.393C20.4071 19.4529 20.3576 19.5026 20.2979 19.5372L10.8962 24.9478C10.8742 24.9593 10.8513 24.9689 10.8276 24.9763C10.8187 24.9793 10.8106 24.9849 10.8012 24.987C10.7355 25.0043 10.6663 25.0043 10.6006 24.987C10.5899 24.984 10.5801 24.9781 10.5699 24.9742C10.5476 24.9673 10.5259 24.9584 10.5051 24.9478L1.10558 19.5359C1.04569 19.5015 0.995967 19.4518 0.961472 19.392C0.926978 19.3321 0.908937 19.2642 0.909182 19.1951V3.09748C0.909258 3.06281 0.913841 3.02829 0.922815 2.9948C0.925797 2.98202 0.932614 2.9735 0.936448 2.962C0.943095 2.94116 0.951504 2.92092 0.961584 2.9015C0.969835 2.88947 0.978798 2.87795 0.988424 2.86699C0.998958 2.85098 1.01063 2.83574 1.02336 2.82141C1.03565 2.8108 1.0486 2.80098 1.06213 2.79201C1.07535 2.7796 1.0896 2.76834 1.10473 2.75836L5.80557 0.0522002C5.86506 0.0179989 5.93249 0 6.00112 0C6.06974 0 6.13717 0.0179989 6.19666 0.0522002L10.8966 2.75836C10.9115 2.76862 10.9257 2.77972 10.9393 2.79159C10.9525 2.80071 10.9653 2.81052 10.9776 2.82098C10.9903 2.83556 11.0022 2.85092 11.013 2.86699C11.0225 2.87809 11.0313 2.88976 11.0394 2.90193C11.0495 2.92137 11.058 2.94161 11.0649 2.96242C11.0688 2.9735 11.0756 2.98415 11.0786 2.99566C11.0876 3.029 11.0921 3.06337 11.0922 3.0979V13.1523L15.0108 10.8977V5.75719C15.0109 5.72281 15.0155 5.68858 15.0245 5.65537C15.0279 5.64344 15.0343 5.63322 15.0381 5.62214C15.0451 5.60137 15.0537 5.58115 15.0637 5.56165C15.0709 5.54886 15.0816 5.53864 15.0901 5.52671C15.1008 5.51069 15.1126 5.49546 15.1254 5.48113C15.1376 5.47051 15.1504 5.4607 15.1638 5.45173C15.1772 5.43955 15.1914 5.4283 15.2064 5.41807L19.9068 2.71234C19.9663 2.6781 20.0337 2.66008 20.1023 2.66008C20.171 2.66008 20.2384 2.6781 20.2979 2.71234L24.9979 5.4185C25.0128 5.42868 25.027 5.43977 25.0405 5.45173C25.0528 5.46153 25.0669 5.47047 25.078 5.48113C25.0907 5.4957 25.1025 5.51107 25.1133 5.52714C25.123 5.53811 25.1318 5.54979 25.1397 5.56207C25.15 5.58148 25.1585 5.60172 25.1653 5.62257C25.171 5.63317 25.176 5.64413 25.1802 5.65537ZM24.4104 10.8956V6.43501L22.7646 7.38208L20.4934 8.69085V13.1527L24.4129 10.8977L24.4104 10.8956ZM19.7104 18.9697V14.5045L17.4754 15.7826L11.0913 19.4239V23.9313L19.7104 18.9697ZM1.69265 3.77487V18.9697L10.3092 23.9304V19.4243L5.80855 16.8766C5.78219 16.8564 5.75578 16.8362 5.72931 16.8161C5.71751 16.8027 5.70669 16.7885 5.69693 16.7735C5.6864 16.7613 5.67658 16.7485 5.66753 16.7352C5.65934 16.7195 5.65249 16.7031 5.64708 16.6862C5.6397 16.6725 5.63343 16.6583 5.62834 16.6436C5.62432 16.6248 5.62176 16.6057 5.62067 16.5865C5.61779 16.5724 5.61579 16.5582 5.61471 16.5439V6.03028L3.33756 4.72151L1.69265 3.77572V3.77487ZM6.00154 0.843342L2.08546 3.09748L6.00069 5.35161L9.91635 3.09705L6.00069 0.843342H6.00154ZM8.03797 14.9109L10.3096 13.603V3.77487L8.66296 4.72194L6.39051 6.03028V15.8588L8.03797 14.9109ZM20.1023 3.50348L16.1867 5.75762L20.1023 8.01176L24.0176 5.75719L20.1023 3.50348ZM19.7104 8.69085L17.4392 7.38208L15.7943 6.43501V10.8977L18.0659 12.2056L19.7113 13.1531L19.7104 8.69085ZM10.7007 18.7452L16.444 15.4648L19.3138 13.8292L15.4011 11.5764L10.8971 14.17L6.79141 16.5337L10.7007 18.7452Z" fill="#FF2D20"/>
</g>
</g>
</svg>
