<svg width="25" height="26" viewBox="0 0 25 26" fill="none" xmlns="http://www.w3.org/2000/svg">
<g id="Group">
<path id="Vector" d="M12.5285 0.926758H12.4715C5.5837 0.926758 0 6.5121 0 13.402V13.4589C0 20.3488 5.5837 25.9341 12.4715 25.9341H12.5285C19.4163 25.9341 25 20.3488 25 13.4589V13.402C25 6.5121 19.4163 0.926758 12.5285 0.926758Z" fill="#007EBB"/>
<g id="Group_2">
<path id="Vector_2" d="M5.96204 9.23944C5.63271 8.93367 5.46893 8.55518 5.46893 8.10485C5.46893 7.65452 5.63359 7.25939 5.96204 6.95274C6.29137 6.64697 6.71529 6.49365 7.23468 6.49365C7.75407 6.49365 8.16136 6.64697 8.48981 6.95274C8.81914 7.25851 8.98292 7.64313 8.98292 8.10485C8.98292 8.56657 8.81826 8.93367 8.48981 9.23944C8.16048 9.54521 7.74269 9.69853 7.23468 9.69853C6.72668 9.69853 6.29137 9.54521 5.96204 9.23944ZM8.70615 10.9934V20.368H5.74482V10.9934H8.70615Z" fill="#FEFFFC"/>
<path id="Vector_3" d="M18.564 11.9195C19.2095 12.6204 19.5318 13.5824 19.5318 14.8072V20.2024H16.7194V15.1875C16.7194 14.5698 16.5591 14.0897 16.2395 13.748C15.9198 13.4063 15.4888 13.2346 14.9493 13.2346C14.4098 13.2346 13.9788 13.4054 13.6591 13.748C13.3394 14.0897 13.1791 14.5698 13.1791 15.1875V20.2024H10.3501V10.9672H13.1791V12.192C13.4656 11.7837 13.8518 11.4613 14.3371 11.2239C14.8223 10.9864 15.368 10.8682 15.9749 10.8682C17.0558 10.8682 17.9194 11.2186 18.564 11.9195Z" fill="#FEFFFC"/>
</g>
</g>
</svg>
