<svg width="120" height="23" viewBox="0 0 120 23" fill="none" xmlns="http://www.w3.org/2000/svg">
<g id="Navbar">
<g id="Group 560">
<path id="Path 1902" d="M25.2739 0.639945C25.2744 0.493554 25.3328 0.35331 25.4363 0.249795C25.5398 0.14628 25.6801 0.0878907 25.8265 0.0873593H28.9356C29.0954 0.0894487 29.2481 0.153863 29.3611 0.266876C29.4741 0.37989 29.5385 0.532569 29.5406 0.69238V13.8502C29.5252 14.4734 29.6343 15.0933 29.8615 15.6737C30.0886 16.2542 30.4293 16.7834 30.8636 17.2306C31.2979 17.6777 31.817 18.0337 32.3905 18.2777C32.9641 18.5217 33.5806 18.6488 34.2039 18.6515C34.8272 18.6543 35.4448 18.5327 36.0205 18.2938C36.5962 18.0549 37.1185 17.7036 37.5567 17.2603C37.9949 16.8171 38.3403 16.2909 38.5726 15.7125C38.805 15.1341 38.9196 14.5152 38.9097 13.8919V0.678263C38.9118 0.518451 38.9762 0.365773 39.0892 0.252759C39.2022 0.139745 39.3549 0.0753315 39.5147 0.0732422L42.638 0.0732422C42.7116 0.073853 42.7843 0.0890318 42.852 0.117902C42.9197 0.146773 42.981 0.188764 43.0323 0.241451C43.0837 0.294138 43.1242 0.356479 43.1513 0.424875C43.1785 0.49327 43.1918 0.566367 43.1906 0.639945V14.0849C43.1553 16.4383 42.1956 18.6834 40.5188 20.3351C38.8421 21.9869 36.5829 22.9128 34.2292 22.9128C31.8755 22.9128 29.6163 21.9869 27.9395 20.3351C26.2628 18.6834 25.3031 16.4383 25.2678 14.0849L25.2739 0.639945Z" fill="#3F505D"/>
<path id="Path 1903" d="M59.3366 11.2937C60.2685 10.7917 61.0439 10.0424 61.5776 9.1282C62.1113 8.21403 62.3826 7.1704 62.3617 6.11206C62.3617 2.6836 59.3628 0.0732736 55.4799 0.0732736H47.9776C47.8975 0.0724832 47.818 0.0866171 47.743 0.114953C47.7289 0.114953 47.7155 0.12907 47.6879 0.142515C47.5919 0.190019 47.5142 0.267723 47.4667 0.363684C47.4526 0.377801 47.4526 0.405363 47.4392 0.418808C47.4108 0.493747 47.3967 0.573308 47.3975 0.653422V22.2796C47.3971 22.3613 47.413 22.4423 47.4441 22.5179C47.4752 22.5935 47.521 22.6622 47.5788 22.7201C47.6366 22.7779 47.7053 22.8237 47.7809 22.8548C47.8565 22.8859 47.9376 22.9017 48.0193 22.9014H55.9095C59.8892 22.9014 63.0124 20.2622 63.0124 16.6139C63.0536 15.4497 62.7182 14.3032 62.056 13.3448C61.3938 12.3863 60.4401 11.667 59.3366 11.2937ZM51.681 4.90739C51.6816 4.761 51.74 4.62076 51.8435 4.51724C51.947 4.41373 52.0872 4.35534 52.2336 4.35481H55.3972C56.9998 4.38237 58.0781 5.101 58.0781 6.73187C58.0781 8.36273 57.0415 9.32942 55.3697 9.32942H52.233C52.0866 9.32889 51.9463 9.2705 51.8428 9.16699C51.7393 9.06347 51.6809 8.92323 51.6804 8.77684L51.681 4.90739ZM55.8268 18.6017H52.2336C52.0872 18.6012 51.947 18.5428 51.8435 18.4393C51.74 18.3358 51.6816 18.1955 51.681 18.0491V14.1682C51.6816 14.0219 51.74 13.8816 51.8435 13.7781C51.947 13.6746 52.0872 13.6162 52.2336 13.6157H55.8953C57.4845 13.6157 58.7282 14.5413 58.7282 16.1702C58.7282 17.8696 57.457 18.6024 55.8261 18.6024L55.8268 18.6017Z" fill="#3F505D"/>
<path id="Path 1904" d="M67.2408 0.695069C67.2471 0.532167 67.3146 0.377644 67.4299 0.262368C67.5452 0.147092 67.6997 0.0795529 67.8626 0.0732422L70.8877 0.0732422C71.0506 0.0795529 71.2051 0.147092 71.3204 0.262368C71.4357 0.377644 71.5032 0.532167 71.5095 0.695069V22.2795C71.5032 22.4424 71.4357 22.597 71.3204 22.7122C71.2051 22.8275 71.0506 22.895 70.8877 22.9014H67.8626C67.6997 22.895 67.5452 22.8275 67.4299 22.7122C67.3146 22.597 67.2471 22.4424 67.2408 22.2795V0.695069Z" fill="#3F505D"/>
<path id="Path 1905" d="M87.181 0.07341C88.5936 0.0344106 89.9998 0.275731 91.3186 0.783427C92.6373 1.29112 93.8424 2.05513 94.8641 3.03129C94.9844 3.13063 95.0606 3.27347 95.0761 3.42871C95.0916 3.58395 95.0451 3.73902 94.9468 3.86017C94.9327 3.88773 94.9051 3.90185 94.8917 3.91529L92.9576 5.92195C92.9099 5.98031 92.8498 6.02734 92.7816 6.05963C92.7135 6.09193 92.6391 6.10868 92.5637 6.10868C92.4883 6.10868 92.4138 6.09193 92.3457 6.05963C92.2776 6.02734 92.2175 5.98031 92.1698 5.92195C90.7869 4.81587 89.0463 4.25545 87.2778 4.34688C86.3312 4.32492 85.3898 4.49242 84.5089 4.83953C83.628 5.18664 82.8254 5.70634 82.1482 6.3681C81.4711 7.02986 80.933 7.82032 80.5657 8.693C80.1984 9.56569 80.0093 10.503 80.0095 11.4498C80.0121 12.4022 80.2028 13.3446 80.5706 14.2231C80.9383 15.1016 81.4759 15.8988 82.1525 16.569C82.8292 17.2391 83.6315 17.7691 84.5134 18.1285C85.3954 18.4878 86.3396 18.6695 87.2919 18.663H87.306C89.0728 18.6876 90.7912 18.0855 92.1563 16.9636C92.2631 16.8637 92.4039 16.8081 92.5502 16.8081C92.6965 16.8081 92.8373 16.8637 92.9442 16.9636L94.9065 18.9951C95.0154 19.1128 95.0736 19.2687 95.0685 19.429C95.0633 19.5893 94.9952 19.7411 94.8789 19.8515C92.8132 21.8518 90.0428 22.9577 87.1675 22.9298C85.6668 22.9325 84.1802 22.6396 82.7926 22.0678C81.405 21.496 80.1437 20.6565 79.0805 19.5973C78.0174 18.538 77.1733 17.2797 76.5964 15.8942C76.0196 14.5087 75.7213 13.0232 75.7185 11.5224C75.7158 10.0217 76.0087 8.53504 76.5805 7.14747C77.1523 5.75989 77.9918 4.49852 79.051 3.43538C80.1103 2.37224 81.3686 1.52815 82.7541 0.951303C84.1396 0.374455 85.6251 0.0761467 87.1259 0.07341H87.181Z" fill="#3F505D"/>
<path id="Path 1906" d="M108.572 0.0732543C111.601 0.0713822 114.507 1.27288 116.65 3.41343C118.793 5.55398 119.998 8.45824 120 11.4873C120.002 14.5164 118.8 17.4221 116.66 19.5653C114.519 21.7085 111.615 22.9136 108.586 22.9155C105.585 22.9323 102.7 21.757 100.565 19.6477C98.4296 17.5385 97.2192 14.668 97.1995 11.6668V11.5283C97.1864 10.0273 97.471 8.53867 98.0369 7.14838C98.6027 5.75809 99.4386 4.49378 100.496 3.42855C101.554 2.36332 102.812 1.51831 104.198 0.942392C105.584 0.366472 107.071 0.0710649 108.572 0.0732543ZM108.572 18.6313C109.51 18.644 110.441 18.4693 111.311 18.1173C112.181 17.7654 112.972 17.2434 113.637 16.5818C114.303 15.9202 114.829 15.1324 115.186 14.2647C115.543 13.3969 115.723 12.4666 115.716 11.5283C115.74 10.5774 115.574 9.63131 115.227 8.74568C114.88 7.86004 114.359 7.05285 113.695 6.37167C113.031 5.6905 112.238 5.14913 111.362 4.77949C110.485 4.40985 109.543 4.21941 108.592 4.21941C107.641 4.21941 106.7 4.40985 105.823 4.77949C104.947 5.14913 104.153 5.6905 103.489 6.37167C102.825 7.05285 102.305 7.86004 101.958 8.74568C101.611 9.63131 101.444 10.5774 101.469 11.5283C101.456 12.4647 101.631 13.3942 101.983 14.2619C102.335 15.1296 102.858 15.9179 103.52 16.5801C104.182 17.2423 104.971 17.765 105.838 18.1173C106.706 18.4696 107.635 18.6444 108.572 18.6313Z" fill="#3F505D"/>
<path id="Path 1907" d="M12.9893 6.2915H0.552708C0.406317 6.29204 0.266073 6.35042 0.162558 6.45394C0.0590428 6.55745 0.000653442 6.6977 0.00012207 6.84409L0.00012207 22.3622C0.000653442 22.5086 0.0590428 22.6488 0.162558 22.7524C0.266073 22.8559 0.406317 22.9143 0.552708 22.9148H3.7452C3.81689 22.9161 3.88814 22.9032 3.95482 22.8769C4.0215 22.8505 4.08229 22.8112 4.13368 22.7612C4.18506 22.7111 4.22602 22.6515 4.25419 22.5855C4.28236 22.5196 4.29718 22.4487 4.29779 22.377V11.1283C4.29645 11.0566 4.30934 10.9854 4.33571 10.9187C4.36208 10.852 4.40141 10.7912 4.45142 10.7398C4.50143 10.6885 4.56113 10.6475 4.62707 10.6193C4.69301 10.5912 4.76388 10.5763 4.83558 10.5757H12.9893C14.1778 10.5757 14.8406 9.67761 14.8272 8.37883C14.8439 8.12101 14.8097 7.86241 14.7263 7.61786C14.643 7.37332 14.5122 7.14762 14.3414 6.95371C14.1707 6.7598 13.9634 6.6015 13.7313 6.48786C13.4993 6.37423 13.2471 6.3075 12.9893 6.2915Z" fill="#4475BA"/>
<path id="Path 1908" d="M12.3398 12.5519H6.937C6.34273 12.5519 6.03888 13.0076 6.52222 13.493L15.7669 22.7639C15.8194 22.8175 15.8822 22.8599 15.9516 22.8884C16.0209 22.9169 16.0953 22.9311 16.1703 22.93H20.6199C20.7662 22.9333 20.9079 22.8786 21.014 22.7778C21.1202 22.6771 21.1822 22.5385 21.1866 22.3922C21.1883 22.2374 21.1286 22.0883 21.0205 21.9774L16.0594 17.0028C15.9545 16.8994 15.8943 16.759 15.8916 16.6117C15.889 16.4645 15.9441 16.322 16.0453 16.2149C16.1115 16.151 16.1919 16.1036 16.2799 16.0765C19.1819 15.1508 21.1167 11.8339 21.1167 8.39335C21.0871 3.80461 17.2176 0.0736422 13.086 0.0736422H0.566797C0.494053 0.0708558 0.421487 0.082648 0.353368 0.108325C0.28525 0.134002 0.222955 0.173045 0.17015 0.223156C0.117346 0.273267 0.0750981 0.333434 0.0458932 0.400116C0.0166884 0.466798 0.00111657 0.538649 9.4094e-05 0.611439V3.76293C-0.0012413 3.83462 0.0116489 3.90586 0.0380194 3.97254C0.0643899 4.03922 0.103717 4.10001 0.153728 4.1514C0.203738 4.20278 0.26344 4.24375 0.329379 4.27192C0.395319 4.30008 0.466189 4.3149 0.537891 4.31551H12.9892C13.5091 4.32359 14.0221 4.43604 14.4978 4.6462C14.9734 4.85636 15.4019 5.15994 15.7579 5.53892C16.114 5.91789 16.3902 6.36454 16.5703 6.85234C16.7504 7.34014 16.8306 7.85916 16.8062 8.37856C16.8062 10.6588 15.7118 12.5519 12.3398 12.5519Z" fill="#3F505D"/>
</g>
</g>
</svg>
