<svg width="89" height="27" viewBox="0 0 89 27" fill="none" xmlns="http://www.w3.org/2000/svg">
<g id="Node.js">
<mask id="mask0_1617_302" style="mask-type:luminance" maskUnits="userSpaceOnUse" x="0" y="0" width="89" height="27">
<g id="Group">
<path id="Vector" d="M89 0H0V26.4595H89V0Z" fill="white"/>
</g>
</mask>
<g mask="url(#mask0_1617_302)">
<g id="Group_2">
<path id="Vector_2" d="M78.3278 26.2516C78.0974 26.2516 77.8828 26.1899 77.6834 26.0818L75.6431 24.8624C75.3361 24.6926 75.4898 24.6308 75.5818 24.6C75.9958 24.461 76.0724 24.4301 76.5021 24.1832C76.5481 24.1523 76.6094 24.1678 76.6554 24.1987L78.2201 25.1402C78.2814 25.1711 78.3581 25.1711 78.4041 25.1402L84.5251 21.5745C84.5861 21.5437 84.6174 21.4819 84.6174 21.4048V14.2889C84.6174 14.2117 84.5861 14.15 84.5251 14.1191L78.4041 10.5689C78.3428 10.538 78.2661 10.538 78.2201 10.5689L72.0994 14.1191C72.0381 14.15 72.0074 14.2271 72.0074 14.2889V21.4048C72.0074 21.4665 72.0381 21.5437 72.0994 21.5745L73.7714 22.547C74.6764 23.0101 75.2441 22.4698 75.2441 21.9296V14.9063C75.2441 14.8137 75.3208 14.7211 75.4284 14.7211H76.2108C76.3028 14.7211 76.3948 14.7983 76.3948 14.9063V21.9296C76.3948 23.149 75.7351 23.859 74.5844 23.859C74.2318 23.859 73.9558 23.859 73.1731 23.4732L71.5624 22.547C71.1638 22.3155 70.9181 21.8833 70.9181 21.4202V14.3044C70.9181 13.8412 71.1638 13.4091 71.5624 13.1775L77.6834 9.6119C78.0668 9.3958 78.5884 9.3958 78.9718 9.6119L85.0928 13.1775C85.4914 13.4091 85.7368 13.8412 85.7368 14.3044V21.4202C85.7368 21.8833 85.4914 22.3155 85.0928 22.547L78.9718 26.1126C78.7878 26.1899 78.5578 26.2516 78.3278 26.2516Z" fill="#5FA04E"/>
<path id="Vector_3" d="M80.23 21.3583C77.545 21.3583 76.9927 20.1234 76.9927 19.0738C76.9927 18.9812 77.0693 18.8885 77.1767 18.8885H77.9743C78.0667 18.8885 78.1433 18.9503 78.1433 19.0429C78.266 19.861 78.6187 20.2624 80.245 20.2624C81.5337 20.2624 82.086 19.9691 82.086 19.2745C82.086 18.8732 81.932 18.5799 79.9227 18.3792C78.2507 18.2093 77.2073 17.8389 77.2073 16.496C77.2073 15.2457 78.2507 14.5048 79.9993 14.5048C81.9633 14.5048 82.9297 15.184 83.0523 16.6658C83.0523 16.7121 83.037 16.7584 83.0067 16.8047C82.9753 16.8356 82.9297 16.8665 82.883 16.8665H82.07C81.994 16.8665 81.917 16.8047 81.9017 16.7275C81.7173 15.8786 81.2417 15.6008 79.984 15.6008C78.5727 15.6008 78.404 16.0947 78.404 16.4651C78.404 16.9127 78.6033 17.0517 80.5057 17.2987C82.3923 17.5456 83.2823 17.9006 83.2823 19.2281C83.2823 20.5864 82.1623 21.3583 80.23 21.3583Z" fill="#5FA04E"/>
<path id="Vector_4" d="M89.0669 13.8874C89.0669 14.5357 88.5295 15.076 87.8849 15.076C87.2409 15.076 86.7039 14.5511 86.7039 13.8874C86.7039 13.2082 87.2562 12.6989 87.8849 12.6989C88.5142 12.6989 89.0669 13.2236 89.0669 13.8874ZM86.8882 13.8874C86.8882 14.4431 87.3332 14.8907 87.8695 14.8907C88.4222 14.8907 88.8672 14.4276 88.8672 13.8874C88.8672 13.3317 88.4222 12.8995 87.8695 12.8995C87.3485 12.8995 86.8882 13.3317 86.8882 13.8874ZM87.4405 13.2236H87.9009C88.0542 13.2236 88.3612 13.2236 88.3612 13.5787C88.3612 13.8256 88.2072 13.872 88.1149 13.9028C88.2995 13.9182 88.3145 14.0418 88.3299 14.2115C88.3452 14.3196 88.3612 14.5048 88.3915 14.5666H88.1149C88.1149 14.5048 88.0692 14.1653 88.0692 14.1498C88.0542 14.0727 88.0235 14.0418 87.9315 14.0418H87.7012V14.582H87.4405V13.2236ZM87.6859 13.8102H87.8849C88.0542 13.8102 88.0845 13.6868 88.0845 13.625C88.0845 13.4398 87.9619 13.4398 87.8849 13.4398H87.6709V13.8102H87.6859Z" fill="#5FA04E"/>
<path id="Vector_5" fill-rule="evenodd" clip-rule="evenodd" d="M14.5579 13.9847C14.5579 13.7068 14.4045 13.4445 14.1591 13.3055L7.67013 9.52377C7.56277 9.46204 7.44003 9.43117 7.3173 9.41577C7.30197 9.41577 7.25597 9.41577 7.25597 9.41577C7.13323 9.41577 7.0105 9.46204 6.90313 9.52377L0.398847 13.2901C0.153403 13.429 0 13.6915 0 13.9847L0.0153403 24.1105C0.0153403 24.2495 0.092042 24.3884 0.214764 24.4501C0.337487 24.5273 0.49089 24.5273 0.598273 24.4501L4.46403 22.2274C4.70947 22.0885 4.86287 21.8261 4.86287 21.5482V16.8094C4.86287 16.5316 5.01627 16.2692 5.26173 16.1303L6.90313 15.1733C7.02587 15.096 7.1639 15.0652 7.30197 15.0652C7.44003 15.0652 7.5781 15.096 7.6855 15.1733L9.32687 16.1303C9.5723 16.2692 9.72577 16.5316 9.72577 16.8094V21.5482C9.72577 21.8261 9.87917 22.0885 10.1246 22.2274L13.9597 24.4501C14.0824 24.5273 14.2358 24.5273 14.3585 24.4501C14.4813 24.3884 14.5579 24.2495 14.5579 24.1105V13.9847Z" fill="#333333"/>
<path id="Vector_6" fill-rule="evenodd" clip-rule="evenodd" d="M45.8215 0.0463073C45.6985 -0.0154358 45.5451 -0.0154358 45.4378 0.0463073C45.3151 0.123485 45.2385 0.246972 45.2385 0.385893V10.4191C45.2385 10.5117 45.1925 10.6043 45.1001 10.6661C45.0081 10.7124 44.9162 10.7124 44.8242 10.6661L43.1982 9.7245C42.9528 9.58563 42.6611 9.58563 42.4158 9.7245L35.9115 13.5063C35.6662 13.6452 35.5128 13.9076 35.5128 14.1854V21.7335C35.5128 22.0114 35.6662 22.2737 35.9115 22.4127L42.4158 26.1945C42.6611 26.3333 42.9528 26.3333 43.1982 26.1945L49.7025 22.4127C49.9478 22.2737 50.1011 22.0114 50.1011 21.7335V2.91736C50.1011 2.62407 49.9478 2.36167 49.7025 2.22275L45.8215 0.0463073ZM45.2231 19.2484C45.2231 19.3255 45.1925 19.3872 45.1311 19.4181L42.9065 20.7148C42.8451 20.7457 42.7685 20.7457 42.7071 20.7148L40.4828 19.4181C40.4215 19.3872 40.3908 19.3101 40.3908 19.2484V16.6552C40.3908 16.578 40.4215 16.5162 40.4828 16.4854L42.7071 15.1888C42.7685 15.1579 42.8451 15.1579 42.9065 15.1888L45.1311 16.4854C45.1925 16.5162 45.2231 16.5934 45.2231 16.6552V19.2484Z" fill="#333333"/>
<path id="Vector_7" fill-rule="evenodd" clip-rule="evenodd" d="M67.4659 16.5934C67.7116 16.4544 67.8496 16.1921 67.8496 15.9142V14.0773C67.8496 13.7995 67.6963 13.5371 67.4659 13.3982L61.0076 9.63193C60.7623 9.49297 60.4709 9.49297 60.2253 9.63193L53.7213 13.4136C53.4756 13.5526 53.3223 13.815 53.3223 14.0928V21.6409C53.3223 21.9187 53.4756 22.1812 53.7213 22.32L60.1793 26.0246C60.4249 26.1635 60.7163 26.1635 60.9463 26.0246L64.8583 23.8328C64.9809 23.7711 65.0576 23.6321 65.0576 23.4931C65.0576 23.3543 64.9809 23.2153 64.8583 23.1536L58.3233 19.3718C58.2006 19.2947 58.1239 19.1712 58.1239 19.0322V16.6706C58.1239 16.5317 58.2006 16.3927 58.3233 16.331L60.3636 15.1579C60.4863 15.0807 60.6396 15.0807 60.7623 15.1579L62.8026 16.331C62.9253 16.4082 63.0019 16.5317 63.0019 16.6706V18.5229C63.0019 18.6618 63.0786 18.8007 63.2016 18.8624C63.3243 18.9396 63.4776 18.9396 63.6003 18.8624L67.4659 16.5934Z" fill="#333333"/>
<path id="Vector_8" fill-rule="evenodd" clip-rule="evenodd" d="M60.5169 16.2385C60.5629 16.2076 60.6245 16.2076 60.6705 16.2385L61.9129 16.964C61.9589 16.9948 61.9895 17.0412 61.9895 17.1029V18.5538C61.9895 18.6156 61.9589 18.6619 61.9129 18.6928L60.6705 19.4183C60.6245 19.4491 60.5629 19.4491 60.5169 19.4183L59.2745 18.6928C59.2285 18.6619 59.1979 18.6156 59.1979 18.5538V17.1029C59.1979 17.0412 59.2285 16.9948 59.2745 16.964L60.5169 16.2385Z" fill="#5FA04E"/>
<path id="Vector_9" d="M25.4337 9.66274C25.1882 9.52388 24.8967 9.52388 24.6513 9.66274L18.193 13.4137C17.9476 13.5526 17.8095 13.815 17.8095 14.0929V21.61C17.8095 21.8879 17.9629 22.1502 18.193 22.2892L24.6513 26.0401C24.8967 26.179 25.1882 26.179 25.4337 26.0401L31.8919 22.2892C32.1374 22.1502 32.2754 21.8879 32.2754 21.61V14.0929C32.2754 13.815 32.122 13.5526 31.8919 13.4137L25.4337 9.66274Z" fill="url(#paint0_linear_1617_302)"/>
<path id="Vector_10" d="M31.9071 13.4135L25.4181 9.66258C25.3567 9.63172 25.2801 9.60085 25.2187 9.58545L17.9474 22.1038C18.0088 22.1809 18.0854 22.2427 18.1622 22.289L24.6511 26.0399C24.8352 26.1479 25.05 26.1788 25.2494 26.1171L32.0759 13.5524C32.0298 13.4907 31.9684 13.4444 31.9071 13.4135Z" fill="url(#paint1_linear_1617_302)"/>
<path id="Vector_11" d="M31.9075 22.289C32.0916 22.1809 32.2297 21.9957 32.291 21.795L25.1884 9.56996C25.0044 9.5391 24.8049 9.55446 24.6362 9.66256L18.1932 13.398L25.1424 26.1479C25.2344 26.1325 25.3419 26.1016 25.4339 26.0553L31.9075 22.289Z" fill="url(#paint2_linear_1617_302)"/>
</g>
</g>
</g>
<defs>
<linearGradient id="paint0_linear_1617_302" x1="27.6727" y1="12.4563" x2="21.7748" y2="24.4136" gradientUnits="userSpaceOnUse">
<stop stop-color="#3F873F"/>
<stop offset="0.3296" stop-color="#3F8B3D"/>
<stop offset="0.6367" stop-color="#3E9638"/>
<stop offset="0.9341" stop-color="#3DA92E"/>
<stop offset="1" stop-color="#3DAE2B"/>
</linearGradient>
<linearGradient id="paint1_linear_1617_302" x1="24.0608" y1="18.729" x2="40.5171" y2="6.64551" gradientUnits="userSpaceOnUse">
<stop offset="0.1376" stop-color="#3F873F"/>
<stop offset="0.4016" stop-color="#52A044"/>
<stop offset="0.7129" stop-color="#64B749"/>
<stop offset="0.9081" stop-color="#6ABF4B"/>
</linearGradient>
<linearGradient id="paint2_linear_1617_302" x1="17.573" y1="17.8488" x2="32.517" y2="17.8488" gradientUnits="userSpaceOnUse">
<stop offset="0.0919165" stop-color="#6ABF4B"/>
<stop offset="0.2871" stop-color="#64B749"/>
<stop offset="0.5984" stop-color="#52A044"/>
<stop offset="0.8624" stop-color="#3F873F"/>
</linearGradient>
</defs>
</svg>
