<svg width="111" height="32" viewBox="0 0 111 32" fill="none" xmlns="http://www.w3.org/2000/svg">
<g id="Python">
<path id="Vector" d="M42.1181 13.6536C42.1181 10.2646 41.1549 8.5247 39.2283 8.42952C38.4616 8.39321 37.7135 8.51563 36.9853 8.79933C36.4042 9.00785 36.0131 9.21452 35.8073 9.42328V17.5125C37.0396 18.2885 38.1338 18.6492 39.0882 18.5924C41.1071 18.4581 42.1181 16.8137 42.1181 13.6536ZM44.4945 13.7942C44.4945 15.5159 44.092 16.9451 43.2824 18.0816C42.3803 19.3679 41.1299 20.0302 39.5313 20.0665C38.3261 20.1049 37.0846 19.7263 35.8071 18.9322V26.2844L33.7403 25.5448V9.22569C34.0795 8.8084 34.5161 8.45 35.045 8.14582C36.2752 7.42668 37.7696 7.0571 39.529 7.03895L39.5582 7.06827C41.1661 7.04803 42.4048 7.71038 43.2755 9.05324C44.0874 10.2851 44.4945 11.8639 44.4945 13.7942ZM57.1252 18.6194C57.1252 20.9288 56.8946 22.5279 56.4334 23.4172C55.9699 24.3062 55.088 25.0163 53.7856 25.545C52.7296 25.9623 51.5876 26.1892 50.3623 26.2279L50.0206 24.9213C51.2665 24.7514 52.1439 24.5811 52.6526 24.4109C53.6543 24.0707 54.3417 23.5491 54.7193 22.8502C55.0223 22.281 55.1715 21.1943 55.1715 19.5862V19.0462C53.7582 19.6907 52.2773 20.0104 50.7286 20.0104C49.7109 20.0104 48.8133 19.6907 48.0399 19.0462C47.1716 18.3453 46.7376 17.4562 46.7376 16.3787V7.74901L48.8043 7.03895V15.7247C48.8043 16.6524 49.1026 17.3671 49.6995 17.8684C50.2964 18.3697 51.0698 18.6103 52.0172 18.592C52.9646 18.5715 53.9798 18.204 55.0583 17.4848V7.35174H57.125L57.1252 18.6194ZM65.1928 19.9532C64.9665 19.9724 64.7394 19.9822 64.5122 19.9825C63.3432 19.9825 62.4318 19.7037 61.7808 19.1433C61.1318 18.5831 60.8063 17.8097 60.8063 16.8227V8.6562H59.3907V7.35197H60.8063V3.88801L62.8707 3.15071V7.35197H65.1928V8.6562H62.8707V16.7659C62.8707 17.5442 63.0785 18.0953 63.4945 18.4176C63.8517 18.683 64.4194 18.8349 65.1926 18.8736V19.9532H65.1928ZM77.7061 19.7831H75.6394V11.7799C75.6394 10.9656 75.4496 10.2646 75.072 9.67952C74.6356 9.01693 74.0297 8.68575 73.2516 8.68575C72.3042 8.68575 71.1195 9.18706 69.6972 10.1897V19.7831H67.6307V0.653276L69.6972 0V8.71299C71.0176 7.74878 72.4603 7.26563 74.0274 7.26563C75.1219 7.26563 76.008 7.63544 76.6866 8.37273C77.3672 9.10979 77.7064 10.0286 77.7064 11.1266L77.7061 19.7831ZM88.6907 13.3271C88.6907 12.025 88.4443 10.9498 87.9534 10.0991C87.37 9.06255 86.4634 8.51563 85.2379 8.45907C82.9721 8.59057 81.8414 10.2192 81.8414 13.3408C81.8414 14.7721 82.0767 15.9677 82.5515 16.9272C83.1575 18.15 84.0666 18.7535 85.2787 18.733C87.5533 18.7146 88.6907 16.9135 88.6907 13.3271ZM90.9541 13.3406C90.9541 15.1941 90.4816 16.7366 89.5386 17.9682C88.5005 19.3476 87.0673 20.0393 85.2379 20.0393C83.4245 20.0393 82.0112 19.3474 80.9915 17.9682C80.0665 16.7366 79.6051 15.1941 79.6051 13.3406C79.6051 11.5986 80.1048 10.1331 81.1044 8.9399C82.1604 7.67407 83.5486 7.03895 85.265 7.03895C86.981 7.03895 88.3784 7.67407 89.4548 8.9399C90.4544 10.1331 90.9541 11.5986 90.9541 13.3406ZM102.802 19.7831H100.736V11.3263C100.736 10.3987 100.458 9.67486 99.9014 9.15308C99.3451 8.63362 98.6032 8.38181 97.6786 8.40206C96.6975 8.42021 95.7633 8.74231 94.8772 9.36626V19.7831H92.8104V9.11002C93.9998 8.24147 95.0943 7.67407 96.0937 7.40876C97.0364 7.1616 97.8686 7.03895 98.5854 7.03895C99.0758 7.03895 99.5374 7.08643 99.9715 7.18185C100.783 7.37013 101.444 7.71946 101.952 8.23216C102.52 8.79933 102.802 9.4796 102.802 10.276V19.7831Z" fill="#646464"/>
<path id="Vector_2" d="M13.3282 0.729842C12.2648 0.734729 11.2494 0.825727 10.3561 0.98445C7.72402 1.45108 7.24614 2.42738 7.24614 4.22826V6.60653H13.466V7.39922H4.91171C3.10411 7.39922 1.52107 8.48933 1.02602 10.563C0.454884 12.9398 0.429598 14.423 1.02602 16.9049C1.46818 18.7523 2.52416 20.0686 4.33176 20.0686H6.47039V17.2177C6.47039 15.158 8.24667 13.3413 10.3561 13.3413H16.5688C18.2982 13.3413 19.6787 11.9128 19.6787 10.1703V4.22802C19.6787 2.537 18.2567 1.26652 16.5688 0.984217C15.5 0.805945 14.3916 0.724722 13.3282 0.729842ZM9.96449 2.64243C10.6071 2.64243 11.1316 3.17747 11.1316 3.83517C11.1316 4.49054 10.6068 5.0207 9.96449 5.0207C9.31982 5.0207 8.7974 4.49078 8.7974 3.83517C8.7974 3.17747 9.31982 2.64243 9.96449 2.64243Z" fill="url(#paint0_linear_1925_366)"/>
<path id="Vector_3" d="M20.4546 7.39905V10.1699C20.4546 12.3183 18.6392 14.1264 16.569 14.1264H10.3563C8.65445 14.1264 7.24632 15.5875 7.24632 17.2973V23.2392C7.24632 24.9304 8.71198 25.9251 10.3563 26.4102C12.3251 26.991 14.2132 27.096 16.569 26.4102C18.1348 25.9554 19.6789 25.0398 19.6789 23.2392V20.8611H13.4662V20.0685H22.7888C24.5967 20.0685 25.2701 18.8033 25.8988 16.9047C26.5483 14.9502 26.5207 13.0702 25.8988 10.5628C25.452 8.7575 24.5988 7.39905 22.7888 7.39905H20.4546ZM16.9603 22.4465C17.605 22.4465 18.1274 22.9764 18.1274 23.632C18.1274 24.2897 17.605 24.8248 16.9603 24.8248C16.3177 24.8248 15.7932 24.2897 15.7932 23.632C15.7932 22.9767 16.318 22.4465 16.9603 22.4465Z" fill="url(#paint1_linear_1925_366)"/>
<path id="Vector_4" d="M106.827 5.50332H107.189V3.22349H108.047V2.95166H105.968V3.22349H106.827L106.827 5.50332ZM108.369 5.50332H108.678V3.42108L109.35 5.50309H109.695L110.395 3.42806V5.50332H110.733V2.95189H110.286L109.521 5.13794L108.868 2.95189H108.369V5.50332Z" fill="#646464"/>
<path id="Vector_5" opacity="0.444" d="M21.872 30.4496C21.872 31.3451 18.1402 32.071 13.5365 32.071C8.93305 32.071 5.20117 31.3451 5.20117 30.4496C5.20117 29.554 8.93305 28.8279 13.5365 28.8279C18.1402 28.8279 21.872 29.554 21.872 30.4496Z" fill="url(#paint2_radial_1925_366)"/>
</g>
<defs>
<linearGradient id="paint0_linear_1925_366" x1="-0.0253177" y1="1.47248" x2="14.3566" y2="13.6868" gradientUnits="userSpaceOnUse">
<stop stop-color="#5A9FD4"/>
<stop offset="1" stop-color="#306998"/>
</linearGradient>
<linearGradient id="paint1_linear_1925_366" x1="19.6998" y1="21.3757" x2="14.5318" y2="14.1578" gradientUnits="userSpaceOnUse">
<stop stop-color="#FFD43B"/>
<stop offset="1" stop-color="#FFE873"/>
</linearGradient>
<radialGradient id="paint2_radial_1925_366" cx="0" cy="0" r="1" gradientUnits="userSpaceOnUse" gradientTransform="translate(13.5338 30.4123) rotate(-90) scale(1.6212 7.1045)">
<stop stop-color="#B8B8B8" stop-opacity="0.498"/>
<stop offset="1" stop-color="#7F7F7F" stop-opacity="0"/>
</radialGradient>
</defs>
</svg>
