<svg width="84" height="24" viewBox="0 0 84 24" fill="none" xmlns="http://www.w3.org/2000/svg">
<g id="Shopify">
<path id="Vector" d="M9.917 0.751237C10.0836 0.751237 10.167 0.834556 10.3336 0.917875C9.33377 1.33447 8.33394 2.41762 7.83403 4.75055L6.00101 5.25046C6.58424 3.58408 7.75071 0.751237 9.917 0.751237ZM10.8335 1.58443C11.0001 2.08434 11.1668 2.66757 11.1668 3.58408C11.1668 3.6674 11.1668 3.6674 11.1668 3.75072L8.75054 4.41727C9.25045 2.66757 10.0836 1.9177 10.8335 1.58443ZM12.9998 3.08417L11.9167 3.41744C11.9167 3.33413 11.9167 3.25081 11.9167 3.16749C11.9167 2.41762 11.8333 1.83438 11.6667 1.33447C12.2499 1.50111 12.7498 2.25098 12.9998 3.08417ZM18.4155 4.41727C18.4155 4.33395 18.3322 4.25063 18.2489 4.25063C18.0823 4.25063 16.3326 4.084 16.3326 4.084C16.3326 4.084 15.0828 2.83421 14.9161 2.75089C14.7495 2.58425 14.4995 2.66757 14.4162 2.66757C14.4162 2.66757 14.1663 2.75089 13.7497 2.91753C13.3331 1.75106 12.5832 0.667918 11.3334 0.667918H11.2501C10.9168 0.168004 10.4169 0.00136583 10.0003 0.00136583C7.00084 -0.0819532 5.58441 3.6674 5.0845 5.58374C4.41795 5.75038 3.75139 6.00033 3.00152 6.25029C2.33497 6.41693 2.33497 6.50025 2.25165 7.08348C2.16833 7.50008 0.501953 20.6645 0.501953 20.6645L13.7497 23.164L20.9151 21.581C20.9151 21.581 18.4155 4.58391 18.4155 4.41727Z" fill="#8DB849"/>
<path id="Vector_2" d="M18.1658 4.25066C18.0825 4.25066 16.3328 4.08403 16.3328 4.08403C16.3328 4.08403 15.083 2.83424 14.9163 2.75092C14.833 2.6676 14.833 2.6676 14.7497 2.6676L13.7499 23.1641L20.9153 21.581C20.9153 21.581 18.4157 4.58394 18.4157 4.4173C18.4157 4.33398 18.2491 4.25066 18.1658 4.25066Z" fill="#5A863E"/>
<path id="Vector_3" d="M11.3336 8.24993L10.4171 10.9161C10.4171 10.9161 9.66719 10.4995 8.66736 10.4995C7.25094 10.4995 7.16762 11.3327 7.16762 11.5827C7.16762 12.7492 10.3337 13.2491 10.3337 16.0819C10.3337 18.3315 8.91732 19.748 7.00098 19.748C4.75137 19.748 3.5849 18.3315 3.5849 18.3315L4.16813 16.3319C4.16813 16.3319 5.3346 17.3317 6.33443 17.3317C7.00098 17.3317 7.25094 16.8318 7.25094 16.4152C7.25094 14.8321 4.66805 14.7488 4.66805 12.1659C4.66805 9.99963 6.25111 7.91666 9.33391 7.91666C10.7503 7.83334 11.3336 8.24993 11.3336 8.24993Z" fill="#FFFFFE"/>
<path id="Vector_4" d="M29.3303 13.1658C28.5805 12.7492 28.2472 12.4159 28.2472 11.9993C28.2472 11.4161 28.7471 11.0828 29.5803 11.0828C30.4968 11.0828 31.33 11.4994 31.33 11.4994L31.9965 9.49975C31.9965 9.49975 31.4133 8.99984 29.6636 8.99984C27.164 8.99984 25.4976 10.4163 25.4976 12.4159C25.4976 13.5824 26.3308 14.4156 27.3307 14.9988C28.1639 15.4987 28.4971 15.832 28.4971 16.3319C28.4971 16.8318 28.0805 17.3317 27.2473 17.3317C26.0809 17.3317 24.9144 16.7485 24.9144 16.7485L24.2479 18.7482C24.2479 18.7482 25.2477 19.4147 26.9974 19.4147C29.497 19.4147 31.33 18.1649 31.33 15.9153C31.33 14.6655 30.4135 13.749 29.3303 13.1658ZM39.4119 8.91652C38.1621 8.91652 37.1623 9.49975 36.4124 10.4163L37.4956 4.75057H34.6627L31.9132 19.1648H34.7461L35.6626 14.2489C35.9958 12.4159 36.9957 11.2494 37.9122 11.2494C38.5787 11.2494 38.8287 11.666 38.8287 12.3326C38.8287 12.7492 38.8287 13.1658 38.7454 13.5824L37.6622 19.2481H40.4951L41.5782 13.4157C41.6615 12.8325 41.7449 12.0826 41.7449 11.5827C41.7449 9.91635 40.9117 8.91652 39.4119 8.91652ZM46.6607 17.1651C45.6608 17.1651 45.3276 16.3319 45.3276 15.3321C45.3276 13.749 46.1608 11.0828 47.6605 11.0828C48.6603 11.0828 48.9936 11.916 48.9936 12.7492C48.9936 14.5822 48.1604 17.1651 46.6607 17.1651ZM48.0771 8.91652C44.661 8.91652 42.4114 11.9993 42.4114 15.4154C42.4114 17.5817 43.7445 19.3314 46.3274 19.3314C49.6602 19.3314 51.9098 16.3319 51.9098 12.8325C51.9098 10.8329 50.7433 8.91652 48.0771 8.91652ZM56.409 17.2484C55.6591 17.2484 55.2425 16.8318 55.2425 16.8318L55.7424 14.1656C56.0757 12.4159 56.9922 11.2494 57.9921 11.2494C58.8252 11.2494 59.1585 12.0826 59.1585 12.8325C59.0752 14.6655 57.9921 17.2484 56.409 17.2484ZM59.1585 8.91652C57.2422 8.91652 56.159 10.5829 56.159 10.5829L56.3257 9.08316H53.8261C53.7428 10.083 53.4928 11.666 53.2429 12.8325L51.2432 23.1641H54.0761L54.8259 18.9981H54.9093C54.9093 18.9981 55.4925 19.3314 56.5756 19.3314C59.9084 19.3314 62.0747 15.9153 62.0747 12.4992C62.0747 10.6662 61.2415 8.91652 59.1585 8.91652ZM66.074 4.91721C65.1575 4.91721 64.4909 5.66708 64.4909 6.58359C64.4909 7.41678 64.9909 8.00001 65.824 8.00001C66.7406 8.00001 67.4904 7.41677 67.4904 6.33363C67.4904 5.50044 66.9072 4.91721 66.074 4.91721ZM62.158 19.1648H64.9909L66.9072 9.16647H64.0743L62.158 19.1648ZM74.0726 9.16647H72.073L72.1563 8.66656C72.3229 7.66673 72.9062 6.83354 73.8227 6.83354C74.3226 6.83354 74.7392 7.00018 74.7392 7.00018L75.3224 4.75057C75.3224 4.75057 74.8225 4.50061 73.8227 4.50061C72.8228 4.50061 71.823 4.75057 71.0731 5.41712C70.0733 6.25031 69.6567 7.41677 69.4068 8.58324L69.3234 9.08316H67.9903L67.5737 11.2494H68.9068L67.4071 19.1648H70.2399L71.7397 11.2494H73.656L74.0726 9.16647ZM80.8215 9.16647C80.8215 9.16647 79.0718 13.5824 78.2386 15.9986C78.1553 15.2488 77.572 9.16647 77.572 9.16647H74.5725L76.2389 18.3316C76.2389 18.4982 76.2389 18.6648 76.1556 18.8315C75.8223 19.498 75.2391 20.0813 74.6559 20.4979C74.1559 20.9145 73.4894 21.1644 73.0728 21.331L73.8227 23.7473C74.4059 23.664 75.5724 23.1641 76.5722 22.2476C77.822 21.0811 79.0718 19.1648 80.2382 16.6652L83.6543 9.24979L80.8215 9.16647Z" fill="#1A1919"/>
</g>
</svg>
