<svg width="45" height="45" viewBox="0 0 45 45" fill="none" xmlns="http://www.w3.org/2000/svg">
<g id="Stressed" opacity="0.6" filter="url(#filter0_d_99_539)">
<path id="Vector" d="M3 35.5148C3.20616 34.2423 3.92112 33.1993 4.54163 32.1147C6.71495 28.3185 8.89334 24.5253 11.0677 20.7302C11.2434 20.4235 11.4231 20.1381 11.8253 20.1208C12.0132 20.1127 11.9614 19.9786 11.9522 19.87C11.8801 19.023 11.8161 18.175 11.7319 17.33C11.5887 15.8859 12.0243 14.6469 13.0562 13.6354C13.374 13.3236 13.5761 12.9905 13.7051 12.5599C14.872 8.64491 18.5392 5.94654 22.5741 6.00849C26.7501 6.07247 30.3025 8.82872 31.3821 12.8463C31.4288 13.02 31.4674 13.1835 31.6156 13.3094C33.0781 14.5586 33.4934 16.1621 33.2192 18.0105C33.1278 18.6239 33.1075 19.2484 33.0415 19.8669C33.0232 20.0396 33.0496 20.1208 33.2446 20.133C33.5219 20.1513 33.7016 20.3331 33.8336 20.5626C34.7741 22.2007 35.7155 23.8388 36.6508 25.48C36.9068 25.9289 36.7991 26.3798 36.4061 26.6001C36.009 26.8225 35.5875 26.6824 35.3204 26.2193C34.5415 24.8686 33.7636 23.5169 32.9999 22.157C32.8678 21.9214 32.7673 21.8747 32.5093 21.9996C31.4268 22.5267 30.334 23.0325 29.2372 23.527C28.9955 23.6357 28.962 23.7383 29.0513 23.98C30.6793 28.3896 32.293 32.8042 33.924 37.2128C34.4724 38.6945 35.7967 39.5557 37.316 39.4714C38.748 39.3912 39.9849 38.3685 40.3607 36.9518C40.5933 36.0754 40.4744 35.2406 40.0357 34.4525C39.6346 33.7325 39.2151 33.0236 38.812 32.3036C38.6353 31.9877 38.6383 31.6648 38.8871 31.3845C39.1116 31.1326 39.401 31.0707 39.7199 31.1814C39.8935 31.2423 40.0235 31.3632 40.1139 31.5226C40.5841 32.3493 41.0594 33.1719 41.5195 34.0036C41.7794 34.4728 41.8526 35.006 41.9968 35.5148V36.6573C41.9724 36.7416 41.9409 36.8239 41.9257 36.9092C41.6159 38.5645 40.7019 39.7619 39.205 40.5236C38.7155 40.7724 38.1782 40.8628 37.6552 40.9989H7.34155C7.25828 40.9745 7.175 40.944 7.08969 40.9268C5.17433 40.551 3.8937 39.4369 3.24069 37.6038C3.13202 37.2991 3.07921 36.9731 3 36.6573C3 36.2765 3 35.8956 3 35.5148ZM33.5544 39.4613C32.7358 38.6285 32.4433 37.6109 32.0838 36.6279C31.505 35.0456 30.9139 33.4674 30.3482 31.8811C30.2568 31.6252 30.1177 31.5256 29.8679 31.4911C29.2402 31.4038 28.5994 31.356 27.9941 31.1844C27.4498 31.0311 27.0872 31.158 26.6465 31.4942C24.074 33.4562 20.5287 33.3394 18.0263 31.2616C17.9095 31.1651 17.8253 30.9783 17.616 31.0473C16.9488 31.2667 16.2521 31.3632 15.5616 31.4119C14.9309 31.4576 14.7004 31.7694 14.479 32.3239C13.5253 34.7084 12.981 37.2646 11.5602 39.4603H33.5554L33.5544 39.4613ZM7.89504 39.4755C9.33511 39.4735 10.5558 38.6163 11.0819 37.1935C12.7109 32.787 14.3236 28.3743 15.9525 23.9668C16.048 23.7088 15.9769 23.6245 15.7494 23.522C14.6648 23.0304 13.5842 22.5297 12.5138 22.0098C12.2549 21.8838 12.1391 21.9092 11.9939 22.1662C10.7762 24.3161 9.5433 26.459 8.31447 28.6028C7.21156 30.5263 6.09342 32.4427 5.00575 34.3753C3.69871 36.6979 5.28401 39.4806 7.89504 39.4765V39.4755ZM22.4491 27.3974C24.4721 27.3649 26.0899 26.6001 27.3777 25.1154C27.6153 24.8422 27.7413 24.5964 27.5381 24.242C27.4142 24.0257 27.3533 23.7708 27.2771 23.5291C27.1563 23.1421 27.2629 22.8131 27.6214 22.6232C27.8388 22.5074 27.8631 22.3967 27.8002 22.1784C27.527 21.2288 27.4589 20.26 27.5747 19.2769C27.6194 18.8991 27.6519 18.5193 27.6722 18.1394C27.7006 17.6022 27.5087 17.3585 26.9887 17.263C24.8723 16.8751 22.8777 16.1307 21.2173 14.7718C20.3489 14.0609 19.6807 14.1483 18.8723 14.6591C18.7545 14.7332 18.6326 14.8013 18.5108 14.8693C18.4183 14.9211 18.3523 14.9881 18.3259 15.0968C18.1309 15.9133 17.7796 16.676 17.483 17.456C17.3479 17.8114 17.3083 18.1547 17.355 18.5315C17.5104 19.7847 17.5632 21.0369 17.1733 22.2637C17.1215 22.4282 17.1773 22.5023 17.3225 22.5897C17.7694 22.8588 17.8598 23.1523 17.6841 23.655C17.5998 23.8937 17.5246 24.1384 17.4129 24.3649C17.2941 24.6056 17.3479 24.7823 17.5094 24.9803C18.8022 26.5615 20.4678 27.3608 22.4491 27.3994V27.3974ZM26.7846 15.6594C26.7744 15.563 26.7775 15.5244 26.7653 15.4908C26.1834 13.8883 27.3432 12.043 29.1915 12.0267C29.5581 12.0237 29.3956 11.847 29.3174 11.7048C27.8367 9.02777 25.573 7.55317 22.5091 7.55114C19.4471 7.55012 17.1783 9.01559 15.6865 11.6855C15.5616 11.9079 15.5209 12.0227 15.8652 12.0318C16.7315 12.0542 17.4272 12.434 17.9156 13.154C18.0385 13.3358 18.1289 13.3399 18.3066 13.2454C18.855 12.9519 19.44 12.7478 20.0351 12.565C20.4728 12.4299 20.811 12.5173 21.1482 12.8189C22.0409 13.6192 23.0443 14.26 24.1299 14.7657C24.9677 15.1557 25.834 15.4665 26.7856 15.6594H26.7846ZM15.7555 13.5491C15.5341 13.5521 15.3158 13.5968 15.1513 13.7461C14.6638 14.1889 14.1479 14.6093 13.7569 15.1466C13.371 15.6767 13.1841 16.285 13.2298 16.937C13.3141 18.1394 13.4339 19.3388 13.5304 20.5402C13.5477 20.7566 13.6381 20.8754 13.8392 20.9627C14.3744 21.1943 14.9065 21.4339 15.4245 21.701C15.6997 21.8432 15.7464 21.7437 15.8073 21.4949C16.046 20.523 15.9343 19.5501 15.8297 18.5802C15.7728 18.0531 15.7931 17.5585 16.0074 17.0569C16.3009 16.3703 16.5578 15.6665 16.7924 14.9567C17.0321 14.2336 16.503 13.5389 15.7555 13.5491ZM29.032 20.1361C29.0351 20.5971 29.1072 21.046 29.1905 21.4969C29.2392 21.761 29.3154 21.8361 29.5774 21.7021C30.074 21.4482 30.5757 21.2004 31.0926 20.9952C31.3811 20.8805 31.4572 20.6997 31.4785 20.4235C31.5659 19.3104 31.6735 18.1994 31.7609 17.0863C31.8279 16.2353 31.5821 15.4776 30.9982 14.849C30.6966 14.524 30.3685 14.2224 30.0456 13.9167C29.6079 13.5034 29.0635 13.4333 28.6248 13.7248C28.179 14.0203 28.0348 14.5321 28.247 15.1059C28.5243 15.8544 28.8046 16.6019 29.094 17.3463C29.1884 17.589 29.2281 17.8307 29.2047 18.0897C29.1438 18.7721 29.0889 19.4546 29.031 20.1371L29.032 20.1361ZM22.4694 31.3662C23.6912 31.353 24.7677 30.9986 25.7325 30.2988C25.9183 30.1638 25.9488 30.0744 25.7924 29.8865C25.5151 29.5524 25.3283 29.1614 25.2267 28.7359C25.18 28.5389 25.114 28.4759 24.8885 28.546C23.2951 29.0466 21.6936 29.0477 20.1001 28.545C19.8706 28.4728 19.8117 28.549 19.766 28.741C19.6644 29.1665 19.4766 29.5575 19.1993 29.8906C19.0348 30.0876 19.0937 30.1709 19.2704 30.2999C20.2352 31.0016 21.3107 31.355 22.4684 31.3662H22.4694ZM29.6109 29.9038C29.1884 28.7562 28.7822 27.6685 28.3892 26.5768C28.313 26.3635 28.2409 26.4305 28.1373 26.5392C27.724 26.9698 27.2629 27.3456 26.7612 27.6685C26.6495 27.7396 26.6069 27.8239 26.6262 27.9519C26.7298 28.6414 27.0304 29.2091 27.6803 29.5199C28.2714 29.8032 28.9254 29.79 29.6109 29.9048V29.9038ZM15.3828 29.9139C15.9048 29.8327 16.3679 29.7799 16.8219 29.6864C17.6485 29.5158 18.2508 28.8476 18.3635 28.0148C18.3808 27.8858 18.397 27.766 18.262 27.6807C17.7349 27.3496 17.2596 26.9536 16.827 26.5057C16.7345 26.4092 16.6746 26.397 16.6198 26.5494C16.2196 27.6492 15.8134 28.7481 15.3838 29.9139H15.3828Z" fill="white"/>
<path id="Vector_2" d="M3 9.8463C3.40115 9.26134 3.66621 9.18619 4.305 9.48882C5.43736 10.0261 6.56566 10.5714 7.70005 11.1026C8.03417 11.259 8.29009 11.4671 8.29822 11.8592C8.30634 12.2309 8.08292 12.4583 7.7691 12.6269C7.42381 12.8118 7.08969 13.0179 6.74846 13.216C6.80838 13.3602 6.94142 13.3866 7.04501 13.4465C7.82395 13.8944 8.61 14.3321 9.38589 14.787C9.82258 15.043 9.95054 15.4624 9.74032 15.8483C9.52401 16.2434 9.07411 16.353 8.6232 16.0981C7.35475 15.3832 6.08733 14.6662 4.82701 13.936C4.24001 13.5958 4.25016 12.9225 4.83615 12.5619C5.16925 12.3568 5.5115 12.1659 5.90046 11.9384C5.13879 11.5748 4.42789 11.2275 3.70887 10.8964C3.41334 10.7603 3.15944 10.5927 3.00102 10.3023V9.84529L3 9.8463Z" fill="white"/>
<path id="Vector_3" d="M9.32188 2.00098C9.82357 2.37267 10.1993 2.8703 10.6218 3.31918C11.2047 3.93766 11.7735 4.56833 12.3534 5.18884C12.591 5.44375 12.7545 5.71491 12.6326 6.07747C12.5057 6.45729 12.197 6.57712 11.8385 6.62587C11.4515 6.67868 11.0646 6.73555 10.6167 6.79852C11.1804 7.50738 11.7064 8.17055 12.2315 8.83372C12.3655 9.0023 12.5087 9.16581 12.6235 9.34658C12.849 9.7 12.7697 10.1225 12.4508 10.3642C12.1381 10.6008 11.7318 10.5825 11.4536 10.2768C11.1641 9.95896 10.9052 9.61266 10.637 9.27549C9.98099 8.45288 9.32595 7.62925 8.67395 6.8036C8.19867 6.20136 8.42717 5.5971 9.18174 5.46203C9.5514 5.39602 9.92412 5.35133 10.3649 5.28634C9.7667 4.63637 9.22033 4.04024 8.67091 3.44613C8.13672 2.86827 8.19562 2.41939 8.86488 2.00098H9.32188Z" fill="white"/>
<path id="Vector_4" d="M36.1329 2.00102C36.8011 2.42045 36.8611 2.86933 36.3269 3.4482C35.7785 4.04231 35.2311 4.63844 34.6339 5.28739C35.0371 5.34528 35.3722 5.39301 35.7063 5.44074C36.5848 5.56769 36.8255 6.16992 36.2741 6.86558C35.4321 7.92888 34.5872 8.99015 33.7433 10.0524C33.7118 10.092 33.6803 10.1317 33.6468 10.1702C33.2995 10.5704 32.8628 10.6344 32.5134 10.3368C32.1783 10.0514 32.1508 9.61574 32.4616 9.21866C33.008 8.51994 33.5655 7.82936 34.115 7.13166C34.1911 7.03518 34.3028 6.95902 34.3211 6.79246C33.8956 6.72848 33.4711 6.66146 33.0466 6.60154C32.7165 6.55584 32.4758 6.39842 32.3651 6.07649C32.2534 5.75049 32.3722 5.48644 32.5947 5.24677C33.4914 4.27995 34.3821 3.30704 35.2798 2.34123C35.3976 2.21428 35.5428 2.11273 35.6759 2C35.8282 2 35.9806 2 36.1329 2V2.00102Z" fill="white"/>
<path id="Vector_5" d="M41.9978 10.3033C41.8383 10.5917 41.5875 10.7643 41.2919 10.9004C40.579 11.2274 39.8732 11.5697 39.0963 11.9383C39.4619 12.1516 39.7818 12.3344 40.0986 12.5223C40.7699 12.9214 40.7781 13.5866 40.1037 13.9755C38.8759 14.6854 37.641 15.3841 36.4071 16.0828C35.9287 16.353 35.4798 16.2545 35.2574 15.8472C35.0401 15.4501 35.1843 15.0368 35.6474 14.7687C36.5127 14.269 37.381 13.7765 38.3052 13.2484C37.8939 13.0097 37.5323 12.7934 37.1637 12.5883C36.8732 12.4268 36.6924 12.1942 36.7006 11.8591C36.7097 11.5067 36.9169 11.2863 37.2317 11.138C38.3773 10.5998 39.5188 10.0524 40.6613 9.50603C41.3305 9.18613 41.5925 9.25112 41.9998 9.84523V10.3022L41.9978 10.3033Z" fill="white"/>
<path id="Vector_6" d="M38.5022 28.9114C38.5002 29.3349 38.1782 29.6568 37.7558 29.6589C37.3394 29.6619 36.9971 29.3329 36.988 28.9226C36.9778 28.5082 37.3485 28.1365 37.7639 28.1457C38.1752 28.1538 38.5042 28.496 38.5022 28.9114Z" fill="white"/>
<path id="Vector_7" d="M22.4969 22.6242C23.1478 22.6181 23.7125 22.8405 24.1847 23.2843C24.5331 23.6113 24.5666 24.0379 24.2873 24.369C24.0151 24.6909 23.5764 24.7203 23.1996 24.4401C22.6644 24.0419 22.3323 24.0419 21.8002 24.438C21.4234 24.7183 20.9857 24.6919 20.7115 24.371C20.4302 24.0419 20.4647 23.6144 20.81 23.2874C21.2823 22.8415 21.8459 22.6202 22.4959 22.6232L22.4969 22.6242Z" fill="white"/>
<path id="Vector_8" d="M26.1397 20.3676C26.1437 20.9211 25.6248 21.2816 25.0967 21.0968C24.8235 21.0003 24.5574 20.8754 24.3025 20.7373C23.9298 20.5342 23.7998 20.132 23.9633 19.7624C24.1228 19.4028 24.5239 19.2251 24.9149 19.3683C25.1993 19.4719 25.4735 19.6049 25.7446 19.74C26.0077 19.871 26.1102 20.1117 26.1397 20.3697V20.3676Z" fill="white"/>
<path id="Vector_9" d="M19.7112 21.1455C19.2795 21.1526 19.0013 20.9495 18.8987 20.6042C18.7951 20.2559 18.9028 19.9563 19.1983 19.7786C19.4979 19.5968 19.831 19.4587 20.1651 19.347C20.5053 19.2332 20.7877 19.3795 20.9816 19.6719C21.1746 19.9624 21.1512 20.3483 20.8953 20.5788C20.5409 20.8987 20.089 21.0338 19.7112 21.1465V21.1455Z" fill="white"/>
</g>
<defs>
<filter id="filter0_d_99_539" x="0.700603" y="0.850302" width="43.5986" height="43.5977" filterUnits="userSpaceOnUse" color-interpolation-filters="sRGB">
<feFlood flood-opacity="0" result="BackgroundImageFix"/>
<feColorMatrix in="SourceAlpha" type="matrix" values="0 0 0 0 0 0 0 0 0 0 0 0 0 0 0 0 0 0 127 0" result="hardAlpha"/>
<feOffset dy="1.1497"/>
<feGaussianBlur stdDeviation="1.1497"/>
<feComposite in2="hardAlpha" operator="out"/>
<feColorMatrix type="matrix" values="0 0 0 0 0 0 0 0 0 0 0 0 0 0 0 0 0 0 0.1 0"/>
<feBlend mode="normal" in2="BackgroundImageFix" result="effect1_dropShadow_99_539"/>
<feBlend mode="normal" in="SourceGraphic" in2="effect1_dropShadow_99_539" result="shape"/>
</filter>
</defs>
</svg>
