<svg width="25" height="26" viewBox="0 0 25 26" fill="none" xmlns="http://www.w3.org/2000/svg">
<g id="Group">
<path id="Vector" d="M24.929 13.3949C24.929 6.50896 19.3485 0.926758 12.4645 0.926758C5.58056 0.926758 0 6.50896 0 13.3949C0 20.2809 5.58056 25.8631 12.4645 25.8631C19.3485 25.8631 24.929 20.2809 24.929 13.3949Z" fill="#FF0209"/>
<g id="Group_2">
<path id="Vector_2" d="M17.7557 18.9173C17.3843 18.9576 17.0042 18.9646 16.6398 18.9637C13.7976 18.9611 10.9554 18.9585 8.11409 18.9567C7.21983 18.9567 6.24586 18.9278 5.5548 18.3592C4.77615 17.717 4.61412 16.6034 4.55106 15.5959C4.46347 14.2151 4.45646 12.8299 4.52828 11.4483C4.5677 10.6895 4.63689 9.91242 4.96359 9.22554C5.19832 8.73228 5.58984 8.28896 6.09083 8.0559C6.67329 7.78518 7.2829 7.83337 7.91002 7.83249C9.41126 7.83074 10.9125 7.82986 12.4138 7.82811C13.9746 7.82636 15.5362 7.82548 17.097 7.82373C17.8345 7.82373 18.6263 7.83862 19.228 8.2653C20.0049 8.81551 20.216 9.86248 20.3132 10.8096C20.4928 12.554 20.4954 14.3167 20.3202 16.0611C20.2475 16.7804 20.1267 17.5409 19.6528 18.0867C19.1834 18.6282 18.487 18.8367 17.7566 18.9164L17.7557 18.9173Z" fill="white"/>
<path id="Vector_3" d="M15.0065 13.3951L10.7708 10.949V15.8413L15.0065 13.3951Z" fill="#FF0209"/>
</g>
</g>
</svg>
